<svg width="18" height="12" viewBox="0 0 18 12" fill="none" xmlns="http://www.w3.org/2000/svg">
<path d="M12 12C11.7 12 11.5 11.9 11.3 11.7C10.9 11.3 10.9 10.7 11.3 10.3L16.3 5.3C16.7 4.9 17.3 4.9 17.7 5.3C18.1 5.7 18.1 6.3 17.7 6.7L12.7 11.7C12.5 11.9 12.3 12 12 12Z" fill="#1DAE1A"/>
<path d="M17 7C16.7 7 16.5 6.9 16.3 6.7L11.3 1.7C10.9 1.3 10.9 0.7 11.3 0.3C11.7 -0.1 12.3 -0.1 12.7 0.3L17.7 5.3C18.1 5.7 18.1 6.3 17.7 6.7C17.5 6.9 17.3 7 17 7Z" fill="#1DAE1A"/>
<path d="M17 7H1C0.4 7 0 6.6 0 6C0 5.4 0.4 5 1 5H17C17.6 5 18 5.4 18 6C18 6.6 17.6 7 17 7Z" fill="#1DAE1A"/>
</svg>
