<svg width="21" height="20" viewBox="0 0 21 20" fill="none" xmlns="http://www.w3.org/2000/svg">
<path d="M15.4 20C6.89938 19.989 0.011 13.1006 0 4.59999C3.83606e-07 2.05948 2.05949 -7.77503e-06 4.6 -7.77503e-06C4.85834 -0.00197558 5.11625 0.0214704 5.37 0.0699919L5.37 0.0699922C5.61531 0.106293 5.85646 0.166581 6.09 0.249991H6.09C6.42419 0.367247 6.67143 0.652526 6.74 0.999992L8.11 6.99999C8.18503 7.33091 8.08714 7.6773 7.85 7.91999C7.72 8.05999 7.71 8.06999 6.48 8.70999C7.46499 10.8709 9.1932 12.6062 11.35 13.6C12 12.36 12.01 12.35 12.15 12.22C12.3927 11.9829 12.7391 11.885 13.07 11.96L19.07 13.33C19.4061 13.408 19.6782 13.6536 19.79 13.98C19.8744 14.2174 19.938 14.4616 19.98 14.71V14.71C20.0202 14.9613 20.0403 15.2155 20.04 15.47V15.47C20.0016 17.9988 17.929 20.0223 15.4 20L15.4 20ZM4.6 1.99999C3.16634 2.00548 2.00548 3.16633 2 4.59999L2 4.59926C2.00511 11.9976 8.00094 17.9941 15.3993 18C16.8333 17.9949 17.9946 16.8339 18 15.4C18 15.29 18 15.18 18 15.07L13.36 14L13.07 14.55C12.62 15.42 12.29 16.05 11.45 15.71H11.45C8.09416 14.5088 5.45722 11.8608 4.27004 8.49996C3.91004 7.71996 4.59004 7.35996 5.45004 6.90996L6.00004 6.63996L4.93004 1.99996L4.6 1.99999Z" fill="#1DAE1A"/>
</svg>
