<svg width="14" height="11" viewBox="0 0 14 11" fill="none" xmlns="http://www.w3.org/2000/svg">
<path d="M13.926 1.26044L12.7818 0.078369C12.7363 0.0261229 12.6648 0 12.5997 0C12.5282 0 12.4632 0.0261229 12.4177 0.078369L4.48597 8.10468L1.59935 5.20502C1.54734 5.15277 1.48232 5.12665 1.41731 5.12665C1.35229 5.12665 1.28728 5.15277 1.23527 5.20502L0.078017 6.3675C-0.0260056 6.47199 -0.0260056 6.63526 0.078017 6.73975L3.71881 10.397C3.95286 10.6321 4.23892 10.7692 4.47947 10.7692C4.82405 10.7692 5.12311 10.5145 5.23364 10.41C5.23364 10.41 5.23364 10.41 5.24014 10.41L13.9325 1.63269C14.0235 1.52167 14.0235 1.3584 13.926 1.26044V1.26044Z" fill="#34349E"/>
</svg>
