<svg width="26" height="26" viewBox="0 0 26 26" fill="none" xmlns="http://www.w3.org/2000/svg">
<path d="M5.41683 21.6667C4.81853 21.6667 4.3335 21.1816 4.3335 20.5833C4.3335 19.985 4.81853 19.5 5.41683 19.5H20.5835C21.1818 19.5 21.6668 19.985 21.6668 20.5833C21.6668 21.1816 21.1818 21.6667 20.5835 21.6667H5.41683Z" fill="#1DAE1A"/>
<path d="M6.50016 20.5833C6.50016 21.1816 6.01513 21.6666 5.41683 21.6666C4.81853 21.6666 4.3335 21.1816 4.3335 20.5833V18.4166C4.3335 17.8183 4.81853 17.3333 5.41683 17.3333C6.01513 17.3333 6.50016 17.8183 6.50016 18.4166V20.5833Z" fill="#1DAE1A"/>
<path d="M21.6667 20.5833C21.6667 21.1816 21.1816 21.6666 20.5833 21.6666C19.985 21.6666 19.5 21.1816 19.5 20.5833V18.4166C19.5 17.8183 19.985 17.3333 20.5833 17.3333C21.1816 17.3333 21.6667 17.8183 21.6667 18.4166V20.5833Z" fill="#1DAE1A"/>
<path d="M12.9998 16.25C12.7752 16.2517 12.5557 16.1835 12.3715 16.055L8.03816 13C7.55194 12.6551 7.43575 11.9821 7.77816 11.4941C8.12151 11.0042 8.79706 10.8853 9.28705 11.2286C9.28965 11.2305 9.29225 11.2323 9.29483 11.2341L12.9998 13.8233L16.6832 11.05C17.1618 10.691 17.8408 10.788 18.1998 11.2666C18.5588 11.7453 18.4618 12.4243 17.9832 12.7833L13.6498 16.0333C13.4623 16.174 13.2342 16.25 12.9998 16.25H12.9998Z" fill="#1DAE1A"/>
<path d="M12.9998 14.0833C12.4015 14.0833 11.9165 13.5983 11.9165 13V4.33333C11.9165 3.73502 12.4015 3.25 12.9998 3.25C13.5981 3.25 14.0832 3.73502 14.0832 4.33333V13C14.0832 13.5983 13.5981 14.0833 12.9998 14.0833Z" fill="#1DAE1A"/>
</svg>
