<svg width="21" height="21" viewBox="0 0 21 21" fill="none" xmlns="http://www.w3.org/2000/svg">
<path d="M15.5 9.625C15.0168 9.625 14.625 10.0168 14.625 10.5V15.75C14.625 16.2332 15.2332 16.625 14.75 16.625H5.25C4.76675 16.625 4.375 16.2332 4.375 15.75V7.25C4.375 6.76675 4.76675 6.375 5.25 6.375H10.5C10.9832 6.375 11.375 5.98325 11.375 5.5C11.375 5.01675 10.9832 4.625 10.5 4.625H5.25C3.80026 4.625 2.625 5.80026 2.625 7.25V15.75C2.625 17.1997 3.80026 18.375 5.25 18.375H14.75C16.1997 18.375 16.375 17.1997 16.375 15.75V10.5C16.375 10.0168 15.9832 9.625 15.5 9.625Z" fill="#1DAE1A"/>
<path d="M14.0002 4.375H15.3827L9.87894 9.87C9.53583 10.2103 9.53356 10.7643 9.87387 11.1074C9.87555 11.1091 9.87724 11.1108 9.87894 11.1125C10.2192 11.4556 10.7733 11.4579 11.1164 11.1176C11.1181 11.1159 11.1198 11.1142 11.1214 11.1125L16.6252 5.6175V7C16.6252 7.48325 17.0169 7.875 17.5002 7.875C17.9834 7.875 18.3752 7.48325 18.3752 7V3.5C18.3752 3.01675 17.9834 2.625 17.5002 2.625H14.0002C13.5169 2.625 13.1252 3.01675 13.1252 3.5C13.1252 3.98325 13.5169 4.375 14.0002 4.375L14.0002 4.375Z" fill="#1DAE1A"/>
</svg>
