<svg width="19" height="19" viewBox="0 0 19 19" fill="none" xmlns="http://www.w3.org/2000/svg">
<g clip-path="url(#clip0)">
<path fill-rule="evenodd" clip-rule="evenodd" d="M10.1483 19H1.04841C0.469084 19 -0.000244141 18.5304 -0.000244141 17.9513V1.04865C-0.000244141 0.469401 0.469159 0 1.04841 0H17.9512C18.5303 0 18.9998 0.469401 18.9998 1.04865V17.9513C18.9998 18.5305 18.5302 19 17.9512 19H13.1095V11.6422H15.5791L15.9489 8.7747H13.1095V6.94399C13.1095 6.11379 13.34 5.54803 14.5305 5.54803L16.0489 5.54737V2.98267C15.7863 2.94772 14.885 2.86965 13.8363 2.86965C11.6471 2.86965 10.1482 4.20596 10.1482 6.66V8.7747H7.67222V11.6422H10.1482V19L10.1483 19Z" fill="#34349E"/>
</g>
<defs>
<clipPath id="clip0">
<rect width="19" height="19" fill="white"/>
</clipPath>
</defs>
</svg>
