<svg width="14" height="11" viewBox="0 0 14 11" fill="none" xmlns="http://www.w3.org/2000/svg">
<path d="M13.7242 1.26044L12.5965 0.078369C12.5517 0.0261229 12.4812 0 12.4171 0C12.3467 0 12.2826 0.0261229 12.2377 0.078369L4.42096 8.10468L1.57617 5.20502C1.52491 5.15277 1.46084 5.12665 1.39677 5.12665C1.33269 5.12665 1.26862 5.15277 1.21737 5.20502L0.0768863 6.3675C-0.0256288 6.47199 -0.0256288 6.63526 0.0768863 6.73975L3.66491 10.397C3.89557 10.6321 4.17749 10.7692 4.41455 10.7692C4.75413 10.7692 5.04886 10.5145 5.15779 10.41C5.15779 10.41 5.15779 10.41 5.16419 10.41L13.7306 1.63269C13.8203 1.52167 13.8203 1.3584 13.7242 1.26044V1.26044Z" fill="#78DF4C"/>
</svg>
