<svg width="24" height="24" viewBox="0 0 24 24" fill="none" xmlns="http://www.w3.org/2000/svg">
<path d="M8.4649 11.2929C9.5979 10.1599 11.5739 10.1599 12.7069 11.2929L13.4139 11.9999L14.8279 10.5859L14.1209 9.87894C13.1779 8.93494 11.9219 8.41394 10.5859 8.41394C9.2499 8.41394 7.9939 8.93494 7.0509 9.87894L4.9289 11.9999C2.98073 13.9544 2.98073 17.1165 4.9289 19.0709V19.0709C5.86579 20.0092 7.13799 20.5353 8.4639 20.5329C9.79018 20.5357 11.0628 20.0095 11.9999 19.0709L12.7069 18.3639L11.2929 16.9499L10.5859 17.6569C9.41269 18.8249 7.51611 18.8249 6.3429 17.6569C5.17384 16.4842 5.17384 14.5867 6.3429 13.4139L8.4649 11.2929Z" fill="#34349E"/>
<path d="M16.9489 14.121L19.0709 12C21.019 10.0456 21.019 6.88343 19.0709 4.92899L19.0709 4.92899C17.1169 2.97972 13.9539 2.97972 11.9999 4.92899L11.2929 5.63599L12.7069 7.04999L13.4139 6.34299C14.5871 5.17503 16.4837 5.17503 17.6569 6.34299C18.8259 7.51574 18.8259 9.41324 17.6569 10.586L15.5349 12.707C14.4019 13.84 12.4259 13.84 11.2929 12.707L10.5859 12L9.17188 13.414L9.87887 14.121C10.8219 15.065 12.0779 15.586 13.4139 15.586C14.7499 15.586 16.0059 15.065 16.9489 14.121Z" fill="#34349E"/>
</svg>
