<svg width="21" height="21" viewBox="0 0 21 21" fill="none" xmlns="http://www.w3.org/2000/svg">
<path d="M10.5 21C8.05 21 2.625 13.3875 2.625 7.875C2.625 3.5 6.125 0 10.5 0C14.875 0 18.375 3.5 18.375 7.875C18.375 11.375 16.275 15.05 15.4 16.45C14.875 17.2375 12.425 21 10.5 21ZM10.5 1.75C7.0875 1.75 4.375 4.4625 4.375 7.875C4.375 12.775 9.275 18.9875 10.5 19.25C11.725 18.9875 16.625 12.775 16.625 7.875C16.625 4.4625 13.9125 1.75 10.5 1.75Z" fill="#F1BC7D"/>
<path d="M10.5 12.25C8.05 12.25 6.125 10.325 6.125 7.875C6.125 5.425 8.05 3.5 10.5 3.5C12.95 3.5 14.875 5.425 14.875 7.875C14.875 10.325 12.95 12.25 10.5 12.25ZM10.5 5.25C9.0125 5.25 7.875 6.3875 7.875 7.875C7.875 9.3625 9.0125 10.5 10.5 10.5C11.9875 10.5 13.125 9.3625 13.125 7.875C13.125 6.3875 11.9875 5.25 10.5 5.25Z" fill="#F1BC7D"/>
</svg>
