<svg id="Capa_1" enable-background="new 0 0 512 512" height="512" viewBox="0 0 512 512" width="512" xmlns="http://www.w3.org/2000/svg"><g><g><path d="m177.744 99.071c46.719 0 67.68 26.279 75.928 41.716 1.036 1.938 3.847 1.936 4.88-.004 8.219-15.437 29.065-41.712 75.78-41.712 53.216 0 100.029 36.457 100.029 103.031 0 26.939-5.47 50.018-20.653 75.774-30.94 52.487-132.868 120.53-153.805 133.938-2.315 1.482-5.246 1.486-7.565.01-20.954-13.344-122.901-81.049-154.084-133.948-15.183-25.756-20.615-48.835-20.615-75.774 0-66.573 46.889-103.031 100.105-103.031z" fill="#ffbdbc"/></g><g fill="#020288"><path d="m459.707 68.907c-31.274-29.708-73.563-46.068-119.078-46.068-31.166 0-60.248 7.697-84.551 22.317-24.332-14.62-53.44-22.317-84.625-22.317-45.509 0-87.804 16.352-119.095 46.046-33.763 32.039-52.358 77.811-52.358 128.885 0 42.542 9.596 77.79 31.113 114.291 42.142 71.491 163.219 150.853 187.064 166.037 11.373 7.238 24.494 11.063 37.944 11.063 13.524 0 26.704-3.863 38.11-11.171 23.82-15.253 144.766-94.938 186.613-165.93 21.548-36.547 31.156-71.795 31.156-114.29 0-51.066-18.571-96.831-52.293-128.863zm3.91 232.997c-39.542 67.078-157.021 144.42-180.172 159.244-8.183 5.242-17.63 8.013-27.323 8.013-9.64 0-19.048-2.744-27.204-7.935-23.167-14.753-140.754-91.768-180.576-159.322-19.601-33.25-28.342-65.366-28.342-104.134 0-45.532 16.381-86.151 46.126-114.377 27.558-26.151 64.964-40.554 105.327-40.554 29.636 0 56.984 7.771 79.091 22.475 3.357 2.233 7.727 2.23 11.082-.003 22.071-14.701 49.39-22.472 79.003-22.472 40.365 0 77.763 14.407 105.304 40.568 29.707 28.22 46.067 68.834 46.067 114.363 0 38.721-8.754 70.837-28.383 104.134z"/><path d="m369.718 175.749c-2.746-.589-67.664-14.056-101.141 19.419-5.283 5.284-9.397 11.351-12.577 17.833-3.18-6.482-7.294-12.549-12.577-17.833-33.476-33.474-98.395-20.008-101.141-19.419-3.848.826-6.852 3.831-7.679 7.679-.59 2.747-14.056 67.664 19.419 101.141 18.336 18.335 46.098 22.587 67.917 22.587 18.016 0 31.981-2.901 33.224-3.168.284-.061.563-.134.837-.218.274.084.553.157.837.218 1.242.267 15.204 3.168 33.224 3.168 21.818 0 49.583-4.254 67.917-22.587 33.475-33.477 20.009-98.394 19.419-101.141-.827-3.848-3.832-6.853-7.679-7.679zm-201.553 94.677c-20.508-20.509-17.316-60.484-15.101-76.217 15.74-2.216 55.711-5.404 76.217 15.102 13.124 13.125 16.542 34.224 16.721 51.839-.013 1.155-.014 2.294-.005 3.417-.036 2.842-.15 5.566-.312 8.121l-25.071-25.071-.001-23.88c0-5.523-4.478-10-10-10-5.523 0-10 4.478-10 10v3.88l-10.639-10.639c-3.906-3.904-10.236-3.904-14.143 0-3.905 3.905-3.905 10.237 0 14.143l10.638 10.638h-3.878c-.001 0-.001 0-.001 0-5.522 0-10 4.477-10 9.999 0 5.523 4.477 10.001 9.999 10.001l23.882.002 25.119 25.119c-20.298 1.191-48.051-1.08-63.425-16.454zm175.67 0c-16.166 16.165-44.429 17.604-63.378 16.405l25.071-25.071 23.882-.002c5.522 0 9.999-4.478 9.999-10.001 0-5.522-4.478-9.999-10.001-9.999h-3.878l10.638-10.638c3.905-3.905 3.905-10.237 0-14.143-3.905-3.903-10.235-3.904-14.143 0l-10.639 10.639v-3.88c0-5.522-4.477-10-10-10-5.522 0-10 4.478-10 10l-.001 23.88-25.119 25.119c-.149-2.539-.244-5.193-.266-7.926.01-.953.011-1.92.005-2.897.209-18.493 3.935-39.823 16.714-52.602 20.508-20.508 60.483-17.316 76.217-15.102 2.215 15.744 5.404 55.713-15.101 76.218z"/></g></g></svg>