<svg width="55" height="42" viewBox="0 0 55 42" fill="none" xmlns="http://www.w3.org/2000/svg">
<path d="M1.5566 39.375L2.07547 6.29999L4.15094 3.67499L27.5 3.14999H50.3302L53.4434 6.29999V39.9L26.9811 40.95L1.5566 39.375Z" fill="#FFFDF5"/>
<path d="M8.57092 23.5797C8.74675 22.3648 9.76176 21.3762 10.8743 20.9875C12.2184 20.5172 13.4526 20.7696 14.7393 21.2525C15.2743 21.4527 15.8126 21.7817 16.2493 22.2049C16.2634 22.7964 16.2409 23.3921 16.0959 23.9658C16.0201 24.2679 15.9218 24.5514 15.7651 24.8198C15.6101 25.0832 15.6018 25.0924 15.3909 25.312C14.1126 26.643 11.6118 26.919 10.0318 26.0818C9.52342 25.8126 9.18592 25.5922 8.87592 25.0705C8.61092 24.6255 8.49592 24.0954 8.57092 23.5797ZM14.6043 28.2449C15.9101 27.7628 17.1351 26.8954 17.7518 25.5997C18.6318 23.7505 18.3434 21.6723 18.2293 19.6985C18.0918 17.331 17.9501 14.9651 17.8534 12.595C17.8018 11.3229 17.7693 10.0491 17.7184 8.77617C18.4109 9.32641 19.2334 9.68987 19.9351 10.23C20.6209 10.7584 21.2543 11.5004 21.4976 12.351C21.6143 12.7591 21.5976 13.1024 21.3984 13.481C21.1534 13.9454 20.7409 14.2264 20.4459 14.6605C20.1126 15.151 20.3551 15.8813 20.8368 16.1657C21.3868 16.4905 21.9826 16.2541 22.3276 15.7711C22.4301 15.6289 22.6409 15.5288 22.7651 15.3959C22.9726 15.1721 23.1601 14.8751 23.2984 14.6025C23.5918 14.0245 23.7884 13.3893 23.7509 12.7339C23.6801 11.4878 23.0009 10.2637 22.1309 9.40212C21.3218 8.60032 20.3443 8.15273 19.3834 7.5823C18.9384 7.31811 18.5926 7.01187 18.3084 6.57689C18.0193 6.13266 17.6109 5.67917 17.4809 5.16006C17.2018 4.04275 15.6159 4.33722 15.5576 5.42256C15.4618 7.20537 15.6176 9.01932 15.6809 10.803C15.7459 12.648 15.8143 14.494 15.9201 16.3382C15.9934 17.6196 16.0759 18.9018 16.1493 20.1848C15.0293 19.33 13.4943 18.8639 12.1984 18.8782C10.5193 18.8967 8.79759 19.6161 7.73509 20.9538C6.62175 22.3547 6.25259 24.1863 7.00425 25.8513C8.25342 28.6193 12.0326 29.1931 14.6043 28.2449ZM46.3193 29.8502C45.5876 29.5297 44.8434 29.2301 44.0685 29.0324C42.5009 28.6328 40.8584 28.4485 39.2518 28.2946C37.6368 28.1398 36.0068 28.096 34.3909 28.2592C33.5684 28.3425 32.7234 28.4384 31.9201 28.6404C31.1993 28.8221 30.5343 29.1241 29.8559 29.4237C29.3584 29.6441 29.2434 30.3786 29.4951 30.8127C29.7951 31.331 30.3718 31.3975 30.8709 31.177C33.3826 30.0673 36.2684 30.0311 38.9659 30.2339C40.3793 30.3407 41.8234 30.4804 43.221 30.7227C43.8968 30.8396 44.5634 31.0062 45.2318 31.156C45.5568 31.2292 45.8834 31.278 46.2084 31.3537C46.3184 31.3798 46.9151 31.4294 46.9126 31.4269C47.1568 31.6945 47.5843 31.4126 47.5001 31.0811C47.3551 30.5107 46.836 30.0757 46.3193 29.8502ZM46.106 18.3339C45.4243 18.0083 44.7018 17.7323 43.9709 17.5413C43.1901 17.3369 42.3801 17.2906 41.5801 17.2157C40.7834 17.1408 39.9851 17.0668 39.1868 17.013C37.6093 16.9061 36.0218 16.8741 34.4493 17.0601C33.6776 17.1518 32.9184 17.2746 32.1726 17.495C31.4243 17.7172 30.5076 17.9662 29.9284 18.5072C29.6168 18.7983 29.5684 19.3241 29.7776 19.6859C30.0084 20.0839 30.4393 20.2033 30.8659 20.1327C31.2059 20.0763 31.5201 19.8803 31.8434 19.7574C32.1851 19.627 32.5334 19.5118 32.8859 19.4116C33.5218 19.2316 34.1693 19.1197 34.8268 19.0549C36.3076 18.9085 37.7993 18.9447 39.2818 19.0448C40.7018 19.1407 42.1359 19.2291 43.5368 19.4857C44.2351 19.6136 44.896 19.8323 45.5701 20.0511C46.121 20.2294 46.9676 20.6063 47.4926 20.1991C47.6634 20.0662 47.8335 19.8256 47.7376 19.59C47.4826 18.9573 46.6901 18.6132 46.106 18.3339ZM43.9001 11.8765C42.3393 11.503 40.646 11.4508 39.0476 11.3768C37.4676 11.3027 35.8876 11.3313 34.3176 11.5408C32.7409 11.7512 31.2468 12.2114 29.8084 12.8912C28.8751 13.3312 29.4093 14.6917 30.3018 14.7295C31.0576 14.7615 31.7284 14.2474 32.4276 14.0211C33.1343 13.7923 33.8468 13.6131 34.5809 13.5071C36.1184 13.285 37.6901 13.285 39.2384 13.3548C40.7576 13.4238 42.3584 13.4339 43.8368 13.8175C44.5251 13.9959 45.2151 14.2214 45.9143 14.3476C46.6159 14.4746 47.3076 14.6202 47.8768 14.1036C48.0051 13.9866 47.991 13.7704 47.8768 13.6518C47.3826 13.1369 46.6743 12.8811 46.0201 12.6152C45.3243 12.3317 44.631 12.0515 43.9001 11.8765ZM30.6418 8.90742C32.2018 8.46234 33.6826 7.83471 35.2834 7.52677C36.8134 7.2323 38.3868 7.18182 39.9384 7.28026C41.4243 7.37449 42.9618 7.55537 44.4018 7.94828C45.0684 8.13001 45.6868 8.42028 46.3351 8.64913C46.6851 8.77281 47.7043 8.90069 47.801 8.31596C47.8218 8.19228 47.8101 8.11739 47.7818 7.99961C47.6859 7.59324 47.856 8.35382 47.706 7.81704C47.611 7.47545 47.2684 7.25922 46.9918 7.07665C46.3451 6.65177 45.6385 6.34383 44.9035 6.11162C43.3443 5.61775 41.6584 5.40489 40.0343 5.27617C36.5934 5.00273 33.3093 5.68675 30.0851 6.86716C29.5534 7.06151 29.1951 7.5865 29.3534 8.16787C29.5026 8.71811 30.0951 9.06306 30.6418 8.90742ZM26.4134 41.5895C26.4768 41.6013 26.5126 41.608 26.5293 41.6097C26.4926 41.6038 26.4551 41.5971 26.4184 41.5895H26.4134ZM53.011 40.7978H53.0135C53.0268 40.7962 53.0351 40.7945 53.0426 40.7936C53.0343 40.7953 53.0235 40.7962 53.011 40.7978ZM52.9185 29.374C52.9076 31.5136 52.8885 33.6531 52.8168 35.791C52.7918 36.5398 52.7618 37.2886 52.7068 38.0357C52.6876 38.2906 52.6601 38.5439 52.636 38.798C52.6335 38.8215 52.6301 38.8442 52.626 38.8669C52.6226 38.8846 52.6185 38.9023 52.6151 38.92C52.6776 38.8829 52.7051 38.8745 52.7085 38.8787C52.6926 38.8897 52.6768 38.8997 52.6626 38.9073C52.6468 38.9166 52.6301 38.9233 52.6126 38.93C52.6126 38.9317 52.6126 38.9326 52.6118 38.9343C52.5993 38.9393 52.5868 38.9443 52.5751 38.9486C52.5634 38.9544 52.5518 38.9586 52.5418 38.9654C52.5476 38.962 52.5518 38.9595 52.5568 38.9561C52.3451 39.0386 52.3768 39.0041 52.5551 38.9561C52.4193 38.9931 52.2851 39.0335 52.1485 39.0663C52.0701 39.0857 51.9926 39.1034 51.9135 39.1177C51.8768 39.1244 51.8385 39.1278 51.8018 39.1353C51.7985 39.1353 51.7968 39.1362 51.7943 39.1362C51.3726 39.1892 50.951 39.2321 50.5276 39.2666C48.166 39.4609 45.7885 39.5131 43.4201 39.5366C40.6993 39.5636 37.9793 39.5611 35.2584 39.5863C33.2001 39.6056 31.1226 39.593 29.0701 39.7731C28.5659 39.8177 28.0684 39.9035 27.5701 39.9885C25.6343 39.7024 23.7126 39.6427 21.7493 39.6098C19.0809 39.5653 16.4118 39.5686 13.7426 39.5526C11.1942 39.5367 8.64592 39.5055 6.10092 39.365C5.20425 39.3154 4.30758 39.254 3.41675 39.1404C3.44592 39.1412 3.10591 39.0857 3.02508 39.0663C2.88841 39.0335 2.75425 38.9898 2.61841 38.9561C2.94591 39.0377 2.68091 38.9401 2.55508 38.9073C2.55341 38.8981 2.55091 38.8897 2.54925 38.8812C2.54341 38.8501 2.53925 38.819 2.53508 38.787C2.47675 38.1922 2.43424 37.5973 2.40508 37.0008C2.31008 35.0455 2.28591 33.086 2.26758 31.1291C2.22091 26.2249 2.25758 21.319 2.31091 16.4148C2.33091 14.5882 2.35425 12.7616 2.38675 10.9359C2.41091 9.56704 2.27508 7.99708 2.81008 6.72076C2.99758 6.274 3.36008 6.17978 3.76508 6.15958C3.81925 6.79901 3.80341 7.45104 3.81258 8.09299C3.85508 11.2901 3.80342 14.4872 3.76258 17.6844C3.71508 21.4452 3.73508 25.2068 3.70675 28.9676C3.69175 30.9886 3.79425 33.0515 3.63175 35.0674C3.57591 35.7624 3.50341 36.4413 3.49925 37.1388C3.49925 37.1439 3.49842 37.1489 3.49842 37.1539V37.1994C3.49842 37.7875 3.88758 38.1232 4.33092 38.2065C4.55675 38.3369 4.82758 38.384 5.09592 38.2999C5.13675 38.2864 5.17758 38.2738 5.21841 38.2612C5.43508 38.193 5.60092 38.0702 5.71842 37.9179C6.76925 37.2919 7.83508 36.8898 9.04842 36.5928C10.4643 36.2461 11.8718 36.114 13.3251 36.0518C14.8868 35.9845 16.4501 35.8961 18.0134 35.9761C19.5451 36.0543 21.0526 36.3185 22.5359 36.7072C23.4068 36.9352 24.2651 37.2196 25.1468 37.4047C25.5784 37.4955 26.0118 37.5814 26.4409 37.6857C26.6318 37.7328 26.8176 37.8161 27.0126 37.8346H27.0176C27.2043 38.1526 27.5476 38.3722 27.9309 38.3722C28.4326 38.3722 28.7634 38.0592 28.9126 37.6419C29.1601 37.583 29.4093 37.5309 29.6576 37.4804C30.4559 37.3163 31.2276 37.0858 32.0143 36.8729C33.4893 36.4741 34.9776 36.1435 36.5018 36.0198C38.0709 35.8928 39.6384 35.9609 41.2084 36.0249C42.6784 36.0854 44.1426 36.141 45.5843 36.4657C46.3501 36.6391 47.1135 36.8359 47.8543 37.1018C48.4285 37.3079 48.9385 37.5906 49.446 37.907C49.5643 38.0643 49.7326 38.1913 49.9543 38.2612C49.9951 38.2738 50.0368 38.2864 50.0776 38.2999C50.3435 38.3832 50.6126 38.3369 50.8385 38.2073C51.2835 38.1257 51.6743 37.79 51.6743 37.1994V37.1539C51.6743 37.1472 51.6735 37.1405 51.6735 37.1329C51.6676 36.0266 51.5218 34.9261 51.5051 33.8172C51.4868 32.5981 51.486 31.3798 51.4759 30.1607C51.4468 26.4899 51.431 22.8191 51.4243 19.1483C51.4185 15.7518 51.3143 12.3553 51.351 8.95706C51.3593 8.09973 51.3601 7.24071 51.396 6.38422C51.3993 6.31018 51.4026 6.23614 51.4085 6.16295C51.5451 6.168 51.6793 6.17808 51.806 6.19996C52.1393 6.25549 52.276 6.49781 52.391 6.79985C52.6535 7.48807 52.7443 8.26968 52.7626 9.00249C52.771 9.35081 52.7626 9.69828 52.7701 10.0466C52.8026 11.6527 52.8243 13.2589 52.8443 14.865C52.9043 19.7011 52.9418 24.538 52.9185 29.374ZM52.576 39.1151C52.5518 39.2287 52.4585 39.3398 52.576 39.1151V39.1151ZM2.59675 39.1143C2.71091 39.3314 2.62591 39.2296 2.59675 39.1143V39.1143ZM2.33674 38.8022C2.32591 38.7937 2.31508 38.7853 2.30425 38.7769C2.31925 38.7862 2.33508 38.7996 2.35175 38.8131C2.34591 38.8089 2.34091 38.8055 2.33674 38.8022ZM5.51092 4.19252C5.80675 4.04528 6.11842 3.94431 6.42592 3.82484C7.22675 3.51438 8.01342 3.20729 8.84008 2.96919C10.3659 2.53001 11.9893 2.37688 13.5601 2.17496C16.8018 1.75849 20.1151 1.89816 23.2968 2.64528C23.9834 2.80681 24.6626 2.99191 25.3493 3.15513C25.7451 3.25021 26.2218 3.3032 26.6218 3.47316C26.6134 3.50765 26.6051 3.54383 26.5968 3.58422C26.5751 3.68097 26.5676 3.78109 26.5551 3.87953C26.5484 3.93253 26.5426 3.98638 26.5359 4.03939C26.5309 4.07556 26.5276 4.11174 26.5234 4.14792C26.4876 4.43902 26.5809 3.54636 26.5034 4.27749C26.4909 4.39612 26.4851 4.51644 26.4734 4.63507C26.4026 5.37966 26.4309 6.13687 26.4251 6.88482C26.4076 9.32305 26.4926 11.763 26.5426 14.2012C26.6568 19.7103 26.7726 25.2195 26.8776 30.7294C26.8943 31.628 26.9118 32.5266 26.9259 33.4251C26.9418 34.433 26.9901 35.4502 26.9384 36.4582C26.7234 36.3404 26.4918 36.2445 26.2684 36.1519C25.4534 35.8129 24.6501 35.462 23.8118 35.1827C22.2076 34.6493 20.5393 34.2883 18.8593 34.1116C17.1693 33.9333 15.4776 33.9888 13.7826 34.0326C12.1368 34.0746 10.5068 34.1579 8.89092 34.5046C7.83425 34.7317 6.72175 35.0119 5.70675 35.4687C5.73342 35.1263 5.75758 34.7822 5.76592 34.4373C5.78258 33.7406 5.78758 33.0423 5.79342 32.3448C5.81175 29.9991 5.80092 27.6535 5.79008 25.3078C5.76425 20.0157 5.62008 14.7279 5.55341 9.43662C5.54341 8.59023 5.53259 7.74299 5.51009 6.8966C5.50508 6.68374 5.50258 6.47004 5.48758 6.25718C5.47675 6.09816 5.45592 5.94083 5.44092 5.78266C5.40758 5.42845 5.39508 5.06414 5.31425 4.71666C5.28758 4.59888 5.23675 4.48782 5.18758 4.37845C5.29258 4.31198 5.39925 4.24889 5.51092 4.19252ZM28.2118 3.66415C28.2143 3.6835 28.2176 3.70705 28.2209 3.72893C28.2168 3.70789 28.2143 3.68602 28.2118 3.66415ZM29.5118 3.23422C30.0943 3.09203 30.6751 2.95489 31.2551 2.80092C32.7918 2.39287 34.3876 2.10261 35.9734 1.99828C37.6168 1.88975 39.3118 1.95117 40.951 2.10345C41.7543 2.17917 42.5484 2.32472 43.3493 2.424C44.1426 2.52328 44.9368 2.62004 45.7168 2.80345C46.5968 3.01042 47.4518 3.30741 48.2926 3.63974C48.6718 3.79034 49.0618 3.92412 49.436 4.08565C49.6243 4.16726 49.7976 4.26823 49.9676 4.37424C49.9418 4.42724 49.9176 4.48193 49.8985 4.54167C49.8068 4.82689 49.7876 5.15417 49.7585 5.45201C49.7335 5.70609 49.7076 5.96019 49.6876 6.21427C49.6751 6.38086 49.6726 6.54913 49.6676 6.71656C49.6476 7.39805 49.6385 8.07953 49.6285 8.76102C49.596 11.089 49.5368 13.4154 49.4868 15.7425C49.3743 21.0455 49.3418 26.3553 49.3751 31.66C49.3801 32.524 49.3859 33.3872 49.4035 34.2513C49.4109 34.6602 49.441 35.0683 49.4726 35.4755C48.6235 35.0935 47.7093 34.8352 46.8284 34.6274C45.2451 34.2538 43.6551 34.0982 42.0318 34.0494C40.3459 33.9989 38.6568 33.9274 36.9718 34.0528C35.2818 34.1781 33.6009 34.5004 31.9768 34.9867C31.0709 35.2576 30.2168 35.6177 29.3434 35.9735C29.2609 36.0072 29.1759 36.0409 29.0884 36.0745C29.1559 34.5096 29.0418 32.8909 29.0126 31.347C28.9768 29.406 28.9376 27.4658 28.8984 25.5257C29.1851 25.991 29.8943 26.118 30.3326 25.7032C30.1368 25.8892 30.3351 25.7184 30.3993 25.6957C30.5009 25.6595 30.4893 25.6494 30.6276 25.6073C30.8501 25.5417 31.0676 25.4803 31.2851 25.3987C31.9543 25.1479 32.6459 24.9999 33.3409 24.8383C34.8926 24.4782 36.4718 24.2048 38.0684 24.2199C39.6568 24.2351 41.2201 24.6204 42.7676 24.9511C43.5226 25.1126 44.2751 25.2733 45.0234 25.4609C45.3834 25.5501 45.7393 25.6561 46.0976 25.7512C46.4743 25.8513 46.7284 25.8387 47.0993 25.8168C47.0993 25.8151 47.0993 25.8134 47.0985 25.8109C47.5318 25.7975 47.7926 25.1892 47.3968 24.9225C47.396 24.9199 47.3951 24.9183 47.3943 24.9157C47.3585 24.787 47.2943 24.6751 47.201 24.5809C47.066 24.442 46.8751 24.3781 46.7051 24.2965C46.3043 24.1038 45.9026 23.9305 45.4793 23.7925C44.6226 23.514 43.7626 23.2625 42.8834 23.0681C41.0993 22.6752 39.3268 22.2512 37.4884 22.2832C35.6626 22.316 33.8793 22.6895 32.1051 23.0925C31.4418 23.2431 30.8076 23.4753 30.1593 23.6747C29.6301 23.8388 29.0993 24.0777 28.8793 24.5615C28.8751 24.3588 28.8709 24.1552 28.8668 23.9515C28.8059 20.9715 28.7443 17.9914 28.6834 15.0105C28.6301 12.4394 28.6259 9.86234 28.5034 7.29371C28.4618 6.42292 28.4659 5.53614 28.3518 4.67208C28.3134 4.37677 28.2726 4.08398 28.2301 3.78951C28.2301 3.78698 28.2293 3.78531 28.2293 3.78278C28.2326 3.79624 28.2318 3.77268 28.2234 3.66415C28.2234 3.66162 28.2226 3.6591 28.2226 3.65657C28.5926 3.3865 29.0809 3.33938 29.5118 3.23422ZM54.8918 15.6474C54.8676 13.8865 54.8401 12.1256 54.8026 10.3655C54.7935 9.93975 54.7843 9.51403 54.7543 9.08915C54.6526 7.65297 54.3318 5.60261 52.9151 4.86979C52.5635 4.68722 52.1959 4.62075 51.8335 4.64095C51.9026 4.5097 51.9668 4.37676 52.0085 4.23289C52.296 3.22159 51.1526 2.60742 50.3918 2.27004C49.5976 1.91751 48.7735 1.58854 47.9468 1.32267C46.2751 0.785053 44.5784 0.674004 42.8559 0.419076C41.0826 0.157417 39.3243 0.0572907 37.5326 0.055608C35.8401 0.053084 34.1134 0.197794 32.4684 0.619309C31.6651 0.825439 30.8943 1.11318 30.1059 1.36306C29.5326 1.54563 28.9543 1.67436 28.4326 1.98903C28.1009 2.18843 27.8151 2.3954 27.5876 2.66715C26.9834 1.92593 25.9709 1.6508 25.0676 1.36306C24.2784 1.11318 23.5084 0.824598 22.7051 0.619309C21.8534 0.402241 20.9734 0.27772 20.1018 0.178441C16.6593 -0.213626 13.1543 0.240699 9.74508 0.731204C8.02592 0.97856 6.36675 1.56667 4.78092 2.27004C4.02008 2.60742 2.87758 3.22159 3.16508 4.23289C3.20675 4.3776 3.27342 4.51138 3.34592 4.64348C2.96175 4.62076 2.57425 4.69311 2.20508 4.89335C1.29258 5.38975 0.843414 6.56007 0.638413 7.52509C0.493413 8.20322 0.422576 8.89228 0.391742 9.58471C0.323409 11.0789 0.327579 12.5799 0.304246 14.0758C0.227579 19.0414 0.181743 24.0079 0.205076 28.9735C0.21591 31.1981 0.23591 33.4226 0.309243 35.6454C0.351743 36.9318 0.308412 38.3461 0.617579 39.6056C0.767579 40.2165 1.18591 40.611 1.79591 40.7431C1.84925 40.7549 1.90258 40.7625 1.95591 40.7709C2.04341 40.7852 2.20424 40.8054 2.25591 40.8105C2.43091 40.8365 2.60591 40.8668 2.78175 40.8786C2.86675 40.8845 2.87341 40.8836 2.85591 40.8803C2.85925 40.8803 2.86175 40.8811 2.86508 40.8811C3.00258 40.8971 3.14008 40.919 3.27842 40.9358C3.49175 40.9619 3.70508 40.9838 3.91841 41.0023C6.24425 41.2109 8.58509 41.1966 10.9168 41.2328C13.7384 41.2774 16.5601 41.2833 19.3809 41.3153C21.5709 41.3397 23.7759 41.3371 25.9584 41.5407C26.1101 41.555 26.2618 41.5736 26.4134 41.5895C26.4043 41.5879 26.3951 41.5862 26.3843 41.5836C26.3959 41.5862 26.4068 41.5879 26.4184 41.5895C26.4293 41.5912 26.4393 41.5921 26.4501 41.5937C26.4976 41.598 26.5718 41.6156 26.5293 41.6097C26.5909 41.6207 26.6526 41.6325 26.7134 41.6434C26.7976 41.6594 26.8818 41.6754 26.9659 41.6913C27.1476 41.7915 27.3659 41.8285 27.5868 41.8032C27.8043 41.8276 28.0209 41.7906 28.2009 41.6922C28.2868 41.6762 28.3734 41.6594 28.4593 41.6434C28.5543 41.6257 28.6493 41.6089 28.7443 41.5921C28.5468 41.6274 28.6409 41.6038 28.6976 41.5963C28.7168 41.5938 28.7368 41.5921 28.7559 41.5895C28.7668 41.5879 28.7776 41.5862 28.7884 41.5836C28.7768 41.5862 28.7659 41.5879 28.7559 41.5895C28.9184 41.5702 29.0809 41.5534 29.2443 41.5382C29.6743 41.4987 30.1051 41.4709 30.5351 41.4474C31.6293 41.3885 32.7234 41.3624 33.8184 41.343C36.6034 41.2934 39.3885 41.2883 42.1743 41.2597C44.731 41.2328 47.2934 41.232 49.8476 41.099C50.3285 41.0738 50.8093 41.0427 51.2885 40.9997C51.481 40.9821 51.6735 40.9627 51.8651 40.9392C52.0126 40.9215 52.1601 40.8988 52.3085 40.8811C52.3151 40.8803 52.3201 40.8803 52.326 40.8794C52.3035 40.8828 52.3035 40.8845 52.391 40.8786C52.5626 40.8668 52.7326 40.8391 52.9026 40.8138H52.9051C53.0093 40.8004 53.1135 40.7877 53.2176 40.7709C53.276 40.7617 53.3351 40.7532 53.3935 40.7398C53.7001 40.6708 53.9885 40.5387 54.2076 40.3056C54.5801 39.9085 54.6176 39.3087 54.6768 38.7963C54.751 38.1585 54.7851 37.5166 54.8151 36.8755C54.9118 34.8344 54.9368 32.7899 54.956 30.7471C55.0018 25.7133 54.9618 20.6795 54.8918 15.6474ZM52.5751 38.9486C52.5876 38.9427 52.5993 38.9359 52.6126 38.93C52.6135 38.9267 52.6143 38.9233 52.6151 38.92C52.5985 38.9292 52.5785 38.9418 52.5568 38.9561C52.5626 38.9536 52.5685 38.9511 52.5751 38.9486ZM28.7443 41.5921C28.7476 41.5912 28.7518 41.5904 28.7559 41.5895C28.7518 41.5904 28.7476 41.5912 28.7443 41.5921Z" fill="#2C160A"/>
</svg>
