<svg width="18" height="12" viewBox="0 0 18 12" fill="none" xmlns="http://www.w3.org/2000/svg">
<path d="M6 12C6.3 12 6.5 11.9 6.7 11.7C7.1 11.3 7.1 10.7 6.7 10.3L1.7 5.3C1.3 4.9 0.699999 4.9 0.299999 5.3C-0.100001 5.7 -0.100001 6.3 0.299999 6.7L5.3 11.7C5.5 11.9 5.7 12 6 12Z" fill="#EA9532"/>
<path d="M1 7C1.3 7 1.5 6.9 1.7 6.7L6.7 1.7C7.1 1.3 7.1 0.7 6.7 0.3C6.3 -0.1 5.7 -0.1 5.3 0.3L0.299999 5.3C-0.100001 5.7 -0.100001 6.3 0.299999 6.7C0.499999 6.9 0.7 7 1 7Z" fill="#EA9532"/>
<path d="M1 7H17C17.6 7 18 6.6 18 6C18 5.4 17.6 5 17 5H1C0.4 5 0 5.4 0 6C0 6.6 0.4 7 1 7Z" fill="#EA9532"/>
</svg>
