<svg width="24" height="24" viewBox="0 0 24 24" fill="none" xmlns="http://www.w3.org/2000/svg">
<rect x="1" y="1" width="22" height="22" rx="3" fill="#CBCBFF" stroke="#34349E" stroke-width="2"/>
<path d="M10.1149 17.15L10.1154 17.15L10.1241 17.15L10.1259 17.15C10.4082 17.1466 10.678 17.0315 10.8697 16.8296C10.8698 16.8295 10.8699 16.8294 10.8701 16.8292L18.8438 8.5298C18.8716 8.50366 18.8978 8.47601 18.9223 8.44697C19.2805 8.02268 19.2074 7.4019 18.7647 7.06374C18.3278 6.72993 17.6903 6.79353 17.3353 7.20985L10.1052 14.7341L6.61762 11.1988C6.231 10.8069 5.58716 10.7878 5.17596 11.1549L5.27585 11.2668L5.17596 11.1549C4.76046 11.5258 4.73903 12.1508 5.12979 12.547L5.12988 12.5471L9.37085 16.839C9.37096 16.8391 9.37107 16.8392 9.37118 16.8393C9.5646 17.0376 9.8341 17.1491 10.1149 17.15Z" fill="#34349E" stroke="#34349E" stroke-width="0.3" stroke-linecap="round" stroke-linejoin="round"/>
</svg>
