<svg width="20" height="19" viewBox="0 0 20 19" fill="none" xmlns="http://www.w3.org/2000/svg">
<g opacity="0.5">
<path d="M17.5 18.3333H2.5C1.08333 18.3333 0 17.25 0 15.8333V4.16667C0 2.75001 1.08333 1.66667 2.5 1.66667H17.5C18.9167 1.66667 20 2.75001 20 4.16667V15.8333C20 17.25 18.9167 18.3333 17.5 18.3333ZM2.5 3.33334C2 3.33334 1.66667 3.66667 1.66667 4.16667V15.8333C1.66667 16.3333 2 16.6667 2.5 16.6667H17.5C18 16.6667 18.3333 16.3333 18.3333 15.8333V4.16667C18.3333 3.66667 18 3.33334 17.5 3.33334H2.5Z" fill="#34349E"/>
<path d="M5.00033 5C4.50033 5 4.16699 4.66667 4.16699 4.16667V0.833333C4.16699 0.333333 4.50033 0 5.00033 0C5.50033 0 5.83366 0.333333 5.83366 0.833333V4.16667C5.83366 4.66667 5.50033 5 5.00033 5Z" fill="#34349E"/>
<path d="M15.0003 5C14.5003 5 14.167 4.66667 14.167 4.16667V0.833333C14.167 0.333333 14.5003 0 15.0003 0C15.5003 0 15.8337 0.333333 15.8337 0.833333V4.16667C15.8337 4.66667 15.5003 5 15.0003 5Z" fill="#34349E"/>
<path d="M19.1667 8.33334H0.833333C0.333333 8.33334 0 8.00001 0 7.50001C0 7.00001 0.333333 6.66667 0.833333 6.66667H19.1667C19.6667 6.66667 20 7.00001 20 7.50001C20 8.00001 19.6667 8.33334 19.1667 8.33334Z" fill="#34349E"/>
<path d="M5.58958 10.2441C5.91501 10.5695 5.91501 11.0972 5.58958 11.4226C5.26414 11.748 4.7365 11.748 4.41107 11.4226C4.08563 11.0971 4.08563 10.5695 4.41107 10.2441C4.73651 9.91864 5.26414 9.91864 5.58958 10.2441Z" fill="#34349E"/>
<path d="M5 12.0833C4.33333 12.0833 3.75 11.5 3.75 10.8333C3.75 10.1667 4.33333 9.58333 5 9.58333C5.66667 9.58333 6.25 10.1667 6.25 10.8333C6.25 11.5 5.66667 12.0833 5 12.0833ZM5 10.4167C4.75 10.4167 4.58333 10.5833 4.58333 10.8333C4.58333 11.0833 4.75 11.25 5 11.25C5.25 11.25 5.41667 11.0833 5.41667 10.8333C5.41667 10.5833 5.25 10.4167 5 10.4167Z" fill="#34349E"/>
<path d="M5.58958 13.5774C5.91501 13.9029 5.91501 14.4305 5.58958 14.7559C5.26414 15.0814 4.7365 15.0814 4.41107 14.7559C4.08563 14.4305 4.08563 13.9029 4.41107 13.5774C4.73651 13.252 5.26414 13.252 5.58958 13.5774Z" fill="#34349E"/>
<path d="M5 15.4167C4.33333 15.4167 3.75 14.8333 3.75 14.1667C3.75 13.5 4.33333 12.9167 5 12.9167C5.66667 12.9167 6.25 13.5 6.25 14.1667C6.25 14.8333 5.66667 15.4167 5 15.4167ZM5 13.75C4.75 13.75 4.58333 13.9167 4.58333 14.1667C4.58333 14.4167 4.75 14.5833 5 14.5833C5.25 14.5833 5.41667 14.4167 5.41667 14.1667C5.41667 13.9167 5.25 13.75 5 13.75Z" fill="#34349E"/>
<path d="M8.92259 13.5774C9.24802 13.9029 9.24802 14.4305 8.92259 14.7559C8.59715 15.0814 8.06951 15.0814 7.74408 14.7559C7.41864 14.4305 7.41864 13.9029 7.74408 13.5774C8.06951 13.252 8.59715 13.252 8.92259 13.5774Z" fill="#34349E"/>
<path d="M8.33301 15.4167C7.66634 15.4167 7.08301 14.8333 7.08301 14.1667C7.08301 13.5 7.66634 12.9167 8.33301 12.9167C8.99967 12.9167 9.58301 13.5 9.58301 14.1667C9.58301 14.8333 8.99967 15.4167 8.33301 15.4167ZM8.33301 13.75C8.08301 13.75 7.91634 13.9167 7.91634 14.1667C7.91634 14.4167 8.08301 14.5833 8.33301 14.5833C8.58301 14.5833 8.74967 14.4167 8.74967 14.1667C8.74967 13.9167 8.58301 13.75 8.33301 13.75Z" fill="#34349E"/>
<path d="M8.92259 10.2441C9.24802 10.5695 9.24802 11.0972 8.92259 11.4226C8.59715 11.748 8.06951 11.748 7.74408 11.4226C7.41864 11.0971 7.41864 10.5695 7.74408 10.2441C8.06951 9.91864 8.59715 9.91864 8.92259 10.2441Z" fill="#34349E"/>
<path d="M8.33301 12.0833C7.66634 12.0833 7.08301 11.5 7.08301 10.8333C7.08301 10.1667 7.66634 9.58333 8.33301 9.58333C8.99967 9.58333 9.58301 10.1667 9.58301 10.8333C9.58301 11.5 8.99967 12.0833 8.33301 12.0833ZM8.33301 10.4167C8.08301 10.4167 7.91634 10.5833 7.91634 10.8333C7.91634 11.0833 8.08301 11.25 8.33301 11.25C8.58301 11.25 8.74967 11.0833 8.74967 10.8333C8.74967 10.5833 8.58301 10.4167 8.33301 10.4167Z" fill="#34349E"/>
<path d="M12.2556 10.2441C12.581 10.5695 12.581 11.0972 12.2556 11.4226C11.9302 11.748 11.4025 11.748 11.0771 11.4226C10.7516 11.0971 10.7516 10.5695 11.0771 10.2441C11.4025 9.91864 11.9302 9.91864 12.2556 10.2441Z" fill="#34349E"/>
<path d="M11.667 12.0833C11.0003 12.0833 10.417 11.5 10.417 10.8333C10.417 10.1667 11.0003 9.58333 11.667 9.58333C12.3337 9.58333 12.917 10.1667 12.917 10.8333C12.917 11.5 12.3337 12.0833 11.667 12.0833ZM11.667 10.4167C11.417 10.4167 11.2503 10.5833 11.2503 10.8333C11.2503 11.0833 11.417 11.25 11.667 11.25C11.917 11.25 12.0837 11.0833 12.0837 10.8333C12.0837 10.5833 11.917 10.4167 11.667 10.4167Z" fill="#34349E"/>
<path d="M12.2556 13.5774C12.581 13.9029 12.581 14.4305 12.2556 14.7559C11.9302 15.0814 11.4025 15.0814 11.0771 14.7559C10.7516 14.4305 10.7516 13.9029 11.0771 13.5774C11.4025 13.252 11.9302 13.252 12.2556 13.5774Z" fill="#34349E"/>
<path d="M11.667 15.4167C11.0003 15.4167 10.417 14.8333 10.417 14.1667C10.417 13.5 11.0003 12.9167 11.667 12.9167C12.3337 12.9167 12.917 13.5 12.917 14.1667C12.917 14.8333 12.3337 15.4167 11.667 15.4167ZM11.667 13.75C11.417 13.75 11.2503 13.9167 11.2503 14.1667C11.2503 14.4167 11.417 14.5833 11.667 14.5833C11.917 14.5833 12.0837 14.4167 12.0837 14.1667C12.0837 13.9167 11.917 13.75 11.667 13.75Z" fill="#34349E"/>
<path d="M15.5896 13.5774C15.915 13.9029 15.915 14.4305 15.5896 14.7559C15.2641 15.0814 14.7365 15.0814 14.4111 14.7559C14.0856 14.4305 14.0856 13.9029 14.4111 13.5774C14.7365 13.252 15.2641 13.252 15.5896 13.5774Z" fill="#34349E"/>
<path d="M15 15.4167C14.3333 15.4167 13.75 14.8333 13.75 14.1667C13.75 13.5 14.3333 12.9167 15 12.9167C15.6667 12.9167 16.25 13.5 16.25 14.1667C16.25 14.8333 15.6667 15.4167 15 15.4167ZM15 13.75C14.75 13.75 14.5833 13.9167 14.5833 14.1667C14.5833 14.4167 14.75 14.5833 15 14.5833C15.25 14.5833 15.4167 14.4167 15.4167 14.1667C15.4167 13.9167 15.25 13.75 15 13.75Z" fill="#34349E"/>
<path d="M15.5896 10.2441C15.915 10.5695 15.915 11.0972 15.5896 11.4226C15.2641 11.748 14.7365 11.748 14.4111 11.4226C14.0856 11.0971 14.0856 10.5695 14.4111 10.2441C14.7365 9.91864 15.2641 9.91864 15.5896 10.2441Z" fill="#34349E"/>
<path d="M15 12.0833C14.3333 12.0833 13.75 11.5 13.75 10.8333C13.75 10.1667 14.3333 9.58333 15 9.58333C15.6667 9.58333 16.25 10.1667 16.25 10.8333C16.25 11.5 15.6667 12.0833 15 12.0833ZM15 10.4167C14.75 10.4167 14.5833 10.5833 14.5833 10.8333C14.5833 11.0833 14.75 11.25 15 11.25C15.25 11.25 15.4167 11.0833 15.4167 10.8333C15.4167 10.5833 15.25 10.4167 15 10.4167Z" fill="#34349E"/>
</g>
</svg>
