<svg width="26" height="26" viewBox="0 0 26 26" fill="none" xmlns="http://www.w3.org/2000/svg">
<path d="M5.41732 21.6667C4.81901 21.6667 4.33398 21.1816 4.33398 20.5833C4.33398 19.985 4.81901 19.5 5.41732 19.5H20.584C21.1823 19.5 21.6673 19.985 21.6673 20.5833C21.6673 21.1816 21.1823 21.6667 20.584 21.6667H5.41732Z" fill="#EDA046"/>
<path d="M6.50065 20.5833C6.50065 21.1816 6.01562 21.6666 5.41732 21.6666C4.81901 21.6666 4.33398 21.1816 4.33398 20.5833V18.4166C4.33398 17.8183 4.81901 17.3333 5.41732 17.3333C6.01562 17.3333 6.50065 17.8183 6.50065 18.4166V20.5833Z" fill="#EDA046"/>
<path d="M21.6667 20.5833C21.6667 21.1816 21.1816 21.6666 20.5833 21.6666C19.985 21.6666 19.5 21.1816 19.5 20.5833V18.4166C19.5 17.8183 19.985 17.3333 20.5833 17.3333C21.1816 17.3333 21.6667 17.8183 21.6667 18.4166V20.5833Z" fill="#EDA046"/>
<path d="M13.0003 16.25C12.7757 16.2517 12.5561 16.1835 12.372 16.055L8.03865 13C7.55243 12.6551 7.43624 11.9821 7.77865 11.4941C8.122 11.0042 8.79755 10.8853 9.28754 11.2286C9.29014 11.2305 9.29273 11.2323 9.29532 11.2341L13.0003 13.8233L16.6837 11.05C17.1623 10.691 17.8413 10.788 18.2003 11.2666C18.5593 11.7453 18.4623 12.4243 17.9837 12.7833L13.6503 16.0333C13.4628 16.174 13.2347 16.25 13.0003 16.25H13.0003Z" fill="#EDA046"/>
<path d="M12.9993 14.0833C12.401 14.0833 11.916 13.5983 11.916 13V4.33333C11.916 3.73502 12.401 3.25 12.9993 3.25C13.5977 3.25 14.0827 3.73502 14.0827 4.33333V13C14.0827 13.5983 13.5977 14.0833 12.9993 14.0833Z" fill="#EDA046"/>
</svg>
