<svg width="26" height="26" viewBox="0 0 26 26" fill="none" xmlns="http://www.w3.org/2000/svg">
<path d="M5.41634 21.6667C4.81804 21.6667 4.33301 21.1816 4.33301 20.5833C4.33301 19.985 4.81804 19.5 5.41634 19.5H20.583C21.1813 19.5 21.6663 19.985 21.6663 20.5833C21.6663 21.1816 21.1813 21.6667 20.583 21.6667H5.41634Z" fill="#1DAE1A"/>
<path d="M6.49967 20.5834C6.49967 21.1817 6.01464 21.6667 5.41634 21.6667C4.81804 21.6667 4.33301 21.1817 4.33301 20.5834V18.4167C4.33301 17.8184 4.81804 17.3334 5.41634 17.3334C6.01464 17.3334 6.49967 17.8184 6.49967 18.4167V20.5834Z" fill="#1DAE1A"/>
<path d="M21.6667 20.5834C21.6667 21.1817 21.1816 21.6667 20.5833 21.6667C19.985 21.6667 19.5 21.1817 19.5 20.5834V18.4167C19.5 17.8184 19.985 17.3334 20.5833 17.3334C21.1816 17.3334 21.6667 17.8184 21.6667 18.4167V20.5834Z" fill="#1DAE1A"/>
<path d="M13.0003 16.25C12.7757 16.2517 12.5561 16.1835 12.372 16.055L8.03865 13C7.55243 12.6551 7.43624 11.9821 7.77865 11.4941C8.122 11.0042 8.79755 10.8853 9.28754 11.2286C9.29014 11.2305 9.29273 11.2323 9.29532 11.2341L13.0003 13.8233L16.6837 11.05C17.1623 10.691 17.8413 10.788 18.2003 11.2666C18.5593 11.7453 18.4623 12.4243 17.9837 12.7833L13.6503 16.0333C13.4628 16.174 13.2347 16.25 13.0003 16.25H13.0003Z" fill="#1DAE1A"/>
<path d="M13.0003 14.0833C12.402 14.0833 11.917 13.5983 11.917 13V4.33333C11.917 3.73502 12.402 3.25 13.0003 3.25C13.5986 3.25 14.0837 3.73502 14.0837 4.33333V13C14.0837 13.5983 13.5986 14.0833 13.0003 14.0833Z" fill="#1DAE1A"/>
</svg>
