<svg width="38" height="48" viewBox="0 0 38 48" fill="none" xmlns="http://www.w3.org/2000/svg">
<rect x="2" y="2" width="36" height="44" rx="7" fill="#FFFDF5"/>
<path d="M23.1518 33.0926C23.1547 33.0744 23.1576 33.057 23.1605 33.0388V33.0366C23.1561 33.0599 23.1539 33.0788 23.1518 33.0926ZM23.1605 33.0388V33.041C23.1605 33.0868 23.1387 33.1842 23.1518 33.0926C23.1445 33.1377 23.1372 33.1828 23.1278 33.2279C23.0951 33.3879 23.0523 33.5493 22.9942 33.7021C22.9106 33.9217 22.7225 34.2293 22.5547 34.4381C22.1226 34.9733 21.5568 35.3813 20.9525 35.6999C19.667 36.3792 18.348 36.5021 16.9492 36.0832C16.2548 35.8752 15.6585 35.5108 15.1327 35.0148C14.625 34.5348 14.2161 33.9922 14.2546 33.3581C14.317 33.2868 14.3868 33.225 14.4739 33.1879C14.8058 33.0461 15.161 33.2868 15.36 33.5363C15.9549 34.2832 16.1517 35.2941 17.0436 35.7981C19.0874 36.9522 21.5198 35.0584 21.9882 33.0221C22.2548 31.8635 21.9468 30.713 21.1399 29.8373C20.9489 29.6301 20.7376 29.4497 20.5153 29.2846C20.7325 29.3246 20.9358 29.2992 21.1588 29.3261C21.3004 29.3435 21.5103 29.4213 21.6309 29.4984C21.8328 29.6279 21.8655 29.6541 22.0507 29.8541C22.1865 30.001 22.2976 30.1646 22.448 30.4199C22.7487 30.9304 22.8707 31.2191 23.0232 31.7908C23.0552 31.9108 23.0842 32.0315 23.1082 32.153C23.1154 32.1893 23.1423 32.3792 23.1481 32.3981C23.1656 32.6126 23.159 32.8213 23.1605 33.0366C23.1627 33.0213 23.1656 33.0039 23.1692 32.9828C23.1663 33.0017 23.1634 33.0199 23.1605 33.0388ZM19.9176 28.2475C19.8529 28.5064 19.9285 28.7741 20.0991 28.9595C20.1064 28.9777 20.1144 28.9966 20.1231 29.0141C19.5784 28.6599 18.9988 28.353 18.4918 27.9508C18.5507 27.9013 18.6647 27.7435 18.6937 27.7181C18.8789 27.5508 19.0947 27.4199 19.2944 27.2708C19.8239 26.8737 20.3119 26.4119 20.6373 25.8264C21.3317 24.5762 21.036 23.145 19.9553 22.2162C18.6785 21.1188 17.2426 21.8308 16.1502 22.7944C15.8307 23.0766 15.5045 23.4832 15.0971 23.617C14.9751 23.657 14.9961 23.6861 14.9308 23.5392C14.8828 23.4315 14.8741 23.3202 14.832 23.2148C14.8741 23.049 14.9213 22.8839 14.9911 22.7246C15.1901 22.2744 15.5227 21.9064 15.9098 21.6112C16.7959 20.9348 17.889 20.6642 18.9915 20.705C21.0724 20.7806 23.0268 22.6395 22.6579 24.7813C22.5402 25.4635 22.2112 26.0279 21.7311 26.5195C21.474 26.7828 21.1944 27.0235 20.8922 27.2344C20.4855 27.5188 20.049 27.7239 19.9176 28.2475ZM18.4599 27.9253C18.4504 27.9181 18.4403 27.9108 18.4308 27.9028C18.3974 27.8752 18.4969 27.8053 18.4599 27.9253ZM22.5511 28.1828C22.6673 28.0839 22.7806 27.9821 22.8896 27.8759C23.5258 27.2541 24.0437 26.4926 24.2848 25.6286C24.714 24.089 24.377 22.473 23.3987 21.2199C21.5285 18.8235 17.82 18.3624 15.3397 20.0882C14.6541 20.5653 14.1159 21.2119 13.7992 21.9872C13.5399 22.6206 13.354 23.5173 13.7934 24.1013C13.8297 24.2228 13.8813 24.3391 13.9459 24.4461C14.235 24.9253 14.7601 25.1173 15.2976 25.038C16.3819 24.8795 16.9855 23.9355 17.8658 23.4075C18.263 23.1697 18.6058 23.0802 18.969 23.4126C19.3605 23.7711 19.5856 24.2417 19.4106 24.7631C19.0307 25.8941 17.6929 26.1944 17.1162 27.1719C16.2904 28.5726 17.8026 29.4424 18.8165 30.0453C19.6386 30.5341 20.4782 31.1544 20.4187 32.1443C20.3758 32.8512 19.8551 33.7203 19.2334 34.1283C18.6102 34.537 17.9333 34.5915 17.4169 33.9348C17.1264 33.5653 16.907 33.0846 16.6034 32.697C16.2425 32.2366 15.7515 31.8708 15.1661 31.7617C14.5255 31.6432 13.858 31.7871 13.3932 32.2642C13.3518 32.3071 13.3126 32.3515 13.2755 32.3973C12.7497 32.4192 12.4316 32.841 12.38 33.3341C12.1897 35.1442 13.9358 36.9523 15.4653 37.6555C17.361 38.5261 19.5174 38.5661 21.4043 37.689C23.0646 36.9166 24.7729 35.5668 25.0677 33.6352C25.2733 32.2846 24.8884 30.7901 24.1308 29.6562C23.7314 29.0584 23.2077 28.4962 22.5511 28.1828ZM31.7744 38.7035C31.7526 39.5653 31.6785 40.4228 31.1258 40.9581C30.8317 41.2432 30.3676 41.3661 29.8817 41.3734C29.7785 41.3748 29.6754 41.3741 29.5723 41.3712C29.4546 41.201 29.2817 41.0693 29.0726 41.0112C27.5531 40.5901 25.8492 40.6359 24.2862 40.6155C22.3158 40.5901 20.3446 40.633 18.3756 40.6926C17.008 40.7341 15.6418 40.8083 14.2742 40.8483C13.0228 40.8839 11.7786 41.025 10.525 40.9457C9.49733 40.8803 8.09048 40.7392 7.4034 39.8781C6.77443 39.0897 6.78677 37.9362 6.75554 36.9508C6.71632 35.6912 6.69961 34.4301 6.68798 33.1704C6.65821 29.7922 6.66837 26.4097 6.78168 23.0337C6.82743 21.6686 6.8289 20.2992 6.92768 18.937C6.94583 18.6919 6.96109 18.4504 6.96835 18.2053C6.97053 18.1413 6.9698 18.1319 6.96835 18.1377C6.96908 18.1282 6.9698 18.1181 6.97125 18.1035C6.97198 18.0919 6.97269 18.0831 6.97269 18.0751C6.9756 18.0686 6.97923 18.0512 6.98577 18.0126C7.00175 17.9246 7.017 17.8359 7.03589 17.7479C7.05913 17.6402 7.08892 17.5355 7.12233 17.4315C7.10853 17.4853 7.15209 17.3937 7.16081 17.3559C7.1717 17.3464 7.18406 17.3362 7.20004 17.3239C7.22038 17.3071 7.24143 17.2919 7.26177 17.2759C8.81097 17.0359 10.4168 17.2868 11.982 17.3028C13.7324 17.321 15.4813 17.3231 17.2324 17.305C20.3366 17.2722 23.4416 17.225 26.5465 17.2104C27.6606 17.2046 28.9295 16.9806 29.9775 17.4744C30.9036 17.9115 31.213 18.9617 31.3945 19.9522C31.6066 21.1144 31.6132 22.4272 31.6458 23.6555C31.7468 27.4664 31.7824 31.2824 31.7948 35.0948C31.7984 36.2977 31.8056 37.5013 31.7744 38.7035ZM7.13975 17.374C7.1383 17.3791 7.13613 17.3842 7.13468 17.3886C7.11724 17.4031 7.10489 17.4053 7.13975 17.374ZM7.16081 17.3559C7.15645 17.3675 7.14556 17.3791 7.13612 17.3879C7.13757 17.3828 7.13903 17.3777 7.14048 17.3733C7.14557 17.3682 7.15282 17.3624 7.16081 17.3559ZM33.4957 24.9697C33.4601 23.6213 33.4485 22.2606 33.3207 20.9173C33.2125 19.785 33.0403 18.6453 32.5218 17.6199C31.818 16.2271 30.5419 15.6228 29.0515 15.4395C28.1095 15.3231 27.1762 15.417 26.2327 15.4257C25.6473 15.4308 25.0627 15.4381 24.4773 15.4446C22.6099 15.4664 20.7426 15.4904 18.876 15.5137C16.9303 15.5377 14.9852 15.5581 13.0402 15.6177C12.3379 15.6388 11.6348 15.6562 10.9332 15.689C10.241 15.721 9.52856 15.6715 8.84366 15.7486C8.70421 15.7639 8.5691 15.7842 8.43764 15.809C7.57116 15.7726 6.63352 16.0468 6.16651 16.7595C5.99365 17.0235 5.91304 17.3515 5.8455 17.6555C5.79611 17.8802 5.72419 18.102 5.67771 18.3268C5.67916 18.3202 5.66899 18.385 5.66173 18.4373C5.65882 18.4511 5.65447 18.4766 5.65302 18.4832C5.64139 18.5559 5.6305 18.6293 5.61888 18.7021C5.59419 18.8686 5.57094 19.0351 5.54915 19.2017C5.45618 19.8919 5.38066 20.5842 5.31529 21.2781C4.99136 24.721 5.04656 28.2272 5.05237 31.6824C5.05455 33.1624 5.06616 34.6432 5.09812 36.1231C5.11845 37.0912 5.1032 38.0839 5.29784 39.0366C5.52445 40.1486 6.11712 41.1814 7.11433 41.7646C8.3396 42.4817 9.92003 42.6032 11.3065 42.6308C13.0184 42.6657 14.7441 42.5719 16.4575 42.5377C20.1558 42.4635 23.9057 42.2482 27.5938 42.6315C28.4153 42.7821 29.2541 42.9326 30.0908 42.9261C31.3713 42.9152 32.5545 42.3159 33.1035 41.1195C33.7158 39.785 33.588 38.1741 33.5974 36.7312C33.6221 32.8111 33.5996 28.8882 33.4957 24.9697ZM35.8896 21.0744C35.8671 25.1988 35.8279 29.3224 35.7894 33.4468C35.7625 36.3501 35.7211 39.2541 35.7276 42.1581C35.7276 42.4504 35.7313 42.7428 35.7364 43.0352C35.7386 43.177 35.7371 43.3188 35.732 43.4606C35.7269 43.5952 35.7189 43.729 35.7088 43.8628C35.6942 44.0424 35.7015 43.9937 35.6601 44.1974C35.6318 44.337 35.5977 44.4759 35.5548 44.6119C35.5352 44.6744 35.5141 44.7384 35.4902 44.7995C35.4829 44.8134 35.4742 44.8301 35.464 44.8512C35.3166 45.1421 35.2926 45.1799 35.0798 45.3777C34.9876 45.4628 34.7392 45.6155 34.5649 45.6774C34.1901 45.8112 33.7863 45.9108 33.3912 45.9552C32.5719 46.0475 31.7366 45.9894 30.9159 45.953C30.6632 45.9421 30.4104 45.9334 30.1577 45.9275C29.411 45.7115 28.6085 45.7275 27.8335 45.7101C27.0869 45.6941 26.3402 45.689 25.5936 45.6846C23.4648 45.6723 21.3367 45.6759 19.208 45.6759C15.0535 45.6766 10.8802 45.7588 6.72939 45.5574C6.46574 45.5443 6.20211 45.5297 5.93919 45.5072C5.86075 45.5006 5.7823 45.4897 5.70386 45.4832C5.70168 45.4832 5.70094 45.4832 5.69876 45.4824C5.50557 45.4497 5.31238 45.4148 5.12137 45.3704C3.85034 45.0766 2.69842 44.4417 2.31857 43.1108C1.80507 41.3079 2.1508 39.3035 2.19438 37.4621C2.21108 36.7842 2.23142 36.1079 2.25394 35.4301C2.41227 30.6424 2.56405 25.8548 2.68389 21.0664C2.73764 18.9122 2.80301 16.7566 2.79793 14.6017C2.79357 12.8766 2.72311 11.153 2.76524 9.42786C2.7892 8.44386 2.8662 7.46496 3.04197 6.49551C3.15091 5.89405 3.34484 5.26785 3.76029 4.80385C3.92225 4.62349 4.10745 4.48241 4.30718 4.36387C4.30864 4.44241 4.31081 4.52094 4.31226 4.59949C4.31952 5.09112 4.25925 5.5806 4.2607 6.07223C4.26288 7.04823 4.55413 7.89623 5.3596 8.48605C6.77733 9.5246 8.71146 8.87368 9.41815 7.32749C9.81907 6.4504 9.80165 5.50203 9.85249 4.55585C9.85467 4.52385 9.85685 4.49259 9.8583 4.46059C10.1917 4.49332 10.5316 4.48968 10.817 4.49768C11.1794 4.50786 11.5419 4.52095 11.9028 4.55004C12.0031 4.55804 12.1026 4.56821 12.2021 4.57767C12.2028 4.58494 12.2028 4.59221 12.2028 4.59949C12.2101 5.09112 12.1505 5.5806 12.1512 6.07223C12.1534 7.04823 12.4454 7.89623 13.2508 8.48605C14.6686 9.5246 16.602 8.87368 17.3094 7.32749C17.7103 6.4504 17.6929 5.50203 17.7437 4.55585C17.7503 4.43876 17.7583 4.32096 17.7677 4.20387C18.0844 4.25405 18.4112 4.24022 18.7453 4.23658C19.1913 4.23149 19.6401 4.23803 20.0861 4.26131C20.0897 4.37403 20.0919 4.48676 20.094 4.59949C20.1013 5.09112 20.041 5.5806 20.0425 6.07223C20.0447 7.04823 20.3359 7.89623 21.1414 8.48605C22.5598 9.5246 24.4932 8.87368 25.1999 7.32749C25.6008 6.4504 25.5834 5.50203 25.635 4.55585C25.6415 4.42858 25.651 4.30059 25.6611 4.17259C25.9175 4.20896 26.1746 4.21185 26.3635 4.20822C26.9097 4.19585 27.4406 4.23585 27.9773 4.26712C27.9802 4.37767 27.9831 4.48894 27.9846 4.59949C27.9918 5.09112 27.9323 5.5806 27.933 6.07223C27.9352 7.04823 28.2272 7.89623 29.0326 8.48605C30.4504 9.5246 32.3838 8.87368 33.0912 7.32749C33.4921 6.4504 33.4747 5.50203 33.5255 4.55585C33.5321 4.43949 33.54 4.32313 33.5495 4.20604C33.7398 4.22277 33.9264 4.25477 34.1204 4.3195C34.2053 4.34714 34.1632 4.32167 34.2925 4.39294C34.3695 4.43585 34.445 4.4824 34.5162 4.53403C34.5075 4.53476 34.6484 4.66204 34.668 4.68167C34.7043 4.71876 34.7399 4.75585 34.7755 4.79367C34.7893 4.80821 34.7987 4.81839 34.806 4.82494C34.8074 4.82785 34.8089 4.83004 34.8111 4.83295C34.9316 4.99659 35.0369 5.17259 35.1299 5.35368C35.1423 5.37623 35.228 5.56531 35.2323 5.56895C35.2752 5.67658 35.3144 5.78713 35.35 5.89767C35.4255 6.12822 35.4872 6.36386 35.5403 6.60095C35.5635 6.70713 35.5853 6.81404 35.6049 6.92095C35.6165 6.98277 35.6274 7.04386 35.6376 7.10568C35.639 7.11586 35.6688 7.30859 35.6659 7.28459C35.6797 7.38059 35.6928 7.47586 35.7066 7.57186C35.708 7.58204 35.711 7.60387 35.7139 7.62424C35.7255 7.71951 35.7364 7.8155 35.7465 7.91077C35.7734 8.16531 35.7937 8.41986 35.809 8.67513C35.8293 9.01622 35.838 9.35805 35.8497 9.69914C35.8664 10.1639 35.8715 10.6293 35.8751 11.0948C35.8991 14.4213 35.9078 17.7471 35.8896 21.0744ZM35.4945 44.7908C35.5112 44.7537 35.533 44.7122 35.4945 44.7908V44.7908ZM5.91667 2.18349C5.98712 1.99076 6.09533 1.83003 6.22897 1.69694C6.56597 1.72967 6.91316 1.72314 7.23854 1.75877C7.60895 1.79877 7.97646 1.91512 8.12099 2.27657C8.29894 2.72094 8.1958 3.2744 8.15513 3.73767C8.09339 4.44531 8.08466 5.15732 8.02511 5.86496C7.96264 6.60823 7.44044 7.51077 6.59139 7.18132C6.19556 7.02714 6.04594 6.71949 6.01834 6.31804C5.96895 5.61331 5.99874 4.90712 5.94863 4.20167C5.90215 3.55512 5.6857 2.81331 5.91667 2.18349ZM13.8072 2.18349C13.8784 1.99076 13.9866 1.83003 14.1202 1.69694C14.4572 1.72967 14.8037 1.72314 15.1291 1.75877C15.5002 1.79877 15.8677 1.91512 16.0122 2.27657C16.1902 2.72094 16.0863 3.2744 16.0464 3.73767C15.9846 4.44531 15.9759 5.15732 15.9164 5.86496C15.8539 6.60823 15.3317 7.51077 14.4827 7.18132C14.0868 7.02714 13.9372 6.71949 13.9089 6.31804C13.8595 5.61331 13.8893 4.90712 13.8391 4.20167C13.7934 3.55512 13.5762 2.81331 13.8072 2.18349ZM21.6985 2.18349C21.7689 1.99076 21.8771 1.83003 22.0108 1.69694C22.3478 1.72967 22.6949 1.72314 23.0203 1.75877C23.3907 1.79877 23.7582 1.91512 23.9035 2.27657C24.0807 2.72094 23.9776 3.2744 23.9369 3.73767C23.8752 4.44531 23.8664 5.15732 23.8069 5.86496C23.7444 6.60823 23.2222 7.51077 22.3732 7.18132C21.9781 7.02714 21.8277 6.71949 21.8001 6.31804C21.7507 5.61331 21.7805 4.90712 21.7304 4.20167C21.6839 3.55512 21.4675 2.81331 21.6985 2.18349ZM29.589 2.18349C29.6601 1.99076 29.7684 1.83003 29.902 1.69694C30.239 1.72967 30.5855 1.72314 30.9108 1.75877C31.282 1.79877 31.6495 1.91512 31.794 2.27657C31.972 2.72094 31.8681 3.2744 31.8282 3.73767C31.7664 4.44531 31.7577 5.15732 31.6981 5.86496C31.6357 6.60823 31.1135 7.51077 30.2644 7.18132C29.8686 7.02714 29.719 6.71949 29.6907 6.31804C29.6413 5.61331 29.6718 4.90712 29.6209 4.20167C29.5752 3.55512 29.358 2.81331 29.589 2.18349ZM37.9378 11.497C37.9145 10.1675 37.8543 8.82714 37.6691 7.51004C37.3989 5.5835 36.4714 2.8424 34.1262 2.77549C33.9577 2.77112 33.7914 2.78132 33.6265 2.80241C33.6214 2.54495 33.5974 2.28823 33.5429 2.0315C33.3439 1.09986 32.5987 0.317303 31.6575 0.120212C31.051 -0.00633388 30.3712 0.0823931 29.8177 0.383484C29.4343 0.47803 29.0653 0.711489 28.8038 0.970399C28.2962 1.47367 28.0725 2.13477 27.9969 2.82349C27.8066 2.80531 27.6163 2.7864 27.426 2.78277C27.0113 2.77549 26.6032 2.86276 26.1942 2.92022C26.1115 2.93258 25.9371 2.94786 25.7374 2.97768C25.7396 2.66132 25.7192 2.34568 25.6517 2.0315C25.4527 1.09986 24.7075 0.317303 23.7669 0.120212C23.1598 -0.00633388 22.4799 0.0823931 21.9272 0.383484C21.543 0.47803 21.1741 0.711489 20.9126 0.970399C20.4427 1.43585 20.2161 2.03732 20.1253 2.67077C19.6372 2.65186 19.1542 2.67004 18.6647 2.71658C18.3771 2.74422 18.1047 2.77332 17.8454 2.84023C17.8418 2.56968 17.8185 2.30059 17.7612 2.0315C17.5622 1.09986 16.817 0.317303 15.8757 0.120212C15.2692 -0.00633388 14.5894 0.0823931 14.036 0.383484C13.6525 0.47803 13.2835 0.711489 13.0221 0.970399C12.518 1.46931 12.2936 2.12458 12.2166 2.80749C11.7982 2.76676 11.3668 2.78858 10.9601 2.79513C10.6601 2.80022 10.3042 2.79586 9.9549 2.83004C9.95054 2.56313 9.92657 2.29696 9.86992 2.0315C9.67091 1.09986 8.92572 0.317303 7.98517 0.120212C7.37798 -0.00633388 6.69817 0.0823931 6.14545 0.383484C5.76124 0.47803 5.39228 0.711489 5.13081 0.970399C4.61151 1.48458 4.38998 2.16458 4.3188 2.87004C3.16398 3.08822 2.28008 4.03294 1.78402 5.12022C0.946593 6.95585 0.853633 9.08896 0.833297 11.0781C0.807876 13.5995 0.808591 16.1188 0.753392 18.6402C0.640816 23.7559 0.475216 28.8701 0.305262 33.9843C0.234084 36.1392 0.117871 38.2999 0.104071 40.4548C0.0909974 42.3159 0.275484 44.3312 1.66707 45.7101C2.72675 46.7595 4.19897 47.2272 5.64721 47.3952C7.03807 47.5559 8.46597 47.521 9.86338 47.5384C12.1926 47.5675 14.5219 47.5683 16.8511 47.5675C19.2813 47.5661 21.7195 47.5195 24.1548 47.5246C24.6407 47.6119 25.1295 47.6766 25.6357 47.7028C26.5567 47.7493 27.4987 47.8286 28.4203 47.8112C29.3108 47.7944 30.1853 47.7886 31.075 47.841C31.9683 47.8933 32.8595 47.9377 33.7499 47.8286C35.2621 47.6432 36.6748 47.0584 37.3197 45.5828C37.6967 44.7217 37.7962 43.7922 37.7795 42.8599C37.7344 40.2628 37.7998 37.6599 37.8245 35.0621C37.8652 30.8126 37.9087 26.5624 37.9371 22.313C37.9618 18.7086 38.001 15.1013 37.9378 11.497Z" fill="#221E1F"/>
</svg>
