<svg width="24" height="24" viewBox="0 0 24 24" fill="none" xmlns="http://www.w3.org/2000/svg">
<path d="M17.7143 11C17.162 11 16.7143 11.4477 16.7143 12V18C16.7143 18.5523 17.4094 19 16.8571 19H6C5.44772 19 5 18.5523 5 18V8.28571C5 7.73342 5.44772 7.28571 6 7.28571H12C12.5523 7.28571 13 6.83799 13 6.28571C13 5.73342 12.5523 5.28571 12 5.28571H6C4.34315 5.28571 3 6.62886 3 8.28571V18C3 19.6568 4.34315 21 6 21H16.8571C18.514 21 18.7143 19.6568 18.7143 18V12C18.7143 11.4477 18.2666 11 17.7143 11Z" fill="#EDA046"/>
<path d="M15.9999 5H17.5799L11.2899 11.28C10.8978 11.6689 10.8952 12.3021 11.2841 12.6942C11.2861 12.6961 11.288 12.6981 11.2899 12.7C11.6789 13.0921 12.312 13.0947 12.7041 12.7058C12.7061 12.7039 12.708 12.7019 12.7099 12.7L18.9999 6.42V8C18.9999 8.55229 19.4477 9 19.9999 9C20.5522 9 20.9999 8.55229 20.9999 8V4C20.9999 3.44772 20.5522 3 19.9999 3H15.9999C15.4477 3 14.9999 3.44772 14.9999 4C14.9999 4.55229 15.4477 5 15.9999 5L15.9999 5Z" fill="#EDA046"/>
</svg>
