<svg width="19" height="19" viewBox="0 0 19 19" fill="none" xmlns="http://www.w3.org/2000/svg">
<g clip-path="url(#clip0)">
<path fill-rule="evenodd" clip-rule="evenodd" d="M10.1485 19H1.04865C0.469328 19 0 18.5304 0 17.9513V1.04865C0 0.469401 0.469403 0 1.04865 0H17.9514C18.5305 0 19 0.469401 19 1.04865V17.9513C19 18.5305 18.5304 19 17.9514 19H13.1097V11.6422H15.5794L15.9492 8.7747H13.1097V6.94399C13.1097 6.11379 13.3402 5.54803 14.5307 5.54803L16.0492 5.54737V2.98267C15.7866 2.94772 14.8852 2.86965 13.8365 2.86965C11.6473 2.86965 10.1485 4.20596 10.1485 6.66V8.7747H7.67246V11.6422H10.1485V19L10.1485 19Z" fill="#34349E"/>
</g>
<defs>
<clipPath id="clip0">
<rect width="19" height="19" fill="white"/>
</clipPath>
</defs>
</svg>
