<svg width="48" height="42" viewBox="0 0 48 42" fill="none" xmlns="http://www.w3.org/2000/svg">
<path fill-rule="evenodd" clip-rule="evenodd" d="M23.9127 14.9243L24.0795 14.8592C24.027 14.4135 24 13.9599 24 13.5C24 7.14874 29.1487 2.00002 35.5 2.00002C41.8513 2.00002 47 7.14874 47 13.5C47 16.7231 45.6741 19.6365 43.5379 21.7245L33.5 34.5L22 41L4.5 22.5L5.06977 22.2777C2.58025 20.1682 1 17.0187 1 13.5C1 7.14874 6.14873 2.00002 12.5 2.00002C18.8513 2.00002 24 7.14874 24 13.5C24 13.9823 23.9703 14.4577 23.9127 14.9243Z" fill="#F5FFF8"/>
<path d="M44.0286 19.729C41.836 23.9857 38.7627 27.7563 35.3776 31.1335C33.4983 33.0077 31.5264 34.782 29.3516 36.3144C28.2583 37.085 27.1249 37.8004 25.9568 38.4555C25.3768 38.7805 24.7879 39.093 24.1968 39.3982C23.6909 39.6607 23.1686 39.8842 22.6531 40.1224C22.3427 39.8915 22.0064 39.6982 21.6997 39.4607C21.1886 39.0651 20.679 38.6687 20.1753 38.2651C19.216 37.4974 18.2753 36.7063 17.3582 35.8894C15.5471 34.2754 13.8308 32.5592 12.2264 30.7423C10.5953 28.8952 9.09008 26.9474 7.60712 24.9827C6.14564 23.0482 4.74786 21.0548 3.64268 18.8938C2.59231 16.8386 1.85306 14.5761 1.89232 12.2511C1.92862 10.1482 2.70415 8.17386 3.96119 6.49445C6.17971 3.52974 9.94194 1.6349 13.6968 2.15696C15.9486 2.46946 17.8375 3.66283 19.339 5.31871C20.1227 6.18342 20.7634 7.17241 21.3242 8.19226C21.6227 8.73417 21.9042 9.28934 22.1738 9.84596C22.3064 10.1195 22.4538 10.3842 22.6049 10.6474C22.4308 11.2731 22.4597 11.9276 22.4672 12.579C22.4723 13.0687 23.1294 13.1173 23.2894 12.6901C23.5131 12.0908 23.8708 11.5761 24.1079 10.9842C24.3338 10.418 24.639 9.89519 24.9672 9.38195C25.5909 8.40842 26.276 7.48417 27.0397 6.61432C28.5338 4.91064 30.3309 3.32682 32.4694 2.47829C34.5338 1.65917 36.7523 1.64301 38.8027 2.51801C40.7486 3.34889 42.4739 4.91579 43.7205 6.59888C45.0516 8.39668 45.9627 10.5724 45.9509 12.8254C45.9383 15.2401 45.1257 17.5989 44.0286 19.729ZM45.7887 6.2364C43.0968 2.23786 38.2153 -0.815098 33.2546 0.42755C30.5086 1.11579 28.1242 2.90698 26.2398 4.95183C25.2568 6.01801 24.3961 7.20329 23.6398 8.43712C23.5301 8.6158 23.4264 8.79669 23.3272 8.98051C23.1872 8.57978 23.0331 8.18564 22.8612 7.79594C22.3983 6.74741 21.8382 5.75255 21.1449 4.83564C19.7664 3.01431 17.9464 1.58342 15.7605 0.847392C11.682 -0.524668 7.09306 0.835628 4.03972 3.7349C2.3812 5.3099 1.07674 7.32022 0.477483 9.52978C-0.176592 11.9371 0.0700889 14.5136 0.853053 16.8607C1.64787 19.2467 2.93009 21.4511 4.35231 23.518C5.84491 25.6871 7.47156 27.7827 9.13304 29.8261C10.9908 32.1114 12.9923 34.2747 15.156 36.2783C16.2123 37.257 17.3019 38.1989 18.419 39.1077C18.9768 39.5621 19.5412 40.0092 20.1138 40.4467C20.4123 40.6754 20.7079 40.9173 21.0205 41.1261C21.2597 41.2864 21.5227 41.407 21.7383 41.6011C21.8901 41.7379 22.0553 41.8085 22.219 41.8283C22.4686 41.9511 22.7731 41.9335 23.0508 41.8129C24.2582 41.2915 25.4745 40.8423 26.6405 40.2232C27.7768 39.6195 28.882 38.9592 29.9516 38.2467C32.1324 36.7938 34.156 35.121 36.042 33.3085C39.7561 29.7401 43.1612 25.7136 45.5716 21.1526C46.8323 18.7673 47.7835 16.1776 47.9183 13.4651C48.0464 10.904 47.2161 8.35846 45.7887 6.2364Z" fill="#143309"/>
</svg>
