<svg width="24" height="24" viewBox="0 0 24 24" fill="none" xmlns="http://www.w3.org/2000/svg">
<path fill-rule="evenodd" clip-rule="evenodd" d="M7.04359 0.147275C5.09013 0.235415 3.39698 0.713011 2.02979 2.07442C0.657832 3.44299 0.186166 5.14285 0.0978101 7.07599C0.0428837 8.28256 -0.278297 17.3979 0.653059 19.7885C1.28113 21.4012 2.51816 22.6406 4.14565 23.2707C4.90506 23.5661 5.77192 23.7666 7.04359 23.825C17.6766 24.3062 21.6181 24.0442 23.2802 19.7885C23.5751 19.031 23.7781 18.1648 23.8342 16.8963C24.3202 6.23605 23.7554 3.92542 21.9023 2.07442C20.4324 0.608191 18.7034 -0.389905 7.04351 0.147275H7.04359ZM7.14144 21.6811C5.97724 21.6286 5.34557 21.4341 4.92407 21.2709C3.86375 20.8588 3.06733 20.0656 2.65777 19.0115C1.94851 17.1951 2.18374 8.56804 2.24703 7.17208C2.30912 5.8047 2.58614 4.55561 3.55092 3.59083C4.74497 2.39973 6.28767 1.81599 16.7917 2.29005C18.1625 2.35198 19.4151 2.62843 20.3822 3.59083C21.5763 4.78191 22.1685 6.33583 21.6861 16.7996C21.6336 17.9609 21.4389 18.5911 21.2754 19.0115C20.1947 21.7808 17.7087 22.1658 7.1414 21.6811H7.14144ZM16.9075 5.62755C16.9075 6.41606 17.5487 7.05665 18.3404 7.05665C19.132 7.05665 19.7744 6.41606 19.7744 5.62755C19.7744 4.83905 19.132 4.19786 18.3404 4.19786C17.5487 4.19786 16.9075 4.83905 16.9075 5.62755ZM5.83513 11.9856C5.83513 15.3635 8.58025 18.1016 11.9666 18.1016C15.3529 18.1016 18.098 15.3635 18.098 11.9856C18.098 8.60763 15.3529 5.87013 11.9666 5.87013C8.58025 5.87013 5.83513 8.60763 5.83513 11.9856ZM7.9868 11.9856C7.9868 9.79396 9.76833 8.01583 11.9666 8.01583C14.1648 8.01583 15.9463 9.79396 15.9463 11.9856C15.9463 14.1784 14.1648 15.9565 11.9666 15.9565C9.76833 15.9565 7.9868 14.1784 7.9868 11.9856Z" fill="#EDA046"/>
</svg>
