<svg width="24" height="24" viewBox="0 0 24 24" fill="none" xmlns="http://www.w3.org/2000/svg">
<g clip-path="url(#clip0)">
<path fill-rule="evenodd" clip-rule="evenodd" d="M7.04359 0.144834C5.09013 0.232974 3.39698 0.71057 2.02979 2.07198C0.657832 3.44055 0.186166 5.1404 0.0978101 7.07354C0.0428837 8.28012 -0.278297 17.3955 0.653059 19.786C1.28113 21.3988 2.51816 22.6382 4.14565 23.2683C4.90506 23.5637 5.77192 23.7642 7.04359 23.8226C17.6766 24.3038 21.6181 24.0418 23.2802 19.786C23.5751 19.0285 23.7781 18.1624 23.8342 16.8939C24.3202 6.23361 23.7554 3.92298 21.9023 2.07198C20.4324 0.60575 18.7034 -0.392346 7.04351 0.144834H7.04359ZM7.14144 21.6786C5.97724 21.6262 5.34557 21.4316 4.92407 21.2685C3.86375 20.8564 3.06733 20.0632 2.65777 19.0091C1.94851 17.1927 2.18374 8.5656 2.24703 7.16964C2.30912 5.80226 2.58614 4.55316 3.55092 3.58839C4.74497 2.39729 6.28767 1.81355 16.7917 2.28761C18.1625 2.34954 19.4151 2.62599 20.3822 3.58839C21.5763 4.77947 22.1685 6.33339 21.6861 16.7972C21.6336 17.9585 21.4389 18.5886 21.2754 19.0091C20.1947 21.7784 17.7087 22.1634 7.1414 21.6786H7.14144ZM16.9075 5.62511C16.9075 6.41362 17.5487 7.05421 18.3404 7.05421C19.132 7.05421 19.7744 6.41362 19.7744 5.62511C19.7744 4.83661 19.132 4.19542 18.3404 4.19542C17.5487 4.19542 16.9075 4.83661 16.9075 5.62511ZM5.83513 11.9831C5.83513 15.361 8.58024 18.0991 11.9666 18.0991C15.3529 18.0991 18.098 15.361 18.098 11.9831C18.098 8.60519 15.3529 5.86769 11.9666 5.86769C8.58024 5.86769 5.83513 8.60519 5.83513 11.9831ZM7.9868 11.9831C7.9868 9.79152 9.76833 8.01339 11.9666 8.01339C14.1648 8.01339 15.9463 9.79152 15.9463 11.9831C15.9463 14.1759 14.1648 15.954 11.9666 15.954C9.76833 15.954 7.9868 14.1759 7.9868 11.9831Z" fill="white"/>
</g>
<defs>
<clipPath id="clip0">
<rect width="24" height="24" fill="white"/>
</clipPath>
</defs>
</svg>
