<svg width="22" height="22" viewBox="0 0 22 22" fill="none" xmlns="http://www.w3.org/2000/svg">
<path fill-rule="evenodd" clip-rule="evenodd" d="M6.45662 0.135002C4.66595 0.215796 3.1139 0.653591 1.86064 1.90155C0.603013 3.15606 0.170652 4.71426 0.0896593 6.4863C0.03931 7.59232 -0.255106 15.948 0.598638 18.1394C1.17437 19.6177 2.30832 20.7538 3.80018 21.3314C4.49631 21.6022 5.29093 21.786 6.45662 21.8395C16.2035 22.2806 19.8166 22.0405 21.3402 18.1394C21.6106 17.445 21.7966 16.651 21.8481 15.4882C22.2935 5.71636 21.7758 3.59829 20.0771 1.90155C18.7297 0.557507 17.1448 -0.357412 6.45656 0.135002H6.45662ZM6.54632 19.8742C5.47914 19.8262 4.90011 19.6478 4.51373 19.4983C3.54178 19.1205 2.81172 18.3934 2.43629 17.4272C1.78613 15.7621 2.00177 7.85401 2.05978 6.57438C2.11669 5.32096 2.37063 4.17596 3.25501 3.29158C4.34956 2.19975 5.7637 1.66465 15.3924 2.0992C16.6489 2.15597 17.7971 2.40939 18.6837 3.29158C19.7783 4.38341 20.3212 5.80783 19.879 15.3996C19.8308 16.4641 19.6524 17.0418 19.5024 17.4272C18.5119 19.9657 16.233 20.3186 6.54629 19.8742H6.54632ZM15.4986 5.15857C15.4986 5.88136 16.0863 6.46857 16.812 6.46857C17.5377 6.46857 18.1265 5.88136 18.1265 5.15857C18.1265 4.43578 17.5377 3.84803 16.812 3.84803C16.0863 3.84803 15.4986 4.43578 15.4986 5.15857ZM5.34887 10.9867C5.34887 14.0831 7.86523 16.593 10.9694 16.593C14.0735 16.593 16.5898 14.0831 16.5898 10.9867C16.5898 7.8903 14.0735 5.38093 10.9694 5.38093C7.86523 5.38093 5.34887 7.8903 5.34887 10.9867ZM7.32124 10.9867C7.32124 8.97777 8.9543 7.34782 10.9694 7.34782C12.9844 7.34782 14.6174 8.97777 14.6174 10.9867C14.6174 12.9968 12.9844 14.6267 10.9694 14.6267C8.9543 14.6267 7.32124 12.9968 7.32124 10.9867Z" fill="#3D3C76"/>
</svg>
