<svg width="46" height="46" viewBox="0 0 46 46" fill="none" xmlns="http://www.w3.org/2000/svg">
<circle cx="23" cy="22" r="22" fill="#FFFDF5"/>
<path d="M44.3503 23.0132C44.2507 27.3697 42.6081 31.5524 40.0271 35.0177C39.7853 35.3429 39.5339 35.6598 39.2749 35.9712C39.4838 35.2329 39.6369 34.4856 39.764 33.7182C40.1419 31.4327 40.392 29.1016 40.3817 26.7829C40.3768 25.6135 40.3837 24.4331 40.1872 23.2776C39.988 22.1082 39.6912 20.9575 39.468 19.793C39.255 18.6803 39.0509 17.5677 38.6333 16.5104C38.2183 15.46 37.7704 14.4256 37.3067 13.396C36.8066 12.2868 36.3243 11.1901 35.6793 10.1543C35.3633 9.64569 35.0699 9.12604 34.7663 8.60986C34.6165 8.35453 34.4681 8.11997 34.2813 7.92553C34.5293 7.74424 34.7786 7.56572 35.0315 7.39343C35.3543 7.17409 35.6999 6.99141 36.0345 6.79075C36.1554 6.71879 36.2776 6.64475 36.4026 6.57902C37.6619 7.68474 38.8174 8.91638 39.8472 10.2352C41.3084 12.1062 42.5697 14.2332 43.3391 16.4896C44.0556 18.5911 44.4011 20.7914 44.3503 23.0132ZM24.318 44.1679C24.7034 43.3209 24.9246 42.3979 25.0826 41.4859C25.1871 40.8853 25.2791 40.2819 25.3581 39.6772C25.398 39.5561 25.4137 39.4274 25.4055 39.3001C25.5017 38.5113 25.5752 37.7197 25.6205 36.9267C25.7167 35.2716 25.7215 33.595 25.4117 31.96C25.1088 30.3589 24.735 28.7667 24.395 27.1732C24.2266 26.3864 24.0584 25.599 23.8729 24.8157C23.7691 24.3757 23.6853 23.8761 23.4724 23.4699C23.6462 22.9724 23.8742 22.4936 24.046 21.9968C24.294 21.2779 24.6849 20.6184 25.0249 19.9424C25.7106 18.5814 26.4758 17.2542 27.2995 15.9728C27.45 15.7389 27.6038 15.5078 27.7591 15.2774C28.0765 15.815 28.3471 16.3824 28.5848 16.9588C28.975 17.9005 29.3763 18.8388 29.7534 19.786C30.4617 21.5629 30.7454 23.4665 30.9591 25.3582C31.1878 27.3787 31.3561 29.4074 31.4234 31.4397C31.4578 32.4803 31.4949 33.5231 31.4221 34.5631C31.3554 35.5214 31.2139 36.477 31.047 37.4222C30.8594 38.4822 30.6149 39.5298 30.4047 40.5843C30.2535 41.3392 30.0797 42.0741 29.8269 42.7923C29.4546 42.9404 29.0788 43.0801 28.6996 43.2095C27.2659 43.6994 25.8019 44.0281 24.318 44.1679ZM20.8261 44.1346C18.399 43.8551 16.0399 42.9999 13.9096 41.8139C11.769 40.6231 9.80495 39.0987 8.10812 37.3184C8.41794 37.5253 8.73119 37.7259 9.05888 37.8947C9.69296 38.222 10.3813 38.4421 11.0484 38.6877C12.4203 39.1921 13.8691 39.5436 15.2973 39.8453C16.7654 40.1553 18.2561 40.3726 19.7537 40.4625C20.5541 40.5103 21.3627 40.5303 22.1644 40.4978C22.716 40.4757 23.2594 40.3795 23.8062 40.3158C23.7835 40.5373 23.7609 40.758 23.7355 40.9794C23.7183 41.1351 23.6991 41.2915 23.6798 41.4472C23.6572 41.6354 23.6723 41.5212 23.6413 41.7357C23.6125 41.9364 23.5829 42.137 23.5452 42.3356C23.4256 42.9535 23.1756 43.5956 23.0746 44.237C22.3285 44.253 21.5791 44.2211 20.8261 44.1346ZM2.99906 29.103C3.35903 29.3341 3.73205 29.5431 4.08722 29.7444C5.53949 30.5699 7.1848 31.1573 8.8047 31.5351C10.5091 31.933 12.241 32.1883 13.9584 32.5205C14.7615 32.6755 15.5824 32.7419 16.3896 32.8796C17.293 33.0346 18.1744 33.1591 19.0929 33.1529C19.9976 33.1474 20.9044 33.1799 21.8078 33.1633C22.2729 33.1543 22.7414 33.1059 23.1969 33.0048C23.4257 32.9536 23.6537 32.874 23.8839 32.8118C24.0508 33.9846 24.0721 35.1962 24.0467 36.4092C24.0316 37.1184 23.9993 37.8283 23.9533 38.5376C23.4806 38.5895 23.0128 38.6739 22.5374 38.7043C21.9005 38.7451 21.2603 38.7521 20.6228 38.7465C19.2213 38.7341 17.8199 38.6012 16.437 38.3743C13.7578 37.9363 11.058 37.2824 8.63019 36.0376C7.75841 35.5899 6.82965 35.2135 5.9668 34.734C5.32242 33.8358 4.74056 32.8941 4.22944 31.9136C3.75955 31.01 3.34735 30.0696 2.99906 29.103ZM4.31117 12.7089C5.56215 10.6732 7.20472 8.90739 9.04651 7.40173C10.8986 5.88708 12.9781 4.63883 15.1428 3.63483C16.1554 3.165 17.1892 2.72285 18.2602 2.40802C19.3361 2.09249 20.438 1.91329 21.5481 1.77767C21.5859 1.77282 21.6237 1.76936 21.6608 1.76452C20.7629 2.14439 19.9172 2.62321 19.0867 3.13455C17.3864 4.18215 15.7865 5.41864 14.3198 6.77761C12.8895 8.10267 11.6034 9.57096 10.4308 11.1292C9.19834 12.767 8.02634 14.4581 7.0948 16.2904C6.54453 17.3733 6.10557 18.5046 5.67896 19.6414C5.47836 20.1777 5.26263 20.7229 5.12523 21.2806C5.02699 21.6813 4.99882 22.0943 4.92326 22.4991C4.87242 22.4881 4.82158 22.4777 4.77143 22.4666C4.05285 22.3026 3.33086 22.1615 2.64869 21.8715C2.32169 21.7325 2.02903 21.5297 1.73638 21.3318C1.76386 20.5783 1.83666 19.8262 1.95895 19.0803C2.32991 16.8218 3.11445 14.6567 4.31117 12.7089ZM29.4896 2.42808C29.7451 2.5042 29.9987 2.59069 30.2487 2.6841C29.9698 2.81142 29.6984 2.95465 29.4374 3.08058C28.5278 3.52135 27.6114 3.886 26.7335 4.39872C24.9638 5.43179 23.357 6.71395 21.8765 8.13311C19.0702 10.8241 16.7297 14.0277 15.0157 17.5289C14.1336 19.3307 13.2982 21.2875 13.0173 23.2997C10.832 23.2423 8.6453 23.1399 6.48887 22.7967C6.53353 22.5275 6.56308 22.2556 6.61185 21.9857C6.70253 21.482 6.88457 20.9956 7.05769 20.5153C7.39775 19.5715 7.74605 18.618 8.15755 17.7033C8.973 15.8932 10.0289 14.2042 11.1748 12.5906C13.3875 9.47478 15.9761 6.69942 19.1375 4.53989C20.0272 3.93167 20.9649 3.41202 21.88 2.84671C22.3341 2.56647 22.7943 2.30838 23.2704 2.06897C23.4806 1.9631 23.6723 1.84132 23.8585 1.714C23.9141 1.71816 23.9697 1.72162 24.0247 1.72508C25.9187 1.83786 27.6828 1.89045 29.4896 2.42808ZM21.9445 24.1273C21.9583 24.1432 21.9727 24.1577 21.9878 24.1715C21.9418 24.1363 21.8896 24.0899 21.8291 24.029C21.8669 24.0671 21.9054 24.0989 21.9445 24.1273ZM1.73022 22.5102C2.22759 22.8838 2.77304 23.1786 3.34255 23.427C4.66841 24.0041 6.13921 24.4047 7.57087 24.5943C9.22443 24.8123 10.9151 24.8676 12.5803 24.9507C14.2765 25.0351 15.9891 25.0877 17.6812 24.9126C18.6773 24.8095 19.6706 24.6905 20.6585 24.5203C20.969 24.467 21.2617 24.4033 21.5626 24.3148C21.7103 24.2712 21.8607 24.229 22.0125 24.2013C22.0174 24.2124 22.0228 24.2234 22.029 24.2352C22.0297 24.2373 22.0297 24.2387 22.0304 24.2414C22.0496 24.3127 22.0737 24.3819 22.0943 24.4525C22.1582 24.6801 22.2138 24.9098 22.2688 25.1389C22.4302 25.817 22.5772 26.4978 22.7229 27.1794C22.999 28.4706 23.2642 29.7638 23.5397 31.0543C23.1124 31.1567 22.6899 31.286 22.2489 31.3234C21.4733 31.3898 20.6915 31.3234 19.9138 31.3393C19.1533 31.3545 18.3825 31.4009 17.6262 31.2944C16.7894 31.1753 15.9609 31.0134 15.1208 30.9186C13.5215 30.7373 11.9181 30.4716 10.3319 30.1907C8.72777 29.9063 7.16692 29.5105 5.65145 28.9037C4.86005 28.5868 4.09754 28.2152 3.33156 27.8443C3.05814 27.7115 2.75722 27.5752 2.46663 27.4188C2.02903 25.817 1.77281 24.1653 1.73022 22.5102ZM33.2288 8.94406C33.2419 8.9579 33.259 8.98074 33.2769 9.01741C33.3058 9.07761 33.3497 9.14057 33.3847 9.19869C33.4974 9.38621 33.6046 9.5758 33.7131 9.76539C33.9824 10.2352 34.2737 10.6898 34.5492 11.1548C35.0596 12.0149 35.5061 12.9089 35.8833 13.8354C36.2749 14.7979 36.7235 15.7403 37.1178 16.7028C37.5121 17.6632 37.745 18.6589 37.9394 19.6767C38.1455 20.7541 38.3908 21.8217 38.6092 22.8963C38.8304 23.9833 38.884 25.0524 38.9033 26.1602C38.9397 28.3183 38.7556 30.4509 38.5124 32.5945C38.3812 33.7528 38.23 34.9208 37.969 36.057C37.8412 36.614 37.7011 37.1738 37.5053 37.7107C37.4723 37.8 37.4338 37.8878 37.3933 37.9743C35.5055 39.7568 33.3229 41.2202 30.9673 42.3031C31.0779 42.0747 31.1755 41.8367 31.2668 41.5932C31.6028 40.6971 31.861 39.7651 32.1173 38.8434C32.6902 36.7814 33.0062 34.7215 32.9959 32.5779C32.9856 30.4121 32.8214 28.245 32.594 26.0917C32.3831 24.0968 32.1626 22.0687 31.5354 20.1542C31.1576 19.0007 30.6396 17.8874 30.1759 16.7671C29.7644 15.7721 29.3371 14.7813 28.7229 13.8949C29.107 13.3579 29.4965 12.8251 29.8839 12.2903C30.3367 11.6641 30.7839 11.0351 31.3163 10.4733C31.8205 9.94046 32.3653 9.44849 32.9286 8.97936C32.9767 8.93992 33.0255 8.90116 33.0736 8.86172C33.1217 8.89355 33.1738 8.92123 33.2288 8.94406ZM33.2254 8.9406C33.1972 8.92399 33.2034 8.91846 33.2254 8.9406V8.9406ZM34.5623 5.10797C35.0129 5.43456 35.4519 5.77707 35.8806 6.13341C35.693 6.23167 35.5089 6.33546 35.3262 6.42749C34.6894 6.74647 34.0635 7.10489 33.459 7.48546C33.1869 7.48822 32.9211 7.67367 32.7988 7.91723C31.6289 8.7185 30.5317 9.67683 29.5933 10.732C27.4403 13.1538 25.4069 15.7846 23.8626 18.6471C23.4339 19.4422 22.9908 20.2351 22.6384 21.0682C22.4715 21.464 22.332 21.8674 22.1602 22.2618C22.1252 22.3428 22.0922 22.4216 22.0606 22.5005C21.7645 22.5123 21.4616 22.5849 21.2019 22.6583C20.5781 22.8333 19.9489 22.9413 19.3072 23.0361C17.7636 23.2644 16.2089 23.3516 14.6502 23.3343C14.8892 21.7435 15.5653 20.1576 16.2378 18.7322C17.0079 17.1006 17.914 15.5341 18.939 14.052C21.0205 11.0434 23.6063 8.3144 26.5232 6.11957C27.3957 5.46292 28.297 4.91076 29.2533 4.38765C29.9925 3.98425 30.6877 3.54142 31.4468 3.19891C32.5322 3.72686 33.5696 4.38973 34.5623 5.10797ZM43.2882 12.473C40.8192 8.09022 37.0044 4.24165 32.5418 1.92712C30.8422 1.04559 29.0623 0.541172 27.1683 0.316984C26.1042 0.191743 25.0332 0.134309 23.9622 0.122546C22.793 0.110783 21.5832 0.0173707 20.4366 0.296222C19.9131 0.423538 19.4006 0.587528 18.8936 0.766048C18.5117 0.843545 18.1332 0.932114 17.7608 1.03383C16.5772 1.35696 15.4395 1.84547 14.3239 2.35266C13.1766 2.87507 12.0596 3.4653 10.9852 4.1261C6.6792 6.77415 2.99836 10.622 1.26786 15.4587C-0.338983 19.9493 -0.131506 24.9735 1.43206 29.4441C3.06706 34.1181 6.07741 38.1259 9.96158 41.1441C14.2071 44.4439 19.5971 46.4706 25.0057 45.7898C30.292 45.1241 35.3124 42.4823 39.0571 38.6939C42.3299 35.383 44.7323 31.1262 45.6061 26.5179C46.5225 21.6861 45.6975 16.7484 43.2882 12.473Z" fill="#221E1F"/>
</svg>
