<svg width="24" height="24" viewBox="0 0 24 24" fill="none" xmlns="http://www.w3.org/2000/svg">
<path d="M8.46588 11.2929C9.59888 10.1599 11.5749 10.1599 12.7079 11.2929L13.4149 11.9999L14.8289 10.5859L14.1219 9.87894C13.1789 8.93494 11.9229 8.41394 10.5869 8.41394C9.25088 8.41394 7.99488 8.93494 7.05188 9.87894L4.92988 11.9999C2.98171 13.9544 2.98171 17.1165 4.92988 19.0709V19.0709C5.86677 20.0092 7.13897 20.5353 8.46488 20.5329C9.79116 20.5357 11.0638 20.0095 12.0009 19.0709L12.7079 18.3639L11.2939 16.9499L10.5869 17.6569C9.41367 18.8249 7.51709 18.8249 6.34388 17.6569C5.17482 16.4842 5.17482 14.5867 6.34388 13.4139L8.46588 11.2929Z" fill="#34349E"/>
<path d="M16.9508 14.121L19.0728 12C21.021 10.0456 21.021 6.88343 19.0728 4.92899L19.0728 4.92899C17.1188 2.97972 13.9558 2.97972 12.0018 4.92899L11.2948 5.63599L12.7088 7.04999L13.4158 6.34299C14.589 5.17503 16.4856 5.17503 17.6588 6.34299C18.8279 7.51574 18.8279 9.41324 17.6588 10.586L15.5368 12.707C14.4038 13.84 12.4278 13.84 11.2948 12.707L10.5878 12L9.17383 13.414L9.88083 14.121C10.8238 15.065 12.0798 15.586 13.4158 15.586C14.7518 15.586 16.0078 15.065 16.9508 14.121Z" fill="#34349E"/>
</svg>
