<svg width="48" height="41" viewBox="0 0 48 41" fill="none" xmlns="http://www.w3.org/2000/svg">
<path d="M29.7785 14.3336C29.7206 15.0593 29.4185 15.8661 29.0535 16.5904C29.1228 16.1718 28.8363 15.6558 28.322 15.6459C27.8056 15.6353 27.247 15.7179 26.832 15.3444C26.5263 15.0698 26.3435 14.6301 26.4499 14.2256C26.5792 13.7329 27.0592 13.3898 27.4842 13.154C27.9556 12.8914 28.5006 12.6563 29.0513 12.7791C29.7478 12.9337 29.8299 13.6919 29.7785 14.3336ZM28.8106 11.2226C27.2478 11.1802 25.207 12.3994 24.922 14.0053C24.7663 14.8821 25.0863 15.8097 25.7413 16.4231C26.2392 16.889 26.8649 17.1079 27.5185 17.1559C27.4935 17.3147 27.4535 17.4721 27.387 17.6288C27.2035 18.0623 26.9756 18.4703 26.6992 18.8529C26.4456 19.2045 26.2027 19.5631 25.9463 19.9125C25.7985 20.1144 25.4377 20.5055 25.6677 20.7646C25.8485 20.9686 26.1506 20.8923 26.4099 20.7631C27.0527 20.6354 27.6699 20.2443 28.1749 19.8807C28.8913 19.3647 29.4899 18.7053 29.9863 17.9825C30.7792 16.8297 31.427 15.2216 31.3228 13.8013C31.2185 12.3824 30.3206 11.2642 28.8106 11.2226ZM21.4335 14.3336C21.3749 15.0593 21.0727 15.8661 20.7085 16.5904C20.777 16.1718 20.4913 15.6558 19.977 15.6459C19.4606 15.6353 18.9013 15.7179 18.487 15.3444C18.1813 15.0698 17.9977 14.6301 18.1042 14.2256C18.2342 13.7329 18.7142 13.3898 19.1392 13.154C19.6106 12.8914 20.1549 12.6563 20.7063 12.7791C21.402 12.9337 21.4842 13.6919 21.4335 14.3336ZM20.4656 11.2226C18.9027 11.1802 16.8613 12.3994 16.577 14.0053C16.4213 14.8821 16.7413 15.8097 17.3963 16.4231C17.8935 16.889 18.5199 17.1079 19.1727 17.1559C19.1485 17.3147 19.1085 17.4721 19.042 17.6288C18.8577 18.0623 18.6306 18.4703 18.3542 18.8529C18.1006 19.2045 17.8577 19.5631 17.6013 19.9125C17.4527 20.1144 17.092 20.5055 17.322 20.7646C17.5035 20.9686 17.8056 20.8923 18.0642 20.7631C18.7077 20.6354 19.3242 20.2443 19.8299 19.8807C20.5463 19.3647 21.1449 18.7053 21.6413 17.9825C22.4335 16.8297 23.082 15.2216 22.9778 13.8013C22.8728 12.3824 21.9756 11.2642 20.4656 11.2226ZM45.5821 15.4461C45.3821 18.0644 45.197 20.6848 45.0149 23.3044C44.9435 24.3301 44.8599 25.3552 44.5813 26.3505C44.3242 27.2689 43.8549 28.1457 43.2363 28.7676C42.1871 29.8237 40.5542 30.3164 39.0763 30.4837C37.3499 30.6793 35.6185 30.579 33.8899 30.4745C31.647 30.3383 29.4113 30.0086 27.1663 29.9317C26.5663 29.9112 25.9692 29.9197 25.3713 29.9762C24.6863 30.0411 24.077 30.226 23.442 30.4844C23.3899 30.5063 23.342 30.5338 23.2999 30.5663C22.972 30.6298 22.6835 30.9115 22.4856 31.1939C22.1277 31.7035 21.6449 32.3417 21.2406 32.9086C20.4292 34.0465 19.6199 35.159 18.5499 36.076C17.5413 36.9408 16.4342 37.5761 15.1863 38.042C14.6056 38.2587 14.027 38.4861 13.4442 38.6978C13.4556 38.6837 13.467 38.6696 13.4777 38.6555C13.9949 37.9672 14.3999 37.1766 14.7606 36.3979C15.132 35.5946 15.4363 34.7376 15.6863 33.8898C15.8685 33.2721 16.0985 32.5789 16.0999 31.916C16.1249 31.844 16.1377 31.7671 16.1356 31.6873C16.1356 31.671 16.1349 31.6548 16.1349 31.6379C16.1213 31.1049 15.6299 30.8536 15.2142 30.9524C13.222 30.752 11.2113 31.1113 9.22345 30.7844C7.42702 30.4893 5.57059 30.1893 4.11059 29.0168C2.6113 27.8132 2.2563 26.0773 2.29487 24.2631C2.3363 22.3331 2.76773 20.43 2.77702 18.4993C2.78845 16.0822 2.18416 13.7166 1.91273 11.3264C1.66916 9.18318 1.6513 6.83317 2.81916 4.92859C4.55559 2.09713 8.27845 1.66368 11.4106 1.76534C13.8692 1.8444 16.327 1.99898 18.7842 2.11545C21.4677 2.24323 24.142 2.05051 26.8213 1.90015C30.8542 1.67355 35.107 1.45893 39.052 2.47617C40.8242 2.9329 42.6299 3.68121 43.9513 4.97163C45.2592 6.24865 45.752 8.03815 45.8535 9.80155C45.9613 11.6878 45.7256 13.5684 45.5821 15.4461ZM46.8942 6.26486C46.057 4.28051 44.4413 2.84186 42.5156 1.89451C38.6863 0.00969203 34.2099 -0.0637082 30.022 0.0224145C27.3792 0.0760647 24.7435 0.30549 22.102 0.393731C19.3442 0.485501 16.5806 0.258174 13.827 0.126166C10.072 -0.0545505 5.91774 -0.275518 2.83273 2.24816C1.13559 3.63671 0.324158 5.70366 0.0798718 7.82001C-0.2187 10.4065 0.389873 12.9846 0.75273 15.533C0.917731 16.6871 1.00273 17.8512 0.934871 19.0153C0.877014 20.0276 0.744873 21.0328 0.634159 22.0402C0.409159 24.0902 0.282728 26.2355 1.16273 28.1619C2.04702 30.0983 3.96488 31.3223 5.96417 31.9202C7.97488 32.5224 10.0999 32.5224 12.182 32.473C12.6534 32.4617 13.1263 32.4441 13.5977 32.4179C13.8927 32.4017 14.1806 32.3494 14.4677 32.2901C14.2099 33.5276 13.8292 34.7588 13.2656 35.8883C12.9292 36.5631 12.5792 37.2698 12.1056 37.8627C11.6356 38.4522 10.982 38.8411 10.5242 39.444C10.1106 39.989 10.6742 40.7563 11.2849 40.7542C12.032 40.7507 12.8077 40.7782 13.5299 40.5586C14.2035 40.3532 14.8699 40.0701 15.5313 39.8273C16.8999 39.324 18.1092 38.683 19.2499 37.7822C20.3663 36.9013 21.2477 35.8812 22.0242 34.7002C22.447 34.0571 22.8613 33.4062 23.2549 32.7441C23.4099 32.4836 23.562 32.2203 23.6885 31.945C23.7406 31.8299 23.7977 31.7162 23.8477 31.6005C24.4099 31.5899 24.9713 31.6104 25.5342 31.5998C26.242 31.5864 26.952 31.6132 27.657 31.6697C29.0199 31.7784 30.3706 31.9958 31.7285 32.1511C33.5306 32.3579 35.3656 32.4878 37.1799 32.4617C39.0713 32.4342 41.0063 32.2012 42.7256 31.3767C44.6278 30.4646 45.8971 28.7083 46.4221 26.7084C46.7256 25.5514 46.7992 24.3542 46.8899 23.1675C46.9963 21.7747 47.1013 20.3848 47.1756 18.9891C47.2985 16.6914 47.5585 14.402 47.6621 12.1036C47.7506 10.1425 47.6685 8.09956 46.8942 6.26486Z" fill="#3D3C76"/>
</svg>
