<svg width="24" height="24" viewBox="0 0 24 24" fill="none" xmlns="http://www.w3.org/2000/svg">
<path d="M13.04 14.69L14.11 12.55C14.3323 12.1106 14.8415 11.8985 15.31 12.05L21.31 14.05C21.7213 14.1841 21.9997 14.5674 22 15V20C22 21.1046 21.1046 22 20 22H18C9.16344 22 2 14.8366 2 6V4C2 2.9 2.9 2 4 2H9C9.42992 1.99889 9.81243 2.27269 9.95 2.68L11.95 8.68C12.1072 9.15155 11.8942 9.66699 11.45 9.89L9.3 10.96L9.3 10.96C10.189 12.5133 11.4767 13.801 13.03 14.69L13.04 14.69ZM8.28 4H4V6V6.00001C4 13.732 10.268 20 18 20H20V15.72L15.5 14.22L14.38 16.48C14.1386 16.9554 13.5667 17.1577 13.08 16.94C10.4089 15.7359 8.26855 13.5991 7.06 10.93C6.84226 10.4433 7.04463 9.87143 7.52 9.63001L9.78 8.49001L8.28 4.00001V4Z" fill="#34349E"/>
</svg>
