<svg width="26" height="30" viewBox="0 0 26 30" fill="none" xmlns="http://www.w3.org/2000/svg">
<path d="M23.8116 25.8889C23.4623 26.6904 22.7432 27.2516 21.9329 27.6451C19.9902 28.5875 17.7741 28.3515 15.9035 27.2247C13.5777 25.8243 11.763 23.6048 10.0623 21.5452C9.06226 20.3349 8.11964 19.0803 7.17332 17.8287C6.68288 17.1804 6.18653 16.5451 5.62697 15.9527C5.39094 15.7029 5.1439 15.4423 4.87772 15.2027C4.69243 14.8826 4.5071 14.5609 4.32181 14.24C3.81666 13.3637 3.28876 12.5128 2.85346 11.5988C2.03214 9.8767 1.45199 8.13936 1.7792 6.21325C2.02552 4.76051 2.42843 3.05366 3.68578 2.11493C5.14387 1.02664 6.87476 1.93342 8.038 3.01881C8.73359 3.66714 9.32846 4.41274 9.89096 5.1736C10.3329 5.77111 11.1689 6.51093 11.2586 7.28849C11.2873 7.53606 11.1895 7.59994 10.9453 7.80322C10.6733 8.02973 10.3593 8.20762 10.0652 8.40582C9.31081 8.91475 8.61962 9.51588 8.31153 10.3922C7.71595 12.0889 8.80048 13.6462 9.85196 14.8898C10.3218 15.4452 10.7873 15.9541 11.1917 16.5415C11.6314 17.1782 12.0248 17.8461 12.4755 18.4749C13.5469 19.9683 15.0042 21.1887 16.9447 21.2344C17.8079 21.2547 18.6748 21.021 19.3527 20.483C19.7659 20.1541 20.0402 19.7207 20.1961 19.2415C21.6285 20.2274 23.0358 21.4239 23.7071 23.0088C24.0858 23.9018 24.1932 25.0126 23.8116 25.8889ZM20.1571 17.1397C19.8336 16.935 19.3623 17.0119 19.0969 17.2755C19.0674 17.3045 19.038 17.3336 19.0086 17.3626C18.8159 17.5528 18.7432 17.7685 18.7534 17.9754C18.7395 18.0291 18.7299 18.0864 18.7262 18.1474C18.6887 18.7645 18.3932 19.1558 17.8726 19.3715C17.7196 19.4354 17.4248 19.4942 17.2152 19.5043C16.863 19.5218 16.5763 19.4993 16.2424 19.4056C14.8064 19.0041 13.9799 17.6305 13.2299 16.4682C12.7902 15.7864 12.3321 15.1214 11.8064 14.5007C11.3174 13.9228 10.7917 13.3725 10.3836 12.7336C10.0409 12.1978 9.7336 11.5705 9.98287 10.9563C10.2402 10.321 11.0012 9.98925 11.5476 9.64802C12.3579 9.14054 13.1623 8.46389 13.163 7.4315C13.163 6.43469 12.585 5.56494 11.9792 4.81642C10.7409 3.28599 9.66227 1.69094 7.87109 0.731882C6.11448 -0.209028 4.12476 -0.288901 2.53653 1.01501C1.21667 2.09895 0.635809 3.8363 0.339485 5.45022C-0.0766918 7.71537 0.27255 9.89414 1.36299 11.9328C1.96226 13.053 2.64757 14.105 3.45493 15.0561C3.76155 15.6833 4.21887 16.2474 4.6049 16.8275C5.03137 17.4679 5.46228 18.1053 5.88507 18.7478C6.7461 20.0576 7.69387 21.315 8.66078 22.5507C10.4755 24.8688 12.5431 27.2959 15.1248 28.8111C17.4674 30.1854 20.2042 30.3647 22.6858 29.2438C23.7241 28.7755 24.6814 28.0103 25.2431 27.0171C25.874 25.9027 25.9623 24.5632 25.6792 23.3333C25.0373 20.5403 22.4659 18.6034 20.1571 17.1397Z" fill="#3D3C76"/>
</svg>
