<svg width="24" height="24" viewBox="0 0 24 24" fill="none" xmlns="http://www.w3.org/2000/svg">
<path d="M16.4 21C7.89938 20.989 1.011 14.1006 1 5.59999C1 3.05948 3.05949 0.999992 5.6 0.999992C5.85834 0.998024 6.11625 1.02147 6.37 1.06999L6.37 1.06999C6.61531 1.10629 6.85646 1.16658 7.09 1.24999H7.09C7.42419 1.36725 7.67143 1.65253 7.74 1.99999L9.11 7.99999C9.18503 8.33091 9.08714 8.6773 8.85 8.91999C8.72 9.05999 8.71 9.06999 7.48 9.70999C8.46499 11.8709 10.1932 13.6062 12.35 14.6C13 13.36 13.01 13.35 13.15 13.22C13.3927 12.9829 13.7391 12.885 14.07 12.96L20.07 14.33C20.4061 14.408 20.6782 14.6536 20.79 14.98C20.8744 15.2174 20.938 15.4616 20.98 15.71V15.71C21.0202 15.9613 21.0403 16.2155 21.04 16.47V16.47C21.0016 18.9988 18.929 21.0223 16.4 21L16.4 21ZM5.6 2.99999C4.16634 3.00548 3.00548 4.16633 3 5.59999L3 5.59926C3.00511 12.9976 9.00094 18.9941 16.3993 19C17.8333 18.9949 18.9946 17.8339 19 16.4C19 16.29 19 16.18 19 16.07L14.36 15L14.07 15.55C13.62 16.42 13.29 17.05 12.45 16.71H12.45C9.09416 15.5088 6.45722 12.8608 5.27004 9.49996C4.91004 8.71996 5.59004 8.35996 6.45004 7.90996L7.00004 7.63996L5.93004 2.99996L5.6 2.99999Z" fill="#1DAE1A"/>
</svg>
