<svg width="20" height="20" viewBox="0 0 20 20" fill="none" xmlns="http://www.w3.org/2000/svg">
<path d="M0.9 7.75C0.9 11.5552 3.94477 14.6 7.75 14.6C11.5552 14.6 14.6 11.5552 14.6 7.75C14.6 3.94477 11.5552 0.9 7.75 0.9C3.94477 0.9 0.9 3.94477 0.9 7.75ZM2.6 7.75C2.6 4.88023 4.88023 2.6 7.75 2.6C10.6198 2.6 12.9 4.88023 12.9 7.75C12.9 10.6198 10.6198 12.9 7.75 12.9C4.88023 12.9 2.6 10.6198 2.6 7.75Z" fill="#3D3C76" stroke="#3D3C76" stroke-width="0.2"/>
<path d="M17.6543 18.8457C17.7352 18.9266 17.8201 18.9913 17.9188 19.0351C18.0179 19.0792 18.1258 19.1 18.25 19.1C18.3742 19.1 18.4821 19.0792 18.5812 19.0351C18.6799 18.9913 18.7648 18.9266 18.8457 18.8457C19.1848 18.5067 19.1848 17.9933 18.8457 17.6543L12.8457 11.6543C12.5067 11.3152 11.9933 11.3152 11.6543 11.6543C11.3152 11.9933 11.3152 12.5067 11.6543 12.8457L17.6543 18.8457Z" fill="#3D3C76" stroke="#3D3C76" stroke-width="0.2"/>
</svg>
