<svg width="24" height="24" viewBox="0 0 24 24" fill="none" xmlns="http://www.w3.org/2000/svg">
<path d="M15.3839 9.61612C15.872 10.1043 15.872 10.8957 15.3839 11.3839C14.8957 11.872 14.1043 11.872 13.6161 11.3839C13.128 10.8957 13.128 10.1043 13.6161 9.61612C14.1043 9.12797 14.8957 9.12797 15.3839 9.61612Z" fill="#161004"/>
<path d="M10.3839 9.61612C10.872 10.1043 10.872 10.8957 10.3839 11.3839C9.89573 11.872 9.10428 11.872 8.61612 11.3839C8.12796 10.8957 8.12796 10.1043 8.61612 9.61612C9.10427 9.12797 9.89573 9.12797 10.3839 9.61612Z" fill="#34349E"/>
<path d="M22.94 12.66C22.98 12.45 23 12.23 23 12C23 11.77 22.98 11.55 22.94 11.34C22.69 9.83 21.58 8.6 20.13 8.17C19.6 7.05 18.85 6.07 17.94 5.26C16.36 3.85 14.28 3 12 3C9.72 3 7.64 3.85 6.06 5.26C5.14 6.07 4.39 7.06 3.87 8.17C2.42 8.6 1.31 9.82 1.06 11.34C1.02 11.55 1 11.77 1 12C1 12.23 1.02 12.45 1.06 12.66C1.31 14.17 2.42 15.4 3.87 15.83C4.39 16.94 5.14 17.92 6.04 18.72C7.62 20.14 9.71 21 12 21C14.29 21 16.38 20.14 17.97 18.72C18.87 17.92 19.62 16.93 20.14 15.83C21.58 15.4 22.69 14.18 22.94 12.66ZM19 14C18.9 14 18.81 13.98 18.71 13.97C18.51 14.64 18.22 15.26 17.85 15.83C16.6 17.74 14.45 19 12 19C9.55 19 7.4 17.74 6.15 15.83C5.78 15.26 5.49 14.64 5.29 13.97C5.19 13.98 5.1 14 5 14C3.9 14 3 13.1 3 12C3 10.9 3.9 10 5 10C5.1 10 5.19 10.02 5.29 10.03C5.49 9.36 5.78 8.74 6.15 8.17C7.4 6.26 9.55 5 12 5C14.45 5 16.6 6.26 17.85 8.17C18.22 8.74 18.51 9.36 18.71 10.03C18.81 10.02 18.9 10 19 10C20.1 10 21 10.9 21 12C21 13.1 20.1 14 19 14ZM7.5 14C8.26 15.77 9.99 17 12 17C14.01 17 15.74 15.77 16.5 14H7.5Z" fill="#34349E"/>
</svg>
