<svg width="48" height="41" viewBox="0 0 48 41" fill="none" xmlns="http://www.w3.org/2000/svg">
<path d="M3.5 2.5L1.5 6.5V26.5L6 31.5H15V35.5L11.5 40L19 38L23.5 31.5H39L45 29.5L47.5 9.5L45 4.5L32.5 0.5L23.5 2.5L9.5 0.5L3.5 2.5Z" fill="white"/>
<path d="M29.9474 14.4818C29.8896 15.2075 29.5874 16.0143 29.2224 16.7386C29.2917 16.32 29.0053 15.804 28.491 15.7941C27.9746 15.7835 27.416 15.8661 27.001 15.4926C26.6953 15.218 26.5124 14.7783 26.6188 14.3738C26.7481 13.881 27.2281 13.538 27.6531 13.3022C28.1246 13.0396 28.6696 12.8045 29.2203 12.9273C29.9167 13.0819 29.9988 13.8401 29.9474 14.4818ZM28.9796 11.3708C27.4167 11.3284 25.376 12.5475 25.091 14.1535C24.9353 15.0303 25.2553 15.9579 25.9103 16.5713C26.4081 17.0372 27.0338 17.2561 27.6874 17.3041C27.6624 17.4629 27.6224 17.6203 27.556 17.777C27.3724 18.2105 27.1446 18.6185 26.8681 19.0011C26.6145 19.3527 26.3717 19.7112 26.1153 20.0607C25.9674 20.2626 25.6067 20.6537 25.8367 20.9128C26.0174 21.1168 26.3196 21.0405 26.5788 20.9113C27.2217 20.7836 27.8388 20.3925 28.3438 20.0289C29.0603 19.5129 29.6588 18.8535 30.1553 18.1307C30.9481 16.9779 31.596 15.3698 31.4917 13.9495C31.3874 12.5306 30.4896 11.4124 28.9796 11.3708ZM21.6024 14.4818C21.5438 15.2075 21.2417 16.0143 20.8774 16.7386C20.946 16.32 20.6603 15.804 20.146 15.7941C19.6295 15.7835 19.0703 15.8661 18.656 15.4926C18.3503 15.218 18.1667 14.7783 18.2731 14.3738C18.4031 13.881 18.8831 13.538 19.3081 13.3022C19.7795 13.0396 20.3238 12.8045 20.8753 12.9273C21.571 13.0819 21.6531 13.8401 21.6024 14.4818ZM20.6345 11.3708C19.0717 11.3284 17.0303 12.5475 16.746 14.1535C16.5903 15.0303 16.9103 15.9579 17.5653 16.5713C18.0624 17.0372 18.6888 17.2561 19.3417 17.3041C19.3174 17.4629 19.2774 17.6203 19.211 17.777C19.0267 18.2105 18.7995 18.6185 18.5231 19.0011C18.2695 19.3527 18.0267 19.7112 17.7703 20.0607C17.6217 20.2626 17.261 20.6537 17.491 20.9128C17.6724 21.1168 17.9745 21.0405 18.2331 20.9113C18.8767 20.7836 19.4931 20.3925 19.9988 20.0289C20.7153 19.5129 21.3138 18.8535 21.8103 18.1307C22.6024 16.9779 23.251 15.3698 23.1467 13.9495C23.0417 12.5306 22.1445 11.4124 20.6345 11.3708ZM45.751 15.5943C45.551 18.2126 45.366 20.833 45.1838 23.4526C45.1124 24.4783 45.0289 25.5033 44.7503 26.4987C44.4931 27.4171 44.0239 28.2939 43.4053 28.9158C42.356 29.9718 40.7231 30.4646 39.2453 30.6319C37.5188 30.8274 35.7874 30.7272 34.0588 30.6227C31.816 30.4865 29.5803 30.1568 27.3353 30.0798C26.7353 30.0594 26.1381 30.0679 25.5403 30.1244C24.8553 30.1893 24.246 30.3742 23.611 30.6326C23.5588 30.6545 23.511 30.682 23.4688 30.7145C23.141 30.778 22.8524 31.0597 22.6545 31.3421C22.2967 31.8517 21.8138 32.4899 21.4095 33.0568C20.5981 34.1947 19.7888 35.3072 18.7188 36.2242C17.7103 37.089 16.6031 37.7243 15.3553 38.1902C14.7745 38.4069 14.196 38.6342 13.6131 38.846C13.6245 38.8319 13.636 38.8178 13.6467 38.8037C14.1638 38.1154 14.5688 37.3248 14.9295 36.5461C15.301 35.7428 15.6053 34.8858 15.8553 34.038C16.0374 33.4203 16.2674 32.7271 16.2688 32.0642C16.2938 31.9922 16.3067 31.9152 16.3045 31.8355C16.3045 31.8192 16.3038 31.803 16.3038 31.7861C16.2903 31.2531 15.7988 31.0018 15.3831 31.1006C13.391 30.9002 11.3803 31.2594 9.39239 30.9326C7.59596 30.6375 5.73953 30.3375 4.27953 29.165C2.78025 27.9614 2.42525 26.2255 2.46382 24.4113C2.50525 22.4813 2.93668 20.5782 2.94596 18.6475C2.95739 16.2304 2.35311 13.8648 2.08168 11.4746C1.83811 9.33138 1.82025 6.98136 2.9881 5.07678C4.72453 2.24533 8.4474 1.81188 11.5795 1.91353C14.0381 1.99259 16.496 2.14717 18.9531 2.26365C21.6367 2.39142 24.311 2.19871 26.9903 2.04834C31.0231 1.82174 35.276 1.60713 39.221 2.62436C40.9931 3.0811 42.7988 3.8294 44.1203 5.11983C45.4281 6.39684 45.921 8.18634 46.0224 9.94974C46.1303 11.836 45.8946 13.7166 45.751 15.5943ZM47.0631 6.41306C46.226 4.42871 44.6103 2.99005 42.6846 2.0427C38.8553 0.157885 34.3788 0.0844852 30.191 0.170608C27.5481 0.224258 24.9124 0.453684 22.271 0.541924C19.5131 0.633694 16.7495 0.406367 13.996 0.274359C10.241 0.0936429 6.08668 -0.127324 3.00168 2.39635C1.30454 3.7849 0.493103 5.85185 0.248817 7.96821C-0.0497545 10.5547 0.558818 13.1328 0.921676 15.6811C1.08668 16.8353 1.17167 17.9994 1.10382 19.1635C1.04596 20.1757 0.913818 21.181 0.803104 22.1884C0.578104 24.2384 0.451674 26.3837 1.33167 28.3101C2.21596 30.2465 4.13382 31.4705 6.13311 32.0684C8.14383 32.6706 10.2688 32.6706 12.351 32.6212C12.8224 32.6099 13.2953 32.5922 13.7667 32.5661C14.0617 32.5499 14.3495 32.4976 14.6367 32.4383C14.3788 33.6758 13.9981 34.907 13.4345 36.0365C13.0981 36.7113 12.7481 37.4179 12.2745 38.0109C11.8045 38.6004 11.151 38.9893 10.6931 39.5922C10.2795 40.1372 10.8431 40.9045 11.4538 40.9024C12.201 40.8989 12.9767 40.9264 13.6988 40.7068C14.3724 40.5014 15.0388 40.2183 15.7003 39.9755C17.0688 39.4722 18.2781 38.8312 19.4188 37.9304C20.5353 37.0494 21.4167 36.0294 22.1931 34.8484C22.616 34.2053 23.0303 33.5544 23.4238 32.8923C23.5788 32.6318 23.731 32.3685 23.8574 32.0932C23.9096 31.9781 23.9667 31.8644 24.0167 31.7487C24.5788 31.7381 25.1403 31.7586 25.7031 31.748C26.411 31.7346 27.121 31.7614 27.826 31.8179C29.1888 31.9266 30.5396 32.144 31.8974 32.2993C33.6996 32.5061 35.5346 32.636 37.3488 32.6099C39.2403 32.5824 41.1753 32.3494 42.8946 31.5249C44.7967 30.6128 46.066 28.8565 46.591 26.8566C46.8946 25.6996 46.9681 24.5024 47.0589 23.3157C47.1653 21.9229 47.2703 20.533 47.3446 19.1373C47.4674 16.8396 47.7274 14.5502 47.831 12.2517C47.9196 10.2907 47.8374 8.24775 47.0631 6.41306Z" fill="#221E1F"/>
</svg>
