<svg width="19" height="21" viewBox="0 0 19 21" fill="none" xmlns="http://www.w3.org/2000/svg">
<g clip-path="url(#clip0)">
<path d="M11.8618 13.7812L13.0445 16.2153C12.5961 17.6392 11.7845 18.7926 10.6095 19.6756C9.43455 20.5585 8.1243 21 6.67878 21C5.47289 21 4.35783 20.6918 3.33359 20.0753C2.30936 19.4588 1.4977 18.6236 0.898619 17.5696C0.299539 16.5156 0 15.3682 0 14.1273C0 12.6875 0.403896 11.375 1.21169 10.1898C2.01948 9.00455 3.08043 8.16535 4.39454 7.67217L4.59166 9.23523C3.64859 9.66478 2.89491 10.323 2.33061 11.2099C1.76632 12.0969 1.48417 13.0693 1.48417 14.1273C1.48417 15.5989 1.99242 16.8577 3.00892 17.9037C4.02543 18.9497 5.24872 19.4727 6.67878 19.4727C7.65277 19.4727 8.55139 19.2142 9.37464 18.6972C10.1979 18.1801 10.8356 17.4821 11.2878 16.6031C11.74 15.7241 11.9314 14.7835 11.8618 13.7813L11.8618 13.7812ZM18.2159 14.9744L18.8884 16.3347L15.9201 17.8619C15.8196 17.9176 15.7075 17.9454 15.5838 17.9454C15.2746 17.9454 15.0543 17.8062 14.9229 17.5278L12.1517 11.8364H6.67877C6.49325 11.8364 6.32899 11.7707 6.18598 11.6395C6.04297 11.5082 5.95988 11.3472 5.93669 11.1563L4.82356 1.86137C4.8081 1.72614 4.83129 1.55909 4.89313 1.36023C5.00135 0.954548 5.22166 0.626418 5.55405 0.375852C5.88644 0.125284 6.26135 0 6.67877 0C7.18896 0 7.62571 0.186933 7.98902 0.560796C8.35233 0.934659 8.53399 1.38409 8.53399 1.90909C8.53399 2.45795 8.33301 2.92528 7.93105 3.31108C7.52908 3.69688 7.06528 3.86193 6.53963 3.80625L6.96865 7.25455H11.8734V8.78182H7.15417L7.33969 10.3091H12.6155C12.9247 10.3091 13.145 10.4483 13.2764 10.7267L15.9201 16.1557L18.2159 14.9744Z" fill="#34349E"/>
</g>
<defs>
<clipPath id="clip0">
<rect width="19" height="21" fill="white"/>
</clipPath>
</defs>
</svg>
