<svg width="59" height="54" viewBox="0 0 59 54" fill="none" xmlns="http://www.w3.org/2000/svg">
<path d="M55.1587 50.9397C55.1633 50.9388 55.1678 50.9369 55.1733 50.9351C55.1788 50.9315 55.1834 50.9288 55.1898 50.9242C55.2446 50.886 55.2099 50.9069 55.1587 50.9397ZM57.2698 44.7608C57.2679 45.0851 57.2624 45.4085 57.2588 45.7328C55.3835 45.8385 53.4772 45.7619 51.6037 45.7738C47.1147 45.8038 42.6258 45.8239 38.1368 45.8485C32.8062 45.8776 27.4755 45.9004 22.1448 45.9141C17.5498 45.9259 12.9558 45.935 8.36172 45.9287C6.8328 45.9259 5.30566 45.9241 3.77766 45.9468C3.44135 45.9514 3.11512 45.9496 2.78429 46.0024C2.67554 46.0198 2.56587 46.0352 2.4562 46.0525C2.40228 46.0607 2.3959 46.058 2.41052 46.0507C2.40595 46.0516 2.40321 46.0526 2.39864 46.0544C2.32644 46.0762 2.2661 46.0999 2.20944 46.1272C2.20944 46.1208 2.20216 46.1154 2.18662 46.1126C2.13179 46.1035 2.00841 46.1591 1.95358 46.1773C1.9417 46.1809 1.9298 46.1837 1.91883 46.1874C1.92888 45.782 1.87678 45.3575 1.86673 44.9831C1.85942 44.7053 1.84482 44.4256 1.80644 44.1523C1.92707 44.187 2.03856 44.2188 1.89691 44.1787C1.77353 44.1432 1.83844 44.1715 1.86768 44.1806C1.94902 44.2061 2.03128 44.2425 2.11445 44.2598C2.18299 44.2744 2.27798 44.3336 2.22132 44.2981C2.25148 44.3145 2.27529 44.3272 2.28808 44.3309C2.32738 44.3418 2.36848 44.3464 2.41052 44.3491C2.39772 44.3582 2.62617 44.4056 2.69014 44.3946C2.69379 44.3946 2.72854 44.3955 2.75138 44.3946C2.89669 44.4247 3.08772 44.4621 3.0667 44.4602C3.12245 44.4648 3.17818 44.4621 3.23393 44.4648C3.38289 44.473 3.53273 44.4757 3.68261 44.4803C3.98876 44.4903 4.29491 44.5003 4.60106 44.5094C5.35775 44.5331 6.11354 44.5377 6.87115 44.5413C11.2687 44.5613 15.6664 44.5623 20.0639 44.5604C25.4065 44.5586 30.749 44.5504 36.0915 44.5404C40.7962 44.5322 45.5017 44.5167 50.2064 44.4885C52.5587 44.4739 54.9229 44.5185 57.2752 44.4293C57.2716 44.5386 57.2707 44.6497 57.2698 44.7608ZM55.4228 49.9868C55.3899 50.1909 55.3387 50.4041 55.2656 50.5972C55.2346 50.6774 55.2017 50.7493 55.1624 50.8258C55.1487 50.8513 55.1349 50.8768 55.1212 50.9023C55.1039 50.9269 55.0893 50.9479 55.0765 50.9661C54.9065 51.0107 54.7365 51.0536 54.5638 51.0882C54.338 51.1337 54.1114 51.1674 53.8848 51.2029C53.8747 51.2048 53.8665 51.2057 53.8583 51.2075C53.8089 51.2139 53.7605 51.2203 53.7111 51.2257C53.5558 51.2449 53.4004 51.263 53.2442 51.2794C52.5277 51.356 51.8093 51.4125 51.091 51.4608C46.8168 51.7459 42.5262 51.8023 38.2446 51.8506C33.0977 51.9089 27.9498 51.9053 22.8028 51.8761C18.5917 51.8524 14.3796 51.7659 10.1685 51.7595C8.97767 51.7577 7.78594 51.7559 6.59515 51.7531C6.33013 51.7522 6.06606 51.7541 5.80103 51.7531C5.17045 51.7522 4.52889 51.7012 3.97416 51.3797C3.38563 51.0381 3.12884 50.456 2.95977 49.8238C2.77334 49.1288 2.79163 48.4264 2.68105 47.735C2.68379 47.7341 2.6874 47.7341 2.69014 47.7341C2.69379 47.7332 2.72762 47.735 2.75138 47.7341C2.89669 47.7633 3.08772 47.8015 3.0667 47.7997C3.12245 47.8042 3.17818 47.8015 3.23393 47.8042C3.38289 47.8124 3.53273 47.8143 3.68261 47.8197C3.98876 47.8298 4.29491 47.8398 4.60106 47.8489C5.35775 47.8726 6.11354 47.8771 6.87115 47.8799C11.2687 47.9008 15.6664 47.9008 20.0639 47.8999C25.4065 47.8972 30.749 47.8899 36.0915 47.8799C40.7962 47.8717 45.5017 47.8562 50.2064 47.8279C51.9373 47.817 53.6746 47.838 55.4082 47.8152C55.4301 48.5394 55.5371 49.2654 55.4228 49.9868ZM55.1733 50.9351C55.1395 50.9579 55.1203 50.9688 55.1112 50.9715C55.1276 50.9606 55.1432 50.9497 55.1587 50.9397C55.1459 50.9442 55.1341 50.9479 55.1222 50.9515C55.1633 50.9151 55.262 50.8504 55.2784 50.8969C55.2793 50.8996 55.2254 50.9178 55.1733 50.9351ZM55.0518 51.0335C55.0591 51.0262 55.0673 51.018 55.0765 51.008C55.0701 51.0153 55.0591 51.0272 55.0518 51.0335ZM10.3357 36.6663C8.98771 37.6911 8.25844 39.1012 7.60319 40.6097C7.40488 40.6653 7.20564 40.7144 7.00368 40.7591C7.04663 39.9584 7.19377 39.1531 7.35096 38.3761C7.56846 37.2985 7.96049 36.1853 8.52527 35.2371C8.98586 34.4637 9.59454 33.6948 10.2873 33.1164C10.5166 32.926 10.7597 32.6864 11.0174 32.4869C11.393 32.5516 11.7211 32.3303 11.892 32.0178C12.0455 32.2592 12.3088 32.4304 12.6816 32.435C13.2245 32.4395 13.7682 32.4542 14.312 32.4569C14.8046 32.4596 15.3803 32.4969 15.8784 32.3612C15.9597 32.3803 16.0419 32.3922 16.1242 32.3922C16.7803 32.3922 17.2044 31.8721 17.2574 31.2617C17.3606 30.0557 17.7052 28.6783 18.3138 27.4914C18.6483 26.8391 19.0605 26.1578 19.511 25.5793C19.7148 25.3179 19.9826 25.1949 20.254 25.0164C20.297 24.9881 20.3363 24.9599 20.3737 24.9299C20.7594 25.031 21.1057 24.8242 21.2985 24.5099C21.3717 24.6019 21.4594 24.6757 21.559 24.7203C21.7555 24.8068 22.0333 25.2833 22.2115 25.5128C22.5058 25.8899 22.7964 26.2653 23.0587 26.6661C23.3457 27.1052 23.6399 27.5433 23.9205 27.9851C23.9287 27.9988 23.9388 28.0125 23.947 28.0252C23.5257 27.854 23.0815 27.7546 22.6356 27.6572C22.2197 27.567 21.7793 27.4777 21.4348 27.209C21.0372 26.9002 20.8791 26.319 20.6131 25.9063C20.4934 25.7214 20.2065 25.6522 20.0438 25.8326C19.49 26.4502 19.3758 27.2727 19.7788 28.0224C19.9661 28.3695 20.2138 28.6437 20.5053 28.8623C20.4962 29.0436 20.5081 29.2258 20.5199 29.3825C20.5912 30.288 20.8727 31.2153 21.0783 32.0962C21.3214 33.1419 21.5654 34.184 21.8067 35.2288C22.0059 36.0933 22.0151 37.0079 22.2399 37.8787C22.4537 38.7086 22.6831 39.5257 22.7434 40.3683C22.6374 40.3729 22.5323 40.372 22.4281 40.3638C22.3011 39.8045 22.1266 39.2479 21.8871 38.7541C21.5335 38.0254 20.9312 37.3832 20.3408 36.8375C18.97 35.5713 17.124 35.1041 15.2862 35.0758C15.0495 35.0722 14.8118 35.0803 14.5724 35.0986C14.4289 35.0758 14.2745 35.0867 14.1429 35.1432C12.773 35.3208 11.4177 35.8446 10.3357 36.6663ZM8.73823 30.3098C8.24473 30.3791 7.77592 30.5302 7.32446 30.7243C7.25226 30.5229 7.17916 30.3207 7.10056 30.1231C7.39758 29.7824 7.71012 29.4608 8.07385 29.1775C8.53444 28.815 9.0261 28.3786 9.6448 28.5991C10.2553 28.8177 10.7168 29.3105 11.0348 29.8571C11.2203 30.175 11.4086 30.4974 11.5941 30.8217C11.1829 30.5658 10.789 30.2779 10.2927 30.2287C9.77639 30.175 9.25 30.2388 8.73823 30.3098ZM7.64246 32.4395C7.6452 32.4323 7.64888 32.4259 7.65071 32.4204C7.65619 32.4177 7.66165 32.4159 7.66622 32.4159L7.64246 32.4395ZM13.4475 15.9735C15.6536 15.9763 17.8587 15.9754 20.0639 15.9754C20.6936 15.9745 21.3224 15.9735 21.9511 15.9735C21.5773 16.6877 21.0966 17.3873 20.4688 17.8146C19.6088 18.3994 18.5487 18.4768 17.5362 18.4504C16.4962 18.424 15.3876 18.1553 14.5989 17.4411C14.2206 17.0986 13.919 16.7315 13.6366 16.3088C13.5653 16.2022 13.5041 16.0892 13.4475 15.9735ZM12.848 13.7527C12.805 13.7828 12.7629 13.8138 12.72 13.8447C12.7063 13.8547 12.6926 13.8648 12.6789 13.8748C12.5893 13.9413 12.5381 13.9704 12.5272 13.9722C12.5135 13.9832 12.4989 13.9932 12.4861 14.0041C11.1116 14.0041 9.7362 14.0059 8.36172 14.0041C7.46247 14.0023 6.56408 14.0014 5.66482 14.006C7.62692 13.1879 9.59178 12.3763 11.5612 11.5738C15.5283 9.95685 19.5174 8.38731 23.4764 6.74764C20.5858 8.62598 17.6878 10.498 14.8292 12.4264C14.3229 12.768 13.8157 13.1096 13.3076 13.4485C13.155 13.5505 12.9987 13.6479 12.848 13.7527ZM6.24609 17.8118C5.24082 17.8 4.16153 17.6287 3.27141 17.1405C2.83823 16.9027 2.45349 16.6003 2.20765 16.163C2.11261 15.9954 2.05042 15.8169 1.99285 15.6393C2.03306 15.6529 2.07332 15.6666 2.11445 15.6748C2.18299 15.6893 2.27798 15.7477 2.22132 15.713C2.25148 15.7294 2.27529 15.7422 2.28808 15.7458C2.32738 15.7558 2.36848 15.7613 2.41052 15.7641C2.39772 15.7732 2.62617 15.8205 2.69014 15.8096C2.69379 15.8087 2.72854 15.8105 2.75138 15.8096C2.89669 15.8387 3.08772 15.877 3.0667 15.8752C3.12245 15.8797 3.17818 15.877 3.23393 15.8797C3.38289 15.8879 3.53273 15.8897 3.68261 15.8952C3.98876 15.9052 4.29491 15.9153 4.60106 15.9244C5.35775 15.9481 6.11354 15.9526 6.87115 15.9553C8.20724 15.9617 9.54243 15.9663 10.8785 15.969C9.74256 17.2307 7.94956 17.8309 6.24609 17.8118ZM27.491 5.77477C27.2141 6.22477 26.9381 6.67476 26.6594 7.12476C25.4951 9.00766 24.4204 10.9562 23.3283 12.8828C23.1775 13.1497 22.875 13.5714 22.7142 13.9877C22.5241 13.9886 22.334 13.9896 22.1448 13.9896C19.9378 13.9959 17.7308 14.0005 15.5247 14.0032C16.7109 13.208 17.8889 12.4018 19.0642 11.5883C21.8707 9.64713 24.6881 7.72143 27.491 5.77477ZM29.2137 5.36395C29.3032 5.1936 29.3937 5.0187 29.4769 4.84107C29.4796 4.85291 29.4823 4.86475 29.4851 4.8766C29.6706 5.70645 29.9567 6.5199 30.2098 7.33154C30.7974 9.22172 31.4883 11.0819 32.1436 12.9493C32.2578 13.2745 32.3537 13.6161 32.4625 13.9513C29.7931 13.9631 27.1236 13.9732 24.4542 13.9814C24.4752 13.9413 24.4953 13.9012 24.5164 13.8638C24.9879 13.0112 25.4686 12.1631 25.9484 11.3151C27.0642 9.34471 28.1636 7.37073 29.2137 5.36395ZM28.871 1.59176C29.062 1.48063 29.3663 1.46878 29.5792 1.45421C30.0133 1.42597 30.2793 1.34492 30.3505 1.83409C30.4054 2.21486 30.4008 2.61384 30.3944 3.01192C30.356 3.00737 30.3176 3.00281 30.2802 3.00008C30.218 2.99643 30.1641 3.0019 30.1102 3.01192C30.1029 3.01283 30.0956 3.01373 30.0892 3.01465C30.0892 3.01556 30.0873 3.01554 30.0873 3.01645C30.0672 3.02101 30.0472 3.02466 30.0261 3.03013C29.9731 3.03013 29.9064 3.02284 29.9137 3.02193C29.8899 3.02466 29.8616 3.03287 29.8342 3.04289C29.8205 3.04198 29.8059 3.04196 29.7921 3.04378C29.7492 3.05016 29.7044 3.05016 29.6615 3.05198C29.6276 3.05016 29.5939 3.04652 29.56 3.04561C29.3352 3.04015 29.7328 3.05928 29.5665 3.05746C29.4111 3.05472 29.0254 3.0019 29.4019 3.06657C29.1013 3.01465 28.8436 3.04105 28.5657 3.09571C28.6407 2.81878 28.659 2.52548 28.6608 2.2103C28.6626 1.94704 28.6288 1.73386 28.871 1.59176ZM32.0111 6.50534C33.4011 7.55929 34.8386 8.54035 36.2359 9.58246C37.5949 10.5954 38.91 11.6658 40.2762 12.6687C40.8501 13.0895 41.4341 13.4977 42.019 13.9039C40.7249 13.9103 39.4309 13.9167 38.1368 13.924C36.7642 13.9312 35.3924 13.9367 34.0207 13.944C33.9439 13.5769 33.7639 13.1934 33.6569 12.8791C33.37 12.0383 33.0775 11.1985 32.7623 10.3686C32.1801 8.8355 31.5907 7.30514 30.983 5.78297C31.3284 6.02254 31.6812 6.25574 32.0111 6.50534ZM39.2901 8.14409C43.9682 10.0306 48.651 11.9081 53.3026 13.8556C52.7342 13.8511 52.1676 13.8465 51.6037 13.8502C49.5182 13.8638 47.4337 13.8748 45.3491 13.8857C44.9013 13.4776 44.2616 13.1916 43.7782 12.8973C43.0882 12.4765 42.432 11.9828 41.774 11.5145C40.3648 10.5125 39.0232 9.42031 37.6479 8.37365C36.7011 7.65311 35.725 6.97264 34.7518 6.28853C36.2606 6.91616 37.774 7.53285 39.2901 8.14409ZM56.153 15.877C56.0781 16.071 55.9967 16.2632 55.8944 16.4482C55.5964 16.9874 55.2117 17.4256 54.7036 17.7781C53.6435 18.5132 52.3102 19.0051 51.0124 19.027C49.6992 19.0498 48.3649 18.71 47.3761 17.8164C46.762 17.2616 46.2512 16.6076 45.7878 15.9244C47.261 15.918 48.7332 15.9116 50.2064 15.9034C52.1849 15.8907 54.1717 15.9207 56.153 15.877ZM42.7199 17.1195C41.9687 18.096 40.756 18.5451 39.5606 18.6398C38.2501 18.7437 36.9195 18.6071 35.8357 17.8164C35.3705 17.4775 34.9547 17.0576 34.6339 16.5802C34.5096 16.3953 34.3524 16.1831 34.2089 15.9581C34.8368 15.9572 35.4637 15.9563 36.0915 15.9553C38.516 15.9508 40.9397 15.9444 43.3642 15.9353C43.2225 16.3634 42.9876 16.7715 42.7199 17.1195ZM35.906 32.4159L35.8822 32.4395C35.885 32.4323 35.8877 32.4259 35.8905 32.4204C35.896 32.4177 35.9005 32.4159 35.906 32.4159ZM35.5642 30.7243C35.492 30.5229 35.418 30.3207 35.3394 30.1231C35.6373 29.7824 35.9499 29.4608 36.3127 29.1775C36.7742 28.815 37.2659 28.3786 37.8836 28.5991C38.495 28.8177 38.9566 29.3105 39.2746 29.8571C39.4592 30.175 39.6483 30.4974 39.8329 30.8217C39.4226 30.5658 39.0287 30.2779 38.5325 30.2287C38.0162 30.175 37.4898 30.2388 36.978 30.3098C36.4845 30.3791 36.0157 30.5302 35.5642 30.7243ZM23.9113 15.9717C26.5936 15.969 29.2758 15.9663 31.958 15.9617C31.9133 16.0728 31.8612 16.1822 31.7972 16.2887C31.5322 16.7324 31.1941 17.114 30.8075 17.4547C30.0974 18.0805 29.1625 18.5133 28.2139 18.5998C26.3276 18.771 24.4332 17.7763 23.9113 15.9717ZM15.723 41.3612C15.7294 40.7582 15.7194 40.1542 15.7084 39.5512C15.6974 38.9964 15.6828 38.4453 15.6353 37.8924C15.606 37.5462 15.6124 37.0844 15.563 36.6326C16.8891 36.6863 18.259 37.0161 19.2487 37.9261C19.766 38.4016 20.232 38.9327 20.7393 39.4191C21.0244 39.6924 21.3242 39.9976 21.5015 40.3528C21.5517 40.4539 21.5928 40.5587 21.6285 40.6671C21.1441 41.2182 21.2374 42.3314 22.1156 42.5063C22.6813 42.6192 23.2369 42.5126 23.8035 42.4589C24.3719 42.4043 24.8993 42.0098 24.8819 41.3831C24.8316 39.4437 24.2513 37.2511 23.4973 35.4438C23.0934 34.4773 22.9143 33.3815 22.6694 32.363C22.4464 31.4339 22.2225 30.5056 21.9831 29.581C21.9767 29.5546 21.9684 29.531 21.962 29.5055C22.482 29.6294 23.0276 29.7067 23.4773 29.9964C23.8657 30.2451 24.2613 30.4182 24.7375 30.3134C25.124 30.2287 25.4485 29.9992 25.8104 29.858C26.292 29.6694 26.6749 29.1976 26.4995 28.6474C26.1485 27.546 25.3096 26.483 24.6534 25.5438C24.3153 25.0592 23.9562 24.5992 23.5906 24.1374C23.3905 23.8841 23.2058 23.5862 22.971 23.3521C22.9253 22.965 22.8786 22.5569 22.9572 22.2207C23.1364 21.4619 22.344 20.848 21.6522 21.2214C21.0966 21.5211 20.6689 22.1724 20.2833 22.6516C20.0877 22.8957 19.8747 23.1818 19.7413 23.4769C19.2314 23.578 18.7196 23.7903 18.355 24.0381C17.5837 24.5646 16.9878 25.4445 16.5181 26.2325C15.9195 27.2391 15.5146 28.3048 15.2651 29.4171C15.2633 28.9316 15.2624 28.4469 15.2569 27.9632C15.2414 26.6333 15.1793 25.3088 15.1253 23.9807C15.0742 22.709 15.1527 21.4209 15.0083 20.1548C14.99 19.9981 14.9736 19.8177 14.9508 19.6291C15.6563 19.9206 16.423 20.08 17.1679 20.1383C18.5268 20.2431 20.0265 20.1046 21.2109 19.3823C21.9173 18.9523 22.4848 18.3365 22.9518 17.6451C23.7706 19.4023 26.1239 20.4982 28.0558 20.3934C29.4741 20.3169 30.7938 19.7703 31.8868 18.8731C32.3684 18.4786 32.7979 18.0086 33.1489 17.4903C33.4221 17.963 33.7547 18.3957 34.0609 18.7428C35.1886 20.0217 36.8099 20.51 38.4722 20.5811C39.5424 20.6275 40.6536 20.5064 41.6662 20.1365C41.6808 20.6594 41.7457 21.1914 41.7484 21.6869C41.7539 22.7372 41.7457 23.7857 41.7576 24.8351C41.7695 25.8954 41.806 26.9557 41.8645 28.0152C41.9093 28.8359 41.8298 29.6812 41.9093 30.5038C41.6379 30.4892 41.3655 30.4765 41.0932 30.4701C40.9369 29.8762 40.6783 29.2896 40.3904 28.7922C39.9353 28.0061 39.2161 27.301 38.3699 26.9475C36.4617 26.1496 34.4365 27.7646 33.3115 29.1802C32.9944 29.581 32.8985 30.0256 33.1415 30.492C33.3463 30.8818 33.5043 31.2945 33.6451 31.7118C33.7876 32.1353 33.8626 32.5507 34.2254 32.8577C34.7774 33.3259 35.471 33.1728 35.8036 32.5962C36.2359 32.3393 36.7267 32.1572 37.2184 32.0743C37.4386 32.036 37.6789 32.0033 37.912 31.9941C37.9019 32.0005 37.891 32.0078 37.88 32.015C36.9762 32.6126 36.2213 33.4626 35.6474 34.3735C35.0022 35.3956 34.5279 36.6362 34.2683 37.8122C34.0033 39.0137 33.7666 40.3173 33.8178 41.5498C33.8397 42.0672 34.3113 42.2904 34.7052 42.2175C35.3184 42.3869 36.1564 42.2011 36.6691 42.0909C36.9524 42.0299 37.169 41.7784 37.2494 41.5124C37.6543 40.1788 38.2931 38.8917 39.3961 37.9953C40.2058 37.3376 41.2467 36.9031 42.3032 36.7209C42.3004 36.7637 42.2977 36.8056 42.2958 36.8448C42.2657 37.6127 42.2931 38.3551 42.39 39.1176C42.4832 39.86 42.5079 40.5997 42.6221 41.3366C42.6833 41.7302 42.6669 42.1118 42.7281 42.4853C41.1974 42.4926 39.6676 42.5008 38.1368 42.509C32.8062 42.5382 27.4755 42.5609 22.1448 42.5746C19.9862 42.581 17.8286 42.5856 15.6709 42.5883C15.7477 42.1957 15.7194 41.7356 15.723 41.3612ZM44.7085 41.9169C44.7167 41.7193 44.7249 41.5817 44.6856 41.3767C44.6262 41.0707 44.5504 40.7673 44.5129 40.4576C44.4216 39.696 44.3064 38.9072 44.2598 38.1429C44.2287 37.631 44.1977 37.1163 44.1392 36.6526C45.3574 36.7464 46.5819 37.0926 47.4885 37.9261C48.0058 38.4016 48.4718 38.9327 48.979 39.4191C49.2642 39.6924 49.563 39.9976 49.7412 40.3528C49.7915 40.4539 49.8317 40.5587 49.8674 40.6671C49.4232 41.1727 49.468 42.151 50.157 42.4434C48.3585 42.4543 46.56 42.4653 44.7624 42.4744C44.7478 42.3551 44.7167 42.2366 44.6656 42.1255C44.7615 42.3332 44.7058 41.9934 44.7085 41.9169ZM44.1181 32.3612C44.1986 32.3803 44.2817 32.3922 44.3631 32.3922C45.0201 32.3922 45.4442 31.8721 45.4972 31.2617C45.6004 30.0557 45.945 28.6783 46.5536 27.4914C46.8881 26.8391 47.2993 26.1578 47.7508 25.5793C47.9546 25.3179 48.2224 25.1949 48.4929 25.0164C48.5358 24.9881 48.576 24.9599 48.6135 24.9299C48.9992 25.031 49.3446 24.8242 49.5383 24.5099C49.6114 24.6019 49.6992 24.6757 49.7988 24.7203C49.9944 24.8068 50.2731 25.2833 50.4513 25.5128C50.7456 25.8899 51.0362 26.2653 51.2985 26.6661C51.5854 27.1052 51.8797 27.5433 52.1603 27.9851C52.1685 27.9988 52.1776 28.0125 52.1868 28.0252C51.7645 27.854 51.3213 27.7546 50.8753 27.6572C50.4586 27.567 50.0191 27.4777 49.6745 27.209C49.277 26.9002 49.1189 26.319 48.8529 25.9063C48.7332 25.7214 48.4453 25.6522 48.2836 25.8326C47.7298 26.4502 47.6146 27.2727 48.0186 28.0224C48.2059 28.3695 48.4536 28.6437 48.7451 28.8623C48.735 29.0436 48.7478 29.2258 48.7597 29.3825C48.831 30.288 49.1125 31.2153 49.3181 32.0962C49.5612 33.1419 49.8052 34.184 50.0465 35.2288C50.2448 36.0933 50.2548 37.0079 50.4796 37.8787C50.6935 38.7086 50.9229 39.5257 50.9832 40.3683C50.8772 40.3729 50.7721 40.372 50.6679 40.3638C50.54 39.8045 50.3654 39.2479 50.126 38.7541C49.7732 38.0254 49.171 37.3832 48.5806 36.8375C47.2098 35.5713 45.3637 35.1041 43.5259 35.0758C41.7905 35.0485 39.9591 35.6151 38.5755 36.6663C37.2266 37.6911 36.4973 39.1012 35.843 40.6097C35.6447 40.6653 35.4454 40.7144 35.2426 40.7591C35.2864 39.9584 35.4326 39.1531 35.5898 38.3761C35.8082 37.2985 36.2003 36.1853 36.765 35.2371C37.2256 34.4637 37.8343 33.6948 38.527 33.1164C38.7564 32.926 38.9995 32.6864 39.2572 32.4869C39.6319 32.5516 39.9609 32.3303 40.1318 32.0178C40.2853 32.2592 40.5476 32.4304 40.9205 32.435C41.4642 32.4395 42.008 32.4542 42.5518 32.4569C43.0434 32.4596 43.6201 32.4969 44.1181 32.3612ZM58.7594 44.7608C58.7292 44.4274 58.7073 44.094 58.6159 43.7861C58.6671 43.6677 58.6964 43.5356 58.6964 43.3917C58.6964 42.8697 58.2266 42.3295 57.671 42.3696C55.8606 42.4999 54.0173 42.438 52.1977 42.4343C52.7031 42.3296 53.1372 41.9524 53.1217 41.3831C53.0705 39.4437 52.4911 37.2511 51.7362 35.4438C51.3332 34.4773 51.1541 33.3815 50.9091 32.363C50.6852 31.4339 50.4623 30.5056 50.2228 29.581C50.2164 29.5546 50.2082 29.531 50.2009 29.5055C50.7209 29.6294 51.2665 29.7067 51.7162 29.9964C52.1055 30.2451 52.5011 30.4182 52.9773 30.3134C53.3638 30.2287 53.6883 29.9992 54.0502 29.858C54.5309 29.6694 54.9147 29.1976 54.7393 28.6474C54.3883 27.546 53.5494 26.483 52.8923 25.5438C52.5551 25.0592 52.195 24.5992 51.8294 24.1374C51.6293 23.8841 51.4456 23.5862 51.2107 23.3521C51.165 22.965 51.1175 22.5569 51.197 22.2207C51.3761 21.4619 50.5838 20.848 49.892 21.2214C49.3364 21.5211 48.9087 22.1724 48.523 22.6516C48.3275 22.8957 48.1145 23.1818 47.9811 23.4769C47.4702 23.578 46.9594 23.7903 46.5938 24.0381C45.8234 24.5646 45.2276 25.4445 44.7579 26.2325C44.364 26.8938 44.0551 27.5806 43.8184 28.2884C43.7754 27.0304 43.7242 25.7734 43.6521 24.5172C43.5936 23.507 43.5469 22.4886 43.4263 21.4829C43.3697 21.0065 43.3103 20.5264 43.2097 20.0573C43.1613 19.8359 43.09 19.6383 43.0023 19.4479C43.0251 19.4324 43.0498 19.4169 43.0727 19.4005C43.7937 18.8804 44.4252 18.1644 44.8511 17.3509C45.1709 17.964 45.5383 18.5333 46.0336 19.0334C47.2866 20.2996 49.0394 20.9773 50.8169 20.9937C54.0749 21.0229 57.6554 18.9232 58.3079 15.5919C58.5419 15.4106 58.6964 15.1382 58.6964 14.8067C58.6964 14.2847 58.2266 13.7445 57.671 13.7846C57.6655 13.7846 57.66 13.7855 57.6554 13.7855C57.4434 13.6844 57.2223 13.5979 57.0194 13.5068C56.3157 13.1916 55.6056 12.89 54.8946 12.5894C52.7388 11.6776 50.5664 10.804 48.396 9.92862C43.6246 8.00473 38.8578 6.06261 34.049 4.23346C33.3581 3.9702 32.6572 3.64592 31.9444 3.40726C31.8914 2.60381 31.8767 1.73753 31.5459 1.02518C31.1803 0.2354 30.4538 0.0541161 29.6459 0.105128C28.8847 0.154319 27.9891 0.32466 27.5843 1.04703C27.3585 1.44784 27.3631 1.92516 27.4115 2.36878C27.4371 2.59834 27.4517 2.84702 27.5047 3.07111C27.5285 3.16949 27.5669 3.25878 27.6126 3.34532C27.0551 3.52751 26.5132 3.76161 25.9667 3.96931C23.7734 4.80554 21.5892 5.66364 19.4087 6.53358C14.6738 8.42103 9.93085 10.293 5.22528 12.2542C4.3242 12.6295 3.42492 13.0103 2.53206 13.4056C2.04222 13.6224 1.42903 13.8138 1.04154 14.1982C0.735391 14.5024 0.745402 14.9424 0.940972 15.2639C0.645789 16.2423 1.32393 17.4711 2.02213 18.1079C3.04568 19.0416 4.54257 19.4624 5.9006 19.5362C8.2054 19.6592 10.7734 18.7965 12.2904 17.0038C12.5491 17.6005 12.9329 18.158 13.2245 18.4704C13.2967 18.5478 13.3725 18.6216 13.4502 18.6927C13.4164 18.894 13.3789 19.0944 13.3679 19.2957C13.3432 19.7512 13.3889 20.2057 13.356 20.6667C13.2674 21.9147 13.2226 23.159 13.2199 24.4115C13.2181 25.6312 13.2601 26.8501 13.261 28.0698C13.2619 28.6346 13.2574 29.2003 13.2555 29.766C13.2537 30.0128 13.2409 30.2524 13.2491 30.4829C13.1175 30.4774 12.985 30.4729 12.8534 30.4701C12.6981 29.8762 12.4385 29.2896 12.1507 28.7922C11.6956 28.0061 10.9763 27.301 10.1301 26.9475C8.2219 26.1496 6.19671 27.7646 5.07172 29.1802C4.75461 29.581 4.65865 30.0256 4.90266 30.492C5.10645 30.8818 5.26454 31.2945 5.40528 31.7118C5.54785 32.1353 5.62279 32.5507 5.9856 32.8577C6.5385 33.3259 7.23216 33.1728 7.56481 32.5962C7.99616 32.3393 8.48783 32.1572 8.97858 32.0743C9.19974 32.036 9.43918 32.0033 9.67314 31.9941C9.66217 32.0005 9.65117 32.0078 9.64112 32.015C8.73638 32.6126 7.98154 33.4626 7.40763 34.3735C6.76334 35.3956 6.28901 36.6362 6.02855 37.8122C5.76353 39.0137 5.52685 40.3173 5.57803 41.5498C5.59996 42.0672 6.07242 42.2904 6.4663 42.2175C7.07952 42.3869 7.91755 42.2011 8.42933 42.0909C8.71354 42.0299 8.92923 41.7784 9.00965 41.5124C9.4145 40.1788 10.0533 38.8917 11.1564 37.9953C11.8436 37.4369 12.6981 37.0389 13.5864 36.8202C13.569 37.2666 13.5955 37.7193 13.6064 38.1684C13.6174 38.6448 13.6165 39.1213 13.6238 39.5977C13.6321 40.1479 13.6375 40.699 13.632 41.2501C13.6293 41.5188 13.6248 41.7885 13.6092 42.0572C13.6056 42.121 13.6 42.1847 13.5946 42.2485C13.6064 42.0799 13.5717 42.4471 13.558 42.5555C13.5562 42.5664 13.5571 42.5782 13.5562 42.5892C11.8244 42.5901 10.0926 42.5919 8.36172 42.5892C6.8328 42.5864 5.30566 42.5846 3.77766 42.6074C3.44135 42.6129 3.11512 42.6101 2.78429 42.663C2.67554 42.6812 2.56587 42.6957 2.4562 42.713C2.40228 42.7212 2.3959 42.7185 2.41052 42.7112C2.40595 42.713 2.40321 42.714 2.39864 42.7149C2.32644 42.7367 2.2661 42.7614 2.20944 42.7878C2.20944 42.7814 2.20216 42.7759 2.18662 42.7732C2.13179 42.764 2.00841 42.8205 1.95358 42.8388C1.94079 42.8424 1.92705 42.8451 1.91426 42.8488C1.88318 42.8551 1.84209 42.8634 1.78451 42.8743C1.77263 42.8788 1.76168 42.8834 1.75071 42.8889C1.75071 42.8861 1.74066 42.8861 1.71964 42.8907C1.69314 42.8925 1.61636 42.918 1.57523 42.9171C1.60173 42.9298 1.61912 42.938 1.57434 42.9171C1.56794 42.9171 1.56151 42.9162 1.55694 42.9144C1.55328 42.9125 1.55053 42.9107 1.54779 42.9089C1.48108 42.8943 1.24713 42.8443 1.58801 42.9417C1.44544 42.9007 1.323 42.9107 1.22065 42.9526C0.983952 42.8852 0.696974 42.9663 0.583653 43.1959C0.308575 43.7524 0.261972 44.37 0.245522 44.9831C0.229072 45.5989 0.100248 46.3331 0.313182 46.9152C0.487733 47.3935 0.959303 47.5556 1.33856 47.4053C1.36598 47.4125 1.39334 47.4199 1.42167 47.4253C1.53042 48.472 1.12197 49.5159 1.37421 50.5781C1.56612 51.3897 2.00657 52.163 2.66091 52.6887C3.60586 53.4484 4.78384 53.626 5.96457 53.6479C6.90039 53.6643 7.83533 53.6916 8.77114 53.7153C12.8215 53.82 16.8745 53.8437 20.9257 53.8774C26.239 53.9211 31.5541 53.9403 36.8674 53.8993C41.4039 53.8647 45.9487 53.8182 50.4788 53.5522C51.919 53.4684 53.3693 53.3719 54.7931 53.1323C55.23 53.0594 55.6705 52.9683 56.0707 52.7716C57.0824 52.2733 57.3749 50.8795 57.4526 49.8657C57.5046 49.1734 57.4626 48.461 57.352 47.7651C57.3968 47.7633 57.4407 47.7624 57.4855 47.7605C57.5476 47.7578 57.6088 47.7578 57.671 47.7533C58.0164 47.7287 58.3299 47.5629 58.5172 47.2996C58.742 47.1766 58.9056 46.948 58.9038 46.6128C58.9002 45.9951 58.817 45.3757 58.7594 44.7608ZM12.5272 13.9722C12.5646 13.9449 12.6048 13.9176 12.6514 13.8939C12.5537 13.9449 12.5153 13.975 12.5272 13.9722ZM2.41052 46.0507C2.64539 45.9797 2.44982 46.0307 2.41052 46.0507V46.0507ZM2.41052 42.7112C2.64539 42.6402 2.44982 42.6921 2.41052 42.7112V42.7112ZM1.57434 42.9171H1.57523C1.54233 42.9016 1.49753 42.8825 1.54779 42.9089C1.55876 42.9117 1.56519 42.9125 1.56519 42.9125C1.56885 42.9144 1.5716 42.9162 1.57434 42.9171Z" fill="#221E1F"/>
</svg>
