<svg width="23" height="23" viewBox="0 0 23 23" fill="none" xmlns="http://www.w3.org/2000/svg">
<mask id="path-1-outside-1" maskUnits="userSpaceOnUse" x="0.0322266" y="0.0342407" width="23" height="23" fill="black">
<rect fill="white" x="0.0322266" y="0.0342407" width="23" height="23"/>
<path d="M15.5858 20.359C11.8319 22.0998 7.37061 20.5984 4.60472 17.7529C3.19367 16.3014 2.20147 14.4472 1.9197 12.4315C1.64236 10.4494 2.1386 8.41949 3.16807 6.71624C4.21207 4.98929 5.80287 3.62057 7.6192 2.75694C8.51853 2.32923 9.48546 2.04019 10.4685 1.8832C11.0229 1.79475 11.5918 1.76727 12.1522 1.79633C12.2078 1.79949 12.263 1.80328 12.3183 1.80802C12.4845 1.86614 12.6519 1.91826 12.8269 1.94701C13.1301 1.9966 13.4312 2.04714 13.7309 2.11632C13.9852 2.17508 14.2402 2.24205 14.4916 2.31975C14.3731 2.33649 14.255 2.35797 14.1365 2.38514C13.658 2.49538 13.1927 2.67828 12.7678 2.9253C12.0012 3.37133 11.0841 4.17084 11.0472 5.12828C11.0289 5.60274 11.3018 5.96538 11.6812 6.21714C12.0305 6.44868 12.4636 6.56903 12.7726 6.86091C13.024 7.09877 13.0676 7.40929 12.9684 7.7078C12.8822 7.96777 12.6778 8.19584 12.4418 8.32314C12.3231 8.38727 12.1676 8.41728 11.9879 8.40022C11.7478 8.37716 11.5055 8.28839 11.2885 8.187C10.8393 7.97725 10.4015 7.73496 9.92926 7.5786C9.01415 7.27535 8.04817 7.4832 7.26225 8.01926C6.49592 8.54205 5.90964 9.34661 5.65441 10.2399C5.40549 11.1118 5.34831 12.278 5.97882 13.0077C6.51013 13.6227 7.3924 13.5769 8.12935 13.57C8.42881 13.5671 8.86221 13.5213 9.05553 13.7955C9.1702 13.9582 9.23465 14.1477 9.32057 14.3256C9.41534 14.5224 9.55652 14.6933 9.70056 14.8563C9.90621 15.0881 10.1554 15.3074 10.1504 15.5882C10.1466 15.8068 10.0642 16.0295 10.0045 16.238C9.93338 16.4862 9.86862 16.7367 9.84935 16.9958C9.81334 17.4863 9.96275 17.9921 10.2549 18.3869C10.5579 18.796 11.0052 19.0806 11.4711 19.2723C11.8931 19.4458 12.3821 19.5431 12.8335 19.4259C13.3516 19.291 13.6043 18.8307 13.766 18.3582C13.8355 18.1554 13.8797 17.9418 13.9713 17.7472C14.0686 17.5413 14.195 17.3495 14.3343 17.1698C14.6132 16.81 14.9771 16.5115 15.2339 16.1359C15.353 15.9622 15.4304 15.7578 15.4263 15.5452C15.4216 15.29 15.2538 15.0543 15.2851 14.7997C15.3391 14.3581 15.7422 13.9986 16.03 13.6963C16.5253 13.1761 17.7348 12.0995 16.9637 11.3436C16.6579 11.0439 16.2116 11.0732 15.8208 11.0157C15.6307 10.9879 15.4146 10.9677 15.2349 10.8957C15.0333 10.8152 14.9199 10.6133 14.8271 10.4295C14.7516 10.28 14.4603 9.70482 14.6713 9.61195C14.7967 9.55667 14.9746 9.57405 15.1085 9.57183C15.3088 9.56836 15.5075 9.56646 15.7071 9.54656C16.5505 9.46127 17.4015 9.25658 18.099 8.7518C18.8341 8.21985 19.3881 7.38939 19.5856 6.49638C20.2524 7.54133 20.7474 8.69747 20.9789 9.9013C21.3912 12.0449 20.8936 14.2725 19.8642 16.1716C18.8947 17.9592 17.4458 19.4966 15.5858 20.359ZM17.9619 4.48546C18.2772 4.79882 18.5779 5.13334 18.86 5.48492C18.8903 5.60748 18.8814 5.72847 18.8587 5.86935C18.8202 6.10689 18.7646 6.3397 18.6875 6.56745C18.5555 6.95726 18.3631 7.32968 18.0895 7.63957C17.5693 8.22806 16.8509 8.50667 16.0982 8.6643C15.7551 8.73632 15.4083 8.77391 15.0602 8.81276C14.6893 8.85383 14.2323 8.95017 14.0295 9.30239C13.8172 9.67071 13.9966 10.1452 14.1508 10.5012C14.3188 10.8894 14.5453 11.2302 14.8928 11.481C15.2627 11.7476 15.7226 11.7391 16.1554 11.7953C16.2397 11.8061 16.4292 11.8235 16.4671 11.9046C16.4883 11.9501 16.3841 12.1229 16.343 12.188C15.8417 12.9774 14.9383 13.4939 14.6158 14.3989C14.5368 14.6206 14.5159 14.8547 14.5532 15.0866C14.5794 15.2505 14.7149 15.4618 14.6656 15.6226C14.6198 15.772 14.4584 15.9015 14.3545 16.0074C14.1972 16.1669 14.0459 16.3343 13.9003 16.5049C13.5837 16.8757 13.3029 17.2753 13.1216 17.7299C13.0151 17.9968 12.9033 18.5262 12.6355 18.6115C12.311 18.7148 11.8745 18.554 11.5687 18.3898C11.2238 18.2046 10.9069 17.9699 10.7572 17.5953C10.4129 16.7329 11.2253 15.8816 10.8115 15.0171C10.6577 14.6949 10.3804 14.462 10.1586 14.1901C9.91821 13.8947 9.8345 13.4951 9.56979 13.2017C9.03247 12.6059 8.04913 12.8453 7.34155 12.8024C7.05978 12.7853 6.76253 12.7304 6.55215 12.5358C6.26027 12.2657 6.20405 11.8168 6.20626 11.4403C6.21163 10.5637 6.5073 9.71651 7.1318 9.08916C7.68176 8.53636 8.41367 8.21669 9.19895 8.28081C10.1356 8.35726 10.8791 9.09359 11.8069 9.22594C12.649 9.34598 13.4786 8.85099 13.6709 7.99589C13.755 7.62283 13.7142 7.27598 13.5512 6.93167C13.3734 6.5564 13.0268 6.2879 12.686 6.06615C12.4203 5.89336 11.9784 5.7291 11.8375 5.42237C11.6846 5.08911 11.8916 4.71795 12.0921 4.45608C12.6307 3.75229 13.4757 3.28004 14.322 3.05798C14.774 2.93952 15.2421 2.85928 15.7081 2.82106C16.5429 3.25667 17.291 3.81831 17.9619 4.48546ZM19.6326 5.11754C18.9386 4.21759 18.1322 3.40197 17.2035 2.74304C16.2242 2.04841 15.131 1.61849 13.9505 1.4198C13.3967 1.22142 12.8076 1.11244 12.2226 1.06285C11.0804 0.966502 9.91095 1.11813 8.81578 1.44823C6.73663 2.07494 4.82678 3.32016 3.42962 4.98456C2.03499 6.64579 1.14579 8.74169 1.04186 10.9181C0.937622 13.1018 1.68562 15.3099 2.96654 17.0659C4.23134 18.8004 5.95323 20.2033 7.93004 21.0467C9.96086 21.9135 12.2283 22.2104 14.3864 21.6677C16.5818 21.1162 18.4158 19.7329 19.747 17.9273C21.0971 16.0955 21.9433 13.8246 21.9632 11.5388C21.9837 9.19277 21.0513 6.95662 19.6326 5.11754Z"/>
</mask>
<path d="M15.5858 20.359C11.8319 22.0998 7.37061 20.5984 4.60472 17.7529C3.19367 16.3014 2.20147 14.4472 1.9197 12.4315C1.64236 10.4494 2.1386 8.41949 3.16807 6.71624C4.21207 4.98929 5.80287 3.62057 7.6192 2.75694C8.51853 2.32923 9.48546 2.04019 10.4685 1.8832C11.0229 1.79475 11.5918 1.76727 12.1522 1.79633C12.2078 1.79949 12.263 1.80328 12.3183 1.80802C12.4845 1.86614 12.6519 1.91826 12.8269 1.94701C13.1301 1.9966 13.4312 2.04714 13.7309 2.11632C13.9852 2.17508 14.2402 2.24205 14.4916 2.31975C14.3731 2.33649 14.255 2.35797 14.1365 2.38514C13.658 2.49538 13.1927 2.67828 12.7678 2.9253C12.0012 3.37133 11.0841 4.17084 11.0472 5.12828C11.0289 5.60274 11.3018 5.96538 11.6812 6.21714C12.0305 6.44868 12.4636 6.56903 12.7726 6.86091C13.024 7.09877 13.0676 7.40929 12.9684 7.7078C12.8822 7.96777 12.6778 8.19584 12.4418 8.32314C12.3231 8.38727 12.1676 8.41728 11.9879 8.40022C11.7478 8.37716 11.5055 8.28839 11.2885 8.187C10.8393 7.97725 10.4015 7.73496 9.92926 7.5786C9.01415 7.27535 8.04817 7.4832 7.26225 8.01926C6.49592 8.54205 5.90964 9.34661 5.65441 10.2399C5.40549 11.1118 5.34831 12.278 5.97882 13.0077C6.51013 13.6227 7.3924 13.5769 8.12935 13.57C8.42881 13.5671 8.86221 13.5213 9.05553 13.7955C9.1702 13.9582 9.23465 14.1477 9.32057 14.3256C9.41534 14.5224 9.55652 14.6933 9.70056 14.8563C9.90621 15.0881 10.1554 15.3074 10.1504 15.5882C10.1466 15.8068 10.0642 16.0295 10.0045 16.238C9.93338 16.4862 9.86862 16.7367 9.84935 16.9958C9.81334 17.4863 9.96275 17.9921 10.2549 18.3869C10.5579 18.796 11.0052 19.0806 11.4711 19.2723C11.8931 19.4458 12.3821 19.5431 12.8335 19.4259C13.3516 19.291 13.6043 18.8307 13.766 18.3582C13.8355 18.1554 13.8797 17.9418 13.9713 17.7472C14.0686 17.5413 14.195 17.3495 14.3343 17.1698C14.6132 16.81 14.9771 16.5115 15.2339 16.1359C15.353 15.9622 15.4304 15.7578 15.4263 15.5452C15.4216 15.29 15.2538 15.0543 15.2851 14.7997C15.3391 14.3581 15.7422 13.9986 16.03 13.6963C16.5253 13.1761 17.7348 12.0995 16.9637 11.3436C16.6579 11.0439 16.2116 11.0732 15.8208 11.0157C15.6307 10.9879 15.4146 10.9677 15.2349 10.8957C15.0333 10.8152 14.9199 10.6133 14.8271 10.4295C14.7516 10.28 14.4603 9.70482 14.6713 9.61195C14.7967 9.55667 14.9746 9.57405 15.1085 9.57183C15.3088 9.56836 15.5075 9.56646 15.7071 9.54656C16.5505 9.46127 17.4015 9.25658 18.099 8.7518C18.8341 8.21985 19.3881 7.38939 19.5856 6.49638C20.2524 7.54133 20.7474 8.69747 20.9789 9.9013C21.3912 12.0449 20.8936 14.2725 19.8642 16.1716C18.8947 17.9592 17.4458 19.4966 15.5858 20.359ZM17.9619 4.48546C18.2772 4.79882 18.5779 5.13334 18.86 5.48492C18.8903 5.60748 18.8814 5.72847 18.8587 5.86935C18.8202 6.10689 18.7646 6.3397 18.6875 6.56745C18.5555 6.95726 18.3631 7.32968 18.0895 7.63957C17.5693 8.22806 16.8509 8.50667 16.0982 8.6643C15.7551 8.73632 15.4083 8.77391 15.0602 8.81276C14.6893 8.85383 14.2323 8.95017 14.0295 9.30239C13.8172 9.67071 13.9966 10.1452 14.1508 10.5012C14.3188 10.8894 14.5453 11.2302 14.8928 11.481C15.2627 11.7476 15.7226 11.7391 16.1554 11.7953C16.2397 11.8061 16.4292 11.8235 16.4671 11.9046C16.4883 11.9501 16.3841 12.1229 16.343 12.188C15.8417 12.9774 14.9383 13.4939 14.6158 14.3989C14.5368 14.6206 14.5159 14.8547 14.5532 15.0866C14.5794 15.2505 14.7149 15.4618 14.6656 15.6226C14.6198 15.772 14.4584 15.9015 14.3545 16.0074C14.1972 16.1669 14.0459 16.3343 13.9003 16.5049C13.5837 16.8757 13.3029 17.2753 13.1216 17.7299C13.0151 17.9968 12.9033 18.5262 12.6355 18.6115C12.311 18.7148 11.8745 18.554 11.5687 18.3898C11.2238 18.2046 10.9069 17.9699 10.7572 17.5953C10.4129 16.7329 11.2253 15.8816 10.8115 15.0171C10.6577 14.6949 10.3804 14.462 10.1586 14.1901C9.91821 13.8947 9.8345 13.4951 9.56979 13.2017C9.03247 12.6059 8.04913 12.8453 7.34155 12.8024C7.05978 12.7853 6.76253 12.7304 6.55215 12.5358C6.26027 12.2657 6.20405 11.8168 6.20626 11.4403C6.21163 10.5637 6.5073 9.71651 7.1318 9.08916C7.68176 8.53636 8.41367 8.21669 9.19895 8.28081C10.1356 8.35726 10.8791 9.09359 11.8069 9.22594C12.649 9.34598 13.4786 8.85099 13.6709 7.99589C13.755 7.62283 13.7142 7.27598 13.5512 6.93167C13.3734 6.5564 13.0268 6.2879 12.686 6.06615C12.4203 5.89336 11.9784 5.7291 11.8375 5.42237C11.6846 5.08911 11.8916 4.71795 12.0921 4.45608C12.6307 3.75229 13.4757 3.28004 14.322 3.05798C14.774 2.93952 15.2421 2.85928 15.7081 2.82106C16.5429 3.25667 17.291 3.81831 17.9619 4.48546ZM19.6326 5.11754C18.9386 4.21759 18.1322 3.40197 17.2035 2.74304C16.2242 2.04841 15.131 1.61849 13.9505 1.4198C13.3967 1.22142 12.8076 1.11244 12.2226 1.06285C11.0804 0.966502 9.91095 1.11813 8.81578 1.44823C6.73663 2.07494 4.82678 3.32016 3.42962 4.98456C2.03499 6.64579 1.14579 8.74169 1.04186 10.9181C0.937622 13.1018 1.68562 15.3099 2.96654 17.0659C4.23134 18.8004 5.95323 20.2033 7.93004 21.0467C9.96086 21.9135 12.2283 22.2104 14.3864 21.6677C16.5818 21.1162 18.4158 19.7329 19.747 17.9273C21.0971 16.0955 21.9433 13.8246 21.9632 11.5388C21.9837 9.19277 21.0513 6.95662 19.6326 5.11754Z" fill="#955CC2"/>
<path d="M15.5858 20.359C11.8319 22.0998 7.37061 20.5984 4.60472 17.7529C3.19367 16.3014 2.20147 14.4472 1.9197 12.4315C1.64236 10.4494 2.1386 8.41949 3.16807 6.71624C4.21207 4.98929 5.80287 3.62057 7.6192 2.75694C8.51853 2.32923 9.48546 2.04019 10.4685 1.8832C11.0229 1.79475 11.5918 1.76727 12.1522 1.79633C12.2078 1.79949 12.263 1.80328 12.3183 1.80802C12.4845 1.86614 12.6519 1.91826 12.8269 1.94701C13.1301 1.9966 13.4312 2.04714 13.7309 2.11632C13.9852 2.17508 14.2402 2.24205 14.4916 2.31975C14.3731 2.33649 14.255 2.35797 14.1365 2.38514C13.658 2.49538 13.1927 2.67828 12.7678 2.9253C12.0012 3.37133 11.0841 4.17084 11.0472 5.12828C11.0289 5.60274 11.3018 5.96538 11.6812 6.21714C12.0305 6.44868 12.4636 6.56903 12.7726 6.86091C13.024 7.09877 13.0676 7.40929 12.9684 7.7078C12.8822 7.96777 12.6778 8.19584 12.4418 8.32314C12.3231 8.38727 12.1676 8.41728 11.9879 8.40022C11.7478 8.37716 11.5055 8.28839 11.2885 8.187C10.8393 7.97725 10.4015 7.73496 9.92926 7.5786C9.01415 7.27535 8.04817 7.4832 7.26225 8.01926C6.49592 8.54205 5.90964 9.34661 5.65441 10.2399C5.40549 11.1118 5.34831 12.278 5.97882 13.0077C6.51013 13.6227 7.3924 13.5769 8.12935 13.57C8.42881 13.5671 8.86221 13.5213 9.05553 13.7955C9.1702 13.9582 9.23465 14.1477 9.32057 14.3256C9.41534 14.5224 9.55652 14.6933 9.70056 14.8563C9.90621 15.0881 10.1554 15.3074 10.1504 15.5882C10.1466 15.8068 10.0642 16.0295 10.0045 16.238C9.93338 16.4862 9.86862 16.7367 9.84935 16.9958C9.81334 17.4863 9.96275 17.9921 10.2549 18.3869C10.5579 18.796 11.0052 19.0806 11.4711 19.2723C11.8931 19.4458 12.3821 19.5431 12.8335 19.4259C13.3516 19.291 13.6043 18.8307 13.766 18.3582C13.8355 18.1554 13.8797 17.9418 13.9713 17.7472C14.0686 17.5413 14.195 17.3495 14.3343 17.1698C14.6132 16.81 14.9771 16.5115 15.2339 16.1359C15.353 15.9622 15.4304 15.7578 15.4263 15.5452C15.4216 15.29 15.2538 15.0543 15.2851 14.7997C15.3391 14.3581 15.7422 13.9986 16.03 13.6963C16.5253 13.1761 17.7348 12.0995 16.9637 11.3436C16.6579 11.0439 16.2116 11.0732 15.8208 11.0157C15.6307 10.9879 15.4146 10.9677 15.2349 10.8957C15.0333 10.8152 14.9199 10.6133 14.8271 10.4295C14.7516 10.28 14.4603 9.70482 14.6713 9.61195C14.7967 9.55667 14.9746 9.57405 15.1085 9.57183C15.3088 9.56836 15.5075 9.56646 15.7071 9.54656C16.5505 9.46127 17.4015 9.25658 18.099 8.7518C18.8341 8.21985 19.3881 7.38939 19.5856 6.49638C20.2524 7.54133 20.7474 8.69747 20.9789 9.9013C21.3912 12.0449 20.8936 14.2725 19.8642 16.1716C18.8947 17.9592 17.4458 19.4966 15.5858 20.359ZM17.9619 4.48546C18.2772 4.79882 18.5779 5.13334 18.86 5.48492C18.8903 5.60748 18.8814 5.72847 18.8587 5.86935C18.8202 6.10689 18.7646 6.3397 18.6875 6.56745C18.5555 6.95726 18.3631 7.32968 18.0895 7.63957C17.5693 8.22806 16.8509 8.50667 16.0982 8.6643C15.7551 8.73632 15.4083 8.77391 15.0602 8.81276C14.6893 8.85383 14.2323 8.95017 14.0295 9.30239C13.8172 9.67071 13.9966 10.1452 14.1508 10.5012C14.3188 10.8894 14.5453 11.2302 14.8928 11.481C15.2627 11.7476 15.7226 11.7391 16.1554 11.7953C16.2397 11.8061 16.4292 11.8235 16.4671 11.9046C16.4883 11.9501 16.3841 12.1229 16.343 12.188C15.8417 12.9774 14.9383 13.4939 14.6158 14.3989C14.5368 14.6206 14.5159 14.8547 14.5532 15.0866C14.5794 15.2505 14.7149 15.4618 14.6656 15.6226C14.6198 15.772 14.4584 15.9015 14.3545 16.0074C14.1972 16.1669 14.0459 16.3343 13.9003 16.5049C13.5837 16.8757 13.3029 17.2753 13.1216 17.7299C13.0151 17.9968 12.9033 18.5262 12.6355 18.6115C12.311 18.7148 11.8745 18.554 11.5687 18.3898C11.2238 18.2046 10.9069 17.9699 10.7572 17.5953C10.4129 16.7329 11.2253 15.8816 10.8115 15.0171C10.6577 14.6949 10.3804 14.462 10.1586 14.1901C9.91821 13.8947 9.8345 13.4951 9.56979 13.2017C9.03247 12.6059 8.04913 12.8453 7.34155 12.8024C7.05978 12.7853 6.76253 12.7304 6.55215 12.5358C6.26027 12.2657 6.20405 11.8168 6.20626 11.4403C6.21163 10.5637 6.5073 9.71651 7.1318 9.08916C7.68176 8.53636 8.41367 8.21669 9.19895 8.28081C10.1356 8.35726 10.8791 9.09359 11.8069 9.22594C12.649 9.34598 13.4786 8.85099 13.6709 7.99589C13.755 7.62283 13.7142 7.27598 13.5512 6.93167C13.3734 6.5564 13.0268 6.2879 12.686 6.06615C12.4203 5.89336 11.9784 5.7291 11.8375 5.42237C11.6846 5.08911 11.8916 4.71795 12.0921 4.45608C12.6307 3.75229 13.4757 3.28004 14.322 3.05798C14.774 2.93952 15.2421 2.85928 15.7081 2.82106C16.5429 3.25667 17.291 3.81831 17.9619 4.48546ZM19.6326 5.11754C18.9386 4.21759 18.1322 3.40197 17.2035 2.74304C16.2242 2.04841 15.131 1.61849 13.9505 1.4198C13.3967 1.22142 12.8076 1.11244 12.2226 1.06285C11.0804 0.966502 9.91095 1.11813 8.81578 1.44823C6.73663 2.07494 4.82678 3.32016 3.42962 4.98456C2.03499 6.64579 1.14579 8.74169 1.04186 10.9181C0.937622 13.1018 1.68562 15.3099 2.96654 17.0659C4.23134 18.8004 5.95323 20.2033 7.93004 21.0467C9.96086 21.9135 12.2283 22.2104 14.3864 21.6677C16.5818 21.1162 18.4158 19.7329 19.747 17.9273C21.0971 16.0955 21.9433 13.8246 21.9632 11.5388C21.9837 9.19277 21.0513 6.95662 19.6326 5.11754Z" stroke="#955CC2" stroke-width="0.5" mask="url(#path-1-outside-1)"/>
</svg>
