<svg width="35" height="33" viewBox="0 0 35 33" fill="none" xmlns="http://www.w3.org/2000/svg">
<path d="M24.1184 14.1013C24.1529 14.1061 24.2331 14.1142 24.0754 14.0964C23.9935 14.0867 23.9112 14.0792 23.8289 14.0733C23.6895 14.063 23.5501 14.0571 23.4101 14.056C23.1286 14.0539 22.8423 14.0652 22.5624 14.0964C22.1076 14.1475 21.5575 14.3128 21.1372 14.6088C20.719 14.9032 20.5096 15.323 20.5037 15.8338C20.4999 16.1115 20.5344 16.4 20.621 16.6654C20.6409 16.7267 20.6711 16.801 20.7082 16.8774C20.9725 17.1073 21.3008 17.2704 21.6302 17.3823C22.3121 17.6143 23.0361 17.6487 23.7503 17.674C24.8015 17.7117 26.3192 17.3915 26.5071 16.1368C26.7068 14.8074 25.1561 14.253 24.1184 14.1013ZM26.8333 18.0363C26.1788 18.5185 25.3208 18.6574 24.5253 18.6407C23.5834 18.6208 22.5662 18.554 21.6587 18.293C21.1797 18.1547 20.6818 17.9458 20.2975 17.6224C19.9251 17.3086 19.7044 16.8995 19.5887 16.4313C19.5811 16.4027 19.579 16.3753 19.5811 16.35C19.3938 15.7213 19.48 14.9312 19.7846 14.3585C20.5193 12.979 22.3477 12.5323 23.7874 12.6007C25.4861 12.6814 27.6336 13.4387 27.9522 15.3623C28.1239 16.4011 27.6745 17.4162 26.8333 18.0363ZM18.5806 10.2384C18.5795 10.0834 18.58 10.1264 18.5553 10.0371C18.4939 9.82017 18.4627 9.73297 18.3093 9.52575C18.1462 9.3067 17.7732 9.03004 17.4955 8.92886C17.0875 8.78031 16.7753 8.78138 16.3561 8.91702C15.9906 9.03489 15.6671 9.28517 15.4669 9.61456C15.1095 10.2023 15.2473 10.9757 15.6698 11.4925C15.9088 11.6851 16.1903 11.8138 16.5628 11.8143C17.3986 11.8154 18.3534 11.2906 18.5564 10.4564C18.5768 10.374 18.5811 10.3606 18.5806 10.2384ZM17.2442 12.8719C16.1133 12.9451 14.8415 12.2282 14.5046 11.1324C14.2726 10.7518 14.1483 10.3062 14.1886 9.86161C14.3162 8.4423 15.7231 7.32977 17.1306 7.4202C18.5155 7.509 19.8723 8.57524 20.0263 9.99832C20.1969 11.5721 18.7044 12.7777 17.2442 12.8719ZM8.49036 15.3941C8.48982 15.3909 8.48928 15.3882 8.48875 15.3844C8.46883 15.2692 8.43654 15.1519 8.39348 15.0432C8.28314 14.7611 8.02963 14.4307 7.7406 14.2051C7.65556 14.1384 7.45534 14.0151 7.30733 13.9538C7.22013 13.9172 7.04414 13.8768 6.93273 13.8736C6.5888 13.8628 6.22657 14.0168 5.94992 14.2767C5.67489 14.5351 5.48272 14.9317 5.40952 15.3494C5.47896 15.5588 5.53603 15.7773 5.6453 15.9608C5.8439 16.294 6.10922 16.5906 6.49029 16.7063C7.12002 16.8974 8.14374 16.407 8.41447 15.8968C8.46937 15.794 8.49467 15.688 8.49574 15.5432C8.49628 15.4937 8.49466 15.4431 8.49036 15.3941ZM8.49197 15.4027C8.49896 15.4447 8.49466 15.4215 8.49197 15.4027V15.4027ZM6.84932 17.9948C6.06942 17.9566 5.4343 17.5217 5.04301 16.8511C4.98918 16.759 4.94342 16.6627 4.90198 16.5647C4.75773 16.4006 4.64255 16.2057 4.55698 15.9969C4.29432 15.3564 4.29487 14.6901 4.58605 14.063C5.19533 12.7503 6.68944 12.1464 8.01241 12.7471C9.11632 13.2476 10.0206 14.5318 9.87687 15.7714C9.7127 17.1869 8.19274 18.0616 6.84932 17.9948ZM8.27508 21.2635C7.73901 20.792 6.74381 20.5676 6.12646 21.0773C5.76477 21.3754 5.61516 21.933 5.58501 22.3814C5.58178 22.4352 5.58016 22.4885 5.57963 22.5412C5.63022 22.7937 5.71363 23.0332 5.89555 23.2253C6.18458 23.5305 6.6394 23.7194 7.04738 23.8007C7.74546 23.9401 8.62601 23.7652 8.91988 23.0967C9.20192 22.453 8.82731 21.749 8.27508 21.2635ZM7.25729 25.1038C6.56674 24.9391 5.83367 24.5569 5.33581 24.0467C5.06561 23.7695 4.86754 23.446 4.81748 23.059C4.81318 23.024 4.80996 22.9896 4.80727 22.9557C4.76905 22.869 4.73675 22.7797 4.71361 22.6844C4.55967 22.0428 4.63824 21.334 4.94718 20.7473C5.65065 19.4131 7.46988 19.2451 8.69866 19.8888C9.82572 20.4798 10.5685 21.8033 10.3677 23.073C10.1401 24.5122 8.65454 25.438 7.25729 25.1038ZM14.8921 26.4284C14.7053 25.8831 14.0358 25.3707 13.4028 25.2647C13.1584 25.2233 12.7262 25.2825 12.427 25.4111C12.0927 25.5548 11.8096 25.7862 11.6874 26.1372C11.5341 26.578 11.6056 27.0618 11.7278 27.5C11.7956 27.7438 11.9049 27.9311 12.0712 28.1184C12.1116 28.1636 12.16 28.2266 12.2128 28.2906C12.2655 28.317 12.3177 28.3439 12.3699 28.3735C12.6089 28.5086 12.8705 28.6394 13.1515 28.5893C13.3732 28.5495 13.5562 28.423 13.7661 28.3514C13.9319 28.2949 14.082 28.2051 14.2231 28.0974C14.4766 27.9031 14.6671 27.592 14.8243 27.275C14.9857 26.9504 15.0035 26.7529 14.8921 26.4284ZM15.3275 28.9747C14.8533 29.3601 14.2118 29.6158 13.6132 29.4451C13.2117 29.4096 12.8312 29.3531 12.4636 29.1679C12.28 29.0748 12.1116 28.9559 11.9496 28.8305C11.8931 28.7869 11.8451 28.7422 11.801 28.697C11.7031 28.6265 11.611 28.549 11.5271 28.4839C11.0534 28.1146 10.6519 27.7406 10.4953 27.1383C10.1799 25.9278 10.7967 24.6888 11.9216 24.1721C12.9754 23.6877 14.1983 23.7684 15.1359 24.473C16.0375 25.1501 16.6645 26.2733 16.3351 27.4192C16.1645 28.0129 15.8071 28.585 15.3275 28.9747ZM14.3485 19.1186C14.6321 19.8469 15.2355 20.4142 15.8835 20.8216C16.531 21.2296 17.193 21.5907 17.8104 22.0461C17.9277 22.1327 18.0456 22.2221 18.1608 22.3152C18.1538 21.9567 18.1441 21.5983 18.1403 21.2382C18.1328 20.4723 18.1479 19.7032 17.7501 19.0218C17.4277 18.4701 16.9277 18.0513 16.3706 17.7488C16.0999 17.6019 15.8006 17.462 15.4976 17.3968C15.2613 17.3462 15.018 17.3613 14.7785 17.3592C14.7306 17.3839 14.6805 17.4017 14.6283 17.4124C14.3377 17.9501 14.0966 18.4711 14.3485 19.1186ZM31.7252 13.3542C31.0777 11.8945 30.1499 10.5581 29.0153 9.43641C26.7875 7.23504 23.9042 6.08754 20.8621 5.53047C19.0268 5.19515 17.1462 5.04983 15.2812 5.11388C14.3119 5.14725 13.3414 5.24467 12.3893 5.43359C11.8818 5.53477 11.3791 5.6618 10.886 5.81842C10.6299 5.89969 10.379 5.99658 10.1244 6.08162C10.2703 6.27323 10.4167 6.46376 10.5653 6.65322C11.0012 7.20813 11.4474 7.75605 11.8705 8.32066C12.2359 8.80775 12.5459 9.33253 12.8683 9.84816C13.1665 10.3245 13.4356 10.8191 13.687 11.3229C13.7747 11.4176 13.8339 11.5409 13.8565 11.669C14.1106 12.1991 14.3479 12.7374 14.5777 13.2761C14.863 13.9457 15.1214 14.6346 15.2107 15.3613C15.2398 15.5943 15.2398 15.8171 15.2231 16.0367C15.461 16.0604 15.708 16.0841 15.9379 16.146C16.3173 16.2477 16.6936 16.42 17.038 16.6073C17.7609 17.0007 18.4067 17.575 18.8406 18.2774C19.346 19.095 19.4299 20.0008 19.3718 20.9416C19.3115 21.9147 19.2964 22.8911 19.2297 23.8631C19.1893 24.4514 18.3308 24.6247 18.1656 24.0074C17.9874 23.3427 17.1806 22.8954 16.6532 22.5273C15.8846 21.9912 15.0213 21.6246 14.3636 20.9357C13.7591 20.3017 13.2085 19.4168 13.2472 18.5083C13.2623 18.1482 13.4001 17.6229 13.6509 17.216C13.3323 17.0734 13.0346 16.8452 12.7865 16.653C12.2967 16.273 11.8726 15.8403 11.4576 15.3822C10.6244 14.4613 9.87631 13.4543 9.24281 12.3859C8.54957 11.2174 7.98549 9.96226 7.39721 8.73832C7.20237 8.3325 7.01561 7.92452 6.83746 7.51385C5.42837 8.58654 4.13069 9.72329 3.15434 11.2287C2.20544 12.6922 1.56549 14.3704 1.37657 16.1094C1.01058 19.4825 1.63491 23.2275 3.63498 26.0263C4.71306 27.535 6.26371 28.6082 7.9473 29.3434C9.87685 30.1863 11.9867 30.7111 14.0455 31.1244C16.2253 31.5625 18.4632 31.7407 20.6764 31.4619C22.4849 31.2337 24.5689 30.7051 25.9403 29.4295C26.4823 28.9252 26.8715 28.3165 26.5819 27.6431C26.2681 26.9128 25.5238 26.3465 24.879 25.9251C24.126 25.4326 23.3213 25.0225 22.5473 24.5639C22.1781 24.3454 21.8536 24.0984 21.5376 23.8082C21.2362 23.5305 20.973 23.2399 20.98 22.8082C20.9849 22.5095 21.1345 22.2872 21.3342 22.1021C21.4025 21.9675 21.4972 21.8453 21.614 21.7398C22.2029 21.2086 22.9413 20.9906 23.7094 20.8754C24.9252 20.6924 26.1524 20.6295 27.3737 20.4997C27.9092 20.4427 28.3564 20.3824 28.9404 20.2592C29.1988 20.2048 29.4555 20.1424 29.7096 20.0686C29.8527 20.0272 29.9948 19.9825 30.1353 19.9335C30.1934 19.9136 30.251 19.8926 30.3086 19.8711C30.3269 19.8641 30.4636 19.8097 30.4695 19.8087C30.7004 19.7096 30.9254 19.5939 31.1396 19.4631C31.4335 19.2833 31.4771 19.2521 31.7064 19.0325C32.0272 18.7252 32.2785 18.342 32.4077 17.9448C32.8878 16.47 32.3286 14.7138 31.7252 13.3542ZM12.8021 12.507C12.4905 12.6292 12.1902 12.7659 11.9001 12.9349C11.6196 13.098 11.5814 13.1583 11.3699 13.415C11.3521 13.436 11.3349 13.4575 11.3177 13.4791C11.4469 13.6588 11.5782 13.8375 11.7154 14.0119C12.1105 14.5141 12.5282 15.0184 12.9765 15.4737C13.222 15.7224 13.4846 15.9533 13.7591 16.1697C13.8178 16.2154 13.8845 16.2832 13.955 16.3548C13.9647 16.3365 13.9749 16.3188 13.9862 16.3015C14.0061 16.2117 14.0234 16.1261 14.0282 16.048C14.0697 15.4215 13.8716 14.8214 13.6601 14.2417C13.4486 13.6621 13.1563 13.1206 12.9146 12.5544C12.9049 12.5312 12.8953 12.5086 12.885 12.4855C12.8221 12.5054 12.7704 12.5205 12.8021 12.507ZM7.42089 4.46585C7.19053 4.15045 6.97094 3.82804 6.75458 3.50295C6.81862 3.72632 6.88266 3.94915 6.94455 4.17197C7.27126 5.35393 7.68624 6.50736 8.19864 7.62096C8.97154 9.30185 9.73313 11.0177 10.7202 12.5888C10.8489 12.38 11.0217 12.1981 11.2101 12.0404C11.54 11.7632 11.9103 11.5743 12.293 11.3827C12.3096 11.374 12.3269 11.366 12.3441 11.3574C12.2429 11.1679 12.1369 10.9811 12.0249 10.7976C11.7101 10.282 11.3947 9.76258 11.0523 9.26471C10.6842 8.72917 10.2617 8.22862 9.85962 7.7173C9.02159 6.65107 8.22016 5.56169 7.42089 4.46585ZM32.7339 20.06C31.8636 20.8668 30.7161 21.3044 29.5718 21.5525C28.3048 21.8276 27.012 21.8911 25.7229 21.9836C24.9199 22.0418 24.0888 22.0132 23.2966 22.1688C22.9359 22.2393 22.4747 22.3157 22.1679 22.5321C22.0554 22.6112 22.0301 22.6898 22.028 22.8281C22.0269 22.8943 22.0279 22.9605 22.029 23.0267C22.0565 23.0429 22.0829 23.058 22.1065 23.0709C22.4779 23.2732 22.8735 23.4487 23.2535 23.6344C24.0942 24.0461 24.9548 24.4143 25.7471 24.9175C26.5631 25.4364 27.4086 26.1167 27.8188 27.0172C28.2354 27.9306 28.1132 28.9333 27.526 29.7449C26.3069 31.4285 24.1114 32.2326 22.1517 32.639C19.8363 33.1196 17.4702 33.0857 15.1397 32.7407C12.8656 32.4049 10.5991 31.8112 8.45537 30.9796C6.5285 30.2326 4.66355 29.2105 3.27546 27.6491C0.785603 24.8486 -0.11808 20.891 0.0121719 17.2225C0.0810654 15.2735 0.522414 13.3956 1.41803 11.6572C2.29642 9.9515 3.57202 8.44499 5.0726 7.25388C5.48866 6.92341 5.91816 6.60962 6.3439 6.29153C6.18674 5.87171 6.04143 5.4465 5.91172 5.01431C5.48275 3.5853 5.01877 2.11055 4.94288 0.61158C4.92942 0.345695 5.14257 0.0900345 5.39231 0.0216789C5.67219 -0.0552864 5.92139 0.0814171 6.0834 0.302631C6.82992 1.32258 7.43811 2.43457 8.18625 3.4529C8.5797 3.98844 8.96885 4.52613 9.36176 5.06113C12.4996 3.47389 16.3017 3.47443 19.7168 3.9077C22.9957 4.32322 26.245 5.2522 28.8796 7.32224C31.5525 9.42241 33.6629 12.6523 34.0283 16.0782C34.1833 17.5276 33.8303 19.0433 32.7339 20.06Z" fill="#08C3DC"/>
</svg>
