<svg width="32" height="32" viewBox="0 0 32 32" fill="none" xmlns="http://www.w3.org/2000/svg">
<path d="M29.6358 24.2522C29.6586 24.2565 30.017 24.1997 29.6358 24.2522V24.2522ZM4.1766 24.6956C4.17903 24.6951 4.18196 24.6951 4.18487 24.6947C4.23053 24.6879 4.2548 24.684 4.1766 24.6956ZM3.69916 24.7583C3.83516 24.7126 3.6263 24.7622 3.69916 24.7583V24.7583ZM4.24316 25.551C4.2281 25.55 4.21304 25.5485 4.19798 25.5471C4.17855 25.5461 4.1839 25.5466 4.24316 25.551ZM3.56851 25.482C3.57046 25.4801 3.57238 25.4781 3.57432 25.4762C3.57724 25.4771 3.58014 25.4781 3.58354 25.4791C3.6292 25.4917 3.59863 25.4873 3.56851 25.482ZM29.3409 27.0858C29.3526 27.5341 29.4085 27.9858 29.5459 28.4079C29.4395 28.3997 29.3332 28.3909 29.2278 28.3783C28.9305 28.3433 28.6381 28.3045 28.3389 28.2967C27.9984 28.288 27.6579 28.287 27.3174 28.2855C25.6641 28.2787 24.0102 28.2826 22.3569 28.2855C20.0215 28.2899 17.6858 28.2972 15.3504 28.3045C13.1035 28.3123 10.8566 28.3229 8.60924 28.3428C7.75244 28.3506 6.89612 28.3589 6.03933 28.3705C5.86398 28.373 5.68864 28.3754 5.51329 28.3778C5.44141 28.3788 5.36856 28.3764 5.29667 28.3807C5.26607 28.3827 5.20098 28.39 5.16552 28.3948C5.13201 28.3982 5.09851 28.4021 5.06499 28.406C4.90811 28.423 4.75074 28.438 4.59434 28.4584L4.59384 28.458C4.65746 28.4492 4.63317 28.4526 4.59286 28.4575C4.50203 28.373 4.38402 28.321 4.25433 28.3317C4.09696 28.3453 4.07316 28.3657 3.92939 28.3574C3.9255 28.3569 3.92209 28.3569 3.91967 28.3569C3.91335 28.3555 3.90462 28.353 3.8915 28.3506C3.88033 28.3477 3.87157 28.3462 3.86429 28.3448C3.85797 28.3419 3.84973 28.338 3.83855 28.3331C3.7249 28.2846 3.70693 28.2384 3.6195 28.0796C3.57968 28.0077 3.57676 28.0009 3.53742 27.8804C3.50779 27.7896 3.48205 27.6968 3.45874 27.6041C3.40482 27.387 3.38346 27.2345 3.36743 27.0513C3.33391 26.672 3.32466 26.2757 3.37857 25.8978C3.40237 25.7273 3.45677 25.6034 3.56703 25.4839C3.58549 25.4878 3.61124 25.4932 3.64767 25.5005C3.69964 25.5116 3.7526 25.5126 3.80506 25.517C3.86237 25.5218 3.92016 25.5257 3.97747 25.5301C4.03819 25.5345 4.09841 25.5408 4.15864 25.5442C4.17175 25.5451 4.18486 25.5461 4.19798 25.5471C4.23101 25.549 4.33592 25.5553 4.36992 25.5563C4.52389 25.5597 4.67835 25.5553 4.83281 25.5553C5.20584 25.5544 5.57936 25.5548 5.95288 25.5558C8.09147 25.5597 10.2305 25.5335 12.3691 25.5111C14.9318 25.4844 17.4944 25.4601 20.057 25.432C22.2427 25.4082 24.4289 25.3849 26.6141 25.3577C27.6157 25.3455 28.6391 25.3863 29.6377 25.3037C29.6542 25.3023 29.6712 25.3008 29.6892 25.2999C29.5794 25.481 29.5114 25.6928 29.459 25.8963C29.3579 26.2863 29.3307 26.6846 29.3409 27.0858ZM28.3408 30.1706C26.0269 30.1822 23.7135 30.192 21.3995 30.2002C18.7033 30.2094 16.0076 30.2167 13.3114 30.2177C11.1155 30.2187 8.91913 30.2187 6.72322 30.1973C6.10393 30.191 5.48414 30.1856 4.86486 30.1648C4.44666 30.1507 4.09889 30.123 3.70352 30.0312C3.52915 29.9909 3.35721 29.9418 3.18866 29.8821C3.14835 29.868 3.10854 29.8529 3.06919 29.8379C3.05656 29.833 3.04879 29.8301 3.04393 29.8286C2.96282 29.7932 2.88266 29.7543 2.80446 29.713C2.66894 29.6416 2.54074 29.561 2.41397 29.475C2.39357 29.4614 2.37364 29.4464 2.35373 29.4313C2.34353 29.4231 2.33188 29.4138 2.32556 29.4085C2.25902 29.3502 2.19198 29.2929 2.12883 29.2307C2.04141 29.1448 1.95884 29.053 1.88209 28.9578C1.87044 28.9398 1.81895 28.8698 1.80487 28.848C1.7631 28.7858 1.72377 28.7222 1.68637 28.6571C1.65383 28.5998 1.62225 28.542 1.59311 28.4827C1.58631 28.4691 1.55132 28.3929 1.53432 28.3574C1.52072 28.3215 1.49013 28.2428 1.48478 28.2287C1.4605 28.1597 1.43815 28.0898 1.41775 28.0198C1.38133 27.8955 1.35171 27.7697 1.32742 27.6424C1.3182 27.5958 1.31091 27.5492 1.30362 27.5026C1.31333 27.5565 1.28953 27.3743 1.28613 27.3345C1.26573 27.0751 1.26671 26.8148 1.28711 26.5559C1.29196 26.4942 1.29924 26.4335 1.30507 26.3723C1.30604 26.3621 1.30702 26.3538 1.3075 26.3466C1.30896 26.3388 1.3109 26.3296 1.31382 26.3165C1.33762 26.1936 1.35802 26.0702 1.38716 25.9483C1.41339 25.839 1.44349 25.7302 1.47749 25.6228C1.49401 25.5709 1.51151 25.5199 1.52996 25.4689C1.54016 25.4397 1.57707 25.3533 1.58484 25.3324C1.65672 25.1813 1.7364 25.0381 1.82577 24.8957C1.82625 24.8948 1.82623 24.8948 1.82672 24.8943C1.85052 24.8739 1.87383 24.8365 1.89374 24.8156C2.02537 24.6742 2.17497 24.546 2.33137 24.4329C3.38877 23.6669 4.65649 23.51 5.91837 23.4906C6.2948 23.5489 6.68289 23.5654 7.05884 23.5838C8.71852 23.6659 10.3855 23.6431 12.0461 23.6222C14.2231 23.595 16.3991 23.5401 18.5751 23.476C19.8467 23.4386 21.1183 23.3968 22.3894 23.3536C22.9742 23.3517 23.559 23.3507 24.1433 23.3517C25.7933 23.3541 27.4807 23.2871 29.1243 23.4575C29.3944 23.4857 29.6955 23.5309 29.9476 23.6334C30.2531 23.7577 30.4343 23.9675 30.5348 24.2531C30.3469 24.2517 30.1594 24.2512 29.9719 24.2512C29.8169 24.2512 29.6654 24.2478 29.5119 24.2697C29.56 24.2629 29.6008 24.257 29.6358 24.2522C29.6047 24.2468 29.5629 24.2556 29.5313 24.2565C29.3725 24.2629 29.2137 24.2643 29.0553 24.2672C28.4356 24.2784 27.8163 24.2852 27.1965 24.293C25.089 24.3207 22.981 24.3464 20.873 24.3712C18.3031 24.4013 15.7332 24.4338 13.1633 24.4703C10.9343 24.5018 8.70685 24.5363 6.47888 24.599C6.067 24.6106 5.6556 24.6267 5.2442 24.6422C4.89449 24.6558 4.53167 24.6451 4.18487 24.6947C4.14893 24.7 4.09987 24.7068 4.07753 24.7097C4.01633 24.718 3.95513 24.7257 3.89393 24.734C3.86722 24.7374 3.84098 24.7408 3.81475 24.7442C3.78804 24.7481 3.76132 24.752 3.73509 24.7549C3.71858 24.7573 3.70742 24.7578 3.69916 24.7583C3.69868 24.7588 3.69867 24.7588 3.69818 24.7588C3.67924 24.7651 3.48252 24.8311 3.58597 24.7923C3.64669 24.7695 3.6064 24.7835 3.59134 24.7889C3.56851 24.7971 3.54517 24.8039 3.52283 24.8127C3.51652 24.8151 3.51022 24.8171 3.50439 24.8195C3.34508 24.803 3.16973 24.8394 3.05315 24.8982C2.7457 25.0531 2.57862 25.3902 2.48099 25.7059C2.33431 26.1814 2.32897 26.7293 2.35957 27.2233C2.39308 27.7566 2.48438 28.3205 2.79281 28.7708C3.13961 29.2769 3.78756 29.5751 4.39373 29.3624C4.41024 29.3565 4.4258 29.3502 4.44134 29.3434C4.45834 29.3449 4.47484 29.3468 4.49135 29.3483C4.54915 29.3541 4.72061 29.374 4.56858 29.3546C4.87603 29.3934 5.18739 29.4294 5.49776 29.4313C6.26956 29.4352 7.04134 29.4391 7.81314 29.4396C9.94008 29.4406 12.067 29.4386 14.194 29.4304C16.522 29.4211 18.8495 29.4129 21.1776 29.407C22.981 29.4022 24.7844 29.3973 26.5879 29.4002C27.077 29.4007 27.5661 29.4007 28.0548 29.407C28.1582 29.408 28.2617 29.4109 28.3647 29.4138C28.7654 29.424 29.1583 29.4993 29.5576 29.5226C29.8951 29.5421 30.495 29.512 30.7306 29.8068C30.8078 29.903 30.8486 30.0254 30.8714 30.1565C30.0277 30.1594 29.1845 30.1662 28.3408 30.1706ZM1.83303 24.8841C1.88014 24.8098 1.85392 24.8549 1.83303 24.8841V24.8841ZM17.2345 22.0859C19.0229 22.015 20.8109 21.9426 22.5988 21.8552C23.2093 21.8251 23.8208 21.7945 24.4309 21.7541C25.5281 21.6818 26.6312 21.539 27.7264 21.7114C27.8605 21.7328 27.9902 21.7595 28.115 21.7935C27.4136 21.8192 26.7123 21.8527 26.0128 21.8775C24.172 21.9426 22.3307 22.0067 20.4888 22.064C19.3683 22.099 18.2477 22.1315 17.1267 22.1612C16.4933 22.1607 15.8605 22.1612 15.2271 22.1631C15.8964 22.1379 16.5652 22.1121 17.2345 22.0859ZM27.6079 19.9322C27.6536 20.144 27.6886 20.3616 27.7328 20.5763C26.4956 20.3995 25.106 20.6079 23.9422 20.6749C22.3627 20.7662 20.7812 20.8303 19.2002 20.8949C16.0178 21.0261 12.8345 21.1417 9.65158 21.2534C8.79964 21.283 7.93021 21.283 7.10159 21.0625C6.08693 20.7924 4.97124 19.9653 5.25149 18.7694C5.65561 17.0437 7.82433 17.1238 9.22901 17.1476C12.5231 17.204 15.8163 17.3016 19.1104 17.3555C20.8429 17.3842 22.5764 17.4099 24.3094 17.407C24.8942 17.406 25.4795 17.4031 26.0643 17.3837C26.5796 17.3662 27.1261 17.3341 27.6351 17.1991C27.5389 17.5454 27.4942 17.9068 27.4806 18.2638C27.4598 18.8209 27.4918 19.3868 27.6079 19.9322ZM3.03907 18.9443C3.03664 18.3619 3.23092 17.798 3.61366 17.3643C4.02603 16.896 4.55014 16.5415 5.12571 16.3127C5.49291 16.167 5.87176 16.0713 6.25935 16.0038C6.26033 16.0038 6.26081 16.0038 6.26179 16.0033C6.32444 15.9965 6.3871 15.9887 6.45024 15.9824C6.57993 15.9688 6.71009 15.9572 6.84026 15.946C7.58097 15.8843 8.32461 15.8479 9.06727 15.8158C11.1573 15.7245 13.2493 15.6784 15.3407 15.641C17.474 15.6031 19.6082 15.605 21.7415 15.5628C23.2151 15.5336 24.6888 15.5025 26.1624 15.537C26.6137 15.5477 27.0649 15.5535 27.5161 15.5564C27.7614 15.5584 28.0052 15.5399 28.2495 15.5181C28.2899 15.5147 28.3297 15.5088 28.3695 15.5016C28.2991 15.6468 28.2097 15.7799 28.0883 15.8756C27.8605 16.0553 27.5525 16.1165 27.2767 16.1752C26.9648 16.2418 26.6506 16.2792 26.3329 16.2933C25.7991 16.3176 25.2639 16.319 24.7296 16.3195C23.0534 16.3219 21.3772 16.2908 19.701 16.2578C16.2991 16.1913 12.8971 16.0946 9.49517 16.0324C7.93555 16.0038 6.07819 15.9275 4.90568 17.1384C3.98865 18.0851 3.83321 19.5917 4.59238 20.6797C5.20972 21.5642 6.15055 22.0067 7.16034 22.2146C7.09574 22.2146 7.03162 22.2141 6.96702 22.2136C6.83248 22.2063 6.69794 22.1981 6.5634 22.1879C6.4512 22.1791 6.33902 22.1694 6.22731 22.1573C6.21274 22.1553 6.19669 22.1529 6.18115 22.15C6.16561 22.149 6.14472 22.1471 6.118 22.1422C6.11655 22.1422 6.1151 22.1417 6.11365 22.1417C6.10685 22.1413 6.10005 22.1408 6.09325 22.1413C6.09859 22.1408 6.10295 22.1408 6.10781 22.1408C5.76781 22.0815 5.45356 21.9528 5.16018 21.8066C4.00467 21.231 3.04393 20.2261 3.03907 18.9443ZM11.25 10.5662C10.8692 9.36991 10.7386 7.99631 11.1077 6.78106C11.2821 6.2084 11.6037 5.66585 12.0918 5.30643C12.6295 4.91008 13.2872 4.83091 13.9356 4.89309C14.6811 4.96449 15.4393 5.18355 16.1324 5.45992C16.8838 5.7596 17.8655 6.03889 18.528 5.40212C18.6921 5.24426 18.5697 4.94069 18.3395 4.94748C18.0612 4.95526 17.7989 4.913 17.5444 4.84355C17.7591 4.75903 17.983 4.69541 18.2084 4.64683C18.7699 4.52541 19.3658 4.539 19.9118 4.72357C20.9289 5.06697 21.6739 6.09425 22.0635 7.05257C22.9314 9.18728 22.0732 12.1506 20.2202 13.5223C19.7646 13.8594 19.1822 14.1445 18.6072 14.1654C18.2283 14.179 17.8917 14.0808 17.56 13.9565C17.8116 13.7146 18.033 13.4421 18.2113 13.139C18.4576 12.7218 17.9796 12.3182 17.5838 12.511C16.9314 12.8292 16.4292 13.3528 15.7832 13.6816C15.1625 13.9983 14.5039 14.0012 13.8613 13.7433C12.5459 13.2148 11.6639 11.867 11.25 10.5662ZM16.6794 2.31735C17.0475 2.06867 17.4546 1.86661 17.8519 1.66989C18.2565 1.46978 18.6494 1.24926 19.0443 1.03264C19.0506 1.10792 19.0555 1.1803 19.0642 1.23712C19.1006 1.47172 19.1492 1.70292 19.1958 1.93558C19.2905 2.40866 19.276 2.91187 19.2153 3.39078C18.9025 3.37864 18.5858 3.39952 18.2696 3.44906C18.0054 3.49035 17.7096 3.55592 17.4152 3.65063C17.4405 3.58797 17.4657 3.5258 17.491 3.46315C17.6877 2.9818 18.0952 2.61558 18.2642 2.11821C18.2982 2.01718 18.172 1.92344 18.0836 1.97978C17.8936 2.09975 17.6858 2.17066 17.5046 2.30715C17.3428 2.42906 17.1908 2.57186 17.0519 2.71903C16.9839 2.7914 16.9237 2.87009 16.8673 2.95169C16.8163 2.73749 16.7503 2.52718 16.675 2.32026C16.6764 2.31929 16.6779 2.31832 16.6794 2.31735ZM31.8875 30.4042C31.9006 29.5809 31.616 28.7931 30.7072 28.5517C30.6732 28.543 30.6392 28.5362 30.6048 28.5284C30.3119 28.0801 30.2517 27.4248 30.2094 26.9178C30.1807 26.5768 30.1618 26.2344 30.204 25.8939C30.2312 25.6782 30.2891 25.5 30.3755 25.3018C30.376 25.2999 30.3765 25.2984 30.3774 25.2969C30.4352 25.2974 30.4935 25.2979 30.5504 25.2984C30.8568 25.4111 31.2736 25.2561 31.2736 24.8316C31.2731 24.8132 31.2736 24.7947 31.2741 24.7763C31.2794 24.5985 31.1818 24.4406 31.0409 24.3464C31.0531 23.7048 30.7617 23.2463 30.3274 22.9315C30.6708 22.6017 30.5761 21.8931 30.0418 21.7741C29.7281 21.384 29.3516 21.1077 28.9334 20.9148C28.7605 20.4952 28.7008 20.0478 28.609 19.6039C28.5113 19.1293 28.5385 18.6432 28.5104 18.1608C28.4856 17.7378 28.5395 17.323 28.5983 16.9048C28.6041 16.8645 28.6211 16.7965 28.6396 16.7163C29.102 16.3278 29.2676 15.7702 29.2142 15.1416C29.2079 15.0634 29.1792 14.9979 29.1384 14.9449C29.1083 14.8662 29.0456 14.7982 28.9485 14.7681C28.7173 14.6958 28.49 14.6025 28.2495 14.5743C28.0047 14.5457 27.7624 14.5112 27.5161 14.4966C27.0275 14.467 26.5389 14.4306 26.0497 14.4034C25.667 14.382 25.2838 14.3621 24.9005 14.3504C24.2302 14.3295 23.559 14.3174 22.8882 14.3062C22.3233 14.297 21.7585 14.2921 21.1936 14.2907C21.9532 13.6505 22.5434 12.7864 22.9319 11.8946C23.5901 10.3841 23.8266 8.63454 23.337 7.03849C22.9373 5.73483 22.0164 4.39863 20.7739 3.77935C20.5796 3.6822 20.381 3.60497 20.1789 3.54572C20.2921 2.98957 20.2416 2.30569 20.09 1.79229C20.0084 1.51544 19.92 1.25412 19.8744 0.968524C19.8341 0.716924 19.8258 0.414812 19.6709 0.204498C19.5349 0.0194409 19.3158 -0.0631298 19.1006 0.0548986C18.4444 0.416269 17.796 0.78978 17.1379 1.14726C16.88 1.28715 16.6109 1.42849 16.3588 1.59266C16.0032 0.902465 15.4306 0.176811 14.6816 0.54401C14.3372 0.713038 14.277 1.25655 14.5578 1.50767C14.6637 1.60287 14.7608 1.65338 14.8856 1.71166C14.8016 1.67232 14.9313 1.76995 14.8876 1.71604C14.9424 1.78355 15.0056 1.87341 15.0746 1.99289C15.1916 2.19447 15.3072 2.39458 15.4092 2.60295C15.2198 3.01435 15.1771 3.48695 15.3388 3.92409C15.3534 3.9644 15.3699 4.00326 15.3879 4.04163C14.8589 3.87989 14.3149 3.76283 13.7636 3.73029C12.9651 3.68366 12.1258 3.85998 11.4711 4.33549C10.8076 4.8178 10.3491 5.47352 10.0654 6.239C9.53938 7.65777 9.6613 9.36457 10.0829 10.7935C10.4943 12.1866 11.3132 13.5568 12.527 14.3951C11.6969 14.4145 10.8668 14.4378 10.0372 14.4665C8.62382 14.5156 7.15696 14.5044 5.75956 14.7555C4.43502 14.993 3.14397 15.7279 2.35906 16.8305C1.47506 18.0724 1.51101 19.7928 2.30321 21.0683C2.63349 21.5987 3.08861 22.0815 3.61366 22.4769C2.33041 22.8038 1.0389 23.4789 0.481784 24.6908C0.00675647 25.7249 -0.116113 26.9149 0.109258 28.0281C0.3696 29.3143 1.22834 30.4134 2.43436 30.9409C3.34313 31.3387 4.30825 31.4257 5.28648 31.447C7.1453 31.4878 9.00558 31.4835 10.8649 31.4854C13.5659 31.4888 16.2665 31.483 18.9676 31.4742C21.5418 31.466 24.1166 31.4553 26.6909 31.4422C28.1743 31.4349 29.6572 31.4266 31.1405 31.4184C31.2236 31.4179 31.3071 31.4174 31.3906 31.4174C31.9711 31.4169 32.1372 30.7719 31.8875 30.4042ZM6.10781 22.1408C6.10975 22.1408 6.1117 22.1413 6.11365 22.1417C6.13599 22.1427 6.15832 22.1461 6.18115 22.15C6.23652 22.1529 6.21418 22.1364 6.10781 22.1408Z" fill="#39AE5A"/>
</svg>
