<svg width="38" height="48" viewBox="0 0 38 48" fill="none" xmlns="http://www.w3.org/2000/svg">
<rect x="2" y="2" width="36" height="44" rx="7" fill="#FFFBF5"/>
<path d="M23.1518 33.0926C23.1547 33.0744 23.1576 33.057 23.1606 33.0388V33.0366C23.1562 33.0599 23.154 33.0788 23.1518 33.0926ZM23.1606 33.0388V33.041C23.1606 33.0868 23.1387 33.1842 23.1518 33.0926C23.1446 33.1377 23.1373 33.1828 23.1279 33.2279C23.0952 33.3879 23.0523 33.5493 22.9942 33.7021C22.9107 33.9217 22.7226 34.2293 22.5548 34.4381C22.1227 34.9733 21.5569 35.3813 20.9526 35.6999C19.667 36.3792 18.3481 36.5021 16.9492 36.0832C16.2549 35.8752 15.6586 35.5108 15.1327 35.0148C14.6251 34.5348 14.2161 33.9922 14.2546 33.3581C14.3171 33.2868 14.3868 33.225 14.474 33.1879C14.8059 33.0461 15.1611 33.2868 15.3601 33.5363C15.9549 34.2832 16.1518 35.2941 17.0437 35.7981C19.0875 36.9522 21.5198 35.0584 21.9883 33.0221C22.2548 31.8635 21.9469 30.713 21.14 29.8373C20.949 29.6301 20.7376 29.4497 20.5154 29.2846C20.7325 29.3246 20.9359 29.2992 21.1589 29.3261C21.3005 29.3435 21.5104 29.4213 21.631 29.4984C21.8329 29.6279 21.8655 29.6541 22.0508 29.8541C22.1866 30.001 22.2977 30.1646 22.448 30.4199C22.7487 30.9304 22.8707 31.2191 23.0233 31.7908C23.0552 31.9108 23.0843 32.0315 23.1082 32.153C23.1155 32.1893 23.1424 32.3792 23.1482 32.3981C23.1656 32.6126 23.1591 32.8213 23.1606 33.0366C23.1627 33.0213 23.1656 33.0039 23.1693 32.9828C23.1664 33.0017 23.1635 33.0199 23.1606 33.0388ZM19.9176 28.2475C19.853 28.5064 19.9285 28.7741 20.0992 28.9595C20.1065 28.9777 20.1144 28.9966 20.1232 29.0141C19.5784 28.6599 18.9988 28.353 18.4919 27.9508C18.5507 27.9013 18.6647 27.7435 18.6938 27.7181C18.879 27.5508 19.0947 27.4199 19.2945 27.2708C19.8239 26.8737 20.312 26.4119 20.6374 25.8264C21.3317 24.5762 21.0361 23.145 19.9554 22.2162C18.6785 21.1188 17.2427 21.8308 16.1503 22.7944C15.8307 23.0766 15.5046 23.4832 15.0972 23.617C14.9751 23.657 14.9962 23.6861 14.9308 23.5392C14.8829 23.4315 14.8742 23.3202 14.8321 23.2148C14.8742 23.049 14.9214 22.8839 14.9911 22.7246C15.1901 22.2744 15.5228 21.9064 15.9099 21.6112C16.796 20.9348 17.8891 20.6642 18.9916 20.705C21.0724 20.7806 23.0269 22.6395 22.6579 24.7813C22.5403 25.4635 22.2113 26.0279 21.7312 26.5195C21.4741 26.7828 21.1944 27.0235 20.8923 27.2344C20.4856 27.5188 20.0491 27.7239 19.9176 28.2475ZM18.4599 27.9253C18.4505 27.9181 18.4403 27.9108 18.4309 27.9028C18.3975 27.8752 18.497 27.8053 18.4599 27.9253ZM22.5512 28.1828C22.6674 28.0839 22.7807 27.9821 22.8896 27.8759C23.5259 27.2541 24.0437 26.4926 24.2848 25.6286C24.7141 24.089 24.3771 22.473 23.3988 21.2199C21.5286 18.8235 17.8201 18.3624 15.3397 20.0882C14.6541 20.5653 14.1159 21.2119 13.7993 21.9872C13.54 22.6206 13.354 23.5173 13.7935 24.1013C13.8298 24.2228 13.8813 24.3391 13.946 24.4461C14.235 24.9253 14.7601 25.1173 15.2976 25.038C16.382 24.8795 16.9855 23.9355 17.8658 23.4075C18.2631 23.1697 18.6059 23.0802 18.9691 23.4126C19.3605 23.7711 19.5857 24.2417 19.4106 24.7631C19.0308 25.8941 17.6929 26.1944 17.1163 27.1719C16.2905 28.5726 17.8026 29.4424 18.8165 30.0453C19.6387 30.5341 20.4783 31.1544 20.4188 32.1443C20.3759 32.8512 19.8552 33.7203 19.2334 34.1283C18.6103 34.537 17.9334 34.5915 17.417 33.9348C17.1264 33.5653 16.9071 33.0846 16.6035 32.697C16.2425 32.2366 15.7516 31.8708 15.1662 31.7617C14.5256 31.6432 13.8581 31.7871 13.3933 32.2642C13.3519 32.3071 13.3126 32.3515 13.2756 32.3973C12.7498 32.4192 12.4316 32.841 12.3801 33.3341C12.1898 35.1442 13.9358 36.9523 15.4654 37.6555C17.361 38.5261 19.5174 38.5661 21.4044 37.689C23.0647 36.9166 24.7729 35.5668 25.0678 33.6352C25.2733 32.2846 24.8884 30.7901 24.1309 29.6562C23.7314 29.0584 23.2077 28.4962 22.5512 28.1828ZM31.7745 38.7035C31.7527 39.5653 31.6786 40.4228 31.1259 40.9581C30.8317 41.2432 30.3676 41.3661 29.8817 41.3734C29.7786 41.3748 29.6755 41.3741 29.5723 41.3712C29.4547 41.201 29.2818 41.0693 29.0726 41.0112C27.5532 40.5901 25.8493 40.6359 24.2863 40.6155C22.3159 40.5901 20.3447 40.633 18.3757 40.6926C17.0081 40.7341 15.6419 40.8083 14.2743 40.8483C13.0228 40.8839 11.7787 41.025 10.5251 40.9457C9.49739 40.8803 8.09054 40.7392 7.40346 39.8781C6.77449 39.0897 6.78684 37.9362 6.7556 36.9508C6.71638 35.6912 6.69967 34.4301 6.68805 33.1704C6.65827 29.7922 6.66843 26.4097 6.78174 23.0337C6.82749 21.6686 6.82896 20.2992 6.92774 18.937C6.9459 18.6919 6.96115 18.4504 6.96841 18.2053C6.97059 18.1413 6.96986 18.1319 6.96841 18.1377C6.96914 18.1282 6.96986 18.1181 6.97131 18.1035C6.97204 18.0919 6.97275 18.0831 6.97275 18.0751C6.97566 18.0686 6.9793 18.0512 6.98583 18.0126C7.00181 17.9246 7.01706 17.8359 7.03595 17.7479C7.05919 17.6402 7.08898 17.5355 7.12239 17.4315C7.10859 17.4853 7.15215 17.3937 7.16087 17.3559C7.17176 17.3464 7.18412 17.3362 7.2001 17.3239C7.22044 17.3071 7.24149 17.2919 7.26183 17.2759C8.81103 17.0359 10.4169 17.2868 11.982 17.3028C13.7324 17.321 15.4814 17.3231 17.2325 17.305C20.3367 17.2722 23.4416 17.225 26.5466 17.2104C27.6607 17.2046 28.9295 16.9806 29.9776 17.4744C30.9036 17.9115 31.213 18.9617 31.3946 19.9522C31.6067 21.1144 31.6132 22.4272 31.6459 23.6555C31.7469 27.4664 31.7825 31.2824 31.7948 35.0948C31.7984 36.2977 31.8057 37.5013 31.7745 38.7035ZM7.13981 17.374C7.13836 17.3791 7.13619 17.3842 7.13474 17.3886C7.1173 17.4031 7.10495 17.4053 7.13981 17.374ZM7.16087 17.3559C7.15651 17.3675 7.14562 17.3791 7.13618 17.3879C7.13763 17.3828 7.13909 17.3777 7.14054 17.3733C7.14563 17.3682 7.15288 17.3624 7.16087 17.3559ZM33.4958 24.9697C33.4602 23.6213 33.4486 22.2606 33.3208 20.9173C33.2125 19.785 33.0404 18.6453 32.5218 17.6199C31.818 16.2271 30.5419 15.6228 29.0516 15.4395C28.1096 15.3231 27.1763 15.417 26.2328 15.4257C25.6474 15.4308 25.0627 15.4381 24.4773 15.4446C22.61 15.4664 20.7427 15.4904 18.8761 15.5137C16.9303 15.5377 14.9853 15.5581 13.0403 15.6177C12.3379 15.6388 11.6349 15.6562 10.9333 15.689C10.2411 15.721 9.52862 15.6715 8.84372 15.7486C8.70427 15.7639 8.56916 15.7842 8.4377 15.809C7.57122 15.7726 6.63358 16.0468 6.16657 16.7595C5.99371 17.0235 5.9131 17.3515 5.84556 17.6555C5.79617 17.8802 5.72425 18.102 5.67777 18.3268C5.67922 18.3202 5.66905 18.385 5.66179 18.4373C5.65888 18.4511 5.65453 18.4766 5.65308 18.4832C5.64146 18.5559 5.63056 18.6293 5.61894 18.7021C5.59425 18.8686 5.571 19.0351 5.54921 19.2017C5.45625 19.8919 5.38072 20.5842 5.31535 21.2781C4.99142 24.721 5.04662 28.2272 5.05243 31.6824C5.05461 33.1624 5.06622 34.6432 5.09818 36.1231C5.11851 37.0912 5.10326 38.0839 5.29791 39.0366C5.52451 40.1486 6.11718 41.1814 7.11439 41.7646C8.33966 42.4817 9.92009 42.6032 11.3066 42.6308C13.0185 42.6657 14.7442 42.5719 16.4575 42.5377C20.1558 42.4635 23.9057 42.2482 27.5939 42.6315C28.4153 42.7821 29.2542 42.9326 30.0909 42.9261C31.3714 42.9152 32.5545 42.3159 33.1036 41.1195C33.7159 39.785 33.588 38.1741 33.5975 36.7312C33.6222 32.8111 33.5997 28.8882 33.4958 24.9697ZM35.8897 21.0744C35.8672 25.1988 35.828 29.3224 35.7895 33.4468C35.7626 36.3501 35.7212 39.2541 35.7277 42.1581C35.7277 42.4504 35.7314 42.7428 35.7364 43.0352C35.7386 43.177 35.7372 43.3188 35.7321 43.4606C35.727 43.5952 35.719 43.729 35.7088 43.8628C35.6943 44.0424 35.7016 43.9937 35.6602 44.1974C35.6318 44.337 35.5977 44.4759 35.5549 44.6119C35.5353 44.6744 35.5142 44.7384 35.4902 44.7995C35.483 44.8134 35.4743 44.8301 35.4641 44.8512C35.3166 45.1421 35.2927 45.1799 35.0799 45.3777C34.9876 45.4628 34.7392 45.6155 34.5649 45.6774C34.1901 45.8112 33.7863 45.9108 33.3912 45.9552C32.5719 46.0475 31.7367 45.9894 30.916 45.953C30.6632 45.9421 30.4105 45.9334 30.1577 45.9275C29.4111 45.7115 28.6085 45.7275 27.8336 45.7101C27.0869 45.6941 26.3403 45.689 25.5936 45.6846C23.4649 45.6723 21.3368 45.6759 19.208 45.6759C15.0536 45.6766 10.8803 45.7588 6.72945 45.5574C6.4658 45.5443 6.20217 45.5297 5.93925 45.5072C5.86081 45.5006 5.78236 45.4897 5.70392 45.4832C5.70174 45.4832 5.701 45.4832 5.69882 45.4824C5.50563 45.4497 5.31245 45.4148 5.12143 45.3704C3.8504 45.0766 2.69848 44.4417 2.31863 43.1108C1.80514 41.3079 2.15086 39.3035 2.19444 37.4621C2.21114 36.7842 2.23148 36.1079 2.254 35.4301C2.41233 30.6424 2.56411 25.8548 2.68395 21.0664C2.7377 18.9122 2.80307 16.7566 2.79799 14.6017C2.79363 12.8766 2.72317 11.153 2.7653 9.42786C2.78927 8.44386 2.86626 7.46496 3.04203 6.49551C3.15097 5.89405 3.3449 5.26785 3.76035 4.80385C3.92231 4.62349 4.10751 4.48241 4.30724 4.36387C4.3087 4.44241 4.31087 4.52094 4.31232 4.59949C4.31958 5.09112 4.25931 5.5806 4.26076 6.07223C4.26294 7.04823 4.55419 7.89623 5.35966 8.48605C6.7774 9.5246 8.71152 8.87368 9.41821 7.32749C9.81913 6.4504 9.80171 5.50203 9.85255 4.55585C9.85473 4.52385 9.85691 4.49259 9.85836 4.46059C10.1917 4.49332 10.5316 4.48968 10.8171 4.49768C11.1795 4.50786 11.5419 4.52095 11.9029 4.55004C12.0031 4.55804 12.1026 4.56821 12.2021 4.57767C12.2029 4.58494 12.2029 4.59221 12.2029 4.59949C12.2101 5.09112 12.1506 5.5806 12.1513 6.07223C12.1535 7.04823 12.4454 7.89623 13.2509 8.48605C14.6686 9.5246 16.6021 8.87368 17.3095 7.32749C17.7104 6.4504 17.693 5.50203 17.7438 4.55585C17.7503 4.43876 17.7583 4.32096 17.7678 4.20387C18.0844 4.25405 18.4113 4.24022 18.7454 4.23658C19.1913 4.23149 19.6402 4.23803 20.0861 4.26131C20.0898 4.37403 20.0919 4.48676 20.0941 4.59949C20.1014 5.09112 20.0411 5.5806 20.0425 6.07223C20.0447 7.04823 20.336 7.89623 21.1414 8.48605C22.5599 9.5246 24.4933 8.87368 25.2 7.32749C25.6009 6.4504 25.5835 5.50203 25.635 4.55585C25.6416 4.42858 25.651 4.30059 25.6612 4.17259C25.9176 4.20896 26.1747 4.21185 26.3635 4.20822C26.9097 4.19585 27.4406 4.23585 27.9774 4.26712C27.9803 4.37767 27.9832 4.48894 27.9846 4.59949C27.9919 5.09112 27.9323 5.5806 27.9331 6.07223C27.9352 7.04823 28.2272 7.89623 29.0327 8.48605C30.4504 9.5246 32.3838 8.87368 33.0912 7.32749C33.4922 6.4504 33.4747 5.50203 33.5256 4.55585C33.5321 4.43949 33.5401 4.32313 33.5495 4.20604C33.7398 4.22277 33.9265 4.25477 34.1204 4.3195C34.2054 4.34714 34.1633 4.32167 34.2926 4.39294C34.3695 4.43585 34.4451 4.4824 34.5162 4.53403C34.5075 4.53476 34.6484 4.66204 34.668 4.68167C34.7044 4.71876 34.7399 4.75585 34.7755 4.79367C34.7893 4.80821 34.7988 4.81839 34.806 4.82494C34.8075 4.82785 34.8089 4.83004 34.8111 4.83295C34.9317 4.99659 35.037 5.17259 35.13 5.35368C35.1423 5.37623 35.228 5.56531 35.2324 5.56895C35.2752 5.67658 35.3145 5.78713 35.35 5.89767C35.4256 6.12822 35.4873 6.36386 35.5403 6.60095C35.5636 6.70713 35.5854 6.81404 35.605 6.92095C35.6166 6.98277 35.6275 7.04386 35.6377 7.10568C35.6391 7.11586 35.6689 7.30859 35.666 7.28459C35.6798 7.38059 35.6929 7.47586 35.7067 7.57186C35.7081 7.58204 35.711 7.60387 35.7139 7.62424C35.7255 7.71951 35.7364 7.8155 35.7466 7.91077C35.7735 8.16531 35.7938 8.41986 35.8091 8.67513C35.8294 9.01622 35.8381 9.35805 35.8497 9.69914C35.8664 10.1639 35.8715 10.6293 35.8752 11.0948C35.8991 14.4213 35.9078 17.7471 35.8897 21.0744ZM35.4946 44.7908C35.5113 44.7537 35.5331 44.7122 35.4946 44.7908V44.7908ZM5.91673 2.18349C5.98718 1.99076 6.09539 1.83003 6.22903 1.69694C6.56604 1.72967 6.91322 1.72314 7.2386 1.75877C7.60901 1.79877 7.97652 1.91512 8.12105 2.27657C8.299 2.72094 8.19586 3.2744 8.15519 3.73767C8.09345 4.44531 8.08472 5.15732 8.02517 5.86496C7.96271 6.60823 7.4405 7.51077 6.59145 7.18132C6.19562 7.02714 6.046 6.71949 6.0184 6.31804C5.96901 5.61331 5.99881 4.90712 5.94869 4.20167C5.90221 3.55512 5.68577 2.81331 5.91673 2.18349ZM13.8072 2.18349C13.8784 1.99076 13.9866 1.83003 14.1203 1.69694C14.4573 1.72967 14.8037 1.72314 15.1291 1.75877C15.5003 1.79877 15.8678 1.91512 16.0123 2.27657C16.1902 2.72094 16.0864 3.2744 16.0464 3.73767C15.9847 4.44531 15.976 5.15732 15.9164 5.86496C15.854 6.60823 15.3318 7.51077 14.4827 7.18132C14.0869 7.02714 13.9373 6.71949 13.9089 6.31804C13.8595 5.61331 13.8893 4.90712 13.8392 4.20167C13.7934 3.55512 13.5763 2.81331 13.8072 2.18349ZM21.6985 2.18349C21.769 1.99076 21.8772 1.83003 22.0108 1.69694C22.3478 1.72967 22.695 1.72314 23.0204 1.75877C23.3908 1.79877 23.7583 1.91512 23.9035 2.27657C24.0808 2.72094 23.9776 3.2744 23.937 3.73767C23.8752 4.44531 23.8665 5.15732 23.8069 5.86496C23.7445 6.60823 23.2223 7.51077 22.3732 7.18132C21.9781 7.02714 21.8278 6.71949 21.8002 6.31804C21.7508 5.61331 21.7806 4.90712 21.7304 4.20167C21.684 3.55512 21.4675 2.81331 21.6985 2.18349ZM29.589 2.18349C29.6602 1.99076 29.7684 1.83003 29.9021 1.69694C30.2391 1.72967 30.5855 1.72314 30.9109 1.75877C31.282 1.79877 31.6495 1.91512 31.7941 2.27657C31.972 2.72094 31.8682 3.2744 31.8282 3.73767C31.7665 4.44531 31.7577 5.15732 31.6982 5.86496C31.6357 6.60823 31.1135 7.51077 30.2645 7.18132C29.8686 7.02714 29.719 6.71949 29.6907 6.31804C29.6413 5.61331 29.6718 4.90712 29.621 4.20167C29.5752 3.55512 29.3581 2.81331 29.589 2.18349ZM37.9378 11.497C37.9146 10.1675 37.8543 8.82714 37.6691 7.51004C37.3989 5.5835 36.4715 2.8424 34.1262 2.77549C33.9577 2.77112 33.7914 2.78132 33.6265 2.80241C33.6215 2.54495 33.5975 2.28823 33.543 2.0315C33.344 1.09986 32.5988 0.317303 31.6575 0.120212C31.0511 -0.00633388 30.3713 0.0823931 29.8178 0.383484C29.4343 0.47803 29.0654 0.711489 28.8039 0.970399C28.2962 1.47367 28.0725 2.13477 27.997 2.82349C27.8067 2.80531 27.6164 2.7864 27.4261 2.78277C27.0114 2.77549 26.6032 2.86276 26.1943 2.92022C26.1115 2.93258 25.9372 2.94786 25.7374 2.97768C25.7396 2.66132 25.7193 2.34568 25.6518 2.0315C25.4528 1.09986 24.7076 0.317303 23.767 0.120212C23.1598 -0.00633388 22.48 0.0823931 21.9273 0.383484C21.5431 0.47803 21.1741 0.711489 20.9127 0.970399C20.4427 1.43585 20.2161 2.03732 20.1253 2.67077C19.6373 2.65186 19.1543 2.67004 18.6648 2.71658C18.3771 2.74422 18.1048 2.77332 17.8455 2.84023C17.8418 2.56968 17.8186 2.30059 17.7612 2.0315C17.5622 1.09986 16.817 0.317303 15.8758 0.120212C15.2693 -0.00633388 14.5895 0.0823931 14.036 0.383484C13.6525 0.47803 13.2836 0.711489 13.0221 0.970399C12.5181 1.46931 12.2936 2.12458 12.2166 2.80749C11.7983 2.76676 11.3669 2.78858 10.9602 2.79513C10.6602 2.80022 10.3043 2.79586 9.95496 2.83004C9.9506 2.56313 9.92663 2.29696 9.86998 2.0315C9.67097 1.09986 8.92579 0.317303 7.98523 0.120212C7.37804 -0.00633388 6.69823 0.0823931 6.14551 0.383484C5.7613 0.47803 5.39234 0.711489 5.13087 0.970399C4.61157 1.48458 4.39004 2.16458 4.31886 2.87004C3.16404 3.08822 2.28014 4.03294 1.78408 5.12022C0.946654 6.95585 0.853694 9.08896 0.833358 11.0781C0.807937 13.5995 0.808652 16.1188 0.753453 18.6402C0.640877 23.7559 0.475277 28.8701 0.305323 33.9843C0.234145 36.1392 0.117932 38.2999 0.104132 40.4548C0.0910585 42.3159 0.275545 44.3312 1.66714 45.7101C2.72681 46.7595 4.19903 47.2272 5.64727 47.3952C7.03813 47.5559 8.46604 47.521 9.86344 47.5384C12.1927 47.5675 14.5219 47.5683 16.8512 47.5675C19.2814 47.5661 21.7196 47.5195 24.1548 47.5246C24.6407 47.6119 25.1295 47.6766 25.6358 47.7028C26.5567 47.7493 27.4987 47.8286 28.4204 47.8112C29.3108 47.7944 30.1853 47.7886 31.075 47.841C31.9684 47.8933 32.8596 47.9377 33.75 47.8286C35.2622 47.6432 36.6748 47.0584 37.3198 45.5828C37.6967 44.7217 37.7962 43.7922 37.7795 42.8599C37.7345 40.2628 37.7999 37.6599 37.8246 35.0621C37.8652 30.8126 37.9088 26.5624 37.9371 22.313C37.9618 18.7086 38.001 15.1013 37.9378 11.497Z" fill="#221E1F"/>
</svg>
