<svg width="50" height="65" viewBox="0 0 50 65" fill="none" xmlns="http://www.w3.org/2000/svg">
<path d="M20.3032 7.5H4.30322L0.803223 10.5V32.5L3.30322 36.5H20.3032L21.8032 62.5H28.3032V37L43.3032 37.5L48.3032 35V14L45.3032 7.5H28.8032V2H20.3032V7.5Z" fill="#F5FFF8"/>
<path d="M46.4991 34.1618C46.3651 34.5568 46.1787 34.9704 45.8801 35.2678C45.5666 35.579 45.1688 35.6952 44.7194 35.8627C44.6638 35.8833 44.6082 35.9021 44.5507 35.9188C43.386 35.7396 42.2074 35.7543 41.0269 35.7317C39.7193 35.7071 38.4128 35.6913 37.1052 35.6607C34.5546 35.5997 32.007 35.4293 29.4544 35.3958C26.9048 35.3624 24.3552 35.4332 21.8046 35.4559C19.2134 35.4795 16.6221 35.4283 14.0298 35.4293C11.5368 35.4303 9.05364 35.4559 6.56058 35.3771C5.54669 35.3456 4.39787 35.2008 3.5447 34.604C2.99609 34.2209 2.77189 33.6812 2.62705 32.9544C2.56455 32.6412 2.54866 32.3517 2.53974 31.9538C2.53081 31.5027 2.54965 31.0517 2.57743 30.6026C2.64985 29.4493 2.72028 28.299 2.79072 27.1457C2.94548 24.596 3.07446 22.0422 2.98021 19.4866C2.88299 16.8747 2.56157 14.2098 2.84827 11.6019C2.95145 10.6613 3.10322 9.66764 3.73219 8.91521C4.04172 8.54392 4.44548 8.33415 4.88596 8.21499C5.92266 8.5134 7.00897 8.58431 8.09727 8.62271C9.38596 8.66802 10.6707 8.68771 11.9604 8.67294C14.6022 8.64339 17.2441 8.5912 19.885 8.64339C22.5665 8.69559 25.2481 8.82558 27.9297 8.87482C30.6003 8.92406 33.263 8.8315 35.9296 8.70741C38.3304 8.59514 40.8453 8.40603 43.2153 8.9083C44.0149 9.07671 44.8394 9.35149 45.4287 9.88627C46.0973 10.4939 46.3791 11.3172 46.5884 12.1908C47.136 14.4757 46.8463 16.8925 46.8493 19.2177C46.8523 21.8492 46.894 24.4788 46.9207 27.1093C46.9436 29.4355 47.257 31.9203 46.4991 34.1618ZM27.6876 59.1947C27.6866 59.2833 27.6717 59.3779 27.6776 59.4665C27.5596 59.692 27.5675 60.1372 27.4961 60.3834C27.4058 60.6996 27.2948 60.9921 27.1281 61.2757C26.4961 62.3512 25.3433 62.6811 24.1816 62.2251C23.5794 61.9878 23.1449 61.5958 22.6836 61.1644C22.6499 61.1329 22.6251 61.1102 22.6052 61.0945C22.6023 61.0846 22.5953 61.0689 22.5854 61.0502C22.5854 61.0492 22.5844 61.0492 22.5844 61.0482C22.5358 60.8453 22.4713 60.6483 22.4287 60.4445C22.4029 60.3184 22.3801 60.1924 22.3592 60.0653C22.3453 59.9865 22.3036 59.6615 22.3007 59.6645C21.8721 55.8541 21.8661 52.0073 21.8671 48.1782C21.8681 45.85 21.9832 43.5179 21.9435 41.1926C21.9287 40.2984 21.9108 39.4061 21.89 38.5119C21.885 38.3189 21.8761 38.1337 21.8592 37.9496C23.3265 37.9368 24.7967 37.922 26.264 37.9062C26.3979 37.9052 26.5298 37.9052 26.6647 37.9042C26.6985 38.3533 26.7461 38.7975 26.7729 39.3126C26.8185 40.128 26.8632 40.9425 26.9098 41.7579C27.0308 43.898 27.1519 46.0371 27.266 48.1772C27.4614 51.832 27.7828 55.532 27.6876 59.1947ZM27.6896 59.5552C27.6925 59.5138 27.6975 59.4488 27.7034 59.3483C27.6747 59.8142 27.6836 59.6832 27.6896 59.5552ZM21.8155 2.73824C22.378 2.29801 23.3265 2.32951 24.0021 2.31572C24.7749 2.30095 25.5626 2.24088 26.3354 2.2783C26.765 2.29997 27.3304 2.40238 27.5914 2.62496C28.0001 2.97753 27.8969 3.76838 27.8721 4.33762C27.8503 4.78475 27.7908 5.22991 27.7699 5.67703C27.757 5.92916 27.7679 6.1842 27.762 6.43731C26.3027 6.41072 24.8443 6.36247 23.386 6.3152C22.8096 6.29648 22.2312 6.28171 21.6548 6.26792C21.6697 6.04928 21.6598 5.83065 21.637 5.61004C21.5725 5.00928 21.4902 4.4174 21.4713 3.81172C21.4564 3.33111 21.4614 3.01498 21.8155 2.73824ZM49.637 30.3957C49.5834 27.7682 49.511 25.1396 49.4138 22.513C49.3166 19.8835 49.4723 17.2529 49.3711 14.6263C49.2828 12.3307 48.9049 9.56029 47.007 7.99832C45.1419 6.46294 42.6022 6.23049 40.2699 6.16155C37.4802 6.07981 34.6856 6.35657 31.8979 6.43142C31.262 6.44816 30.6251 6.45506 29.9892 6.45703C30.0229 5.92521 30.0378 5.3924 30.0745 4.85959C30.131 4.03823 30.2015 3.1292 29.9534 2.33246C29.4931 0.850262 28.0646 0.231792 26.6221 0.101792C25.9257 0.0387616 25.2243 0.110638 24.5269 0.120486C23.6053 0.134274 22.6509 0.144149 21.758 0.40021C20.2898 0.822711 19.3781 1.97397 19.3215 3.48276C19.2947 4.20466 19.4902 4.9039 19.6965 5.58837C19.756 5.78731 19.8225 6.01088 19.9029 6.23543C17.9048 6.20687 15.9068 6.20785 13.9058 6.23543C11.1419 6.27285 8.33638 6.2305 5.57348 6.41663C4.98916 6.27383 4.37903 6.28072 3.74709 6.47966C2.60125 6.84011 1.76295 7.76589 1.22227 8.79998C0.134969 10.8829 0.220298 13.2574 0.291726 15.5383C0.378036 18.2988 0.526834 21.0446 0.422667 23.8091C0.327429 26.3224 0.0685034 28.8338 0.00401918 31.3481C-0.0475682 33.3749 0.383005 35.4451 2.13598 36.688C3.16674 37.4197 4.48219 37.7102 5.72029 37.8373C7.02981 37.9712 8.37407 37.9623 9.69054 37.9722C13.139 37.9968 16.5893 37.9879 20.0378 37.9643C20.0298 38.0096 20.0219 38.0549 20.014 38.1012C19.8523 38.9679 19.7292 39.8355 19.632 40.711C19.3979 42.8334 19.386 44.9775 19.3542 47.1106C19.2927 51.2273 19.2461 55.4474 19.7769 59.5394C19.8622 60.2022 19.9425 60.8827 20.136 61.5258C20.389 62.359 20.9029 62.9371 21.5923 63.4778C22.9435 64.5375 24.7213 65.1353 26.4296 64.6537C28.0308 64.2017 29.1181 62.9224 29.5527 61.3604C29.9505 59.9314 29.8473 58.3714 29.8056 56.9059C29.7451 54.8171 29.6429 52.7292 29.5368 50.6433C29.3304 46.5729 29.0765 42.5054 28.8711 38.436C28.8622 38.2607 28.8463 38.0864 28.8294 37.9131C31.0507 37.9436 33.2679 38.0313 35.4921 38.1101C37.0289 38.1652 38.5665 38.1859 40.1042 38.2105C41.4564 38.2322 42.8206 38.3484 44.1638 38.2026C45.4942 38.2785 46.8176 37.988 47.8156 37.075C49.5894 35.452 49.6816 32.6156 49.637 30.3957ZM36.1122 23.1345C35.2729 24.0454 34.4207 24.9476 33.5894 25.8655C33.1648 26.3342 32.7272 26.7892 32.2947 27.2511C32.1161 27.4422 31.9455 27.6402 31.764 27.8293C31.7372 27.8588 31.7074 27.8874 31.6787 27.9169C31.6469 27.2659 31.6251 26.6169 31.5884 25.9679C31.5705 25.635 31.5318 25.3494 31.4644 25.0727C31.8562 24.4217 31.5546 23.3492 30.5556 23.3472C26.762 23.3403 22.9663 23.1374 19.1727 23.2133C17.3334 23.2497 15.4941 23.2625 13.6558 23.3265C12.7779 23.357 11.8711 23.4053 10.9961 23.3521C10.9534 23.3492 10.8979 23.3492 10.8423 23.3472C10.8681 23.3167 10.8135 23.2211 10.7838 23.0695C10.7372 22.8341 10.7173 22.5859 10.6528 22.3545C10.7173 22.1211 10.7382 21.8719 10.7838 21.6355C10.8046 21.5262 10.8701 21.4051 10.8572 21.3548C10.9088 21.3548 10.9584 21.3568 10.9961 21.3539C11.8344 21.3027 12.7064 21.3489 13.5487 21.3765C15.4227 21.4376 17.2977 21.4553 19.1727 21.4918C22.9663 21.5676 26.762 21.3656 30.5556 21.3578C31.5467 21.3558 31.8523 20.2971 31.4723 19.6461C31.5269 19.4344 31.5626 19.2138 31.5775 18.9567C31.6162 18.2851 31.6529 17.6144 31.6757 16.9427C31.6777 16.8925 31.6816 16.8442 31.6836 16.795C31.7997 16.9112 31.9118 17.0323 32.0239 17.1545C32.4237 17.5927 32.8384 18.0162 33.2392 18.4535C34.0933 19.3881 34.9683 20.304 35.8155 21.2455C36.1479 21.6158 36.4872 21.9802 36.8185 22.3525C36.5854 22.6154 36.3503 22.8754 36.1122 23.1345ZM31.4068 28.168C31.4723 28.1149 31.4674 28.1247 31.4068 28.168V28.168ZM30.883 28.5068H30.8781C30.8979 28.4861 30.9217 28.4783 30.9326 28.4812C30.9167 28.4891 30.8989 28.498 30.883 28.5068ZM30.8751 16.1913H30.8731C30.8136 16.1617 30.7699 16.1233 30.8751 16.1913ZM31.762 15.7806C31.7878 15.6634 31.8384 15.6673 31.762 15.7806V15.7806ZM39.5041 21.3854C39.387 21.1254 39.0933 20.8545 38.8999 20.6329C38.5735 20.2587 38.2402 19.8884 37.8989 19.527C36.9376 18.5057 35.9356 17.5051 34.8651 16.597C34.3086 16.1253 33.7451 15.6654 33.136 15.2616C33.0606 15.2123 32.9852 15.1641 32.9098 15.1158C32.9435 15.1355 32.7114 14.9789 32.6985 14.9691C32.6449 14.9287 32.5913 14.8873 32.5368 14.8479C32.3642 14.7219 32.1886 14.5978 32.0001 14.4944C31.5189 14.2314 30.9425 14.063 30.4286 14.3536C29.8384 14.6894 29.7649 15.3857 29.7134 15.9904C29.6449 16.8098 29.6717 17.6292 29.7174 18.4485C29.7303 18.6839 29.7412 18.9183 29.761 19.1517C25.7809 19.1842 21.8066 19.3507 17.8265 19.265C15.8145 19.2217 13.7342 19.1074 11.7322 19.3526C11.0308 19.4383 9.93161 19.5998 9.49708 20.2173C9.15879 20.6969 9.11713 21.6887 9.33538 22.3515C9.12407 22.9956 9.16475 23.9342 9.45542 24.4217C9.85919 25.0982 11.012 25.2657 11.7322 25.3533C13.7342 25.5985 15.8145 25.4843 17.8265 25.442C21.7937 25.3553 25.7551 25.5217 29.7223 25.5532C29.6152 26.4485 29.6539 27.392 29.6866 28.2399C29.7074 28.7954 29.6995 29.4592 30.01 29.9457C30.3533 30.4864 30.9961 30.6075 31.5705 30.4046C31.7977 30.3249 32.01 30.2126 32.2104 30.0845C32.3007 30.0264 32.388 29.9663 32.4753 29.9033C32.5388 29.857 33.0656 29.4867 32.8354 29.6384C33.39 29.274 33.9207 28.8929 34.4326 28.4694C35.5497 27.5485 36.5745 26.5401 37.5844 25.506C38.0001 25.0786 38.4009 24.6393 38.7947 24.1932C39.0179 23.9401 39.3681 23.6239 39.5041 23.3206C39.6439 23.0094 39.6935 22.6745 39.639 22.3623C39.6985 22.0472 39.6469 21.7045 39.5041 21.3854Z" fill="#221E1F"/>
</svg>
