<svg width="27" height="25" viewBox="0 0 27 25" fill="none" xmlns="http://www.w3.org/2000/svg">
<mask id="path-1-outside-1" maskUnits="userSpaceOnUse" x="-1.0257" y="-1" width="28" height="27" fill="black">
<rect fill="white" x="-1.0257" y="-1" width="28" height="27"/>
<path d="M6.09315 10.7683C6.1513 10.9162 6.25058 11.0626 6.34393 11.1951C7.29528 12.5464 9.19087 13.3565 9.06785 15.2624C9.01366 16.0998 8.70391 16.8969 8.60185 17.7276C8.55834 18.0816 8.55201 18.491 8.7316 18.8114C8.87954 19.0761 9.11134 19.1018 9.36846 19.0436C10.1331 18.8704 10.6723 18.2604 11.2803 17.8079C11.639 17.5405 12.0528 17.2893 12.5006 17.2145C13.001 17.1306 13.4844 17.2422 13.9448 17.4388C14.8527 17.8265 15.6671 18.4111 16.5512 18.8466C16.7518 18.9451 16.9634 19.0231 17.1826 19.0678C17.2585 19.0836 17.3297 19.0891 17.4073 19.0864C17.3922 19.0872 17.4528 19.0729 17.4389 19.0867C17.4437 19.0832 17.4488 19.0796 17.4539 19.0761C17.4599 19.067 17.4658 19.0563 17.471 19.0464C17.4713 19.0385 17.4911 18.9732 17.4994 18.942C17.4931 18.9614 17.5089 18.8229 17.5093 18.792C17.5097 18.7173 17.5054 18.6425 17.4986 18.5678C17.4915 18.4914 17.4583 18.3122 17.4286 18.1793C17.3756 17.9404 17.3048 17.7062 17.2304 17.4732C17.0841 17.0148 16.9207 16.5591 16.8325 16.0844C16.7471 15.6239 16.7115 15.1453 16.8361 14.688C16.9528 14.26 17.1885 13.8866 17.4658 13.5456C18.0453 12.8336 18.8254 12.3221 19.4255 11.6291C19.556 11.4783 19.681 11.3201 19.7862 11.1508C19.8689 11.0183 19.963 10.8106 19.9599 10.6987C19.9571 10.6176 19.9448 10.6168 19.9116 10.5697C19.9172 10.5776 19.8713 10.5238 19.861 10.5155C19.7854 10.4538 19.6715 10.4103 19.5691 10.3802C19.3001 10.3015 19.094 10.2897 18.7993 10.2845C18.4057 10.2778 18.0145 10.3205 17.6221 10.3442C16.7447 10.3977 15.7969 10.311 15.1652 9.62707C14.6426 9.06141 14.3831 8.29599 14.1035 7.59266C13.9195 7.13143 13.7617 6.6504 13.503 6.22398C13.4017 6.05705 13.141 5.53807 12.8811 5.65911C12.7771 5.70737 12.7197 5.84543 12.6565 5.93206C12.6414 5.95263 12.626 5.9728 12.6102 5.99297C12.4666 6.34582 12.3432 6.70737 12.1928 7.05784C12.0065 7.49178 11.8186 7.92454 11.5694 8.32723C11.094 9.09583 10.4591 9.70105 9.59908 10.0052C8.69204 10.3265 7.74941 10.2109 6.80993 10.2643C6.64458 10.2738 6.4721 10.2742 6.31189 10.3229C6.23357 10.3466 6.18414 10.3747 6.11768 10.4226C6.05123 10.4708 6.06705 10.4653 6.05281 10.5076C6.03026 10.5733 6.04924 10.6556 6.09315 10.7683ZM5.7308 9.64686C6.14299 9.39528 6.67503 9.3743 7.14497 9.35255C8.06982 9.30943 9.00969 9.39566 9.8297 8.88023C10.6189 8.38458 11.0061 7.44116 11.3847 6.63261C11.5987 6.17573 11.8428 5.73269 12.113 5.30626C12.2126 5.14883 12.3602 5.1061 12.4919 5.13735C12.7704 4.92652 13.1027 4.93522 13.4223 5.09661C13.8353 5.30508 14.1236 5.77422 14.3416 6.16504C14.5801 6.59305 14.789 7.0444 14.9812 7.49495C15.2593 8.14804 15.535 9.05074 16.2538 9.34385C17.0572 9.67139 18.005 9.39052 18.8424 9.41109C19.4729 9.42652 20.2807 9.52344 20.6454 10.1156C21.179 10.9823 20.3112 11.957 19.7392 12.5476C19.1011 13.207 18.253 13.7414 17.8191 14.5733C17.3736 15.4261 17.8384 16.4392 18.1086 17.2739C18.321 17.9297 18.6312 18.868 18.2435 19.5207C17.7051 20.4269 16.444 19.8277 15.7672 19.4519C15.2827 19.1833 14.7977 18.9139 14.3143 18.6433C13.91 18.417 13.4867 18.1512 13.0172 18.0919C12.1098 17.9776 11.378 18.944 10.7304 19.4337C10.1185 19.8965 9.12123 20.2624 8.41039 19.8071C7.57534 19.2727 7.66436 18.1057 7.81863 17.2632C7.89735 16.8324 8.00495 16.4076 8.10464 15.9811C8.21025 15.5298 8.30794 15.0503 8.17543 14.5943C8.05399 14.1757 7.73042 13.8185 7.43018 13.5155C7.0888 13.171 6.70866 12.8676 6.35779 12.5329C5.84869 12.0476 5.22646 11.3672 5.17424 10.6314C5.14457 10.2082 5.37914 9.86126 5.7308 9.64686ZM0.996605 9.76552C1.11172 10.0361 1.27825 10.2885 1.44875 10.5266C2.22406 11.6113 3.29568 12.4182 4.22923 13.3565C4.76048 13.8905 5.27471 14.4764 5.6236 15.1488C6.00137 15.8767 6.09236 16.6971 6.00256 17.5045C5.84117 18.9578 5.28026 20.3502 5.19363 21.8146C5.15763 22.4238 5.20865 23.1319 5.58642 23.6398C5.91593 24.0828 6.45115 24.1058 6.93454 23.9934C8.28383 23.6793 9.21103 22.616 10.2822 21.8194C10.8989 21.3605 11.5991 20.9523 12.3732 20.8549C13.1988 20.7509 14.0022 21.0076 14.7423 21.3526C15.5006 21.7058 16.2277 22.1441 16.9555 22.5555C17.7055 22.98 18.4575 23.4705 19.2601 23.7893C19.5979 23.9238 19.9801 24.0599 20.3471 24.0705C20.4927 24.0745 20.5434 24.0733 20.6652 24.0318C20.6351 24.0409 20.7304 23.9997 20.7482 23.9891C20.7554 23.9847 20.7597 23.9819 20.7629 23.9804C20.7815 23.9633 20.7997 23.9455 20.8175 23.9277C20.8238 23.9214 20.8274 23.9183 20.8297 23.9159C20.84 23.9012 20.8499 23.8862 20.8582 23.8712C20.8705 23.8506 20.9009 23.7869 20.9088 23.7723C20.9136 23.7549 20.9366 23.6801 20.9421 23.6595C20.946 23.6441 20.9694 23.5247 20.9694 23.5365C21.0026 23.2944 20.9856 23.0429 20.9595 22.8016C20.9385 22.6046 20.8685 22.26 20.8088 22.01C20.717 21.6247 20.6003 21.2462 20.4789 20.87C20.2245 20.082 19.9444 19.2976 19.8016 18.4792C19.666 17.7031 19.628 16.9004 19.8855 16.1441C20.1209 15.4522 20.535 14.8482 21.0165 14.3043C22.0797 13.1033 23.427 12.2022 24.4239 10.934C24.7807 10.4799 25.287 9.8122 25.0758 9.2402C25.071 9.22715 25.0627 9.20699 25.0346 9.15794C25.0066 9.1077 24.9943 9.09068 24.988 9.08316C24.9215 9.00009 24.8353 8.92889 24.7934 8.9008C24.5849 8.76275 24.4393 8.70778 24.1957 8.64132C23.107 8.34346 21.8721 8.53056 20.7205 8.59306C19.2652 8.67178 17.7281 8.48309 16.751 7.28332C15.8855 6.22042 15.448 4.83552 14.9409 3.57919C14.6367 2.82563 14.3123 2.0875 13.8629 1.40751C13.6331 1.05981 13.1078 0.405135 12.641 0.757588C12.4515 0.900785 12.3372 1.11597 12.2023 1.30466C12.1204 1.41938 12.0449 1.53766 11.9701 1.65712C11.749 2.17611 11.5449 2.7038 11.3198 3.22002C10.9994 3.9538 10.675 4.6872 10.2466 5.366C9.84712 5.99851 9.36214 6.62668 8.7759 7.0978C8.21894 7.54519 7.58484 7.87074 6.90209 8.08079C5.35936 8.55587 3.75374 8.34306 2.17067 8.46569C1.85777 8.48982 1.51718 8.52462 1.24384 8.69155C1.14732 8.75049 1.0247 8.85849 0.972486 8.93286C0.919085 9.00841 0.885859 9.0978 0.875574 9.18087C0.855795 9.34503 0.910767 9.56299 0.996605 9.76552ZM1.13823 7.79677C1.4891 7.65595 1.86846 7.61362 2.24228 7.57802C2.66593 7.53807 3.0888 7.51473 3.51443 7.508C4.33841 7.49534 5.16316 7.52185 5.97605 7.36244C6.65406 7.22992 7.30319 6.99811 7.88073 6.61441C9.20787 5.73308 9.88708 4.1508 10.5275 2.75721C10.8875 1.97398 11.2723 1.19589 11.7162 0.456564C11.8293 0.268668 12.0168 0.243353 12.1663 0.311787C12.1679 0.310204 12.1691 0.308615 12.1707 0.307429C12.6727 -0.148269 13.3175 -0.0600557 13.8368 0.327999C14.4397 0.778554 14.855 1.53133 15.1901 2.18917C15.5679 2.93047 15.9025 3.69787 16.2233 4.46488C16.696 5.59423 17.2079 6.98546 18.4365 7.47754C19.8325 8.03688 21.429 7.58198 22.8804 7.60927C23.8693 7.62786 25.2115 7.74811 25.768 8.70342C26.1363 9.33514 25.9627 10.0646 25.6288 10.6706C25.219 11.4147 24.6094 12.0725 24.0078 12.6647C22.9207 13.7355 21.5366 14.6465 20.8606 16.0614C20.1573 17.5341 20.891 19.2406 21.357 20.6706C21.5837 21.3668 21.7811 22.0725 21.8649 22.8016C21.9243 23.3178 21.9136 23.9143 21.6197 24.3641C21.2348 24.9539 20.5453 25.0425 19.9005 24.9226C19.0334 24.7612 18.2672 24.3225 17.5046 23.9024C16.6933 23.4558 15.8875 22.9978 15.0793 22.5452C14.3985 22.1639 13.6474 21.7608 12.8495 21.7323C12.0702 21.7046 11.3689 22.1192 10.7692 22.5785C10.1525 23.0508 9.59513 23.5951 8.97369 24.0626C7.99703 24.7976 6.34909 25.4416 5.2494 24.6065C4.00968 23.6655 4.27194 21.7561 4.53895 20.4337C4.68808 19.6951 4.87993 18.9673 5.03737 18.2307C5.2047 17.4467 5.30438 16.6208 5.02313 15.8502C4.76561 15.1437 4.20745 14.5333 3.68411 14.0108C3.12161 13.4491 2.50533 12.9447 1.93017 12.3969C1.48634 11.974 1.08879 11.5116 0.728031 11.0159C0.368061 10.5207 0.0330162 9.94472 0.0017662 9.31853C-0.0350227 8.58989 0.499783 8.05271 1.13823 7.79677Z"/>
</mask>
<path d="M6.09315 10.7683C6.1513 10.9162 6.25058 11.0626 6.34393 11.1951C7.29528 12.5464 9.19087 13.3565 9.06785 15.2624C9.01366 16.0998 8.70391 16.8969 8.60185 17.7276C8.55834 18.0816 8.55201 18.491 8.7316 18.8114C8.87954 19.0761 9.11134 19.1018 9.36846 19.0436C10.1331 18.8704 10.6723 18.2604 11.2803 17.8079C11.639 17.5405 12.0528 17.2893 12.5006 17.2145C13.001 17.1306 13.4844 17.2422 13.9448 17.4388C14.8527 17.8265 15.6671 18.4111 16.5512 18.8466C16.7518 18.9451 16.9634 19.0231 17.1826 19.0678C17.2585 19.0836 17.3297 19.0891 17.4073 19.0864C17.3922 19.0872 17.4528 19.0729 17.4389 19.0867C17.4437 19.0832 17.4488 19.0796 17.4539 19.0761C17.4599 19.067 17.4658 19.0563 17.471 19.0464C17.4713 19.0385 17.4911 18.9732 17.4994 18.942C17.4931 18.9614 17.5089 18.8229 17.5093 18.792C17.5097 18.7173 17.5054 18.6425 17.4986 18.5678C17.4915 18.4914 17.4583 18.3122 17.4286 18.1793C17.3756 17.9404 17.3048 17.7062 17.2304 17.4732C17.0841 17.0148 16.9207 16.5591 16.8325 16.0844C16.7471 15.6239 16.7115 15.1453 16.8361 14.688C16.9528 14.26 17.1885 13.8866 17.4658 13.5456C18.0453 12.8336 18.8254 12.3221 19.4255 11.6291C19.556 11.4783 19.681 11.3201 19.7862 11.1508C19.8689 11.0183 19.963 10.8106 19.9599 10.6987C19.9571 10.6176 19.9448 10.6168 19.9116 10.5697C19.9172 10.5776 19.8713 10.5238 19.861 10.5155C19.7854 10.4538 19.6715 10.4103 19.5691 10.3802C19.3001 10.3015 19.094 10.2897 18.7993 10.2845C18.4057 10.2778 18.0145 10.3205 17.6221 10.3442C16.7447 10.3977 15.7969 10.311 15.1652 9.62707C14.6426 9.06141 14.3831 8.29599 14.1035 7.59266C13.9195 7.13143 13.7617 6.6504 13.503 6.22398C13.4017 6.05705 13.141 5.53807 12.8811 5.65911C12.7771 5.70737 12.7197 5.84543 12.6565 5.93206C12.6414 5.95263 12.626 5.9728 12.6102 5.99297C12.4666 6.34582 12.3432 6.70737 12.1928 7.05784C12.0065 7.49178 11.8186 7.92454 11.5694 8.32723C11.094 9.09583 10.4591 9.70105 9.59908 10.0052C8.69204 10.3265 7.74941 10.2109 6.80993 10.2643C6.64458 10.2738 6.4721 10.2742 6.31189 10.3229C6.23357 10.3466 6.18414 10.3747 6.11768 10.4226C6.05123 10.4708 6.06705 10.4653 6.05281 10.5076C6.03026 10.5733 6.04924 10.6556 6.09315 10.7683ZM5.7308 9.64686C6.14299 9.39528 6.67503 9.3743 7.14497 9.35255C8.06982 9.30943 9.00969 9.39566 9.8297 8.88023C10.6189 8.38458 11.0061 7.44116 11.3847 6.63261C11.5987 6.17573 11.8428 5.73269 12.113 5.30626C12.2126 5.14883 12.3602 5.1061 12.4919 5.13735C12.7704 4.92652 13.1027 4.93522 13.4223 5.09661C13.8353 5.30508 14.1236 5.77422 14.3416 6.16504C14.5801 6.59305 14.789 7.0444 14.9812 7.49495C15.2593 8.14804 15.535 9.05074 16.2538 9.34385C17.0572 9.67139 18.005 9.39052 18.8424 9.41109C19.4729 9.42652 20.2807 9.52344 20.6454 10.1156C21.179 10.9823 20.3112 11.957 19.7392 12.5476C19.1011 13.207 18.253 13.7414 17.8191 14.5733C17.3736 15.4261 17.8384 16.4392 18.1086 17.2739C18.321 17.9297 18.6312 18.868 18.2435 19.5207C17.7051 20.4269 16.444 19.8277 15.7672 19.4519C15.2827 19.1833 14.7977 18.9139 14.3143 18.6433C13.91 18.417 13.4867 18.1512 13.0172 18.0919C12.1098 17.9776 11.378 18.944 10.7304 19.4337C10.1185 19.8965 9.12123 20.2624 8.41039 19.8071C7.57534 19.2727 7.66436 18.1057 7.81863 17.2632C7.89735 16.8324 8.00495 16.4076 8.10464 15.9811C8.21025 15.5298 8.30794 15.0503 8.17543 14.5943C8.05399 14.1757 7.73042 13.8185 7.43018 13.5155C7.0888 13.171 6.70866 12.8676 6.35779 12.5329C5.84869 12.0476 5.22646 11.3672 5.17424 10.6314C5.14457 10.2082 5.37914 9.86126 5.7308 9.64686ZM0.996605 9.76552C1.11172 10.0361 1.27825 10.2885 1.44875 10.5266C2.22406 11.6113 3.29568 12.4182 4.22923 13.3565C4.76048 13.8905 5.27471 14.4764 5.6236 15.1488C6.00137 15.8767 6.09236 16.6971 6.00256 17.5045C5.84117 18.9578 5.28026 20.3502 5.19363 21.8146C5.15763 22.4238 5.20865 23.1319 5.58642 23.6398C5.91593 24.0828 6.45115 24.1058 6.93454 23.9934C8.28383 23.6793 9.21103 22.616 10.2822 21.8194C10.8989 21.3605 11.5991 20.9523 12.3732 20.8549C13.1988 20.7509 14.0022 21.0076 14.7423 21.3526C15.5006 21.7058 16.2277 22.1441 16.9555 22.5555C17.7055 22.98 18.4575 23.4705 19.2601 23.7893C19.5979 23.9238 19.9801 24.0599 20.3471 24.0705C20.4927 24.0745 20.5434 24.0733 20.6652 24.0318C20.6351 24.0409 20.7304 23.9997 20.7482 23.9891C20.7554 23.9847 20.7597 23.9819 20.7629 23.9804C20.7815 23.9633 20.7997 23.9455 20.8175 23.9277C20.8238 23.9214 20.8274 23.9183 20.8297 23.9159C20.84 23.9012 20.8499 23.8862 20.8582 23.8712C20.8705 23.8506 20.9009 23.7869 20.9088 23.7723C20.9136 23.7549 20.9366 23.6801 20.9421 23.6595C20.946 23.6441 20.9694 23.5247 20.9694 23.5365C21.0026 23.2944 20.9856 23.0429 20.9595 22.8016C20.9385 22.6046 20.8685 22.26 20.8088 22.01C20.717 21.6247 20.6003 21.2462 20.4789 20.87C20.2245 20.082 19.9444 19.2976 19.8016 18.4792C19.666 17.7031 19.628 16.9004 19.8855 16.1441C20.1209 15.4522 20.535 14.8482 21.0165 14.3043C22.0797 13.1033 23.427 12.2022 24.4239 10.934C24.7807 10.4799 25.287 9.8122 25.0758 9.2402C25.071 9.22715 25.0627 9.20699 25.0346 9.15794C25.0066 9.1077 24.9943 9.09068 24.988 9.08316C24.9215 9.00009 24.8353 8.92889 24.7934 8.9008C24.5849 8.76275 24.4393 8.70778 24.1957 8.64132C23.107 8.34346 21.8721 8.53056 20.7205 8.59306C19.2652 8.67178 17.7281 8.48309 16.751 7.28332C15.8855 6.22042 15.448 4.83552 14.9409 3.57919C14.6367 2.82563 14.3123 2.0875 13.8629 1.40751C13.6331 1.05981 13.1078 0.405135 12.641 0.757588C12.4515 0.900785 12.3372 1.11597 12.2023 1.30466C12.1204 1.41938 12.0449 1.53766 11.9701 1.65712C11.749 2.17611 11.5449 2.7038 11.3198 3.22002C10.9994 3.9538 10.675 4.6872 10.2466 5.366C9.84712 5.99851 9.36214 6.62668 8.7759 7.0978C8.21894 7.54519 7.58484 7.87074 6.90209 8.08079C5.35936 8.55587 3.75374 8.34306 2.17067 8.46569C1.85777 8.48982 1.51718 8.52462 1.24384 8.69155C1.14732 8.75049 1.0247 8.85849 0.972486 8.93286C0.919085 9.00841 0.885859 9.0978 0.875574 9.18087C0.855795 9.34503 0.910767 9.56299 0.996605 9.76552ZM1.13823 7.79677C1.4891 7.65595 1.86846 7.61362 2.24228 7.57802C2.66593 7.53807 3.0888 7.51473 3.51443 7.508C4.33841 7.49534 5.16316 7.52185 5.97605 7.36244C6.65406 7.22992 7.30319 6.99811 7.88073 6.61441C9.20787 5.73308 9.88708 4.1508 10.5275 2.75721C10.8875 1.97398 11.2723 1.19589 11.7162 0.456564C11.8293 0.268668 12.0168 0.243353 12.1663 0.311787C12.1679 0.310204 12.1691 0.308615 12.1707 0.307429C12.6727 -0.148269 13.3175 -0.0600557 13.8368 0.327999C14.4397 0.778554 14.855 1.53133 15.1901 2.18917C15.5679 2.93047 15.9025 3.69787 16.2233 4.46488C16.696 5.59423 17.2079 6.98546 18.4365 7.47754C19.8325 8.03688 21.429 7.58198 22.8804 7.60927C23.8693 7.62786 25.2115 7.74811 25.768 8.70342C26.1363 9.33514 25.9627 10.0646 25.6288 10.6706C25.219 11.4147 24.6094 12.0725 24.0078 12.6647C22.9207 13.7355 21.5366 14.6465 20.8606 16.0614C20.1573 17.5341 20.891 19.2406 21.357 20.6706C21.5837 21.3668 21.7811 22.0725 21.8649 22.8016C21.9243 23.3178 21.9136 23.9143 21.6197 24.3641C21.2348 24.9539 20.5453 25.0425 19.9005 24.9226C19.0334 24.7612 18.2672 24.3225 17.5046 23.9024C16.6933 23.4558 15.8875 22.9978 15.0793 22.5452C14.3985 22.1639 13.6474 21.7608 12.8495 21.7323C12.0702 21.7046 11.3689 22.1192 10.7692 22.5785C10.1525 23.0508 9.59513 23.5951 8.97369 24.0626C7.99703 24.7976 6.34909 25.4416 5.2494 24.6065C4.00968 23.6655 4.27194 21.7561 4.53895 20.4337C4.68808 19.6951 4.87993 18.9673 5.03737 18.2307C5.2047 17.4467 5.30438 16.6208 5.02313 15.8502C4.76561 15.1437 4.20745 14.5333 3.68411 14.0108C3.12161 13.4491 2.50533 12.9447 1.93017 12.3969C1.48634 11.974 1.08879 11.5116 0.728031 11.0159C0.368061 10.5207 0.0330162 9.94472 0.0017662 9.31853C-0.0350227 8.58989 0.499783 8.05271 1.13823 7.79677Z" fill="#DCA108"/>
<path d="M6.09315 10.7683C6.1513 10.9162 6.25058 11.0626 6.34393 11.1951C7.29528 12.5464 9.19087 13.3565 9.06785 15.2624C9.01366 16.0998 8.70391 16.8969 8.60185 17.7276C8.55834 18.0816 8.55201 18.491 8.7316 18.8114C8.87954 19.0761 9.11134 19.1018 9.36846 19.0436C10.1331 18.8704 10.6723 18.2604 11.2803 17.8079C11.639 17.5405 12.0528 17.2893 12.5006 17.2145C13.001 17.1306 13.4844 17.2422 13.9448 17.4388C14.8527 17.8265 15.6671 18.4111 16.5512 18.8466C16.7518 18.9451 16.9634 19.0231 17.1826 19.0678C17.2585 19.0836 17.3297 19.0891 17.4073 19.0864C17.3922 19.0872 17.4528 19.0729 17.4389 19.0867C17.4437 19.0832 17.4488 19.0796 17.4539 19.0761C17.4599 19.067 17.4658 19.0563 17.471 19.0464C17.4713 19.0385 17.4911 18.9732 17.4994 18.942C17.4931 18.9614 17.5089 18.8229 17.5093 18.792C17.5097 18.7173 17.5054 18.6425 17.4986 18.5678C17.4915 18.4914 17.4583 18.3122 17.4286 18.1793C17.3756 17.9404 17.3048 17.7062 17.2304 17.4732C17.0841 17.0148 16.9207 16.5591 16.8325 16.0844C16.7471 15.6239 16.7115 15.1453 16.8361 14.688C16.9528 14.26 17.1885 13.8866 17.4658 13.5456C18.0453 12.8336 18.8254 12.3221 19.4255 11.6291C19.556 11.4783 19.681 11.3201 19.7862 11.1508C19.8689 11.0183 19.963 10.8106 19.9599 10.6987C19.9571 10.6176 19.9448 10.6168 19.9116 10.5697C19.9172 10.5776 19.8713 10.5238 19.861 10.5155C19.7854 10.4538 19.6715 10.4103 19.5691 10.3802C19.3001 10.3015 19.094 10.2897 18.7993 10.2845C18.4057 10.2778 18.0145 10.3205 17.6221 10.3442C16.7447 10.3977 15.7969 10.311 15.1652 9.62707C14.6426 9.06141 14.3831 8.29599 14.1035 7.59266C13.9195 7.13143 13.7617 6.6504 13.503 6.22398C13.4017 6.05705 13.141 5.53807 12.8811 5.65911C12.7771 5.70737 12.7197 5.84543 12.6565 5.93206C12.6414 5.95263 12.626 5.9728 12.6102 5.99297C12.4666 6.34582 12.3432 6.70737 12.1928 7.05784C12.0065 7.49178 11.8186 7.92454 11.5694 8.32723C11.094 9.09583 10.4591 9.70105 9.59908 10.0052C8.69204 10.3265 7.74941 10.2109 6.80993 10.2643C6.64458 10.2738 6.4721 10.2742 6.31189 10.3229C6.23357 10.3466 6.18414 10.3747 6.11768 10.4226C6.05123 10.4708 6.06705 10.4653 6.05281 10.5076C6.03026 10.5733 6.04924 10.6556 6.09315 10.7683ZM5.7308 9.64686C6.14299 9.39528 6.67503 9.3743 7.14497 9.35255C8.06982 9.30943 9.00969 9.39566 9.8297 8.88023C10.6189 8.38458 11.0061 7.44116 11.3847 6.63261C11.5987 6.17573 11.8428 5.73269 12.113 5.30626C12.2126 5.14883 12.3602 5.1061 12.4919 5.13735C12.7704 4.92652 13.1027 4.93522 13.4223 5.09661C13.8353 5.30508 14.1236 5.77422 14.3416 6.16504C14.5801 6.59305 14.789 7.0444 14.9812 7.49495C15.2593 8.14804 15.535 9.05074 16.2538 9.34385C17.0572 9.67139 18.005 9.39052 18.8424 9.41109C19.4729 9.42652 20.2807 9.52344 20.6454 10.1156C21.179 10.9823 20.3112 11.957 19.7392 12.5476C19.1011 13.207 18.253 13.7414 17.8191 14.5733C17.3736 15.4261 17.8384 16.4392 18.1086 17.2739C18.321 17.9297 18.6312 18.868 18.2435 19.5207C17.7051 20.4269 16.444 19.8277 15.7672 19.4519C15.2827 19.1833 14.7977 18.9139 14.3143 18.6433C13.91 18.417 13.4867 18.1512 13.0172 18.0919C12.1098 17.9776 11.378 18.944 10.7304 19.4337C10.1185 19.8965 9.12123 20.2624 8.41039 19.8071C7.57534 19.2727 7.66436 18.1057 7.81863 17.2632C7.89735 16.8324 8.00495 16.4076 8.10464 15.9811C8.21025 15.5298 8.30794 15.0503 8.17543 14.5943C8.05399 14.1757 7.73042 13.8185 7.43018 13.5155C7.0888 13.171 6.70866 12.8676 6.35779 12.5329C5.84869 12.0476 5.22646 11.3672 5.17424 10.6314C5.14457 10.2082 5.37914 9.86126 5.7308 9.64686ZM0.996605 9.76552C1.11172 10.0361 1.27825 10.2885 1.44875 10.5266C2.22406 11.6113 3.29568 12.4182 4.22923 13.3565C4.76048 13.8905 5.27471 14.4764 5.6236 15.1488C6.00137 15.8767 6.09236 16.6971 6.00256 17.5045C5.84117 18.9578 5.28026 20.3502 5.19363 21.8146C5.15763 22.4238 5.20865 23.1319 5.58642 23.6398C5.91593 24.0828 6.45115 24.1058 6.93454 23.9934C8.28383 23.6793 9.21103 22.616 10.2822 21.8194C10.8989 21.3605 11.5991 20.9523 12.3732 20.8549C13.1988 20.7509 14.0022 21.0076 14.7423 21.3526C15.5006 21.7058 16.2277 22.1441 16.9555 22.5555C17.7055 22.98 18.4575 23.4705 19.2601 23.7893C19.5979 23.9238 19.9801 24.0599 20.3471 24.0705C20.4927 24.0745 20.5434 24.0733 20.6652 24.0318C20.6351 24.0409 20.7304 23.9997 20.7482 23.9891C20.7554 23.9847 20.7597 23.9819 20.7629 23.9804C20.7815 23.9633 20.7997 23.9455 20.8175 23.9277C20.8238 23.9214 20.8274 23.9183 20.8297 23.9159C20.84 23.9012 20.8499 23.8862 20.8582 23.8712C20.8705 23.8506 20.9009 23.7869 20.9088 23.7723C20.9136 23.7549 20.9366 23.6801 20.9421 23.6595C20.946 23.6441 20.9694 23.5247 20.9694 23.5365C21.0026 23.2944 20.9856 23.0429 20.9595 22.8016C20.9385 22.6046 20.8685 22.26 20.8088 22.01C20.717 21.6247 20.6003 21.2462 20.4789 20.87C20.2245 20.082 19.9444 19.2976 19.8016 18.4792C19.666 17.7031 19.628 16.9004 19.8855 16.1441C20.1209 15.4522 20.535 14.8482 21.0165 14.3043C22.0797 13.1033 23.427 12.2022 24.4239 10.934C24.7807 10.4799 25.287 9.8122 25.0758 9.2402C25.071 9.22715 25.0627 9.20699 25.0346 9.15794C25.0066 9.1077 24.9943 9.09068 24.988 9.08316C24.9215 9.00009 24.8353 8.92889 24.7934 8.9008C24.5849 8.76275 24.4393 8.70778 24.1957 8.64132C23.107 8.34346 21.8721 8.53056 20.7205 8.59306C19.2652 8.67178 17.7281 8.48309 16.751 7.28332C15.8855 6.22042 15.448 4.83552 14.9409 3.57919C14.6367 2.82563 14.3123 2.0875 13.8629 1.40751C13.6331 1.05981 13.1078 0.405135 12.641 0.757588C12.4515 0.900785 12.3372 1.11597 12.2023 1.30466C12.1204 1.41938 12.0449 1.53766 11.9701 1.65712C11.749 2.17611 11.5449 2.7038 11.3198 3.22002C10.9994 3.9538 10.675 4.6872 10.2466 5.366C9.84712 5.99851 9.36214 6.62668 8.7759 7.0978C8.21894 7.54519 7.58484 7.87074 6.90209 8.08079C5.35936 8.55587 3.75374 8.34306 2.17067 8.46569C1.85777 8.48982 1.51718 8.52462 1.24384 8.69155C1.14732 8.75049 1.0247 8.85849 0.972486 8.93286C0.919085 9.00841 0.885859 9.0978 0.875574 9.18087C0.855795 9.34503 0.910767 9.56299 0.996605 9.76552ZM1.13823 7.79677C1.4891 7.65595 1.86846 7.61362 2.24228 7.57802C2.66593 7.53807 3.0888 7.51473 3.51443 7.508C4.33841 7.49534 5.16316 7.52185 5.97605 7.36244C6.65406 7.22992 7.30319 6.99811 7.88073 6.61441C9.20787 5.73308 9.88708 4.1508 10.5275 2.75721C10.8875 1.97398 11.2723 1.19589 11.7162 0.456564C11.8293 0.268668 12.0168 0.243353 12.1663 0.311787C12.1679 0.310204 12.1691 0.308615 12.1707 0.307429C12.6727 -0.148269 13.3175 -0.0600557 13.8368 0.327999C14.4397 0.778554 14.855 1.53133 15.1901 2.18917C15.5679 2.93047 15.9025 3.69787 16.2233 4.46488C16.696 5.59423 17.2079 6.98546 18.4365 7.47754C19.8325 8.03688 21.429 7.58198 22.8804 7.60927C23.8693 7.62786 25.2115 7.74811 25.768 8.70342C26.1363 9.33514 25.9627 10.0646 25.6288 10.6706C25.219 11.4147 24.6094 12.0725 24.0078 12.6647C22.9207 13.7355 21.5366 14.6465 20.8606 16.0614C20.1573 17.5341 20.891 19.2406 21.357 20.6706C21.5837 21.3668 21.7811 22.0725 21.8649 22.8016C21.9243 23.3178 21.9136 23.9143 21.6197 24.3641C21.2348 24.9539 20.5453 25.0425 19.9005 24.9226C19.0334 24.7612 18.2672 24.3225 17.5046 23.9024C16.6933 23.4558 15.8875 22.9978 15.0793 22.5452C14.3985 22.1639 13.6474 21.7608 12.8495 21.7323C12.0702 21.7046 11.3689 22.1192 10.7692 22.5785C10.1525 23.0508 9.59513 23.5951 8.97369 24.0626C7.99703 24.7976 6.34909 25.4416 5.2494 24.6065C4.00968 23.6655 4.27194 21.7561 4.53895 20.4337C4.68808 19.6951 4.87993 18.9673 5.03737 18.2307C5.2047 17.4467 5.30438 16.6208 5.02313 15.8502C4.76561 15.1437 4.20745 14.5333 3.68411 14.0108C3.12161 13.4491 2.50533 12.9447 1.93017 12.3969C1.48634 11.974 1.08879 11.5116 0.728031 11.0159C0.368061 10.5207 0.0330162 9.94472 0.0017662 9.31853C-0.0350227 8.58989 0.499783 8.05271 1.13823 7.79677Z" stroke="#DCA108" stroke-width="0.4" mask="url(#path-1-outside-1)"/>
</svg>
