<svg width="48" height="46" viewBox="0 0 48 46" fill="none" xmlns="http://www.w3.org/2000/svg">
<path d="M8.5 18.5L12 23L10.5 24.5L8.5 26L9.5 29L14.5 36H18.5L19.5 33.5L24 37.5L25 42L22.5 44.5H17L13 42L4 31.5L0.5 24.5L1.5 18.5L5.5 16.5L8.5 18.5Z" fill="#F5FFF8"/>
<path d="M24 1L45.5 2L46.5 5V17.5L42.5 20.5H33L31 21.5L29 24L24 25.5L25 21.5L17.5 20.5L15 17.5L16 3.5L24 1Z" fill="#F5FFF8"/>
<path d="M38.4103 12.1391C37.7529 11.7877 37.1624 12.4738 36.8242 12.8818C35.5036 14.4762 33.0889 15.0766 31.0051 15.0403C29.6602 15.0163 28.2742 14.7252 27.0426 14.1879C26.4014 13.9084 25.9477 13.5549 25.4676 13.059C25.2308 12.8136 24.9602 12.6045 24.708 12.3751C24.4514 12.1428 24.2484 11.8596 23.9948 11.6273C23.9264 11.5649 23.797 11.5482 23.7316 11.6273C23.3595 12.0731 23.6073 12.6698 23.8441 13.1229C24.1242 13.6616 24.4955 14.1712 24.9176 14.6105C25.7705 15.4969 27.0544 16.0741 28.2176 16.44C30.7036 17.2219 33.3603 17.1522 35.7485 16.101C36.8242 15.6276 37.8735 14.9299 38.55 13.96C38.8941 13.4663 39.0639 12.4883 38.4103 12.1391ZM34.7279 8.61942C34.8808 8.79584 34.8588 9.04123 34.6977 9.21329C34.5602 9.35995 34.261 9.45724 34.1146 9.30551C33.9918 9.17846 33.9808 8.90476 33.9382 8.74649C33.9213 8.68332 33.9058 8.6187 33.8904 8.55408C34.2029 8.45244 34.5191 8.37839 34.7279 8.61942ZM32.8904 8.57803C32.8396 8.72033 32.8132 8.87644 32.8102 9.04269C32.8014 9.4645 32.9418 9.93278 33.2301 10.25C33.8786 10.9637 35.1066 10.7757 35.711 10.0932C36.3051 9.42166 36.3448 8.42196 35.7573 7.73225C35.0588 6.91258 33.3279 6.83706 32.7301 7.82444C32.5602 8.10541 32.6639 8.40887 32.8904 8.57803ZM27.9426 8.58893C27.9477 8.58748 27.9529 8.58676 27.9573 8.58603C27.9683 8.58676 28.0683 8.59328 28.0764 8.59111C28.1029 8.59837 28.1507 8.61652 28.1794 8.62959C28.1897 8.63467 28.1984 8.63903 28.2058 8.64193C28.2095 8.64484 28.2132 8.64848 28.2198 8.65283C28.2227 8.65574 28.2257 8.65864 28.2286 8.66154C28.2308 8.66807 28.2338 8.67532 28.2316 8.68186C28.2183 8.72251 28.1735 8.87208 28.1573 8.90258C28.1051 9.00277 28.0742 9.04123 28.0161 9.09496C27.9462 9.15957 28.0014 9.11093 27.9565 9.13925C27.8771 9.18934 28.0139 9.07609 27.9242 9.14869C27.8984 9.12473 27.869 9.09423 27.8455 9.07028C27.8315 9.03906 27.8191 9.00566 27.8389 9.06374L27.8381 9.0623C27.8301 9.03907 27.8198 9.01003 27.8176 9.00277C27.7948 8.92581 27.7764 8.84812 27.758 8.76971C27.7492 8.73341 27.7404 8.69785 27.7323 8.66227C27.8029 8.63831 27.8705 8.60854 27.9426 8.58893ZM27.958 8.5853C27.9999 8.57659 28.0154 8.58312 27.958 8.5853V8.5853ZM27.9301 9.15449C27.9359 9.15449 27.9382 9.1574 27.9374 9.16103C27.9345 9.15812 27.933 9.15667 27.9301 9.15449ZM27.9043 9.16539C27.9146 9.16612 27.922 9.16612 27.9286 9.16612C27.9235 9.16757 27.9154 9.16757 27.9043 9.16539ZM27.8874 9.16176C27.894 9.16394 27.8992 9.16467 27.9043 9.16539C27.8992 9.16467 27.894 9.16394 27.8874 9.16176ZM27.8521 9.08481C27.861 9.09497 27.8668 9.10296 27.8661 9.10296C27.8639 9.10513 27.8588 9.09715 27.8521 9.08481ZM27.8411 9.07174C27.8536 9.10731 27.8492 9.09497 27.8411 9.07174V9.07174ZM29.197 7.77144C28.658 7.21024 27.3992 7.00261 26.9492 7.78598C26.9139 7.84696 26.8911 7.90867 26.8779 7.96965C26.7617 8.09452 26.6727 8.25353 26.6293 8.42124C26.4889 8.9672 26.6308 9.57849 27.008 9.99813C28.2955 11.4284 30.4014 9.02454 29.197 7.77144ZM45.8713 15.735C45.6588 16.8901 45.222 18.0133 44.3154 18.809C43.5426 19.4878 42.4823 19.7753 41.4845 19.9372C40.2602 20.1354 38.9779 20.1274 37.7419 20.1042C36.1691 20.0751 34.597 19.9989 33.0234 20.0171C32.3227 20.0251 31.622 20.0461 30.922 20.0708C30.3507 20.0904 30.1147 20.5892 30.2132 21.0052C30.2948 22.1145 29.4404 22.9335 28.5462 23.491C27.5543 24.1096 26.3867 24.5074 25.2227 24.633C25.1426 24.6418 25.0631 24.649 24.983 24.6563C25.1764 24.4319 25.347 24.1938 25.4727 23.968C25.6382 23.6675 25.672 23.3451 25.7448 23.0148C25.8271 22.6452 25.9558 22.2459 25.9389 21.8633C25.9169 21.3464 25.6521 20.8941 25.3257 20.5057C25.172 20.3227 24.9617 20.3372 24.8007 20.4447C24.5337 20.3895 24.2624 20.33 23.9955 20.3234C23.5749 20.3133 23.1514 20.343 22.7316 20.3583C21.9764 20.3866 21.2117 20.3888 20.458 20.3256C19.3021 20.2291 18.0823 19.9888 17.2352 19.148C16.3609 18.2805 16.1558 17.0179 16.1183 15.8432C16.0742 14.4195 16.1661 12.9791 16.1963 11.5554C16.2272 10.078 16.2293 8.59764 16.2926 7.12094C16.3433 5.93754 16.4139 4.77012 17.1624 3.78928C17.7992 2.95365 18.9036 2.58772 19.8837 2.32273C21.3154 1.93576 22.8183 1.85227 24.297 1.853C27.4455 1.85518 30.5669 2.23344 33.7036 2.43745C35.261 2.53837 36.8198 2.5536 38.3794 2.52311C39.8389 2.49407 41.3176 2.42874 42.7705 2.61605C43.8683 2.75762 44.9293 3.18669 45.4235 4.22707C45.9404 5.31681 45.8838 6.7151 45.9198 7.88834C45.9639 9.32003 45.9397 10.7517 45.9948 12.1834C46.0397 13.361 46.0845 14.5705 45.8713 15.735ZM24.1448 25.4534C24.108 25.4868 24.1264 25.4658 24.1985 25.3903C24.2022 25.3881 24.2051 25.3852 24.2088 25.383C24.1918 25.4077 24.1705 25.4309 24.1448 25.4534ZM47.8301 9.82243C47.8227 8.26223 47.8183 6.68534 47.597 5.13748C47.3904 3.69272 46.7397 2.35396 45.4492 1.56479C44.2 0.801027 42.6294 0.676869 41.197 0.655815C39.5191 0.631857 37.8433 0.791575 36.1654 0.783589C32.7389 0.766891 29.3264 0.300081 25.9036 0.172303C24.2132 0.10914 22.5286 0.132363 20.8528 0.380659C19.522 0.578133 18.0933 0.941859 16.9624 1.6911C15.7845 2.47156 15.0021 3.69926 14.7529 5.07505C14.4874 6.54086 14.5367 8.05459 14.5102 9.5371C14.4808 11.1547 14.4786 12.7773 14.4087 14.3927C14.3462 15.8577 14.369 17.3911 14.9529 18.7633C16.2154 21.7312 19.6823 22.1675 22.5632 21.8771C22.9948 21.8336 23.4198 21.7762 23.8463 21.7021C24.0661 21.6637 24.2705 21.6034 24.4712 21.533C24.4632 21.5824 24.4558 21.6317 24.447 21.6796C24.3815 22.031 24.2455 22.3948 24.1544 22.749C24.0514 23.1462 23.9301 23.3458 23.6382 23.6406C23.4161 23.8656 23.1683 24.0689 22.9632 24.31C22.4889 24.8668 22.3521 25.7264 23.108 26.1352C23.7918 26.5054 24.7198 26.3029 25.4514 26.2078C26.9352 26.0154 28.4808 25.5028 29.7007 24.6287C30.7308 23.8903 31.6794 22.8543 31.8198 21.586C33.1646 21.6056 34.5095 21.578 35.8551 21.6179C37.3896 21.6637 38.9338 21.7573 40.4691 21.7036C43.1544 21.6107 45.861 20.7888 47.0514 18.1897C48.2536 15.5659 47.8426 12.6139 47.8301 9.82243ZM23.8117 41.8889C23.4624 42.6904 22.7433 43.2516 21.933 43.6451C19.9904 44.5875 17.7742 44.3515 15.9036 43.2247C13.5779 41.8243 11.7631 39.6048 10.0624 37.5451C9.06241 36.3349 8.1198 35.0803 7.17347 33.8287C6.68303 33.1804 6.18669 32.5451 5.62713 31.9527C5.3911 31.7029 5.14405 31.4423 4.87787 31.2027C4.69258 30.8826 4.50725 30.5609 4.32196 30.24C3.81681 29.3637 3.28891 28.5128 2.85361 27.5988C2.03229 25.8767 1.45214 24.1394 1.77935 22.2132C2.02567 20.7605 2.42858 19.0537 3.68594 18.1149C5.14403 17.0266 6.87492 17.9334 8.03815 19.0188C8.73374 19.6671 9.32861 20.4127 9.89111 21.1736C10.333 21.7711 11.169 22.5109 11.2587 23.2885C11.2874 23.5361 11.1896 23.5999 10.9455 23.8032C10.6734 24.0297 10.3595 24.2076 10.0654 24.4058C9.31096 24.9147 8.61978 25.5159 8.31169 26.3922C7.7161 28.0889 8.80064 29.6462 9.85211 30.8898C10.322 31.4452 10.7874 31.9541 11.1918 32.5415C11.6315 33.1782 12.0249 33.8461 12.4757 34.4748C13.547 35.9683 15.0044 37.1887 16.9448 37.2344C17.808 37.2547 18.6749 37.021 19.3529 36.483C19.7661 36.1541 20.0404 35.7207 20.1963 35.2415C21.6286 36.2274 23.036 37.4239 23.7073 39.0088C24.086 39.9018 24.1933 41.0126 23.8117 41.8889ZM20.1573 33.1397C19.8337 32.935 19.3625 33.0119 19.097 33.2755C19.0676 33.3045 19.0381 33.3335 19.0087 33.3626C18.8161 33.5528 18.7433 33.7684 18.7536 33.9754C18.7396 34.0291 18.7301 34.0864 18.7264 34.1474C18.6889 34.7645 18.3933 35.1558 17.8727 35.3715C17.7198 35.4353 17.4249 35.4942 17.2154 35.5043C16.8632 35.5218 16.5764 35.4993 16.2426 35.4056C14.8066 35.0041 13.9801 33.6305 13.2301 32.4681C12.7904 31.7864 12.3323 31.1214 11.8065 30.5007C11.3176 29.9228 10.7918 29.3724 10.3837 28.7336C10.0411 28.1978 9.73376 27.5705 9.98302 26.9563C10.2404 26.321 11.0014 25.9892 11.5477 25.648C12.358 25.1405 13.1624 24.4639 13.1632 23.4315C13.1632 22.4347 12.5852 21.5649 11.9793 20.8164C10.7411 19.286 9.66243 17.6909 7.87125 16.7319C6.11463 15.791 4.12492 15.7111 2.53668 17.015C1.21683 18.0989 0.635961 19.8363 0.339638 21.4502C-0.0765392 23.7154 0.272702 25.8941 1.36314 27.9328C1.96241 29.053 2.64773 30.105 3.45508 31.0561C3.7617 31.6833 4.21903 32.2474 4.60506 32.8275C5.03153 33.4679 5.46243 34.1053 5.88522 34.7478C6.74625 36.0576 7.69402 37.315 8.66093 38.5507C10.4756 40.8688 12.5433 43.2959 15.1249 44.8111C17.4676 46.1854 20.2044 46.3647 22.686 45.2438C23.7242 44.7755 24.6815 44.0103 25.2433 43.0171C25.8742 41.9027 25.9624 40.5632 25.6793 39.3333C25.0374 36.5403 22.4661 34.6034 20.1573 33.1397Z" fill="#221E1F"/>
</svg>
