<svg width="52" height="49" viewBox="0 0 52 49" fill="none" xmlns="http://www.w3.org/2000/svg">
<path d="M35.5643 15.9535H48.0992L50.3782 19.3721L39.5527 32.4768L42.4015 45.5814L40.6922 47.8605L24.7387 41.593L15.6224 47.2907L11.6341 47.8605L9.35498 43.3023L11.6341 34.1861L10.4945 29.6279L0.808472 19.3721L2.51777 15.9535H10.4945L17.9015 12.5349L24.7387 1.13954H28.1573L35.5643 15.9535Z" fill="#FFFBF5"/>
<path d="M12.3514 21.1059C12.4654 21.3958 12.66 21.6827 12.843 21.9424C14.7076 24.5909 18.423 26.1788 18.1818 29.9142C18.0756 31.5556 17.4685 33.1179 17.2685 34.7461C17.1832 35.44 17.1708 36.2424 17.5228 36.8704C17.8128 37.3891 18.2671 37.4395 18.771 37.3255C20.2697 36.9859 21.3265 35.7904 22.5182 34.9034C23.2214 34.3793 24.0324 33.887 24.91 33.7404C25.8908 33.5761 26.8382 33.7947 27.7407 34.1801C29.5201 34.9399 31.1164 36.0858 32.8493 36.9394C33.2424 37.1325 33.6572 37.2852 34.0867 37.3728C34.2356 37.4038 34.3751 37.4147 34.5271 37.4093C34.4976 37.4108 34.6162 37.3829 34.5891 37.41C34.5984 37.403 34.6085 37.3961 34.6185 37.3891C34.6302 37.3713 34.6418 37.3503 34.6519 37.331C34.6527 37.3154 34.6915 37.1875 34.7077 37.1263C34.6953 37.1643 34.7263 36.8929 34.7271 36.8324C34.7279 36.6859 34.7194 36.5394 34.7062 36.3928C34.6922 36.2432 34.6271 35.892 34.569 35.6315C34.4651 35.1632 34.3262 34.7042 34.1805 34.2475C33.8936 33.3489 33.5734 32.4557 33.4005 31.5254C33.2331 30.6229 33.1633 29.6848 33.4075 28.7885C33.6363 27.9496 34.0983 27.2177 34.6418 26.5494C35.7777 25.1538 37.3066 24.1513 38.4827 22.793C38.7386 22.4976 38.9836 22.1874 39.1898 21.8556C39.3519 21.5959 39.5364 21.1888 39.5302 20.9694C39.5248 20.8105 39.5007 20.8089 39.4356 20.7167C39.4465 20.7322 39.3565 20.6267 39.3364 20.6104C39.1883 20.4895 38.965 20.4042 38.7642 20.3453C38.237 20.191 37.833 20.1677 37.2554 20.1577C36.484 20.1445 35.7172 20.2282 34.9481 20.2747C33.2284 20.3794 31.3708 20.2096 30.1326 18.8691C29.1084 17.7604 28.5998 16.2601 28.0516 14.8816C27.6911 13.9776 27.3817 13.0348 26.8747 12.199C26.6762 11.8718 26.1652 10.8546 25.6559 11.0919C25.452 11.1864 25.3395 11.457 25.2155 11.6268C25.186 11.6671 25.1558 11.7067 25.1248 11.7462C24.8433 12.4378 24.6014 13.1464 24.3068 13.8334C23.9416 14.6839 23.5734 15.5321 23.0849 16.3214C22.153 17.8278 20.9086 19.0141 19.2231 19.6103C17.4452 20.2398 15.5977 20.0134 13.7563 20.1181C13.4322 20.1367 13.0942 20.1375 12.7802 20.2328C12.6266 20.2794 12.5298 20.3344 12.3995 20.4282C12.2692 20.5228 12.3003 20.512 12.2723 20.5949C12.2282 20.7236 12.2654 20.8849 12.3514 21.1059ZM11.6412 18.9078C12.4491 18.4147 13.4919 18.3736 14.413 18.331C16.2257 18.2465 18.0678 18.4155 19.6751 17.4053C21.2218 16.4338 21.9809 14.5847 22.7229 12.9999C23.1423 12.1044 23.6207 11.2361 24.1502 10.4003C24.3456 10.0917 24.6348 10.008 24.893 10.0692C25.4388 9.65597 26.0901 9.67303 26.7165 9.98936C27.526 10.398 28.0912 11.3175 28.5184 12.0835C28.9859 12.9224 29.3952 13.807 29.772 14.6901C30.3171 15.9702 30.8575 17.7394 32.2662 18.314C33.8409 18.9559 35.6986 18.4054 37.3399 18.4457C38.5758 18.476 40.159 18.6659 40.8739 19.8266C41.9198 21.5253 40.2187 23.4357 39.0976 24.5933C37.847 25.8857 36.1847 26.9331 35.3342 28.5636C34.4612 30.2352 35.3722 32.2208 35.9017 33.8568C36.3181 35.1422 36.9259 36.9813 36.1661 38.2606C35.1109 40.0368 32.6392 38.8622 31.3126 38.1256C30.3628 37.5992 29.4123 37.0712 28.4649 36.5409C27.6725 36.0974 26.8429 35.5764 25.9226 35.4601C24.144 35.236 22.7097 37.1301 21.4405 38.09C20.2411 38.9971 18.2865 39.7143 16.8932 38.8219C15.2565 37.7744 15.431 35.4872 15.7334 33.8358C15.8876 32.9915 16.0986 32.1588 16.2939 31.323C16.5009 30.4384 16.6924 29.4987 16.4327 28.6047C16.1947 27.7845 15.5605 27.0843 14.972 26.4905C14.3029 25.8152 13.5578 25.2205 12.8701 24.5646C11.8723 23.6132 10.6527 22.2797 10.5504 20.8376C10.4922 20.008 10.952 19.3281 11.6412 18.9078ZM2.36219 19.1404C2.58781 19.6707 2.91422 20.1654 3.24839 20.6321C4.76801 22.7581 6.86839 24.3397 8.69814 26.1788C9.73939 27.2254 10.7473 28.3737 11.4311 29.6917C12.1715 31.1183 12.3499 32.7263 12.1739 34.3088C11.8575 37.1573 10.7582 39.8864 10.5884 42.7566C10.5178 43.9506 10.6178 45.3384 11.3582 46.3339C12.0041 47.2023 13.0531 47.2473 14.0005 47.0271C16.6451 46.4115 18.4625 44.3274 20.562 42.7659C21.7707 41.8666 23.1431 41.0664 24.6604 40.8757C26.2784 40.6718 27.8531 41.175 29.3038 41.851C30.79 42.5434 32.2151 43.4025 33.6417 44.2088C35.1117 45.0407 36.5856 46.0021 38.1587 46.627C38.8208 46.8906 39.5697 47.1573 40.2892 47.1783C40.5746 47.186 40.6738 47.1837 40.9126 47.1023C40.8537 47.1201 41.0405 47.0395 41.0754 47.0186C41.0894 47.01 41.0979 47.0046 41.1041 47.0015C41.1406 46.9682 41.1762 46.9333 41.2111 46.8984C41.2235 46.886 41.2305 46.8798 41.2351 46.8751C41.2553 46.8464 41.2747 46.817 41.2909 46.7875C41.315 46.7472 41.3747 46.6224 41.3902 46.5937C41.3995 46.5596 41.4445 46.413 41.4553 46.3727C41.4631 46.3425 41.5088 46.1083 41.5088 46.1316C41.5739 45.6571 41.5406 45.164 41.4894 44.6911C41.4483 44.3049 41.3111 43.6296 41.194 43.1396C41.0142 42.3845 40.7855 41.6425 40.5474 40.9052C40.0489 39.3607 39.4999 37.8233 39.2201 36.2192C38.9541 34.698 38.8797 33.1248 39.3845 31.6424C39.8458 30.2864 40.6575 29.1025 41.6011 28.0364C43.6852 25.6826 46.3258 23.9164 48.2797 21.4307C48.979 20.5407 49.9714 19.2319 49.5574 18.1108C49.5481 18.0852 49.5318 18.0457 49.4767 17.9496C49.4217 17.8511 49.3977 17.8177 49.3853 17.803C49.255 17.6402 49.086 17.5006 49.0038 17.4456C48.5952 17.175 48.3099 17.0672 47.8323 16.937C45.6986 16.3532 43.2781 16.7199 41.0211 16.8424C38.1687 16.9967 35.1559 16.6268 33.2408 14.2753C31.5444 12.192 30.6869 9.47763 29.693 7.01522C29.0968 5.53823 28.461 4.0915 27.5802 2.75873C27.1297 2.07722 26.1001 0.794064 25.1853 1.48487C24.8139 1.76554 24.5898 2.18731 24.3254 2.55713C24.1649 2.78198 24.0169 3.01381 23.8703 3.24796C23.4369 4.26518 23.0369 5.29944 22.5957 6.31124C21.9677 7.74945 21.3319 9.18691 20.4923 10.5174C19.7092 11.7571 18.7586 12.9883 17.6096 13.9117C16.518 14.7886 15.2751 15.4266 13.9369 15.8383C10.9132 16.7695 7.76618 16.3524 4.66335 16.5927C4.05007 16.64 3.38251 16.7083 2.84677 17.0354C2.65759 17.151 2.41726 17.3626 2.31492 17.5084C2.21025 17.6565 2.14513 17.8317 2.12497 17.9945C2.0862 18.3163 2.19395 18.7435 2.36219 19.1404ZM2.63978 15.2817C3.32749 15.0057 4.07103 14.9227 4.80371 14.8529C5.63407 14.7746 6.46289 14.7289 7.29713 14.7157C8.91212 14.6909 10.5286 14.7428 12.1219 14.4304C13.4508 14.1707 14.7231 13.7163 15.8551 12.9642C18.4563 11.2368 19.7875 8.13557 21.0428 5.40413C21.7483 3.869 22.5026 2.34394 23.3725 0.894866C23.5943 0.52659 23.9618 0.476972 24.2549 0.611102C24.258 0.608 24.2603 0.604886 24.2634 0.60256C25.2473 -0.290607 26.5111 -0.117709 27.529 0.642878C28.7106 1.52597 29.5247 3.00141 30.1814 4.29076C30.9219 5.74371 31.5778 7.24782 32.2066 8.75116C33.1331 10.9647 34.1363 13.6915 36.5444 14.656C39.2805 15.7523 42.4097 14.8607 45.2544 14.9142C47.1927 14.9506 49.8233 15.1863 50.9142 17.0587C51.636 18.2969 51.2957 19.7266 50.6413 20.9144C49.8381 22.3727 48.6433 23.6621 47.4641 24.8227C45.3335 26.9215 42.6206 28.7071 41.2956 31.4804C39.9171 34.3669 41.3553 37.7116 42.2686 40.5144C42.7129 41.879 43.0998 43.2621 43.2641 44.6911C43.3804 45.7028 43.3595 46.872 42.7834 47.7536C42.029 48.9096 40.6777 49.0832 39.4139 48.8483C37.7144 48.532 36.2126 47.6721 34.7178 46.8488C33.1276 45.9734 31.5483 45.0756 29.9643 44.1886C28.63 43.4412 27.1577 42.6512 25.5939 42.5954C24.0665 42.5411 22.6918 43.3536 21.5164 44.2538C20.3077 45.1795 19.2153 46.2463 17.9973 47.1628C16.083 48.6033 12.8531 49.8655 10.6977 48.2288C8.26782 46.3843 8.78184 42.6419 9.30518 40.05C9.59748 38.6025 9.97351 37.1759 10.2821 35.7322C10.6101 34.1956 10.8054 32.5767 10.2542 31.0664C9.74944 29.6817 8.65546 28.4853 7.62971 27.4611C6.52721 26.3602 5.31929 25.3717 4.19198 24.2979C3.32207 23.469 2.54288 22.5627 1.83579 21.5912C1.13025 20.6205 0.473556 19.4916 0.412306 18.2643C0.340201 16.8362 1.38842 15.7833 2.63978 15.2817Z" fill="#221E1F"/>
</svg>
