<svg width="23" height="28" viewBox="0 0 23 28" fill="none" xmlns="http://www.w3.org/2000/svg">
<path d="M15.776 0.156282L15.7847 0.164892C15.8454 0.107635 15.8844 0.071903 15.776 0.156282ZM16.1707 0.244535C16.175 0.249701 16.1793 0.254437 16.1837 0.259173C16.1967 0.278976 16.2054 0.288447 16.1707 0.244535ZM15.6763 0.276393C15.6806 0.270796 15.685 0.264769 15.6893 0.258742C15.6936 0.254437 15.6893 0.258742 15.6763 0.276393ZM16.0449 0.127869C16.0622 0.135187 16.0796 0.144658 16.0926 0.156282C15.9885 0.0762081 16.0059 0.0904147 16.0449 0.127869ZM2.65815 0.244535C2.66162 0.249701 2.66464 0.254437 2.66768 0.259173C2.68285 0.278976 2.68894 0.288447 2.65815 0.244535ZM2.16033 0.276393C2.16423 0.270796 2.16943 0.264769 2.17507 0.258742C2.17724 0.254437 2.17377 0.258742 2.16033 0.276393ZM2.26051 0.156282L2.26874 0.164892C2.32988 0.107635 2.37022 0.071903 2.26051 0.156282ZM2.53195 0.127869C2.548 0.135187 2.56361 0.144658 2.57922 0.156282C2.47472 0.0762081 2.48989 0.0904147 2.53195 0.127869ZM21.7342 26.3951C21.7255 26.4446 21.7125 26.4933 21.7039 26.5406C21.487 26.5359 21.2745 26.5415 21.0577 26.5449C20.6371 26.5514 20.2165 26.5647 19.7958 26.5798C18.9373 26.6104 18.0743 26.6487 17.2157 26.65C16.3961 26.6513 15.5809 26.5974 14.7613 26.6078C13.9279 26.6185 13.0953 26.647 12.2623 26.7021C11.0854 26.78 9.83872 26.9543 8.74249 26.5415C8.30972 26.3783 7.93983 26.0602 7.69439 25.6206C7.37047 25.0412 7.32231 24.3915 7.28199 23.7445C7.31321 23.7475 7.34487 23.7501 7.37653 23.7535C7.52873 23.7695 7.68051 23.788 7.83271 23.8026C8.2542 23.8439 8.67614 23.856 9.09937 23.8659C10.2671 23.893 11.4388 23.8762 12.607 23.8693C14.8351 23.8556 17.0639 23.8375 19.2928 23.8538C19.5617 23.8556 19.8262 23.8629 20.0907 23.8672C20.0994 23.8672 20.1081 23.8685 20.1167 23.8698C20.1601 23.881 20.2035 23.8934 20.2035 23.8934C20.3552 23.9253 20.507 23.9507 20.6544 23.9864C20.8756 24.0398 21.0881 24.0885 21.2355 24.2727C21.2399 24.277 21.2398 24.2813 21.2442 24.2852C20.8712 24.2628 20.4983 24.2706 20.1254 24.2383C19.1237 24.1513 18.1177 24.0949 17.116 24.057C16.1143 24.0192 15.1126 24.0717 14.1144 24.1208C13.5389 24.1487 12.9657 24.2 12.3902 24.2267C12.127 24.2391 11.8582 24.2327 11.5962 24.2555C11.4722 24.2663 11.3404 24.2809 11.2224 24.3196C11.0737 24.3687 11.0099 24.4751 10.8799 24.5383C10.7845 24.5848 10.7845 24.7428 10.8799 24.7893C10.967 24.8319 11.013 24.9086 11.1002 24.9555C11.1774 24.9973 11.2641 25.0205 11.3478 25.0446C11.5802 25.1113 11.8235 25.1264 12.0637 25.1458C12.4978 25.1802 12.931 25.1871 13.3659 25.1906C14.3039 25.1974 15.2427 25.1548 16.1837 25.1479C17.0856 25.141 17.9833 25.2095 18.8852 25.2569C19.3319 25.2801 19.7742 25.3081 20.2165 25.3464C20.6111 25.3804 21.0144 25.3516 21.409 25.3968C21.5044 25.4071 21.5998 25.4226 21.6865 25.4583C21.7602 25.4898 21.7125 25.4592 21.7385 25.4915C21.7906 25.5543 21.7949 25.6783 21.7949 25.8088C21.7906 26.0046 21.7732 26.2031 21.7342 26.3951ZM7.24861 23.0867C7.22086 22.3036 7.23604 21.5184 7.19658 20.7353C7.17316 20.2677 7.12372 19.8006 7.07168 19.3357C7.04609 19.1084 7.01011 18.8806 6.95504 18.6585C6.9906 18.6267 7.02181 18.5875 7.04696 18.5418C7.30324 18.0769 6.94768 17.6937 6.64977 17.3618C6.4039 17.088 6.17318 16.7944 5.91994 16.5202C5.31979 15.8701 4.7049 15.2472 4.13988 14.564C3.63556 13.9544 3.16636 13.306 2.793 12.6082C2.76524 12.557 2.74184 12.5062 2.72146 12.4558C3.09395 12.4846 3.47078 12.442 3.82809 12.3292C4.2253 13.0215 4.68323 13.6806 5.13204 14.3418C5.62769 15.0724 6.1385 15.8396 6.76207 16.4698C7.08859 16.7996 7.45676 17.0631 7.9047 17.1995C8.33617 17.3308 8.79843 17.3821 9.24724 17.4088C9.74765 17.4393 10.258 17.4699 10.7593 17.4703C11.0178 17.4703 11.2753 17.4307 11.5325 17.4105C11.8356 17.3864 12.1097 17.3321 12.3408 17.1207C12.5038 16.9714 12.4748 16.7243 12.3408 16.571C12.3269 16.5555 12.3126 16.5409 12.2983 16.5267C12.4019 16.4483 12.5021 16.3652 12.5971 16.2705C12.8447 16.023 13.088 15.7659 13.3169 15.5016C13.7696 14.9794 14.1937 14.4211 14.5619 13.8364C14.8828 13.3237 15.2036 12.8191 15.6416 12.3968C15.8541 12.4437 16.0709 12.4661 16.2877 12.4648C16.2183 12.7064 16.0883 12.9238 15.9538 13.1338C15.5722 13.7124 15.1429 14.2583 14.7527 14.8313C14.3563 15.4151 13.9084 15.9661 13.4665 16.5168C13.0454 17.042 12.6218 17.5603 12.3664 18.1888C12.0667 18.9246 12.1595 19.7283 12.1708 20.5032C12.1817 21.2786 12.1023 22.0513 12.0949 22.8267C11.2567 22.8422 10.4189 22.8602 9.5807 22.8822C9.05513 22.8964 8.53261 22.9274 8.00964 22.9808C7.7989 23.0023 7.589 23.0346 7.37912 23.0652C7.3583 23.0682 7.29458 23.0794 7.24861 23.0867ZM2.41055 11.0915C2.38063 11.1118 2.352 11.1333 2.32382 11.1557C1.99729 11.0433 1.68724 10.8457 1.48039 10.59C1.10877 10.1306 1.24665 9.47929 1.39625 8.95709C1.46997 8.70137 1.57925 8.46072 1.77351 8.27172C1.9023 8.14559 2.04411 8.03581 2.20585 7.95573C2.29345 7.94067 2.37845 7.93421 2.47211 7.92861C2.73923 7.91225 2.97425 7.92947 3.16245 7.96951C3.36843 8.01299 3.66505 8.11459 3.76349 8.16238C4.0124 8.28335 4.12644 8.3561 4.29209 8.52271C4.32765 8.55844 4.36189 8.59546 4.39441 8.63421C4.40265 8.6454 4.42347 8.67295 4.42781 8.67941C4.46163 8.72978 4.4933 8.78144 4.52235 8.83525C4.52322 8.83698 4.59042 8.99067 4.56917 8.93212C4.66631 9.18956 4.68495 9.33852 4.66977 9.6149C4.64636 10.026 4.42999 10.4604 4.10346 10.7764C4.04882 10.8294 3.99157 10.878 3.93216 10.9223C3.57571 10.6877 3.17199 10.6795 2.77955 10.8573C2.65423 10.9142 2.54366 10.983 2.45086 11.0657C2.43655 11.0743 2.42312 11.0829 2.41055 11.0915ZM14.718 8.95709C14.7917 8.70137 14.9001 8.46072 15.0952 8.27172C15.2253 8.14559 15.3641 8.03581 15.5289 7.95573C15.6156 7.94067 15.7023 7.93421 15.7934 7.92861C16.0623 7.91225 16.2964 7.92947 16.4829 7.96951C16.691 8.01299 16.9859 8.11459 17.0856 8.16238C17.3328 8.28335 17.4499 8.3561 17.6146 8.52271C17.6493 8.55844 17.684 8.59546 17.7144 8.63421C17.7231 8.6454 17.7447 8.67295 17.7491 8.67941C17.7838 8.72978 17.8141 8.78144 17.8445 8.83525C17.8445 8.83698 17.9139 8.99067 17.8922 8.93212C17.9876 9.18956 18.0049 9.33852 17.9919 9.6149C17.9702 10.026 17.7534 10.4604 17.4238 10.7764C17.2894 10.9068 17.142 11.011 16.9816 11.0894C16.5566 10.7476 15.9668 10.8431 15.5072 11.1019C15.2297 10.9852 14.9782 10.8087 14.8004 10.59C14.4305 10.1306 14.5662 9.47929 14.718 8.95709ZM20.0907 23.8637C20.0604 23.8594 20.03 23.8547 20.03 23.8543C20.0343 23.8517 20.0604 23.8564 20.0907 23.8637ZM22.6925 24.9374C22.6448 24.8565 22.5884 24.7854 22.5234 24.723C22.5754 24.2262 22.2936 23.7001 21.9293 23.3743C21.4914 22.9816 20.8929 22.8895 20.3292 22.7862C20.1384 22.7509 19.9433 22.7548 19.7482 22.753C18.8809 22.7453 18.0179 22.7552 17.155 22.7625C15.8411 22.7733 14.528 22.7875 13.215 22.8077C13.2237 22.0711 13.2987 21.3362 13.2926 20.5997C13.287 19.9332 13.156 19.1773 13.4236 18.5449C13.6924 17.9094 14.2059 17.3782 14.6269 16.8435C15.1039 16.2421 15.5506 15.6247 15.9972 15.0014C16.4048 14.4327 16.8818 13.8795 17.181 13.2445C17.3328 12.9272 17.4412 12.5677 17.4542 12.2147C17.4976 12.1945 17.5453 12.1725 17.5886 12.1497C18.9719 11.4467 19.6224 9.66785 18.9286 8.27603C18.4906 7.39866 17.5496 6.90014 16.5783 6.79337C16.5739 4.98095 16.5696 3.15173 16.3918 1.34921C16.3658 1.0965 16.3484 0.842076 16.3007 0.592814C16.2747 0.465384 16.253 0.368521 16.1837 0.259173C16.175 0.250562 16.1663 0.2398 16.1576 0.230759C16.1403 0.210095 16.0839 0.160156 16.0449 0.127869C15.9538 0.0839572 15.8541 0.109357 15.7847 0.165323V0.164892C15.7804 0.166614 15.7804 0.168767 15.776 0.170489C15.7717 0.176085 15.763 0.182112 15.7587 0.188139C15.7327 0.212248 15.7067 0.237647 15.6893 0.258742C15.6806 0.271227 15.6199 0.363785 15.6069 0.403392C15.5982 0.436971 15.5939 0.476577 15.5896 0.511448C15.5462 0.728853 15.5245 0.944105 15.5072 1.16452C15.4638 1.71858 15.4421 2.27221 15.4205 2.82756C15.3771 3.97098 15.4118 5.11785 15.4205 6.26127C15.4248 6.45887 15.4248 6.65647 15.4291 6.85407C15.3901 6.86311 15.3511 6.87258 15.312 6.88249C14.4426 7.11625 13.8234 7.77966 13.5528 8.62172C13.427 9.01391 13.3897 9.42375 13.4305 9.83058C13.4227 10.0476 13.4383 10.2619 13.4804 10.4664C13.6096 11.0958 14.0272 11.581 14.5489 11.9228C14.4101 12.0838 14.2822 12.253 14.1612 12.4252C13.7037 13.0783 13.3273 13.7813 12.8633 14.4318C12.6231 14.7685 12.3807 15.1038 12.1344 15.4362C12.0021 15.6144 11.8633 15.7866 11.7445 15.9735C11.6773 16.0789 11.6205 16.1883 11.5637 16.2981C11.3408 16.3041 11.1114 16.3424 10.9042 16.3527C10.4228 16.3773 9.92415 16.3278 9.44238 16.3049C9.00311 16.2843 8.53086 16.2572 8.11631 16.0961C7.75899 15.9571 7.48495 15.6179 7.24385 15.3333C6.63242 14.6126 6.08214 13.8054 5.56004 13.0193C5.29639 12.6224 4.97463 12.2659 4.71792 11.8639C5.78292 11.0394 6.22176 9.50684 5.60774 8.27603C5.14114 7.34097 4.10086 6.83599 3.06317 6.77744C3.061 4.97019 3.05666 3.14657 2.87714 1.34921C2.85198 1.0965 2.8355 0.842076 2.78477 0.592814C2.75875 0.465384 2.74009 0.368521 2.66768 0.259173C2.66117 0.250562 2.65251 0.2398 2.6447 0.230759C2.62649 0.210095 2.56881 0.160156 2.53195 0.127869C2.43915 0.0839572 2.33898 0.109357 2.26916 0.165323L2.26874 0.164892C2.267 0.166614 2.26485 0.168767 2.26268 0.170489C2.25617 0.176085 2.25011 0.182112 2.24447 0.188139C2.21932 0.212248 2.19372 0.237647 2.17507 0.258742C2.16813 0.271227 2.10655 0.363785 2.09398 0.403392C2.08357 0.436971 2.08055 0.476577 2.07405 0.511448C2.03372 0.728853 2.01072 0.944105 1.9925 1.16452C1.9474 1.71858 1.92703 2.27221 1.90622 2.82756C1.86372 3.97098 1.89581 5.11785 1.90752 6.26127C1.90969 6.47609 1.9123 6.69134 1.9136 6.90616C1.08449 7.15801 0.493436 7.80549 0.231521 8.62172C0.105333 9.01391 0.0680315 9.42375 0.108793 9.83058C0.100988 10.0476 0.116594 10.2619 0.158657 10.4664C0.330377 11.3033 1.01251 11.8854 1.7679 12.2143C1.75056 12.6155 1.89624 13.015 2.0723 13.3706C2.27784 13.7848 2.51809 14.1856 2.78651 14.5623C3.34026 15.3406 3.9495 16.1194 4.62033 16.8017C4.94773 17.1345 5.27947 17.4647 5.57738 17.8255C5.70096 17.9749 5.83019 18.1191 5.95464 18.2676C6.00841 18.3313 6.0535 18.4011 6.10076 18.4678C5.9568 19.1209 6.02316 19.8282 6.05611 20.4856C6.09991 21.3647 6.09341 22.2433 6.12247 23.1224C6.14848 23.9158 6.1654 24.7652 6.42385 25.5238C6.66018 26.2164 7.07213 26.8183 7.67748 27.2406C8.68482 27.9432 10.0377 27.9613 11.2181 27.895C12.9123 27.7998 14.5879 27.7099 16.2834 27.7589C17.2548 27.7865 18.2217 27.7628 19.1887 27.7271C19.6961 27.7086 20.1991 27.6888 20.7021 27.6772C21.2051 27.6655 21.7819 27.7503 22.2502 27.5644C22.4237 27.4955 22.5581 27.3805 22.5885 27.1894C22.827 26.8923 22.8573 26.4102 22.8877 26.043C22.918 25.6727 22.8963 25.262 22.6925 24.9374ZM8.21344 12.6857C8.28672 12.43 8.39601 12.1893 8.59028 12.0003C8.7195 11.8746 8.86129 11.7644 9.02304 11.6843C9.11063 11.6693 9.19563 11.6628 9.2893 11.6572C9.55642 11.6413 9.79145 11.6581 9.97921 11.6981C10.1856 11.7416 10.4822 11.8432 10.5807 11.891C10.8296 12.0124 10.9436 12.0847 11.1093 12.2513C11.1448 12.287 11.1791 12.3245 11.2116 12.3628C11.2194 12.374 11.2406 12.4016 11.2445 12.408C11.2788 12.4584 11.3105 12.51 11.3395 12.5639C11.3404 12.5656 11.4076 12.7193 11.3864 12.6607C11.4835 12.9182 11.5021 13.0671 11.4865 13.3435C11.4636 13.7546 11.2472 14.1894 10.9206 14.505C10.585 14.83 10.1639 14.9966 9.68651 14.9863C9.1913 14.976 8.61934 14.7168 8.29758 14.3186C7.92595 13.8592 8.06383 13.2079 8.21344 12.6857ZM6.97584 14.195C7.1571 15.078 7.90644 15.6777 8.71083 15.995C9.47923 16.2981 10.3526 16.2516 11.0863 15.8783C12.4678 15.1753 13.1192 13.3965 12.4249 12.0046C11.7935 10.7398 10.1123 10.2611 8.80839 10.6111C7.93808 10.8453 7.31884 11.5087 7.04826 12.3503C6.9225 12.7425 6.88522 13.1524 6.92598 13.5596C6.91817 13.7762 6.93378 13.9905 6.97584 14.195Z" fill="#39AE5A"/>
</svg>
