<svg width="23" height="28" viewBox="0 0 23 28" fill="none" xmlns="http://www.w3.org/2000/svg">
<path d="M15.776 0.156343L15.7847 0.164953C15.8454 0.107696 15.8844 0.0719641 15.776 0.156343ZM16.1707 0.244596C16.175 0.249762 16.1793 0.254498 16.1837 0.259234C16.1967 0.279037 16.2054 0.288508 16.1707 0.244596ZM15.6763 0.276454C15.6806 0.270857 15.685 0.26483 15.6893 0.258803C15.6936 0.254498 15.6893 0.258803 15.6763 0.276454ZM16.0449 0.12793C16.0622 0.135248 16.0796 0.144719 16.0926 0.156343C15.9885 0.0762691 16.0059 0.0904758 16.0449 0.12793ZM2.65815 0.244596C2.66162 0.249762 2.66464 0.254498 2.66768 0.259234C2.68285 0.279037 2.68894 0.288508 2.65815 0.244596ZM2.16033 0.276454C2.16423 0.270857 2.16943 0.26483 2.17507 0.258803C2.17724 0.254498 2.17377 0.258803 2.16033 0.276454ZM2.26051 0.156343L2.26874 0.164953C2.32988 0.107696 2.37022 0.0719641 2.26051 0.156343ZM2.53195 0.12793C2.548 0.135248 2.56361 0.144719 2.57922 0.156343C2.47472 0.0762691 2.48989 0.0904758 2.53195 0.12793ZM21.7342 26.3952C21.7255 26.4447 21.7125 26.4933 21.7039 26.5407C21.487 26.5359 21.2745 26.5415 21.0577 26.545C20.6371 26.5514 20.2165 26.5648 19.7958 26.5799C18.9373 26.6104 18.0743 26.6487 17.2157 26.65C16.3961 26.6513 15.5809 26.5975 14.7613 26.6078C13.9279 26.6186 13.0953 26.647 12.2623 26.7021C11.0854 26.78 9.83872 26.9544 8.74249 26.5415C8.30972 26.3784 7.93983 26.0602 7.69439 25.6207C7.37047 25.0412 7.32231 24.3916 7.28199 23.7446C7.31321 23.7476 7.34487 23.7501 7.37653 23.7536C7.52873 23.7695 7.68051 23.788 7.83271 23.8027C8.2542 23.844 8.67614 23.8561 9.09937 23.866C10.2671 23.8931 11.4388 23.8763 12.607 23.8694C14.8351 23.8556 17.0639 23.8375 19.2928 23.8539C19.5617 23.8556 19.8262 23.8629 20.0907 23.8672C20.0994 23.8672 20.1081 23.8685 20.1167 23.8698C20.1601 23.881 20.2035 23.8935 20.2035 23.8935C20.3552 23.9254 20.507 23.9508 20.6544 23.9865C20.8756 24.0399 21.0881 24.0885 21.2355 24.2728C21.2399 24.2771 21.2398 24.2814 21.2442 24.2853C20.8712 24.2629 20.4983 24.2706 20.1254 24.2383C19.1237 24.1514 18.1177 24.095 17.116 24.0571C16.1143 24.0192 15.1126 24.0717 14.1144 24.1208C13.5389 24.1488 12.9657 24.2 12.3902 24.2267C12.127 24.2392 11.8582 24.2327 11.5962 24.2556C11.4722 24.2663 11.3404 24.281 11.2224 24.3197C11.0737 24.3688 11.0099 24.4751 10.8799 24.5384C10.7845 24.5849 10.7845 24.7429 10.8799 24.7894C10.967 24.832 11.013 24.9086 11.1002 24.9556C11.1774 24.9973 11.2641 25.0206 11.3478 25.0447C11.5802 25.1114 11.8235 25.1265 12.0637 25.1458C12.4978 25.1803 12.931 25.1872 13.3659 25.1906C14.3039 25.1975 15.2427 25.1549 16.1837 25.148C17.0856 25.1411 17.9833 25.2096 18.8852 25.2569C19.3319 25.2802 19.7742 25.3081 20.2165 25.3465C20.6111 25.3805 21.0144 25.3516 21.409 25.3968C21.5044 25.4072 21.5998 25.4227 21.6865 25.4584C21.7602 25.4898 21.7125 25.4593 21.7385 25.4915C21.7906 25.5544 21.7949 25.6784 21.7949 25.8088C21.7906 26.0047 21.7732 26.2032 21.7342 26.3952ZM7.24861 23.0867C7.22086 22.3037 7.23604 21.5184 7.19658 20.7353C7.17316 20.2678 7.12372 19.8007 7.07168 19.3358C7.04609 19.1084 7.01011 18.8807 6.95504 18.6586C6.9906 18.6267 7.02181 18.5875 7.04696 18.5419C7.30324 18.077 6.94768 17.6938 6.64977 17.3619C6.4039 17.0881 6.17318 16.7945 5.91994 16.5203C5.31979 15.8702 4.7049 15.2473 4.13988 14.564C3.63556 13.9544 3.16636 13.3061 2.793 12.6083C2.76524 12.557 2.74184 12.5062 2.72146 12.4559C3.09395 12.4847 3.47078 12.4421 3.82809 12.3293C4.2253 13.0215 4.68323 13.6806 5.13204 14.3419C5.62769 15.0725 6.1385 15.8396 6.76207 16.4699C7.08859 16.7997 7.45676 17.0631 7.9047 17.1996C8.33617 17.3309 8.79843 17.3821 9.24724 17.4088C9.74765 17.4394 10.258 17.4699 10.7593 17.4704C11.0178 17.4704 11.2753 17.4308 11.5325 17.4105C11.8356 17.3864 12.1097 17.3322 12.3408 17.1208C12.5038 16.9714 12.4748 16.7243 12.3408 16.5711C12.3269 16.5556 12.3126 16.5409 12.2983 16.5267C12.4019 16.4484 12.5021 16.3653 12.5971 16.2706C12.8447 16.023 13.088 15.766 13.3169 15.5017C13.7696 14.9795 14.1937 14.4211 14.5619 13.8365C14.8828 13.3238 15.2036 12.8192 15.6416 12.3969C15.8541 12.4438 16.0709 12.4662 16.2877 12.4649C16.2183 12.7064 16.0883 12.9238 15.9538 13.1339C15.5722 13.7125 15.1429 14.2584 14.7527 14.8314C14.3563 15.4151 13.9084 15.9662 13.4665 16.5168C13.0454 17.042 12.6218 17.5604 12.3664 18.1889C12.0667 18.9246 12.1595 19.7284 12.1708 20.5033C12.1817 21.2786 12.1023 22.0514 12.0949 22.8267C11.2567 22.8422 10.4189 22.8603 9.5807 22.8823C9.05513 22.8965 8.53261 22.9275 8.00964 22.9808C7.7989 23.0024 7.589 23.0347 7.37912 23.0652C7.3583 23.0682 7.29458 23.0794 7.24861 23.0867ZM2.41055 11.0916C2.38063 11.1118 2.352 11.1334 2.32382 11.1557C1.99729 11.0434 1.68724 10.8458 1.48039 10.5901C1.10877 10.1307 1.24665 9.47935 1.39625 8.95715C1.46997 8.70143 1.57925 8.46078 1.77351 8.27179C1.9023 8.14565 2.04411 8.03587 2.20585 7.9558C2.29345 7.94073 2.37845 7.93427 2.47211 7.92867C2.73923 7.91231 2.97425 7.92953 3.16245 7.96957C3.36843 8.01305 3.66505 8.11465 3.76349 8.16244C4.0124 8.28341 4.12644 8.35616 4.29209 8.52277C4.32765 8.5585 4.36189 8.59553 4.39441 8.63427C4.40265 8.64546 4.42347 8.67302 4.42781 8.67947C4.46163 8.72984 4.4933 8.7815 4.52235 8.83532C4.52322 8.83704 4.59042 8.99073 4.56917 8.93218C4.66631 9.18962 4.68495 9.33858 4.66977 9.61496C4.64636 10.0261 4.42999 10.4605 4.10346 10.7765C4.04882 10.8294 3.99157 10.8781 3.93216 10.9224C3.57571 10.6878 3.17199 10.6796 2.77955 10.8574C2.65423 10.9142 2.54366 10.9831 2.45086 11.0658C2.43655 11.0744 2.42312 11.083 2.41055 11.0916ZM14.718 8.95715C14.7917 8.70143 14.9001 8.46078 15.0952 8.27179C15.2253 8.14565 15.3641 8.03587 15.5289 7.9558C15.6156 7.94073 15.7023 7.93427 15.7934 7.92867C16.0623 7.91231 16.2964 7.92953 16.4829 7.96957C16.691 8.01305 16.9859 8.11465 17.0856 8.16244C17.3328 8.28341 17.4499 8.35616 17.6146 8.52277C17.6493 8.5585 17.684 8.59553 17.7144 8.63427C17.7231 8.64546 17.7447 8.67302 17.7491 8.67947C17.7838 8.72984 17.8141 8.7815 17.8445 8.83532C17.8445 8.83704 17.9139 8.99073 17.8922 8.93218C17.9876 9.18962 18.0049 9.33858 17.9919 9.61496C17.9702 10.0261 17.7534 10.4605 17.4238 10.7765C17.2894 10.9069 17.142 11.0111 16.9816 11.0894C16.5566 10.7476 15.9668 10.8432 15.5072 11.1019C15.2297 10.9853 14.9782 10.8087 14.8004 10.5901C14.4305 10.1307 14.5662 9.47935 14.718 8.95715ZM20.0907 23.8638C20.0604 23.8595 20.03 23.8548 20.03 23.8543C20.0343 23.8517 20.0604 23.8565 20.0907 23.8638ZM22.6925 24.9375C22.6448 24.8565 22.5884 24.7855 22.5234 24.7231C22.5754 24.2263 22.2936 23.7002 21.9293 23.3743C21.4914 22.9817 20.8929 22.8896 20.3292 22.7862C20.1384 22.7509 19.9433 22.7548 19.7482 22.7531C18.8809 22.7453 18.0179 22.7553 17.155 22.7626C15.8411 22.7733 14.528 22.7875 13.215 22.8078C13.2237 22.0712 13.2987 21.3363 13.2926 20.5997C13.287 19.9333 13.156 19.1773 13.4236 18.5449C13.6924 17.9095 14.2059 17.3783 14.6269 16.8436C15.1039 16.2421 15.5506 15.6248 15.9972 15.0014C16.4048 14.4327 16.8818 13.8795 17.181 13.2445C17.3328 12.9273 17.4412 12.5678 17.4542 12.2148C17.4976 12.1945 17.5453 12.1726 17.5886 12.1498C18.9719 11.4468 19.6224 9.66791 18.9286 8.27609C18.4906 7.39872 17.5496 6.9002 16.5783 6.79343C16.5739 4.98101 16.5696 3.15179 16.3918 1.34927C16.3658 1.09657 16.3484 0.842137 16.3007 0.592875C16.2747 0.465445 16.253 0.368582 16.1837 0.259234C16.175 0.250624 16.1663 0.239861 16.1576 0.23082C16.1403 0.210156 16.0839 0.160218 16.0449 0.12793C15.9538 0.0840182 15.8541 0.109418 15.7847 0.165384V0.164953C15.7804 0.166675 15.7804 0.168828 15.776 0.17055C15.7717 0.176146 15.763 0.182173 15.7587 0.1882C15.7327 0.212309 15.7067 0.237708 15.6893 0.258803C15.6806 0.271288 15.6199 0.363846 15.6069 0.403453C15.5982 0.437032 15.5939 0.476638 15.5896 0.511509C15.5462 0.728914 15.5245 0.944166 15.5072 1.16458C15.4638 1.71864 15.4421 2.27227 15.4205 2.82762C15.3771 3.97104 15.4118 5.11791 15.4205 6.26133C15.4248 6.45893 15.4248 6.65653 15.4291 6.85413C15.3901 6.86317 15.3511 6.87265 15.312 6.88255C14.4426 7.11631 13.8234 7.77972 13.5528 8.62179C13.427 9.01398 13.3897 9.42382 13.4305 9.83064C13.4227 10.0476 13.4383 10.262 13.4804 10.4665C13.6096 11.0959 14.0272 11.5811 14.5489 11.9229C14.4101 12.0839 14.2822 12.2531 14.1612 12.4253C13.7037 13.0784 13.3273 13.7814 12.8633 14.4319C12.6231 14.7685 12.3807 15.1039 12.1344 15.4362C12.0021 15.6145 11.8633 15.7867 11.7445 15.9735C11.6773 16.079 11.6205 16.1883 11.5637 16.2981C11.3408 16.3041 11.1114 16.3425 10.9042 16.3528C10.4228 16.3773 9.92415 16.3278 9.44238 16.305C9.00311 16.2843 8.53086 16.2572 8.11631 16.0962C7.75899 15.9572 7.48495 15.6179 7.24385 15.3334C6.63242 14.6127 6.08214 13.8055 5.56004 13.0194C5.29639 12.6225 4.97463 12.266 4.71792 11.8639C5.78292 11.0395 6.22176 9.5069 5.60774 8.27609C5.14114 7.34103 4.10086 6.83605 3.06317 6.7775C3.061 4.97025 3.05666 3.14663 2.87714 1.34927C2.85198 1.09657 2.8355 0.842137 2.78477 0.592875C2.75875 0.465445 2.74009 0.368582 2.66768 0.259234C2.66117 0.250624 2.65251 0.239861 2.6447 0.23082C2.62649 0.210156 2.56881 0.160218 2.53195 0.12793C2.43915 0.0840182 2.33898 0.109418 2.26916 0.165384L2.26874 0.164953C2.267 0.166675 2.26485 0.168828 2.26268 0.17055C2.25617 0.176146 2.25011 0.182173 2.24447 0.1882C2.21932 0.212309 2.19372 0.237708 2.17507 0.258803C2.16813 0.271288 2.10655 0.363846 2.09398 0.403453C2.08357 0.437032 2.08055 0.476638 2.07405 0.511509C2.03372 0.728914 2.01072 0.944166 1.9925 1.16458C1.9474 1.71864 1.92703 2.27227 1.90622 2.82762C1.86372 3.97104 1.89581 5.11791 1.90752 6.26133C1.90969 6.47615 1.9123 6.6914 1.9136 6.90623C1.08449 7.15807 0.493436 7.80555 0.231521 8.62179C0.105333 9.01398 0.0680315 9.42382 0.108793 9.83064C0.100988 10.0476 0.116594 10.262 0.158657 10.4665C0.330377 11.3034 1.01251 11.8854 1.7679 12.2143C1.75056 12.6156 1.89624 13.0151 2.0723 13.3707C2.27784 13.7848 2.51809 14.1856 2.78651 14.5623C3.34026 15.3407 3.9495 16.1195 4.62033 16.8018C4.94773 17.1346 5.27947 17.4648 5.57738 17.8255C5.70096 17.9749 5.83019 18.1191 5.95464 18.2677C6.00841 18.3314 6.0535 18.4011 6.10076 18.4679C5.9568 19.1209 6.02316 19.8283 6.05611 20.4856C6.09991 21.3647 6.09341 22.2434 6.12247 23.1225C6.14848 23.9159 6.1654 24.7653 6.42385 25.5238C6.66018 26.2165 7.07213 26.8184 7.67748 27.2407C8.68482 27.9433 10.0377 27.9613 11.2181 27.895C12.9123 27.7999 14.5879 27.7099 16.2834 27.759C17.2548 27.7866 18.2217 27.7629 19.1887 27.7272C19.6961 27.7086 20.1991 27.6888 20.7021 27.6772C21.2051 27.6656 21.7819 27.7504 22.2502 27.5644C22.4237 27.4955 22.5581 27.3806 22.5885 27.1895C22.827 26.8924 22.8573 26.4102 22.8877 26.043C22.918 25.6728 22.8963 25.2621 22.6925 24.9375ZM8.21344 12.6857C8.28672 12.43 8.39601 12.1894 8.59028 12.0004C8.7195 11.8747 8.86129 11.7645 9.02304 11.6844C9.11063 11.6693 9.19563 11.6629 9.2893 11.6573C9.55642 11.6413 9.79145 11.6581 9.97921 11.6982C10.1856 11.7417 10.4822 11.8433 10.5807 11.891C10.8296 12.0124 10.9436 12.0848 11.1093 12.2514C11.1448 12.2871 11.1791 12.3246 11.2116 12.3629C11.2194 12.3741 11.2406 12.4016 11.2445 12.4081C11.2788 12.4584 11.3105 12.5101 11.3395 12.5639C11.3404 12.5656 11.4076 12.7193 11.3864 12.6608C11.4835 12.9182 11.5021 13.0672 11.4865 13.3436C11.4636 13.7547 11.2472 14.1895 10.9206 14.5051C10.585 14.8301 10.1639 14.9967 9.68651 14.9864C9.1913 14.976 8.61934 14.7169 8.29758 14.3187C7.92595 13.8593 8.06383 13.208 8.21344 12.6857ZM6.97584 14.1951C7.1571 15.0781 7.90644 15.6778 8.71083 15.995C9.47923 16.2981 10.3526 16.2516 11.0863 15.8784C12.4678 15.1754 13.1192 13.3965 12.4249 12.0047C11.7935 10.7399 10.1123 10.2611 8.80839 10.6111C7.93808 10.8453 7.31884 11.5087 7.04826 12.3504C6.9225 12.7426 6.88522 13.1524 6.92598 13.5597C6.91817 13.7762 6.93378 13.9906 6.97584 14.1951Z" fill="#DCA108"/>
</svg>
