<svg width="48" height="42" viewBox="0 0 48 42" fill="none" xmlns="http://www.w3.org/2000/svg">
<path fill-rule="evenodd" clip-rule="evenodd" d="M23.9127 14.7775L24.0795 14.7124C24.027 14.2666 24 13.8131 24 13.3532C24 7.00191 29.1487 1.85318 35.5 1.85318C41.8513 1.85318 47 7.00191 47 13.3532C47 16.5763 45.6741 19.4897 43.5379 21.5777L33.5 34.3532L22 40.8532L4.5 22.3532L5.06977 22.1308C2.58025 20.0214 1 16.8718 1 13.3532C1 7.00191 6.14873 1.85318 12.5 1.85318C18.8513 1.85318 24 7.00191 24 13.3532C24 13.8355 23.9703 14.3108 23.9127 14.7775Z" fill="#F5FFF8"/>
<path d="M44.0286 19.5822C41.836 23.8388 38.7627 27.6094 35.3776 30.9866C33.4983 32.8609 31.5264 34.6352 29.3516 36.1675C28.2583 36.9381 27.1249 37.6536 25.9568 38.3087C25.3768 38.6337 24.7879 38.9462 24.1968 39.2513C23.6909 39.5138 23.1686 39.7374 22.6531 39.9756C22.3427 39.7447 22.0064 39.5513 21.6997 39.3138C21.1886 38.9183 20.679 38.5219 20.1753 38.1182C19.216 37.3506 18.2753 36.5594 17.3582 35.7425C15.5471 34.1286 13.8308 32.4124 12.2264 30.5955C10.5953 28.7484 9.09008 26.8006 7.60712 24.8359C6.14564 22.9013 4.74786 20.9079 3.64268 18.7469C2.59231 16.6918 1.85306 14.4293 1.89232 12.1043C1.92862 10.0013 2.70415 8.02703 3.96119 6.34761C6.17971 3.38291 9.94194 1.48806 13.6968 2.01012C15.9486 2.32262 17.8375 3.516 19.339 5.17188C20.1227 6.03659 20.7634 7.02557 21.3242 8.04543C21.6227 8.58734 21.9042 9.1425 22.1738 9.69912C22.3064 9.97265 22.4538 10.2373 22.6049 10.5006C22.4308 11.1263 22.4597 11.7807 22.4672 12.4322C22.4723 12.9219 23.1294 12.9704 23.2894 12.5432C23.5131 11.944 23.8708 11.4292 24.1079 10.8373C24.3338 10.2712 24.639 9.74835 24.9672 9.23512C25.5909 8.26159 26.276 7.33734 27.0397 6.46749C28.5338 4.76381 30.3309 3.17998 32.4694 2.33145C34.5338 1.51233 36.7523 1.49617 38.8027 2.37117C40.7486 3.20205 42.4739 4.76896 43.7205 6.45205C45.0516 8.24984 45.9627 10.4256 45.9509 12.6785C45.9383 15.0932 45.1257 17.4521 44.0286 19.5822ZM45.7887 6.08956C43.0968 2.09103 38.2153 -0.961933 33.2546 0.280715C30.5086 0.968951 28.1242 2.76014 26.2398 4.80499C25.2568 5.87117 24.3961 7.05646 23.6398 8.29028C23.5301 8.46896 23.4264 8.64985 23.3272 8.83368C23.1872 8.43294 23.0331 8.03881 22.8612 7.6491C22.3983 6.60057 21.8382 5.60572 21.1449 4.6888C19.7664 2.86748 17.9464 1.43659 15.7605 0.700556C11.682 -0.671504 7.09306 0.688793 4.03972 3.58806C2.3812 5.16306 1.07674 7.17339 0.477483 9.38295C-0.176592 11.7903 0.0700889 14.3668 0.853053 16.7138C1.64787 19.0998 2.93009 21.3043 4.35231 23.3712C5.84491 25.5403 7.47156 27.6359 9.13304 29.6793C10.9908 31.9646 12.9923 34.1278 15.156 36.1315C16.2123 37.1102 17.3019 38.0521 18.419 38.9609C18.9768 39.4153 19.5412 39.8624 20.1138 40.2999C20.4123 40.5286 20.7079 40.7705 21.0205 40.9793C21.2597 41.1396 21.5227 41.2602 21.7383 41.4543C21.8901 41.5911 22.0553 41.6616 22.219 41.6815C22.4686 41.8043 22.7731 41.7866 23.0508 41.666C24.2582 41.1447 25.4745 40.6955 26.6405 40.0763C27.7768 39.4727 28.882 38.8124 29.9516 38.0999C32.1324 36.6469 34.156 34.9741 36.042 33.1616C39.7561 29.5933 43.1612 25.5668 45.5716 21.0058C46.8323 18.6205 47.7835 16.0307 47.9183 13.3182C48.0464 10.7572 47.2161 8.21162 45.7887 6.08956Z" fill="#143309"/>
</svg>
