<svg width="49" height="49" viewBox="0 0 49 49" fill="none" xmlns="http://www.w3.org/2000/svg">
<path d="M7.22945 8.03279L3.21306 9.63934L0.803223 14.0574V40.9672L4.01634 44.9836H29.7213L35.7458 47.3934L42.5737 46.5902L46.9917 43.377L48.1967 38.1557L46.9917 32.9344L42.5737 28.918V14.0574L41.3688 9.63934L36.9508 7.22951L35.7458 1.20492H32.1311L30.5245 3.61475V8.03279H13.254V2.40984L10.4426 0L7.22945 2.40984V8.03279Z" fill="#22215C"/>
<path d="M36.2637 19.4644C36.2608 19.4637 36.2586 19.463 36.2556 19.4622C36.2328 19.4607 36.2084 19.457 36.1856 19.4526C36.103 19.4496 36.0485 19.4696 36.2637 19.4644ZM38.8206 34.6715C38.814 34.1184 38.7742 33.552 38.7078 33.0026C38.6408 32.4472 38.6164 31.8228 38.2332 31.3856C38.0931 31.2252 37.7931 31.2252 37.6531 31.3856C37.2882 31.8021 37.2529 32.3856 37.1887 32.9157C37.1187 33.4985 37.0944 34.0865 37.0494 34.6715C37.0096 35.1897 36.9698 35.7198 37.0207 36.238C37.073 36.7726 37.1725 37.2997 37.1969 37.8372C37.2521 39.0244 39.0756 39.0355 39.0388 37.8372C39.0218 37.2953 38.9341 36.7659 38.8516 36.2306C38.7727 35.7139 38.8265 35.192 38.8206 34.6715ZM46.3527 28.5784C46.2849 28.5146 46.217 28.45 46.1559 28.3839C46.161 28.3899 46.0232 28.1983 46.0409 28.2733C46.0254 28.2213 46.0261 28.1849 46.032 28.1612C46.0343 28.1619 46.0357 28.1627 46.0379 28.1634C46.0682 28.1813 46.3298 28.1753 46.4234 28.2087C46.5554 28.2562 46.6025 28.323 46.7138 28.4626C46.8752 28.6638 47.0153 28.8851 47.1376 29.1115C47.1443 29.1234 47.1502 29.1368 47.1561 29.1494C47.1435 29.1271 47.131 29.1048 47.117 29.0825C46.9445 28.8145 46.6608 28.6445 46.3527 28.5784ZM44.9611 43.4945C44.1312 44.5287 43.1147 45.3602 41.9907 45.9623C42.6349 45.5547 43.2305 45.0684 43.7604 44.5398C46.3482 41.9532 47.2209 38.0986 45.6222 34.7421C44.7134 32.8348 43.1685 31.096 41.3008 30.1071C40.291 29.5725 39.1928 29.2578 38.0452 29.3669C37.5204 29.4167 37.0037 29.528 36.5099 29.7129C36.106 29.776 35.7065 29.9118 35.3468 30.0685C34.4719 30.4479 33.6169 30.9468 32.8519 31.5192C31.3534 32.6403 30.149 34.1437 29.5645 35.9455C29.0206 37.6227 29.0803 39.4416 29.6751 41.0965C30.3082 42.859 31.4286 44.2792 32.9197 45.3884C33.9847 46.1806 35.2665 46.7753 36.5961 47.0366C35.7058 46.9423 34.8191 46.7159 33.9626 46.3462C32.159 45.5666 30.6937 44.2347 29.7643 42.4952C28.8673 40.8188 28.5047 38.8967 28.6167 37.0035C28.6808 35.927 28.9167 34.8163 29.4083 33.8534C29.9456 32.8006 30.7181 31.9142 31.6247 31.1665C32.5276 30.4219 33.6029 29.7886 34.6938 29.3676C35.1847 29.2028 35.6814 29.0603 36.1856 28.937C37.3398 28.6564 38.5707 28.5859 39.7456 28.7819C41.8323 29.1293 43.6742 30.3989 44.9493 32.073C47.4907 35.4088 47.6167 40.184 44.9611 43.4945ZM34.9127 44.6252C32.2534 43.205 30.6443 40.4899 30.8257 37.4452C30.9259 35.7651 31.8745 34.2187 33.0634 33.0857C33.6413 32.5348 34.2729 32.0478 34.9355 31.6061C35.0181 31.6387 35.1191 31.6402 35.237 31.5964C36.8106 31.0017 38.4889 30.6446 40.0773 31.3737C41.516 32.0337 42.7079 33.1889 43.5459 34.5275C44.3287 35.7755 44.8019 37.1364 44.7385 38.6257C44.6795 40.0147 44.1326 41.363 43.3027 42.4655C42.3946 43.6727 41.0709 44.7336 39.6321 45.208C38.0784 45.7203 36.333 45.384 34.9127 44.6252ZM8.35184 29.41C10.5476 29.459 12.7462 29.4315 14.9427 29.4315H15.393C15.3805 29.9727 15.3716 30.5132 15.3716 31.0544C15.3716 32.5979 15.4483 34.1407 15.4608 35.6849C15.4675 36.5291 15.5368 37.3703 15.5876 38.2122C15.606 38.518 15.5876 38.91 15.6245 39.282C14.0272 39.3332 12.4315 39.4149 10.8313 39.3941C10.1186 39.3844 9.40805 39.3681 8.69531 39.3421C8.11156 39.3206 7.72461 39.325 7.18581 39.1224C7.07746 39.0815 6.82096 38.9071 6.776 38.8514C6.58289 38.616 6.5136 38.3235 6.47454 38.0258C6.37945 37.3042 6.42736 36.5795 6.29174 35.8832C6.31091 35.2172 6.30501 34.5475 6.32418 33.8838C6.36988 32.3737 6.3824 30.8636 6.4082 29.3535C7.05534 29.3936 7.70396 29.3959 8.35184 29.41ZM7.09368 19.5157C7.0922 19.5186 7.09146 19.5216 7.08999 19.5246C7.06493 19.5483 7.04282 19.5468 7.09368 19.5157ZM7.08335 19.5973C7.09294 19.5654 7.10915 19.5335 7.12021 19.5015C7.13053 19.4956 7.14232 19.4897 7.15632 19.483C7.46442 19.3353 7.78798 19.3063 8.12629 19.2966C8.31572 19.2922 8.50368 19.2974 8.69311 19.3004C10.9883 19.3352 13.2865 19.2959 15.5817 19.2617C15.421 20.1994 15.6193 21.2463 15.6134 22.1587C15.606 23.6354 15.5006 25.1106 15.4697 26.5865C15.4608 26.9533 15.4513 27.32 15.4417 27.6868C13.2865 27.6831 11.1276 27.6474 8.97392 27.695C8.15578 27.7135 7.33027 27.7024 6.51434 27.7581C6.49001 27.7595 6.4657 27.761 6.44211 27.7618C6.45096 27.4292 6.46054 27.0958 6.47233 26.7625C6.51287 25.6459 6.54529 24.5293 6.61089 23.4134C6.6389 22.9301 6.67207 22.4475 6.71335 21.9657C6.73251 21.7504 6.75242 21.5351 6.776 21.3205C6.78558 21.2314 6.79516 21.1423 6.80548 21.0532C6.81138 21.005 6.83422 20.8283 6.83496 20.8194C6.87623 20.5276 6.92267 20.2358 6.989 19.9493C7.01628 19.8305 7.04871 19.7139 7.08335 19.5973ZM26.5979 20.0539C26.5573 20.7793 26.5323 21.5083 26.5278 22.2344C26.519 23.7215 26.5057 25.2086 26.5278 26.6949C26.533 27.0246 26.5382 27.3549 26.5426 27.6846C25.6316 27.6846 24.7206 27.6846 23.8096 27.6853C21.6197 27.6853 19.4299 27.6861 17.2401 27.6868C17.2696 26.1864 17.2755 24.6837 17.2792 23.1832C17.2814 22.2678 17.2268 21.3584 17.0978 20.4526C17.0433 20.0732 17.0293 19.6523 16.9836 19.2417C17.0381 19.241 17.0927 19.2402 17.1472 19.2395C20.31 19.2009 23.4742 19.1868 26.6369 19.2016C26.6119 19.5008 26.6126 19.8015 26.5979 20.0539ZM17.3131 36.9924C17.2578 36.0621 17.2666 35.1311 17.2438 34.1994C17.204 32.6076 17.1774 31.0225 17.2025 29.4322C20.3247 29.433 23.4462 29.4337 26.5684 29.4345C26.5971 31.4902 26.6207 33.546 26.6215 35.6018C26.6222 36.3509 26.6207 37.1 26.6215 37.8491C26.6222 38.2753 26.5934 38.7348 26.6288 39.1795C26.3878 39.2129 26.1475 39.2516 25.919 39.2523C24.9188 39.2545 23.9142 39.2256 22.914 39.2605C21.0824 39.3243 19.2523 39.2382 17.4214 39.2463C17.4671 38.4995 17.3566 37.7288 17.3131 36.9924ZM31.6276 29.4359C31.5922 29.459 31.5568 29.482 31.5222 29.5057C30.1586 30.4197 28.9963 31.5971 28.2003 33.004C28.1966 32.5333 28.1936 32.0634 28.1884 31.5934C28.1803 30.874 28.1708 30.1546 28.1597 29.4352H29.9987C30.5419 29.4359 31.0844 29.4359 31.6276 29.4359ZM28.1287 27.6838C28.0985 26.0423 28.0602 24.4008 28.0138 22.7586C27.9909 21.9434 27.9511 21.1297 27.9076 20.3153C27.8907 19.999 27.8973 19.5988 27.8597 19.209C28.6034 19.2142 29.3471 19.2209 30.0915 19.2298C31.7227 19.2484 33.3538 19.2922 34.9835 19.365C35.2591 19.3768 35.5355 19.3924 35.8104 19.4147C35.9188 19.4236 36.0264 19.4347 36.134 19.4459C36.1509 19.4474 36.1679 19.4496 36.1856 19.4526C36.2025 19.4533 36.221 19.4555 36.2387 19.4585C36.2446 19.4592 36.2505 19.4615 36.2556 19.4622C36.2667 19.463 36.277 19.4637 36.2873 19.4637C36.2785 19.4637 36.2718 19.4644 36.2637 19.4644C36.3677 19.4867 36.4782 19.5231 36.5829 19.5424C36.6558 19.5914 36.762 19.6634 36.7605 19.6619C36.9942 19.8475 37.1416 20.0784 37.2403 20.3628C37.4489 20.9612 37.3789 21.6145 37.2573 22.2255C37.2013 22.2307 37.1445 22.2352 37.0878 22.2404C36.5394 22.2931 36.1967 22.5099 35.7485 22.8031C35.7426 22.8068 35.7367 22.8113 35.7308 22.8157C35.2871 22.9828 34.8707 23.2901 34.6569 23.7096C34.3643 24.2835 34.5397 24.9019 34.94 25.3704C35.3616 25.8641 36.0168 26.0898 36.6264 26.2532C36.549 26.5746 36.521 26.9154 36.5298 27.2332C35.8525 27.3943 35.1913 27.6266 34.5633 27.9244C34.4233 27.7781 34.2243 27.6823 33.9626 27.6823C32.0182 27.6823 30.0739 27.6831 28.1287 27.6838ZM38.4233 26.5561C38.402 26.6964 38.3894 26.8389 38.3835 26.9785C38.2361 26.9837 38.088 26.9926 37.9406 27.0053C37.9361 26.8412 37.9214 26.6741 37.8948 26.5086C38.0695 26.5308 38.2464 26.5472 38.4233 26.5561ZM37.2086 24.7757C36.8335 24.7238 36.1694 24.6681 35.9121 24.3429C35.7787 24.1736 35.8193 24.0326 35.9269 23.9138C36.0153 23.9368 36.1134 23.9427 36.218 23.9249C36.2704 23.916 36.3227 23.9078 36.375 23.8989C37.4018 23.9858 38.6009 23.475 39.5333 24.0252C39.6505 24.0942 39.809 24.187 39.8437 24.3132C39.8289 24.2583 39.8016 24.4105 39.7471 24.4847C39.5157 24.798 39.0808 24.821 38.7299 24.8374C38.2265 24.8619 37.7076 24.8463 37.2086 24.7757ZM28.2496 43.8293C27.6349 43.8123 27.0195 43.8137 26.404 43.8264C25.2807 43.8486 24.1611 43.9088 23.0364 43.9073C20.708 43.9043 18.3796 43.8575 16.0512 43.8108C13.843 43.7655 11.6104 43.6861 9.40437 43.7996C7.63247 43.8902 5.54731 44.1033 3.95378 43.1404C2.68234 42.3727 2.4369 40.602 2.33002 39.2553C2.14576 36.9411 2.16492 34.6121 2.08458 32.2928C1.92464 27.6318 2.11701 22.9739 2.04404 18.3122C2.01087 16.1696 1.99614 13.9037 2.68677 11.8486C2.99044 10.9451 3.48795 10.0527 4.31715 9.54638C4.9606 9.15363 5.67924 8.99923 6.41262 8.93464C6.36692 10.5776 6.4679 12.3364 7.63246 13.5933C8.73437 14.7835 10.5999 15.0129 11.9332 14.0767C13.5725 12.9267 14.1916 10.9733 14.4267 8.9918C14.7392 9.05639 15.0569 9.08683 15.3274 9.11356C16.534 9.23309 17.7502 9.26277 18.9611 9.31548C21.8313 9.44095 24.7066 9.48699 27.5789 9.54416C28.2224 9.55678 28.8665 9.57236 29.5107 9.58127C29.5174 11.0268 29.7252 12.4998 30.7387 13.5933C31.8399 14.7835 33.7054 15.0129 35.0395 14.0767C36.7251 12.894 37.3325 10.8605 37.5529 8.82178C37.8993 8.90122 38.2486 8.97323 38.601 9.04525C39.1928 9.16552 39.8562 9.28579 40.3832 9.59464C41.4947 10.245 41.4269 11.8345 41.4696 12.9556C41.5964 16.2638 41.7726 19.5684 41.8079 22.8796C41.8249 24.4276 41.7593 25.9911 41.8101 27.5428C41.1623 27.2866 40.4878 27.1196 39.8038 27.0357C39.7979 26.8412 39.7803 26.6377 39.7434 26.4403C40.0183 26.3682 40.2778 26.2599 40.5107 26.1062C41.8197 25.2442 41.8816 23.4824 40.5402 22.6249C40.0331 22.3005 39.4198 22.1513 38.8162 22.1297C39.1375 20.777 38.8457 19.2588 37.7762 18.2966C37.3848 17.9447 36.958 17.7999 36.4554 17.7116C35.0505 17.4651 33.6191 17.4124 32.1966 17.376C27.8266 17.2632 23.4572 17.37 19.0879 17.4502C17.0485 17.4881 15.009 17.5282 12.9703 17.5787C11.6745 17.6106 10.3795 17.69 9.08301 17.6967C8.63635 17.6989 8.18747 17.673 7.74229 17.7138C7.0465 17.7776 6.19593 17.9707 5.79276 18.6092C5.66156 18.8178 5.57753 19.0606 5.51046 19.2974C5.30703 20.019 5.23627 20.786 5.16183 21.5291C5.06012 22.5544 5.00262 23.5834 4.9584 24.6124C4.853 27.075 4.87511 29.5421 4.92007 32.0055C4.94071 33.134 5.02178 34.261 5.10065 35.3872C5.11539 35.6003 5.13161 35.8134 5.1493 36.0265C5.05127 36.6894 4.98567 37.3576 4.9982 38.0258C5.01221 38.7601 5.17952 39.4795 5.68219 40.0355C6.56962 41.0178 8.02164 41.066 9.24074 41.1863C11.1895 41.3786 13.1524 41.3229 15.1085 41.2657C17.2239 41.2034 19.3348 41.2635 21.4509 41.2501C22.6546 41.242 23.8567 41.2101 25.0611 41.2093C25.5011 41.2086 25.947 41.2338 26.3856 41.1819C26.5536 41.1618 26.7217 41.1358 26.8905 41.118C26.9679 41.1098 27.0526 41.1121 27.1293 41.0972C27.1536 41.0957 27.1779 41.0957 27.2015 41.095C27.2878 41.1202 27.3696 41.1336 27.4477 41.1358C27.7219 42.0921 28.1177 43.0097 28.6277 43.8583C28.5024 43.8434 28.3771 43.8323 28.2496 43.8293ZM8.03565 4.73621C8.05481 4.46968 8.08576 4.18607 8.13515 3.90172C8.29877 3.41989 8.542 2.97592 8.92085 2.61733C9.71172 1.86822 11.037 1.32255 11.9546 2.15703C12.7949 2.92099 12.8428 4.267 12.8442 5.32347C12.8457 7.42082 12.9474 9.8775 11.8013 11.7254C11.3141 12.5109 10.4407 13.1902 9.50756 12.8264C8.30541 12.3572 8.09313 10.8412 8.0607 9.70824C8.03712 8.88934 8.05996 8.07044 8.03638 7.25155C8.01279 6.41484 7.97373 5.57144 8.03565 4.73621ZM31.1411 4.73621C31.161 4.46968 31.1912 4.18607 31.2414 3.90172C31.4043 3.41989 31.6482 2.97592 32.0271 2.61733C32.818 1.86822 34.1432 1.32255 35.0608 2.15703C35.9004 2.92099 35.949 4.267 35.9497 5.32347C35.9519 7.42082 36.0529 9.8775 34.9075 11.7254C34.4203 12.5109 33.5469 13.1902 32.6138 12.8264C31.4109 12.3572 31.1986 10.8412 31.1662 9.70824C31.1426 8.88934 31.1655 8.07044 31.1426 7.25155C31.1183 6.41484 31.08 5.57144 31.1411 4.73621ZM45.6665 29.8769C45.7556 29.8079 45.8559 29.7181 45.9701 29.6965C45.9738 29.6958 45.9753 29.695 45.9782 29.6943C45.9937 29.7129 46.0136 29.7366 46.0379 29.7648C46.0313 29.7685 46.0409 29.8413 46.035 29.8829C46.0225 29.9757 45.9546 30.1227 45.8972 30.2192C45.8669 30.2697 45.8323 30.3135 45.7954 30.3543C45.6945 30.2407 45.5905 30.1294 45.4851 30.0202C45.5456 29.9727 45.606 29.9237 45.6665 29.8769ZM46.0269 28.159C46.0195 28.1649 46.0114 28.1709 46.0004 28.1768C45.9473 28.2087 45.9716 28.1382 46.0269 28.159ZM46.035 28.153C46.0483 28.1159 46.0733 28.1219 46.035 28.153V28.153ZM47.33 29.5941C47.3234 29.5919 47.3175 29.5896 47.3108 29.5874C47.3072 29.5636 47.3027 29.5399 47.2968 29.5161C47.3072 29.5429 47.3182 29.5688 47.33 29.5941ZM47.3986 29.8161C47.3905 29.8146 47.3882 29.8101 47.3904 29.8034C47.3934 29.8109 47.3964 29.8153 47.3986 29.8161ZM47.6167 29.6995C47.616 29.6973 47.6064 29.6928 47.5909 29.6869C47.6049 29.6854 47.6145 29.6891 47.6167 29.6995ZM48.8005 30.2036C49.0673 29.159 48.2388 27.9986 47.4922 27.3557C46.8914 26.8397 45.7637 26.6667 45.1697 27.2911C44.7562 27.7254 44.7916 28.4433 45.1115 28.9378C44.9795 29.0558 44.8608 29.1887 44.7518 29.3298C44.4341 29.0566 44.1002 28.8019 43.7523 28.568C43.8828 26.7729 43.8083 24.9413 43.7943 23.1431C43.7796 21.2982 43.7413 19.4526 43.6535 17.6106C43.5666 15.7946 43.4803 13.975 43.3042 12.1657C43.1575 10.6623 42.7573 9.00144 41.3303 8.21744C40.6131 7.82321 39.7515 7.72521 38.9511 7.63983C38.5081 7.59232 38.0835 7.60198 37.642 7.64058C37.6664 7.13054 37.6745 6.63014 37.6781 6.15498C37.6877 4.66716 37.701 3.08952 36.9352 1.76058C36.0249 0.180698 34.1764 -0.385779 32.5172 0.289085C30.6186 1.06195 29.6493 2.73686 29.3972 4.71988C29.2749 5.68503 29.3147 6.64128 29.4245 7.60569C29.4252 7.61014 29.4252 7.61534 29.426 7.61979C24.8879 7.61237 20.3483 7.35326 15.8102 7.40745C15.3827 7.41265 14.967 7.42899 14.5439 7.47576C14.5616 7.02288 14.5682 6.57891 14.5712 6.15498C14.5808 4.66716 14.5955 3.08952 13.8297 1.76058C12.9194 0.180698 11.0701 -0.385779 9.41174 0.289085C7.51232 1.06195 6.54382 2.73686 6.29174 4.71988C6.16939 5.68503 6.2092 6.64128 6.31828 7.60569C6.32492 7.6584 6.33007 7.71185 6.33523 7.76531C5.61733 7.77348 4.88616 7.84549 4.21912 8.08826C3.32211 8.41493 2.58579 9.01407 2.02709 9.78545C0.806513 11.47 0.468941 13.6045 0.33111 15.6343C0.172642 17.964 0.301628 20.313 0.280253 22.6472C0.257404 25.1106 0.14021 27.5673 0.178538 30.0321C0.216865 32.5126 0.278034 34.9989 0.385646 37.4771C0.46746 39.3859 0.502842 41.5597 1.53621 43.2384C2.66465 45.0729 4.81615 45.6141 6.83128 45.6958C7.87275 45.7374 8.90906 45.649 9.94906 45.6097C11.1195 45.5651 12.2988 45.6015 13.4708 45.6082C16.2038 45.6238 18.9361 45.6995 21.6691 45.7188C23.0592 45.7285 24.4412 45.6787 25.8291 45.6134C26.4947 45.5822 27.161 45.5688 27.8273 45.5518C28.1686 45.5436 28.5047 45.5377 28.8437 45.4939C29.1791 45.4508 29.4717 45.5057 29.8056 45.5072C29.8188 45.5072 29.8306 45.5057 29.8439 45.505C30.41 46.1331 31.0556 46.6936 31.7757 47.1665C35.9107 49.8808 41.46 49.2475 45.0798 45.9512C46.8679 44.323 48.1511 42.0757 48.5344 39.6695C48.9257 37.2062 48.4835 34.7086 47.3064 32.514C47.1089 32.1465 46.8907 31.7902 46.6541 31.4472C46.7765 31.3262 46.8841 31.1881 46.9718 31.0485C47.7243 31.2824 48.5653 31.1212 48.8005 30.2036Z" fill="#F5F3FF"/>
</svg>
