<svg width="47" height="45" viewBox="0 0 47 45" fill="none" xmlns="http://www.w3.org/2000/svg">
<path d="M39.5 7.5V1L21 2.5L2.5 1V13L0.5 35.5L3.5 41L8 44H39.5L44 42.5L46.5 32.5L44 24.5V7.5H39.5Z" fill="#F5FFF8"/>
<path d="M18.6272 38.4147C18.6419 38.4078 18.6567 38.4016 18.6714 38.3947C18.6777 38.3905 18.6679 38.3947 18.6272 38.4147ZM18.5437 39.0153C18.5381 39.0125 18.5324 39.0091 18.5268 39.0063C18.5177 39.0022 18.5198 39.0029 18.5437 39.0153ZM18.6602 39.0713C18.656 39.0693 18.6518 39.0672 18.6476 39.0651C18.6672 39.0741 18.6686 39.0748 18.6602 39.0713ZM34.7986 37.6136C32.8746 37.6219 30.9507 37.6627 29.0267 37.6938C26.2809 37.7381 23.5083 37.7616 20.7702 37.9865C20.2514 38.0294 19.7011 38.0757 19.1979 38.2037C19.0189 38.2494 18.8581 38.3137 18.6897 38.3864C18.6834 38.3891 18.6777 38.3919 18.6714 38.3947C18.6504 38.4092 18.4138 38.5351 18.5584 38.4493C18.5311 38.4659 18.5016 38.4798 18.4735 38.4943C18.2889 38.5919 18.2882 38.8811 18.4735 38.9786C18.4917 38.9876 18.5093 38.9973 18.5268 39.0063C18.5493 39.0167 18.6398 39.061 18.6602 39.0713C18.7985 39.1364 18.9396 39.1924 19.0863 39.2326C19.5144 39.3509 19.9622 39.3723 20.403 39.4145C21.6272 39.5335 22.8724 39.5086 24.1014 39.5328C26.8789 39.5882 29.655 39.5619 32.4331 39.5474C33.2214 39.5439 34.0103 39.5314 34.7986 39.528C36.048 39.5225 36.0508 37.6073 34.7986 37.6136ZM18.5437 34.9553C18.5381 34.9526 18.5324 34.9498 18.5268 34.947C18.5177 34.9422 18.5198 34.9436 18.5437 34.9553ZM18.6602 35.0114C18.656 35.0093 18.6518 35.0079 18.6476 35.0058C18.6672 35.0148 18.6686 35.0155 18.6602 35.0114ZM18.6272 34.3555C18.6419 34.3486 18.6567 34.3416 18.6714 34.3354C18.6777 34.3313 18.6679 34.3354 18.6272 34.3555ZM34.7986 33.5536C32.8746 33.5626 30.9507 33.6027 29.0267 33.6338C26.2809 33.6788 23.5083 33.7023 20.7702 33.9272C20.2514 33.9701 19.7011 34.0164 19.1979 34.1444C19.0189 34.1901 18.8581 34.2545 18.6897 34.3271C18.6834 34.3299 18.6777 34.3326 18.6714 34.3354C18.6504 34.3499 18.4145 34.4752 18.5584 34.3901C18.5311 34.406 18.5016 34.4205 18.4735 34.435C18.2889 34.5326 18.2882 34.8218 18.4735 34.9187C18.491 34.9284 18.5093 34.9373 18.5268 34.947C18.5493 34.9574 18.6398 35.001 18.6602 35.0114C18.7985 35.0764 18.9396 35.1325 19.0863 35.1733C19.5144 35.2909 19.9622 35.3123 20.403 35.3552C21.6272 35.4742 22.8724 35.4487 24.1014 35.4736C26.8789 35.5289 29.655 35.5026 32.4331 35.4881C33.2214 35.4839 34.0103 35.4722 34.7986 35.4687C36.048 35.4625 36.0508 33.548 34.7986 33.5536ZM35.351 29.7053C34.4237 29.5676 33.4579 29.6015 32.5216 29.5905C31.6105 29.5801 30.7001 29.5808 29.7897 29.5898C28.993 29.5981 28.1964 29.6105 27.3997 29.6265C25.3228 29.668 23.2451 29.7212 21.1709 29.8465C20.7505 29.8721 20.3343 29.8921 19.9173 29.9537C19.5285 30.0105 19.1129 30.1481 18.7016 30.1364C18.4995 30.1301 18.3303 30.3432 18.3928 30.5356C18.6307 31.2614 19.9293 31.3167 20.5898 31.3458C21.5465 31.3873 22.5032 31.4122 23.4613 31.433C25.2813 31.4717 27.1014 31.4544 28.9222 31.4703C29.914 31.4786 30.9051 31.4918 31.8969 31.5021C32.9518 31.5132 34.0447 31.6315 35.0962 31.563C35.5707 31.5326 35.9799 31.2275 36.0381 30.7432C36.0894 30.3232 35.829 29.7766 35.351 29.7053ZM18.6272 26.2362C18.6419 26.2293 18.6567 26.2231 18.6714 26.2162C18.6777 26.212 18.6679 26.2162 18.6272 26.2362ZM18.5584 26.2708C18.5311 26.2874 18.5016 26.3013 18.4735 26.3158C18.2889 26.4134 18.2882 26.7026 18.4735 26.8001C18.4917 26.8091 18.5093 26.8188 18.5268 26.8278C18.5493 26.8382 18.6398 26.8818 18.6602 26.8921C18.7985 26.9579 18.9396 27.0132 19.0863 27.054C19.5144 27.1723 19.9622 27.1931 20.403 27.236C21.6272 27.355 22.8724 27.3301 24.1014 27.3543C26.8789 27.4097 29.655 27.3834 32.4331 27.3688C33.2214 27.3647 34.0103 27.3529 34.7986 27.3495C36.048 27.3439 36.0508 25.4288 34.7986 25.4343C32.8746 25.4433 30.9507 25.4842 29.0267 25.5153C26.2809 25.5596 23.5083 25.5831 20.7702 25.808C20.2514 25.8509 19.7011 25.8972 19.1979 26.0252C19.0189 26.0709 18.8581 26.1352 18.6897 26.2079C18.6834 26.2106 18.6777 26.2134 18.6714 26.2162C18.6504 26.2307 18.4138 26.3566 18.5584 26.2708ZM18.6602 26.8921C18.656 26.8908 18.6518 26.8887 18.6476 26.8866C18.6672 26.8956 18.6686 26.8963 18.6602 26.8921ZM18.5437 26.8368C18.5381 26.834 18.5324 26.8306 18.5268 26.8278C18.5177 26.8236 18.5198 26.8243 18.5437 26.8368ZM35.351 21.5868C34.4237 21.4484 33.4579 21.4823 32.5216 21.4712C31.6105 21.4609 30.7001 21.4622 29.7897 21.4712C28.993 21.4788 28.1964 21.4913 27.3997 21.5072C25.3228 21.5487 23.2451 21.602 21.1709 21.7272C20.7505 21.7528 20.3343 21.7736 19.9173 21.8345C19.5285 21.8919 19.1129 22.0289 18.7016 22.0171C18.4995 22.0116 18.3303 22.224 18.3928 22.4163C18.6307 23.1421 19.9293 23.1975 20.5898 23.2265C21.5465 23.2681 22.5032 23.293 23.4613 23.3137C25.2813 23.3532 27.1014 23.3352 28.9222 23.3511C29.914 23.3594 30.9051 23.3725 31.8969 23.3829C32.9518 23.394 34.0447 23.5123 35.0962 23.4445C35.5707 23.4134 35.9799 23.1082 36.0381 22.6239C36.0894 22.2039 35.829 21.6574 35.351 21.5868ZM24.6798 18.7355C24.6742 18.73 24.6679 18.7259 24.6615 18.721C24.6735 18.7307 24.6784 18.7342 24.6798 18.7355ZM24.6798 18.7355C24.7837 18.8199 24.8848 18.8808 25.0132 18.932C25.2547 19.0289 25.4989 19.0614 25.7558 19.1002C26.5722 19.224 27.4116 19.2109 28.2364 19.2365C29.9792 19.2904 31.72 19.2628 33.4642 19.2482C33.9661 19.2441 34.468 19.2309 34.9698 19.2302C36.2199 19.2288 36.222 17.3137 34.9698 17.3158C32.0365 17.3193 29.0562 17.3711 26.1398 17.6908C25.7643 17.7316 25.3621 17.7932 25.0139 17.9392C24.8883 17.9918 24.7963 18.0457 24.6882 18.1315C24.6328 18.1758 24.6966 18.0838 24.618 18.1869C24.6096 18.1986 24.6019 18.2111 24.5942 18.2235C24.5914 18.2263 24.5857 18.2312 24.5766 18.2408C24.4748 18.3536 24.4706 18.5051 24.5654 18.6221C24.6019 18.658 24.6896 18.7404 24.6798 18.7355ZM24.5766 18.6373C24.5724 18.6324 24.5696 18.6269 24.5654 18.6221C24.5647 18.6207 24.5626 18.6193 24.5619 18.6186C24.3632 18.4207 24.6573 18.7252 24.5766 18.6373ZM35.4773 13.4675C34.4595 13.3022 33.3667 13.3506 32.3363 13.3561C31.3248 13.361 30.3134 13.3776 29.3019 13.3942C28.2645 13.4115 27.2334 13.5416 26.2008 13.6343C25.8555 13.6647 25.4961 13.6945 25.1599 13.7858C24.9655 13.8391 24.6082 13.8903 24.5542 14.1297C24.3997 14.8119 25.5003 15.0596 25.9797 15.1059C27.0038 15.2056 28.0455 15.18 29.0738 15.1945C30.0831 15.209 31.0925 15.2284 32.1011 15.2547C32.6184 15.2685 33.135 15.2768 33.6523 15.2893C34.1697 15.3024 34.7066 15.3654 35.2225 15.3252C35.697 15.2879 36.1055 14.9938 36.1645 14.5054C36.2157 14.0806 35.9546 13.545 35.4773 13.4675ZM24.6798 10.6163C24.7837 10.7007 24.8848 10.7616 25.0132 10.8135C25.2547 10.9103 25.4989 10.9422 25.7558 10.9809C26.5722 11.1048 27.4116 11.0923 28.2364 11.1172C29.9792 11.1719 31.72 11.1442 33.4642 11.1297C33.9661 11.1255 34.468 11.1117 34.9698 11.111C36.2199 11.1096 36.222 9.19448 34.9698 9.19655C32.0365 9.2007 29.0562 9.25191 26.1398 9.57156C25.7643 9.61238 25.3621 9.67464 25.0139 9.81994C24.8883 9.87252 24.7963 9.92718 24.6882 10.0123C24.6328 10.0566 24.6966 9.96454 24.618 10.0676C24.6096 10.0794 24.6019 10.0918 24.5942 10.1043C24.5914 10.1071 24.5857 10.1126 24.5766 10.1216C24.4748 10.2344 24.4706 10.3866 24.5654 10.5028C24.6019 10.5388 24.6896 10.6211 24.6798 10.6163ZM24.6798 10.6163C24.6742 10.6115 24.6679 10.6073 24.6615 10.6018C24.6735 10.6121 24.6784 10.6149 24.6798 10.6163ZM24.5766 10.5181C24.5724 10.5132 24.5696 10.5077 24.5654 10.5028C24.5647 10.5021 24.5626 10.5001 24.5619 10.4994C24.3632 10.3022 24.6573 10.6066 24.5766 10.5181ZM35.4773 5.34831C34.4595 5.18364 33.3667 5.23138 32.3363 5.23692C31.3248 5.24245 30.3134 5.25836 29.3019 5.27566C28.2645 5.29296 27.2334 5.42303 26.2008 5.51505C25.8555 5.54618 25.4961 5.57524 25.1599 5.66726C24.9655 5.71984 24.6082 5.77105 24.5542 6.01044C24.3997 6.69263 25.5003 6.94032 25.9797 6.98668C27.0038 7.08631 28.0455 7.06072 29.0738 7.07525C30.0831 7.08978 31.0925 7.10914 32.1011 7.13543C32.6184 7.14927 33.135 7.15758 33.6523 7.17073C34.1697 7.18318 34.7066 7.24614 35.2225 7.20601C35.697 7.16934 36.1055 6.8746 36.1645 6.38613C36.2157 5.96131 35.9546 5.4258 35.4773 5.34831ZM13.4429 39.1447C13.4562 39.1447 13.4703 39.144 13.4829 39.1419C13.5299 39.135 13.7117 39.2042 13.4429 39.1447ZM13.3523 34.1728C13.3102 34.9809 13.2611 35.7897 13.186 36.5958C13.1705 36.7653 13.1537 36.9348 13.1347 37.1043C13.1277 37.17 13.1193 37.2351 13.1116 37.3008C13.1088 37.3299 13.106 37.3513 13.1046 37.3665C13.1039 37.3721 13.1025 37.379 13.1004 37.3908C13.0983 37.4074 13.0954 37.424 13.0926 37.4406C12.6525 37.442 12.2117 37.462 11.7723 37.4821C10.7756 37.5285 9.7789 37.5879 8.78499 37.6724C8.62847 37.6862 8.47124 37.6986 8.31542 37.7166C8.36947 37.7104 7.93498 37.7699 7.92866 37.772C7.78336 37.79 7.63597 37.8011 7.48927 37.7983C7.464 37.7983 7.43802 37.7962 7.41275 37.7941C7.41065 37.7755 7.40785 37.7568 7.40644 37.7381C7.37907 37.3458 7.36433 36.9535 7.35029 36.5605C7.22886 33.0367 7.21622 29.5095 7.06531 25.9865C7.03021 25.1534 7.0225 24.3211 6.89826 23.4957C6.87861 23.367 6.85755 23.2383 6.83579 23.1096C6.913 23.1373 6.9916 23.1622 7.07092 23.1823C7.34888 23.2521 7.6493 23.2743 7.93357 23.3027C8.21223 23.331 8.4895 23.3248 8.76956 23.3213C9.52271 23.3123 10.2759 23.3061 11.029 23.2971C11.7155 23.2888 12.4062 23.2715 13.0905 23.3372C13.0982 23.3386 13.1081 23.34 13.1214 23.3421C13.1312 23.3435 13.1425 23.3455 13.153 23.3476C13.1474 23.358 13.2084 23.4037 13.2288 23.4521C13.3636 23.7794 13.3369 24.1723 13.3306 24.539C13.3207 25.06 13.2709 25.5755 13.3053 26.0979C13.3481 26.7434 13.4281 27.3827 13.4534 28.0296C13.4738 28.5464 13.4857 29.0626 13.4843 29.5801C13.4808 31.1112 13.431 32.6438 13.3523 34.1728ZM13.1881 39.0527C13.2358 39.0845 13.2871 39.1094 13.3397 39.1281C13.3053 39.1177 13.252 39.0949 13.1881 39.0527ZM8.37859 39.4194C8.347 39.4242 8.35613 39.4228 8.37859 39.4194V39.4194ZM7.41697 37.873C7.43663 37.9207 7.42469 37.9975 7.41697 37.873V37.873ZM7.32643 37.7886C7.33625 37.7886 7.34467 37.7893 7.35239 37.7886C7.35098 37.7893 7.35028 37.79 7.34958 37.7907C7.34256 37.79 7.33485 37.79 7.32783 37.7893H7.32712H7.32783C7.32292 37.7893 7.318 37.7886 7.31308 37.7886H7.32643C7.31941 37.7858 7.31238 37.7803 7.30466 37.772C7.30186 37.772 7.29975 37.7713 7.29905 37.772C7.30116 37.7713 7.30185 37.7713 7.30396 37.7713C7.30115 37.7678 7.29835 37.7665 7.29554 37.7623C7.29554 37.7623 7.29975 37.7658 7.30607 37.7706C7.33765 37.7658 7.35309 37.7706 7.3559 37.7782C7.33906 37.7754 7.3187 37.7734 7.30747 37.772C7.31238 37.7768 7.31941 37.7824 7.32643 37.7886ZM14.926 26.2549C14.8804 25.6793 14.933 25.114 14.9366 24.539C14.9422 23.614 14.8446 22.4911 13.9342 21.9798C13.3741 21.6643 12.5367 21.7452 11.9148 21.7494C10.9722 21.7556 10.033 21.8199 9.09174 21.8801C8.77798 21.9009 8.46212 21.9113 8.14766 21.9348C7.85847 21.9569 7.56928 21.9964 7.2829 22.0434C7.04285 22.0829 6.81824 22.1659 6.59222 22.2475C6.42587 22.0642 6.09948 22.0822 5.95138 22.3084C5.76186 22.5956 5.71624 22.9581 5.65728 23.2895C5.52742 24.0042 5.50566 24.7148 5.48601 25.4392C5.43547 27.3495 5.45442 29.2577 5.47828 31.1687C5.50004 32.8859 5.53795 34.6032 5.59972 36.3197C5.61516 36.7722 5.62428 37.2275 5.66289 37.6793C5.6664 37.7236 5.67061 37.7678 5.67553 37.8121C5.68605 37.8882 5.69658 37.9643 5.70571 38.0397C5.68114 37.9166 5.67553 37.8972 5.68816 37.9837C5.7008 38.0916 5.70922 38.2016 5.73589 38.3075C5.77941 38.4715 5.8489 38.6368 5.94226 38.7801C6.3269 39.3682 7.04916 39.5446 7.71879 39.501C7.9048 39.4886 8.09081 39.4616 8.27471 39.4353C8.31893 39.429 8.36244 39.4228 8.40596 39.4159C8.42913 39.4131 8.4551 39.4097 8.46984 39.4083C8.70007 39.3875 8.93029 39.3661 9.16052 39.3474C9.74381 39.3011 10.3271 39.2616 10.9111 39.227C11.4824 39.1931 12.0545 39.1627 12.6266 39.1447C12.8413 39.1385 13.0568 39.1322 13.2716 39.135C13.3088 39.1357 13.3502 39.1405 13.3916 39.1433C13.751 39.2416 14.1764 39.063 14.3631 38.7489C14.3954 38.6943 14.4199 38.6382 14.4389 38.5822C14.4684 38.5289 14.4937 38.4701 14.5133 38.4051C14.6523 37.9304 14.6909 37.4191 14.7428 36.93C14.8214 36.191 14.872 35.4493 14.9162 34.7083C15.0138 33.0693 15.0734 31.4274 15.0861 29.7856C15.0903 29.2155 15.0847 28.6461 15.0615 28.0759C15.0362 27.4657 14.9738 26.8631 14.926 26.2549ZM7.32712 37.7893C7.32712 37.7893 7.32713 37.7886 7.32643 37.7886L7.32712 37.7893ZM7.30396 37.7713L7.30466 37.772H7.30747C7.30677 37.7713 7.30607 37.7713 7.30607 37.7713H7.30396ZM13.0793 17.3103C11.719 17.3545 10.3383 17.3213 8.98153 17.4168C8.96679 17.4182 8.90712 17.4203 8.88186 17.423C8.86992 17.4223 8.8601 17.4216 8.85588 17.421C8.7878 17.4133 8.71972 17.4023 8.65233 17.3926C8.4214 17.3587 8.19048 17.322 7.96306 17.2688C7.59947 17.1836 7.25201 17.0667 7.11023 16.8536C6.84771 16.4572 6.83158 16.0386 6.84842 15.575C6.86878 15.007 6.91019 14.4403 6.92914 13.8716C6.98038 12.3571 6.98249 10.8266 6.86948 9.31487C6.82035 8.65758 6.77472 7.98714 6.68838 7.334C6.64697 7.02819 6.61539 6.73414 6.50308 6.4484C6.61539 6.46293 6.72839 6.47123 6.8442 6.48023C7.32221 6.51759 7.79951 6.55011 8.27892 6.57432C9.52902 6.63728 10.7798 6.68295 12.0313 6.7293C14.6579 6.82686 17.2844 6.89397 19.911 6.97838C20.4016 6.9943 20.8944 7.00329 21.3857 7.02543C21.4489 8.04042 21.4271 9.07132 21.4475 10.0794C21.4868 11.9835 21.524 13.8868 21.55 15.7909C21.5556 16.2019 21.5612 16.6128 21.5654 17.0231C21.2671 17.0314 20.9674 17.0584 20.6915 17.0653C19.9272 17.0847 19.1628 17.1082 18.3984 17.1324C16.6254 17.1899 14.8523 17.2528 13.0793 17.3103ZM21.4938 18.3045C21.4945 18.3038 21.4945 18.3031 21.4952 18.3031C21.5036 18.3121 21.5114 18.3218 21.5205 18.3308C21.5107 18.3211 21.5022 18.3121 21.4938 18.3045ZM22.4372 18.7009C22.5186 18.6795 22.5916 18.647 22.6576 18.6068C23.0317 18.537 23.3588 18.2595 23.3595 17.7738C23.3637 14.468 23.3069 11.1574 23.196 7.85361C23.1777 7.30218 23.1784 6.74037 23.111 6.19171C23.0493 5.68248 22.7474 5.35176 22.2126 5.3061C20.3939 5.15042 18.5472 5.17395 16.7236 5.13244C14.0381 5.07155 11.3442 5.05149 8.65795 5.10546C8.10905 5.11583 7.56227 5.12897 7.01478 5.15941C6.76981 5.17325 6.50449 5.16426 6.26724 5.22653C6.22583 5.2376 6.18231 5.2549 6.143 5.26943C6.08193 5.28604 6.09036 5.29018 6.17037 5.28188C6.12194 5.2888 6.07351 5.29502 6.02508 5.30125C5.57585 5.44931 6.08193 5.28396 5.92049 5.34346C5.87838 5.35868 5.83556 5.37113 5.79345 5.38497C5.48811 5.48529 5.39968 5.80356 5.52462 6.03326C5.50005 6.1751 5.46706 6.31625 5.43968 6.45877C5.37932 6.7722 5.38213 7.08147 5.36247 7.39973C5.32457 8.01205 5.31404 8.62298 5.31685 9.23668C5.32316 10.655 5.32597 12.0672 5.23964 13.4835C5.20244 14.0965 5.16664 14.7088 5.13084 15.3218C5.09715 15.8995 5.09153 16.5174 5.29719 17.0674C5.70781 18.1647 6.57958 18.7369 7.71528 18.9604C9.12401 19.2378 10.5847 19.0981 12.0117 19.0545C13.8409 18.9991 15.6701 18.9348 17.4992 18.8753C18.4447 18.8449 19.3909 18.8151 20.3371 18.7902C21.0018 18.7722 21.79 18.8677 22.4372 18.7009ZM44.4246 38.9094C44.0603 39.894 43.557 40.9304 42.7716 41.6368C42.4873 41.8921 42.1055 42.1094 41.8114 42.1419C41.6703 42.1578 41.5559 42.1454 41.3846 42.0783C41.3032 42.0464 41.0379 41.8555 40.908 41.7219C39.4684 40.2434 39.0143 37.9401 38.8409 35.9669C38.3748 30.6684 39.3519 25.3804 39.7562 20.1117C39.9773 17.2203 39.978 14.313 40.0243 11.4161C40.0419 10.3264 40.0517 9.23737 40.0664 8.14766C40.6027 8.27842 41.1986 8.28742 41.6927 8.31094C42.2213 8.33654 42.7491 8.3483 43.2777 8.35384C41.944 13.5402 42.4143 18.9729 43.3752 24.1903C44.2603 28.9996 46.2173 34.0628 44.4246 38.9094ZM38.81 43.0877C37.4525 43.2123 36.088 43.1873 34.727 43.1624C31.9277 43.1099 29.132 42.9632 26.3349 42.8587C23.556 42.7549 20.794 42.5743 18.0102 42.62C15.3682 42.6629 12.7087 42.8103 10.0793 42.4623C7.99745 42.1869 5.75274 41.6009 4.13272 40.2074C2.55202 38.8458 1.94977 36.9839 1.83677 34.9602C1.69358 32.3988 2.02699 29.7974 2.18351 27.2422C2.35267 24.4837 2.46147 21.7231 2.54359 18.9611C2.63484 15.8898 2.75557 12.8116 2.72889 9.73899C2.70503 7.00605 2.61098 4.23645 2.20667 1.52704C2.39689 1.61214 2.59062 1.68064 2.78715 1.71592C3.36623 1.8204 3.96356 1.84599 4.54825 1.91172C5.91347 2.06394 7.26816 2.331 8.62636 2.53165C10.014 2.73575 11.4024 2.89489 12.8048 2.95094C14.1792 3.00559 15.5585 2.98276 16.9335 3.00905C19.6871 3.06233 22.4421 3.07408 25.195 3.14535C26.5328 3.18063 27.8721 3.21938 29.2106 3.16887C30.5576 3.11905 31.8955 2.95093 33.2417 2.88243C34.8042 2.80217 36.3189 2.64512 37.8484 2.31647C38.021 2.2798 38.2063 2.25905 38.3748 2.20785C38.3783 2.20647 38.499 2.16426 38.5601 2.14005C38.5671 2.13866 38.5742 2.13797 38.5805 2.13658C38.5657 2.4763 38.5348 2.81532 38.5033 3.15019C38.4338 3.88151 38.4267 4.61906 38.3846 5.35315C38.299 6.85384 38.2604 8.35661 38.2176 9.85938C38.1734 11.3871 38.0793 12.9168 38.0702 14.4452C38.0611 15.9334 38.0196 17.4223 37.9277 18.9078C37.5866 24.4519 36.4635 29.962 36.8573 35.5351C37.0201 37.8439 37.4483 40.3223 38.8507 42.2422C39.0451 42.5086 39.2557 42.7653 39.4845 42.9971C39.2599 43.0338 39.036 43.067 38.81 43.0877ZM38.5727 0.305865C38.6275 0.279573 38.6121 0.291335 38.5727 0.305865V0.305865ZM45.8284 26.7302C44.5818 21.3169 43.7325 15.6982 44.6885 10.1645C44.805 9.48645 44.9531 8.81463 45.1272 8.14835C45.5168 7.69932 45.4325 6.75974 44.5741 6.76251C43.6406 6.76458 42.7077 6.76528 41.7742 6.7715C41.2702 6.77496 40.6504 6.73137 40.0882 6.81648C40.1177 5.4763 40.1991 4.09807 40.0299 2.76966C39.9752 2.33654 39.8776 1.9304 39.7281 1.53741C39.9316 1.13336 39.8271 0.606834 39.3526 0.305173C38.989 0.0740845 38.6359 0.136351 38.3818 0.338381C38.3369 0.345992 38.292 0.354989 38.2492 0.361908C38.0611 0.394427 37.9101 0.477453 37.7319 0.523809C37.7852 0.50582 37.4174 0.559093 37.4328 0.556326C37.3367 0.57639 37.2405 0.597836 37.1451 0.618593C36.8039 0.692624 36.4628 0.777727 36.1182 0.836537C34.8505 1.05171 33.5372 1.05102 32.2562 1.12367C31.0244 1.19424 29.8059 1.35476 28.5691 1.3769C27.2846 1.40042 25.9994 1.35752 24.7149 1.32916C19.5144 1.2143 14.2838 1.40596 9.10436 0.875974C7.68369 0.730679 6.26794 0.524498 4.84516 0.404111C4.24854 0.353603 3.6477 0.325926 3.04897 0.30171C2.71837 0.288565 2.40953 0.313476 2.07752 0.285801C1.75184 0.258817 1.50476 0.311397 1.21417 0.455308C1.03869 0.542486 1.02886 0.768041 1.13906 0.90365C0.847068 3.67118 1.0422 6.47607 1.07449 9.25329C1.10748 12.1025 0.993069 14.9544 0.90884 17.8015C0.823206 20.7012 0.713707 23.6009 0.541036 26.4964C0.459614 27.8691 0.375387 29.2418 0.274312 30.6131C0.177448 31.9339 0.0749642 33.2581 0.116377 34.5831C0.190078 36.9452 0.765646 39.236 2.46568 40.9802C4.06183 42.6172 6.30233 43.4987 8.52388 43.9367C11.2298 44.4694 14.0178 44.4473 16.7629 44.3705C18.2313 44.3296 19.7004 44.3186 21.1681 44.3511C22.6134 44.3829 24.0523 44.5075 25.4954 44.5573C28.4048 44.6583 31.3129 44.8188 34.2237 44.8866C35.6458 44.9198 37.0756 44.9606 38.4955 44.852C39.1918 44.7987 39.8881 44.7136 40.5767 44.596C41.1509 44.4985 41.7047 44.4777 42.2297 44.1885C42.3778 44.1062 42.5077 44.01 42.6186 43.9021C43.5662 43.6004 44.3256 42.8788 44.9061 42.0859C45.6677 41.0467 46.1716 39.7515 46.5036 38.5206C46.8462 37.2503 46.9985 35.9281 46.9992 34.6149C47.0006 31.9505 46.4243 29.3158 45.8284 26.7302Z" fill="#143309"/>
</svg>
