<svg width="56" height="57" viewBox="0 0 56 57" fill="none" xmlns="http://www.w3.org/2000/svg">
<path d="M47.2222 53.9265C47.1689 53.0634 47.127 52.17 47.0658 51.2757C46.9977 50.2848 46.8919 49.2617 46.7451 48.2795C46.6892 47.9011 46.6629 47.4652 46.5781 47.0555C46.9653 47.0772 47.3516 47.1025 47.7378 47.1312C47.7142 47.3878 47.7134 47.6349 47.709 47.808C47.6845 48.7136 47.7282 49.6201 47.702 50.5266C47.6635 51.9073 47.7763 53.2853 47.8235 54.6651C47.6303 54.652 47.4372 54.6381 47.2441 54.6242C47.2388 54.3919 47.2371 54.1587 47.2222 53.9265ZM43.6951 45.1703C43.3849 45.1833 43.072 45.2016 42.7618 45.2294C42.573 45.246 42.3484 45.3077 42.1605 45.2712C41.8634 45.2129 41.9124 45.0102 41.9054 44.7127C41.8984 44.463 41.9036 44.2124 41.8678 43.9645C41.8425 43.7827 41.7804 43.6165 41.7122 43.4521C42.1972 43.439 42.6875 43.5078 43.1673 43.5521C43.7922 43.6104 44.4205 43.6269 45.0453 43.6765C46.3632 43.7801 47.6583 43.8314 48.9823 43.8357C49.6159 43.8375 50.2276 43.981 50.8594 44.0324C50.9599 44.0402 51.5848 44.1228 51.9562 44.1489C51.9553 44.3212 51.9781 44.543 51.9816 44.6231C51.9912 44.8701 52.0008 45.1007 51.992 45.3295C51.0998 45.2625 50.2014 45.2686 49.3083 45.1972C48.0498 45.0963 46.7835 45.1085 45.5216 45.1285C44.9134 45.1381 44.3034 45.145 43.6951 45.1703ZM17.5181 54.2466C17.269 54.2292 17.0217 54.2144 16.7753 54.2014C16.7307 53.7864 16.6573 53.3723 16.5961 52.9582C16.4834 52.2004 16.4336 51.4366 16.3505 50.6754C16.2666 49.8968 16.1854 49.1216 16.1382 48.3387C16.1155 47.9672 16.1172 47.54 16.0674 47.1286C16.1207 47.112 16.174 47.0946 16.2273 47.0772C16.5848 46.9607 16.992 46.8119 17.3512 46.604C17.9708 47.0181 19.0133 47.1225 19.5578 47.246C20.2744 47.4078 20.8695 47.3217 21.5337 47.0215C21.8212 46.8919 22.1402 46.7301 22.3971 46.5178C22.4277 46.5361 22.4574 46.5561 22.4889 46.5744C22.4163 46.9981 22.4181 47.447 22.4085 47.8367C22.3875 48.6658 22.4076 49.4957 22.3875 50.3248C22.3552 51.6767 22.4391 53.0304 22.4723 54.3832C20.8188 54.3849 19.1689 54.3623 17.5181 54.2466ZM13.7358 45.4547C13.0463 45.4017 12.3917 45.1998 11.8018 44.8432C11.5362 44.6822 11.2897 44.4934 11.0433 44.3064C10.7995 44.1202 10.5924 43.8662 10.3215 43.7235C10.0925 43.6026 9.72455 43.6452 9.6057 43.9106C9.5218 44.0959 9.48598 44.282 9.48686 44.4673C8.9162 44.7005 8.36824 45.0198 7.77137 45.1781C6.9595 45.3947 6.12405 45.4426 5.28597 45.4095C4.35701 45.373 2.77086 45.092 2.4414 44.1533C1.97473 42.8214 3.4665 41.3468 4.23903 40.449C5.56388 38.9091 6.79348 37.278 8.07113 35.699C8.67675 34.9499 9.29375 34.2009 9.85917 33.4197C10.1528 33.0134 10.463 32.5453 10.6474 32.0486C12.1768 32.4905 13.734 32.561 15.3202 32.1304C16.1775 31.8972 17.117 31.5614 17.7899 30.9533C18.1587 31.1995 18.5939 31.3735 18.9128 31.4779C19.8261 31.7763 20.7603 31.9999 21.7268 31.9938C22.7178 31.9868 23.6748 31.7859 24.5767 31.3813C24.9813 31.1995 25.3492 30.9707 25.7005 30.7019C25.9269 30.8681 26.1899 30.9925 26.4783 31.0925C26.9266 31.2474 27.3933 31.3848 27.8792 31.4083C28.0347 31.8824 28.2759 32.3426 28.4752 32.7341C28.8789 33.5249 29.3464 34.2896 29.8367 35.0291C30.9343 36.6812 32.0031 38.3532 33.1768 39.9531C33.7676 40.7561 34.3767 41.5521 35.0321 42.3046C35.324 42.6395 35.6316 42.9562 35.9505 43.265C36.1699 43.4764 36.4618 43.727 36.5579 44.028C36.6165 44.2116 36.606 44.4612 36.502 44.6265C36.3604 44.8536 35.92 45.0302 35.8011 45.0433C35.6403 45.0615 35.4411 45.0511 35.2794 45.0372C35.296 44.9267 35.3021 44.8162 35.2934 44.7074C35.2514 44.209 34.7516 43.6217 34.1765 43.8601C33.6268 44.088 33.48 44.4282 33.127 44.8545C32.9373 45.0815 32.6953 45.1024 32.4051 45.0711C32.0748 45.0346 31.7427 44.9206 31.4167 44.8519C31.2987 44.8275 31.1807 44.8084 31.0619 44.7918C31.0287 44.483 30.8749 44.1916 30.59 44.0254C30.1242 43.7548 29.6191 43.9506 29.2398 44.2603C28.4131 44.938 27.1311 45.3129 25.9557 45.306C25.0573 45.3008 24.0942 45.2277 23.2605 44.8736C22.8358 44.6935 21.3056 43.8105 21.0827 44.6892C21.0434 44.8449 21.0522 44.9963 21.0924 45.1433C21.0321 45.1824 20.97 45.2225 20.9054 45.2625C20.4527 45.5409 20.194 45.5861 19.6749 45.4843C19.2353 45.3973 18.787 45.3608 18.3422 45.3086C18.3264 45.3069 18.3107 45.3042 18.295 45.3016C18.2958 45.2947 18.2967 45.2877 18.2967 45.2808C18.3361 44.4665 17.4586 44.1794 16.8312 44.4438C16.659 44.5161 16.5646 44.657 16.4257 44.7605C16.4405 44.7449 16.2229 44.8684 16.2308 44.864C16.0132 44.978 15.8253 45.0441 15.5631 45.132C14.947 45.339 14.4 45.5069 13.7358 45.4547ZM6.94818 29.4004C6.50162 29.4561 6.01921 29.457 5.5875 29.3204C5.26503 29.2195 4.96615 29.0185 4.87964 28.6096C4.76865 28.0824 5.12084 27.5283 5.4302 27.1307C5.84181 26.6018 6.36003 26.1642 6.83281 25.6926C7.47426 25.0523 8.09384 24.3877 8.72918 23.7413C9.95177 22.4999 11.2059 21.221 12.2126 19.7969C12.7658 19.0148 13.1136 18.1814 13.4719 17.301C13.5575 17.0904 13.6537 16.866 13.7393 16.6346C13.8992 16.7103 14.0626 16.7781 14.2322 16.8338C14.975 17.0748 15.7755 17.0774 16.5385 16.9425C17.0016 16.8608 17.5452 16.7103 17.9716 16.431C18.8211 16.8956 19.7894 16.9947 20.7367 16.8495C21.6176 16.7155 22.5553 16.4075 23.334 15.9673C23.5087 15.8681 23.6949 15.7385 23.8688 15.5863C24.2752 15.9212 24.8231 16.1404 25.2941 16.3031C25.2967 16.304 25.2985 16.3049 25.3003 16.3049C25.5135 16.7372 25.856 17.1505 26.0527 17.5506C26.4415 18.3432 26.8278 19.1366 27.2211 19.9256C27.7367 20.96 28.317 21.9735 28.9226 22.9575C29.2013 23.4099 29.4749 23.8735 29.8131 24.285C30.2571 24.8244 30.8015 25.2611 31.3398 25.7022C32.1412 26.359 33.5473 27.4839 33.0772 28.5313C33.0011 28.701 32.898 28.7836 32.6909 28.895C32.5379 28.9776 32.1604 29.0751 31.9542 29.0951C31.574 29.1307 31.1388 29.169 30.7587 29.1229C30.7071 29.1159 30.6564 29.1046 30.6066 29.0907C30.5708 28.3182 29.6698 27.925 29.0187 28.4583C28.8151 28.6253 28.6639 28.8263 28.5188 29.0455C28.4979 29.0759 28.2977 29.3578 28.3379 29.3456C28.1797 29.4544 27.8424 29.4578 27.6152 29.4465C27.3417 29.4326 26.9974 29.3421 26.6749 29.2943C26.9589 28.5339 25.9802 27.891 25.337 28.2721C24.9891 28.4783 24.6745 28.6697 24.3398 28.9124C24.0584 29.1168 23.7455 29.2995 23.4239 29.4274C22.765 29.6901 22.0528 29.8076 21.3467 29.8032C20.6301 29.798 19.9012 29.7136 19.1995 29.5675C18.9775 29.5214 18.6043 29.3761 18.2312 29.2882C17.9699 29.0037 17.5102 28.9802 17.1257 29.0437C16.2247 29.1942 15.412 29.704 14.5241 29.9241C13.714 30.1251 12.8496 30.1764 12.0203 30.0799C11.2591 29.992 10.3389 29.7562 9.68176 29.417C9.39774 29.2708 9.16966 29.0864 8.94856 28.8645C8.72834 28.6436 8.35256 28.3243 8.02222 28.5348C7.73033 28.721 7.60449 28.9959 7.58527 29.2926C7.37291 29.3265 7.15879 29.3743 6.94818 29.4004ZM11.0241 14.2744C10.5312 14.4962 9.95964 14.685 9.4117 14.6467C9.0132 14.6189 8.56054 14.4127 8.39101 14.0212C8.32372 13.8681 8.35693 13.8176 8.43645 13.6654C8.55355 13.4418 8.74754 13.2609 8.93106 13.0912C9.31384 12.7345 9.75256 12.4387 10.1886 12.1508C10.9035 11.6793 11.5764 11.1756 12.1942 10.5814C13.4474 9.37386 14.5302 7.98017 15.5631 6.58562C16.1478 5.79569 16.7298 4.98924 17.2236 4.13841C17.5137 3.63818 17.7243 3.10141 17.9437 2.57074C18.1595 2.31062 18.3693 2.04441 18.6087 1.80604C18.7546 1.65901 18.8255 1.58681 18.9303 1.61552C19.3105 1.7173 19.6469 2.2793 19.8523 2.57683C20.4693 3.47202 20.8958 4.47074 21.4061 5.42509C21.9715 6.4821 22.6156 7.48603 23.4712 8.33251C24.297 9.1494 25.1595 9.91758 26.1226 10.5718C26.9825 11.1573 27.9394 11.6514 28.7216 12.3404C28.9768 12.5658 29.3202 12.9424 29.4067 13.1469C29.4277 13.1965 29.4714 13.3809 29.4863 13.4348C29.4889 13.4696 29.4889 13.5158 29.4863 13.5523C29.4749 13.5827 29.4618 13.6193 29.4513 13.6471C29.4321 13.6758 29.4085 13.7106 29.3971 13.7254C29.3578 13.7767 29.3665 13.7724 29.3866 13.7524C29.3779 13.7611 29.37 13.7707 29.3595 13.782C29.3202 13.8246 29.0983 14.0212 29.1621 13.9777C28.8396 14.2178 28.6272 14.2961 28.3117 14.3883C27.6397 14.5867 26.9563 14.5615 26.1479 14.4701C25.7267 14.4223 25.1202 14.3822 24.6168 14.2309C24.6055 13.9881 24.5067 13.7446 24.2813 13.5149C24.0829 13.3131 23.7324 13.1991 23.4563 13.2983C22.9293 13.4862 22.6427 13.9829 22.1629 14.2387C21.6997 14.4858 21.0967 14.6798 20.5331 14.8024C19.5263 15.0208 18.6446 14.8207 17.8039 14.2343C17.5566 14.0612 17.1467 14.1813 17.0112 14.4405C16.9832 14.4945 16.9605 14.5484 16.9422 14.6015C16.2623 14.7685 15.5981 15.0347 14.8658 14.8355C14.3607 14.6972 13.9237 14.4318 13.5549 14.0638C13.1923 13.7019 13.1014 13.2669 12.577 13.0921C12.3244 13.0077 12.0658 13.2304 12.064 13.4801C12.0544 13.5027 12.0431 13.5305 12.0282 13.5653C12.0029 13.6497 11.9766 13.7332 11.9487 13.8159C11.6402 13.942 11.3396 14.1317 11.0241 14.2744ZM55.0463 54.8878C54.2825 54.9374 53.4908 54.8425 52.7235 54.8347C51.8784 54.826 51.0325 54.8277 50.1874 54.7973C50.0816 54.7929 49.9759 54.7877 49.8702 54.7834C49.8352 53.2957 49.6535 51.8177 49.5897 50.3283C49.5503 49.4209 49.4507 48.49 49.289 47.5957C49.2741 47.5122 49.2558 47.393 49.2313 47.2573C49.6491 47.2938 50.0668 47.3269 50.4845 47.3426C51.1793 47.3687 51.8801 47.3487 52.5662 47.4748C53.156 47.5835 53.6472 47.3156 53.8534 46.7475C53.9872 46.3769 54.0501 45.9933 54.0798 45.6C54.0929 45.4278 54.1008 45.252 54.0964 45.078C54.0955 45.0598 54.0658 44.6283 54.0641 44.6274C54.0414 44.0437 54.1296 43.4242 53.8036 42.8988C53.4191 42.2802 52.7881 42.1237 52.1056 42.0688C51.4782 42.0184 50.8769 42.0036 50.2311 41.907C48.6764 41.6756 47.0684 41.8226 45.4989 41.8392C44.7569 41.847 44.0036 41.8514 43.2608 41.8296C42.4166 41.8052 41.6117 41.7487 40.7763 41.9262C39.9286 42.1071 40.0719 43.1476 40.7046 43.4373C40.6233 43.6383 40.5499 43.8384 40.5281 44.0689C40.5045 44.3221 40.4879 44.5813 40.4757 44.8353C40.4529 45.3225 40.5159 45.8332 40.8331 46.2238C41.1896 46.6623 41.679 46.8249 42.2287 46.865C42.8501 46.9111 43.4793 46.9285 44.1024 46.9485C44.4711 46.9607 44.84 46.9737 45.2088 46.9885C45.0987 48.8102 45.3005 50.658 45.2551 52.4788C45.249 52.7242 45.2481 52.9678 45.2629 53.2122C45.2734 53.374 45.2891 53.5341 45.3101 53.6942C45.3057 53.6611 45.3198 53.7742 45.3294 53.8368C45.332 53.8873 45.3372 53.963 45.3372 53.9769C45.3398 54.0491 45.3433 54.1213 45.346 54.1935C45.3486 54.2927 45.3512 54.3919 45.3529 54.4919C45.2289 54.4832 45.1039 54.4754 44.9789 54.4676C41.2858 54.2388 37.5918 54.1518 33.8916 54.184C30.7491 54.2109 27.6091 54.3284 24.4674 54.3693C24.4508 53.0208 24.408 51.6715 24.3643 50.3248C24.338 49.4975 24.3075 48.6614 24.2236 47.8367C24.2044 47.641 24.1886 47.4287 24.1677 47.2112C24.3477 47.2538 24.5294 47.2912 24.7103 47.3217C26.2239 47.5835 27.8215 47.3661 29.2407 46.7832C29.55 46.6562 29.8839 46.4987 30.1828 46.296C30.361 46.4256 30.5638 46.53 30.7822 46.6109C31.3153 46.8067 31.886 47.0033 32.4785 47.0685C33.2048 47.1494 33.8558 46.9554 34.4134 46.4822C34.4151 46.4813 34.416 46.4796 34.4177 46.4787C34.9587 46.7971 35.7295 46.898 36.2451 46.7997C38.0174 46.4622 39.0136 44.6187 38.207 42.9893C37.8819 42.3324 37.3104 41.8514 36.8385 41.3041C36.2582 40.6308 35.691 39.9461 35.1588 39.2336C34.0463 37.7451 33.0334 36.1861 32.011 34.6367C31.5076 33.8738 30.9964 33.1152 30.507 32.3426C30.2579 31.9494 30.0062 31.5466 29.8166 31.1212C29.7729 31.0229 29.7371 30.922 29.7047 30.8211C29.7511 30.7837 29.7956 30.7454 29.8393 30.7045C29.9818 30.7854 30.1356 30.8498 30.2842 30.9055C30.6931 31.0595 31.2 31.1195 31.6369 31.1334C32.4051 31.1586 33.2712 30.9733 33.9214 30.5549C35.4909 29.5431 35.5591 27.4256 34.5602 25.9815C34.0839 25.2925 33.4652 24.7539 32.8185 24.2302C32.5353 24.0006 32.2496 23.7744 31.9778 23.5316C31.8441 23.4133 31.7139 23.2915 31.5889 23.1637C31.5277 23.101 31.4691 23.0358 31.4097 22.9714C31.3861 22.947 31.3695 22.9288 31.3547 22.9131C31.3503 22.9061 31.3433 22.8957 31.332 22.88C30.5734 21.8222 29.9119 20.6712 29.2355 19.5603C28.8238 18.8852 28.4533 18.1866 28.0626 17.4984C27.9141 17.2375 27.7708 16.9782 27.6196 16.7233C27.714 16.7198 27.8075 16.7137 27.901 16.7033C29.8847 16.478 32.2041 15.0921 31.6352 12.7763C31.3311 11.5375 30.2675 10.671 29.2634 9.98196C28.171 9.23205 27.0122 8.60394 26.0151 7.72179C24.9891 6.81529 24.1423 5.8331 23.3506 4.71955C22.5876 3.64688 22.0475 2.44894 21.2261 1.41194C20.4623 0.447155 19.3559 -0.428029 18.1211 0.32449C17.5207 0.690745 17.1126 1.31364 16.867 1.98351C16.6145 2.32106 16.3873 2.68296 16.1242 3.04226C15.502 3.89047 14.8649 4.7239 14.1841 5.52688C12.9274 7.00929 11.6603 8.59002 10.1458 9.82102C9.02546 10.7319 7.50312 11.3809 6.79787 12.7119C5.97989 14.2561 7.07925 16.0204 8.71957 16.3884C9.59348 16.585 10.5111 16.4293 11.3343 16.1091C11.6454 15.9882 12.0596 15.8351 12.4345 15.6254C12.4913 15.6941 12.5508 15.7594 12.6119 15.8229C12.4092 16.1979 12.1864 16.5615 11.981 16.9347C11.5554 17.7081 11.0809 18.4737 10.5216 19.1601C9.90198 19.9213 9.19586 20.6234 8.52819 21.3419C7.83868 22.084 7.1151 22.7939 6.40898 23.5195C5.29562 24.6652 3.85716 25.777 3.2664 27.3021C2.70272 28.7567 3.3398 30.3461 4.79136 30.9437C5.46864 31.223 6.22979 31.2804 6.95426 31.2039C7.40433 31.156 7.91211 31.0916 8.31585 30.8837C8.61473 31.1717 8.97211 31.397 9.34876 31.5762C9.30157 31.6589 9.2518 31.7406 9.19675 31.8198C8.92496 32.2148 8.62692 32.588 8.31318 32.9499C7.64727 33.7154 6.95255 34.4567 6.29275 35.2274C5.52459 36.1226 4.77302 37.0318 4.02408 37.9426C3.41759 38.6803 2.76561 39.378 2.16174 40.1184C1.03527 41.5008 -0.0404862 43.4199 0.872748 45.1972C1.58236 46.5779 3.27336 47.0903 4.7057 47.2912C5.81993 47.4478 7.03558 47.34 8.12447 47.0694C8.8638 46.8858 9.72282 46.597 10.3651 46.0994C10.4517 46.1777 10.5391 46.2508 10.6264 46.3169C11.496 46.9772 12.459 47.326 13.5427 47.4513C13.8546 47.487 14.1579 47.4896 14.4568 47.467C14.4271 47.734 14.4096 47.9985 14.3869 48.2395C14.31 49.0642 14.3379 49.8515 14.3825 50.6754C14.4236 51.441 14.4638 52.197 14.566 52.9573C14.6193 53.3523 14.6587 53.7525 14.7006 54.1518C13.8634 54.1544 13.0245 54.1822 12.1741 54.2379C10.1676 54.3693 8.14632 54.431 6.13545 54.4597C5.16454 54.4728 4.17528 54.5076 3.20874 54.6102C2.72109 54.6616 2.21155 54.7033 1.73615 54.8286C1.30094 54.9443 0.898073 55.134 0.482092 55.2662C0.0468858 55.4037 -0.0134062 55.9587 0.358879 56.2049C1.01606 56.6407 1.83403 56.5781 2.60307 56.5894C3.49183 56.6033 4.38147 56.6042 5.27024 56.6251C7.08884 56.6686 8.91095 56.5833 10.7296 56.5094C12.5726 56.4346 14.3843 56.264 16.2317 56.3684C18.0075 56.4694 19.7675 56.5842 21.5477 56.5964C28.9462 56.6477 36.3325 56.1744 43.7301 56.5651C45.7515 56.6721 47.7719 56.8487 49.7959 56.9017C50.7712 56.9278 51.7474 56.9069 52.7235 56.8974C53.6638 56.8878 54.6644 57.0583 55.4894 56.5155C56.1641 56.0718 55.9718 54.8277 55.0463 54.8878Z" fill="#221E1F"/>
</svg>
