<svg width="31" height="48" viewBox="0 0 31 48" fill="none" xmlns="http://www.w3.org/2000/svg">
<path d="M30.0312 15.36C30.0312 23.3129 18.4062 37.44 15.5 37.44C10.6562 37.44 0.96875 23.3129 0.96875 15.36C0.96875 7.40711 7.47461 0.960007 15.5 0.960007C23.5254 0.960007 30.0312 7.40711 30.0312 15.36Z" fill="#FFFBF5"/>
<ellipse cx="15.5" cy="43.2" rx="10.6562" ry="3.84" fill="#FFFBF5"/>
<path d="M24.802 43.6405C24.3679 44.354 23.4067 44.8032 22.6399 45.104C20.6439 45.8868 18.4638 46.042 16.3378 46.004C15.2684 45.9846 14.2005 45.9107 13.1357 45.8107C12.8698 45.7853 12.604 45.7584 12.3381 45.7256C12.2442 45.7137 12.1512 45.7017 12.0573 45.6898C12.0227 45.6853 11.9882 45.6808 11.9544 45.6763C11.9454 45.6749 11.9356 45.6741 11.9251 45.6726C10.7378 45.5055 9.54979 45.3189 8.38879 45.0129C8.0914 44.9338 7.79478 44.848 7.50265 44.7502C7.3487 44.6995 7.19624 44.6458 7.04379 44.5905C6.99498 44.5726 6.94543 44.5547 6.89661 44.5361C6.86958 44.5264 6.69837 44.454 6.69086 44.4525C6.47533 44.3555 6.26427 44.2495 6.06451 44.1241C6.00894 44.089 5.95639 44.0517 5.90157 44.0159C5.89856 44.0144 5.89708 44.0137 5.89483 44.0122C5.80096 43.9301 5.71381 43.845 5.62669 43.7562C5.62594 43.7555 5.62598 43.7555 5.62523 43.7547C5.62523 43.7547 5.6252 43.754 5.62445 43.754C5.59891 43.7092 5.57037 43.6607 5.54258 43.6181C5.54183 43.6174 5.54187 43.6167 5.54112 43.6159C5.5291 43.5696 5.51709 43.5234 5.50582 43.4763C5.55539 43.6428 5.54487 43.195 5.49831 43.4361C5.50957 43.3793 5.51934 43.3196 5.53736 43.2644C5.54337 43.2465 5.60117 43.0875 5.59291 43.1002C5.67852 42.9174 5.94964 42.5286 6.15541 42.3122C6.50911 41.9405 6.92139 41.6629 7.37573 41.4256C8.67491 40.7472 10.1213 40.4069 11.5767 40.1226C11.7944 40.1331 12.013 40.1353 12.233 40.1375C13.0223 40.145 13.8085 40.1749 14.5956 40.2331C16.1771 40.3502 17.7662 40.5249 19.3402 40.7189C19.4018 40.7264 19.4641 40.7346 19.5257 40.7428C19.5482 40.7458 19.576 40.7495 19.591 40.7517C19.7021 40.7689 19.8133 40.7846 19.9237 40.804C20.3164 40.8719 20.7017 40.9793 21.0907 41.0659C22.0857 41.2868 23.1393 41.4816 24.018 42.0241C24.3619 42.2368 24.7802 42.5308 24.9319 42.9181C25.031 43.1711 24.965 43.3726 24.802 43.6405ZM11.9566 45.6771C12.0295 45.6868 12.055 45.6905 11.9566 45.6771V45.6771ZM10.6056 39.9883C10.5778 39.9905 10.5838 39.989 10.6056 39.9883V39.9883ZM24.4317 40.2495C23.3218 39.7413 22.1338 39.5398 20.9502 39.2756C20.2977 39.1301 19.6338 39.0808 18.9669 39.0405C18.1093 38.989 17.2449 38.9346 16.3866 38.9711C15.758 38.998 15.128 39.0084 14.4987 39.0129C14.4521 38.9778 14.3951 38.9547 14.3275 38.951C11.9724 38.8323 9.46641 39.1495 7.26307 40.0383C6.2808 40.4346 5.32484 40.9674 4.63545 41.7853C4.19989 42.3025 3.83264 42.8943 3.86193 43.5965C3.9175 44.9323 5.1844 45.7674 6.29433 46.257C7.61379 46.8383 9.04514 47.151 10.4615 47.398C11.8763 47.645 13.3152 47.7868 14.748 47.8741C17.1947 48.0241 19.7284 47.9831 22.103 47.3144C24.1328 46.7428 27.2494 45.3413 26.786 42.7368C26.5765 41.5577 25.4636 40.7219 24.4317 40.2495ZM17.664 20.8226C15.2114 22.089 12.0963 20.7069 10.4825 18.6144C9.41083 17.2241 9.03838 15.3913 9.25316 13.6241C9.4071 13.6032 9.55878 13.5219 9.66091 13.3853C10.107 12.7913 10.3698 12.0995 10.7453 11.4592C11.0803 10.8868 11.497 10.3853 11.9942 9.94424C12.9577 9.09051 14.193 8.53753 15.4516 8.52633C16.8544 8.51514 18.0868 9.18678 19.1314 10.1442C20.2473 11.1674 21.1387 12.4681 21.4624 13.9577C22.0444 16.6383 19.9943 19.6204 17.664 20.8226ZM16.8342 6.69498C14.8028 6.31065 12.7271 6.84945 11.1253 8.14423C10.5568 8.60318 9.95756 9.23528 9.48595 9.94946C8.48341 10.8368 7.98551 12.248 7.73994 13.5398C7.40576 15.2972 7.60025 17.0577 8.41505 18.6622C9.9658 21.7159 13.8183 23.9353 17.269 23.0569C19.0834 22.595 20.5733 21.3554 21.6817 19.8965C22.7533 18.486 23.5629 16.6741 23.5471 14.8801C23.5298 12.9271 22.6294 11.1129 21.3881 9.64125C20.2443 8.28528 18.6155 7.03304 16.8342 6.69498ZM27.8261 20.2823C25.9067 26.354 21.4061 31.3898 16.5901 35.4159C15.9721 35.9323 15.3608 36.4651 14.7277 36.9629C12.7181 34.4644 10.478 32.1525 8.55173 29.5801C7.47935 28.1472 6.48584 26.6636 5.50207 25.1704C4.58288 23.7733 3.73951 22.3092 3.09593 20.7651C2.45911 19.2368 1.92368 17.548 1.85159 15.8845C1.77949 14.2286 2.07612 12.5942 2.66338 11.045C3.74027 8.20395 5.88053 5.73753 8.46387 4.13902C10.8978 2.63305 13.7101 1.91587 16.5503 2.2002C19.2673 2.47184 21.9926 3.86812 23.9872 5.62484C25.993 7.39051 27.4642 9.58902 28.1761 12.1025C28.9458 14.8181 28.692 17.5428 27.8261 20.2823ZM30.6821 13.2569C30.251 10.3301 28.8677 7.5696 26.8679 5.38826C24.7809 3.11214 21.9603 1.36663 18.9654 0.562151C15.8001 -0.287849 12.4921 0.0427332 9.51676 1.37706C6.5677 2.7002 3.98659 5.04424 2.26837 7.75768C0.279801 10.898 -0.460639 14.6599 0.370685 18.2853C1.19675 21.8898 3.17327 25.0689 5.25121 28.0823C7.35467 31.1316 9.76082 34.1383 12.5694 36.5749C13.1747 37.0995 13.7762 37.5905 14.4318 38.0405C14.6624 38.5271 15.2579 38.8831 15.7633 38.5069C21.3197 34.3704 26.5578 29.236 29.2552 22.7681C30.5131 19.7517 31.1612 16.5099 30.6821 13.2569Z" fill="#221E1F"/>
</svg>
