<svg width="45" height="34" viewBox="0 0 45 34" fill="none" xmlns="http://www.w3.org/2000/svg">
<path d="M1.34186 31.8114L1.76138 5.06946L3.43945 2.94709L22.3177 2.52261H40.7765L43.2936 5.06946V32.2359L21.8982 33.0849L1.34186 31.8114Z" fill="#FAFAFF"/>
<path d="M7.01307 19.0405C7.15523 18.0582 7.97589 17.2589 8.87538 16.9447C9.96217 16.5644 10.96 16.7685 12.0003 17.1589C12.4329 17.3208 12.8681 17.5868 13.2212 17.929C13.2327 18.4072 13.2145 18.8888 13.0972 19.3527C13.0359 19.597 12.9564 19.8262 12.8297 20.0432C12.7044 20.2561 12.6977 20.2636 12.5272 20.4411C11.4937 21.5173 9.47166 21.7404 8.19419 21.0636C7.78319 20.8459 7.51031 20.6677 7.25967 20.2459C7.04541 19.8861 6.95243 19.4575 7.01307 19.0405ZM11.8912 22.8125C12.947 22.4227 13.9374 21.7214 14.436 20.6738C15.1475 19.1786 14.9144 17.4984 14.8221 15.9025C14.7109 13.9883 14.5964 12.0754 14.5182 10.1592C14.4764 9.13063 14.4502 8.10073 14.4091 7.07151C14.969 7.5164 15.634 7.81026 16.2013 8.24698C16.7558 8.67418 17.2679 9.27416 17.4646 9.96189C17.5589 10.2918 17.5455 10.5694 17.3844 10.8755C17.1863 11.251 16.8528 11.4782 16.6143 11.8292C16.3448 12.2258 16.5409 12.8162 16.9303 13.0461C17.375 13.3087 17.8567 13.1176 18.1357 12.7271C18.2186 12.6121 18.389 12.5312 18.4894 12.4237C18.6572 12.2428 18.8088 12.0026 18.9206 11.7822C19.1578 11.3149 19.3168 10.8013 19.2865 10.2714C19.2292 9.26396 18.6801 8.27419 17.9767 7.57761C17.3224 6.92933 16.5321 6.56744 15.7553 6.10623C15.3955 5.89264 15.1158 5.64503 14.8861 5.29334C14.6523 4.93417 14.3221 4.56751 14.217 4.1478C13.9913 3.24442 12.7091 3.48251 12.662 4.36003C12.5845 5.80148 12.7105 7.2681 12.7617 8.71023C12.8142 10.202 12.8695 11.6945 12.9551 13.1856C13.0143 14.2216 13.081 15.2583 13.1403 16.2957C12.2348 15.6046 10.9937 15.2277 9.94599 15.2393C8.58834 15.2542 7.19633 15.8359 6.33728 16.9174C5.43712 18.0501 5.13864 19.531 5.74638 20.8772C6.75636 23.1152 9.81192 23.5791 11.8912 22.8125ZM37.5336 24.1104C36.942 23.8512 36.3403 23.6091 35.7137 23.4492C34.4463 23.1261 33.1183 22.9771 31.8193 22.8526C30.5135 22.7275 29.1956 22.6921 27.8892 22.8241C27.2242 22.8914 26.541 22.969 25.8915 23.1322C25.3087 23.2792 24.771 23.5234 24.2225 23.7655C23.8203 23.9438 23.7273 24.5376 23.9308 24.8886C24.1733 25.3077 24.6396 25.3614 25.0432 25.1832C27.0739 24.2859 29.4072 24.2567 31.5882 24.4206C32.7309 24.507 33.8986 24.6199 35.0285 24.8158C35.5749 24.9104 36.1139 25.0451 36.6543 25.1662C36.9171 25.2253 37.1812 25.2648 37.4439 25.326C37.5329 25.3471 38.0153 25.3872 38.0133 25.3852C38.2107 25.6015 38.5563 25.3736 38.4883 25.1056C38.3711 24.6444 37.9513 24.2927 37.5336 24.1104ZM37.3611 14.7992C36.8099 14.5359 36.2258 14.3128 35.6349 14.1584C35.0035 13.9931 34.3486 13.9556 33.7018 13.8951C33.0577 13.8346 32.4122 13.7747 31.7668 13.7312C30.4913 13.6448 29.2078 13.6189 27.9364 13.7692C27.3125 13.8434 26.6987 13.9427 26.0956 14.1209C25.4906 14.3005 24.7494 14.5019 24.2812 14.9393C24.0292 15.1746 23.9901 15.5998 24.1592 15.8923C24.3458 16.2141 24.6942 16.3107 25.0391 16.2535C25.314 16.208 25.5681 16.0495 25.8295 15.9501C26.1057 15.8447 26.3874 15.7515 26.6724 15.6705C27.1865 15.525 27.71 15.4345 28.2416 15.3821C29.4389 15.2638 30.6449 15.293 31.8436 15.374C32.9917 15.4515 34.1512 15.5229 35.2838 15.7304C35.8485 15.8338 36.3828 16.0107 36.9278 16.1875C37.3732 16.3318 38.0578 16.6365 38.4822 16.3073C38.6204 16.1998 38.7578 16.0052 38.6803 15.8148C38.4741 15.3032 37.8334 15.025 37.3611 14.7992ZM35.5776 9.57823C34.3156 9.2762 32.9465 9.23402 31.6542 9.17416C30.3768 9.1143 29.0993 9.13743 27.8299 9.30681C26.5551 9.47687 25.3471 9.84897 24.1841 10.3986C23.4295 10.7544 23.8614 11.8543 24.583 11.885C25.1941 11.9108 25.7365 11.4952 26.3018 11.3122C26.8732 11.1272 27.4492 10.9823 28.0428 10.8966C29.2859 10.717 30.5567 10.717 31.8085 10.7734C33.0368 10.8292 34.3311 10.8374 35.5264 11.1476C36.0829 11.2918 36.6408 11.4741 37.2061 11.5761C37.7734 11.6788 38.3327 11.7965 38.7928 11.3789C38.8966 11.2843 38.8852 11.1095 38.7928 11.0136C38.3933 10.5972 37.8206 10.3904 37.2917 10.1755C36.7291 9.94624 36.1685 9.71972 35.5776 9.57823ZM24.8579 7.17763C26.1192 6.81777 27.3165 6.31031 28.6108 6.06134C29.8478 5.82325 31.1199 5.78244 32.3745 5.86203C33.5758 5.93822 34.8189 6.08446 35.9832 6.40214C36.5222 6.54908 37.0222 6.78377 37.5464 6.96879C37.8293 7.06879 38.6534 7.17219 38.7315 6.69942C38.7484 6.59942 38.7389 6.53887 38.716 6.44364C38.6385 6.11508 38.776 6.73003 38.6547 6.29603C38.5779 6.01985 38.301 5.84502 38.0773 5.6974C37.5544 5.35388 36.9831 5.10491 36.3888 4.91716C35.1282 4.51785 33.7652 4.34575 32.452 4.24167C29.67 4.02059 27.0146 4.57364 24.4078 5.52803C23.978 5.68517 23.6882 6.10963 23.8162 6.57969C23.9369 7.02457 24.4159 7.30347 24.8579 7.17763ZM21.4392 33.6019C21.4904 33.6115 21.5194 33.6169 21.5328 33.6183C21.5032 33.6135 21.4729 33.6081 21.4432 33.6019H21.4392ZM42.944 32.9618H42.946C42.9567 32.9605 42.9635 32.9591 42.9696 32.9584C42.9628 32.9598 42.9541 32.9605 42.944 32.9618ZM42.8692 23.7254C42.8604 25.4553 42.8449 27.1851 42.787 28.9137C42.7667 29.5191 42.7425 30.1245 42.698 30.7286C42.6825 30.9347 42.6603 31.1394 42.6408 31.3449C42.6387 31.3639 42.636 31.3823 42.6327 31.4007C42.63 31.4149 42.6266 31.4292 42.6239 31.4435C42.6744 31.4136 42.6967 31.4068 42.6994 31.4102C42.6866 31.419 42.6738 31.4272 42.6623 31.4333C42.6495 31.4408 42.636 31.4462 42.6219 31.4517C42.6219 31.453 42.6219 31.4537 42.6212 31.4551C42.6111 31.4592 42.601 31.4632 42.5916 31.4666C42.5821 31.4714 42.5727 31.4748 42.5646 31.4802C42.5693 31.4775 42.5727 31.4755 42.5767 31.4728C42.4056 31.5394 42.4312 31.5115 42.5754 31.4728C42.4656 31.5027 42.3571 31.5353 42.2466 31.5619C42.1833 31.5775 42.1206 31.5918 42.0566 31.6034C42.0269 31.6088 41.996 31.6115 41.9663 31.6177C41.9636 31.6177 41.9623 31.6183 41.9602 31.6183C41.6193 31.6612 41.2784 31.6959 40.9361 31.7238C39.0266 31.8809 37.1044 31.9231 35.1895 31.9421C32.9897 31.9639 30.7905 31.9619 28.5906 31.9823C26.9264 31.9979 25.2467 31.9877 23.5872 32.1333C23.1795 32.1693 22.7773 32.2387 22.3744 32.3074C20.8092 32.0761 19.2555 32.0278 17.6681 32.0013C15.5107 31.9653 13.3526 31.968 11.1945 31.9551C9.1341 31.9421 7.07371 31.917 5.01601 31.8034C4.29103 31.7632 3.56605 31.7136 2.84579 31.6217C2.86937 31.6224 2.59447 31.5775 2.52912 31.5619C2.41862 31.5353 2.31014 31.5 2.20032 31.4728C2.46511 31.5387 2.25085 31.4598 2.14911 31.4333C2.14776 31.4258 2.14574 31.419 2.1444 31.4122C2.13968 31.387 2.13631 31.3619 2.13294 31.336C2.08578 30.8551 2.05141 30.3742 2.02783 29.8919C1.95102 28.311 1.93148 26.7267 1.91666 25.1444C1.87893 21.1792 1.90857 17.2127 1.95169 13.2475C1.96787 11.7707 1.98673 10.2939 2.01301 8.81772C2.03255 7.71095 1.92272 6.4416 2.35528 5.40966C2.50688 5.04844 2.79997 4.97226 3.12743 4.95594C3.17122 5.47293 3.15842 6.00011 3.16583 6.51914C3.20019 9.10409 3.15842 11.689 3.12541 14.274C3.087 17.3147 3.10317 20.3561 3.08026 23.3968C3.06814 25.0308 3.15101 26.6988 3.01962 28.3286C2.97448 28.8905 2.91586 29.4395 2.91249 30.0034C2.91249 30.0075 2.91182 30.0116 2.91182 30.0157V30.0524C2.91182 30.5279 3.22647 30.7993 3.58492 30.8667C3.76751 30.9721 3.98649 31.0102 4.20344 30.9422C4.23646 30.9313 4.26947 30.9211 4.30248 30.9109C4.47766 30.8558 4.61175 30.7565 4.70675 30.6333C5.55638 30.1272 6.41813 29.8021 7.39914 29.5619C8.54387 29.2817 9.68188 29.1749 10.8569 29.1245C12.1196 29.0701 13.3836 28.9987 14.6476 29.0633C15.886 29.1266 17.1048 29.3402 18.3041 29.6545C19.0082 29.8388 19.7022 30.0687 20.4151 30.2184C20.7641 30.2918 21.1144 30.3612 21.4614 30.4456C21.6157 30.4837 21.766 30.551 21.9236 30.566H21.9277C22.0786 30.8231 22.3562 31.0007 22.6661 31.0007C23.0717 31.0007 23.3392 30.7476 23.4598 30.4102C23.6599 30.3626 23.8614 30.3204 24.0622 30.2796C24.7077 30.1469 25.3316 29.9606 25.9676 29.7885C27.1602 29.466 28.3635 29.1987 29.5959 29.0987C30.8646 28.996 32.1319 29.0511 33.4013 29.1028C34.5899 29.1517 35.7737 29.1966 36.9393 29.4592C37.5585 29.5993 38.1757 29.7585 38.7747 29.9735C39.2389 30.1401 39.6512 30.3687 40.0616 30.6245C40.1572 30.7517 40.2933 30.8544 40.4726 30.9109C40.5056 30.9211 40.5393 30.9313 40.5723 30.9422C40.7872 31.0095 41.0048 30.9721 41.1874 30.8673C41.5472 30.8014 41.8632 30.5299 41.8632 30.0524V30.0157C41.8632 30.0102 41.8625 30.0048 41.8625 29.9987C41.8578 29.1041 41.7399 28.2144 41.7264 27.3178C41.7116 26.3321 41.7109 25.3471 41.7029 24.3614C41.6793 21.3935 41.6665 18.4256 41.6611 15.4576C41.6564 12.7115 41.5721 9.96529 41.6018 7.21776C41.6085 6.52459 41.6092 5.83006 41.6382 5.13756C41.6409 5.0777 41.6436 5.01784 41.6483 4.95865C41.7588 4.96274 41.8673 4.97089 41.9697 4.98858C42.2392 5.03348 42.3497 5.2294 42.4427 5.47361C42.6549 6.03005 42.7283 6.662 42.7432 7.2545C42.7499 7.53612 42.7432 7.81706 42.7492 8.09869C42.7755 9.39728 42.793 10.6959 42.8092 11.9945C42.8577 15.9046 42.888 19.8153 42.8692 23.7254ZM42.5922 31.6013C42.5727 31.6932 42.4972 31.783 42.5922 31.6013V31.6013ZM2.1828 31.6006C2.27511 31.7761 2.20638 31.6938 2.1828 31.6006V31.6006ZM1.97258 31.3483C1.96382 31.3415 1.95507 31.3347 1.94631 31.3279C1.95844 31.3353 1.97124 31.3462 1.98471 31.3571C1.98 31.3537 1.97595 31.351 1.97258 31.3483ZM4.53898 3.36551C4.77817 3.24647 5.03016 3.16483 5.27878 3.06824C5.92627 2.81722 6.56231 2.56893 7.23069 2.37642C8.46437 2.02133 9.77688 1.89753 11.0469 1.73427C13.6679 1.39754 16.3468 1.51047 18.9193 2.11453C19.4745 2.24514 20.0236 2.39479 20.5788 2.52676C20.8988 2.60363 21.2842 2.64648 21.6076 2.78389C21.6009 2.81178 21.5942 2.84103 21.5874 2.87369C21.5699 2.95192 21.5638 3.03286 21.5537 3.11245C21.5483 3.15531 21.5436 3.19885 21.5382 3.2417C21.5342 3.27095 21.5315 3.3002 21.5281 3.32945C21.4992 3.56482 21.5746 2.84308 21.512 3.43422C21.5018 3.53013 21.4971 3.62741 21.4877 3.72332C21.4304 4.32535 21.4533 4.93757 21.4486 5.54231C21.4345 7.51367 21.5032 9.4864 21.5436 11.4578C21.6359 15.912 21.7296 20.3663 21.8145 24.8213C21.828 25.5478 21.8421 26.2743 21.8536 27.0008C21.8664 27.8157 21.9054 28.6382 21.8637 29.4531C21.6898 29.3579 21.5025 29.2803 21.322 29.2055C20.663 28.9313 20.0135 28.6477 19.3357 28.4218C18.0387 27.9906 16.6898 27.6987 15.3314 27.5559C13.965 27.4117 12.5973 27.4566 11.2268 27.4919C9.89613 27.5259 8.57824 27.5933 7.2718 27.8736C6.41745 28.0572 5.51797 28.2837 4.69732 28.6531C4.71888 28.3763 4.73842 28.098 4.74515 27.8191C4.75863 27.2559 4.76267 26.6913 4.76739 26.1274C4.78221 24.2308 4.77345 22.3343 4.76469 20.4377C4.74381 16.159 4.62724 11.8836 4.57334 7.6055C4.56525 6.92117 4.5565 6.23616 4.53831 5.55183C4.53426 5.37973 4.53224 5.20695 4.52011 5.03484C4.51135 4.90627 4.49451 4.77907 4.48238 4.65118C4.45543 4.3648 4.44533 4.07024 4.37997 3.7893C4.35841 3.69406 4.31731 3.60428 4.27756 3.51584C4.36245 3.4621 4.44869 3.41109 4.53898 3.36551ZM22.8932 2.93831C22.8952 2.95396 22.8979 2.973 22.9006 2.99069C22.8972 2.97368 22.8952 2.956 22.8932 2.93831ZM23.9443 2.5907C24.4152 2.47574 24.8848 2.36486 25.3538 2.24037C26.5962 1.91045 27.8865 1.67577 29.1687 1.59142C30.4974 1.50367 31.8678 1.55333 33.1931 1.67645C33.8426 1.73767 34.4847 1.85535 35.1322 1.93562C35.7737 2.01589 36.4158 2.09412 37.0464 2.24242C37.7579 2.40976 38.4492 2.64988 39.1291 2.91858C39.4356 3.04034 39.7509 3.1485 40.0535 3.27911C40.2057 3.3451 40.3459 3.42673 40.4833 3.51244C40.4624 3.55529 40.4429 3.59951 40.4274 3.64781C40.3533 3.87842 40.3378 4.14303 40.3142 4.38384C40.294 4.58928 40.2731 4.79472 40.2569 5.00015C40.2468 5.13484 40.2448 5.27089 40.2408 5.40626C40.2246 5.95726 40.2172 6.50826 40.2091 7.05926C40.1828 8.94152 40.135 10.8224 40.0946 12.704C40.0036 16.9916 39.9773 21.2846 40.0043 25.5736C40.0083 26.2722 40.013 26.9702 40.0272 27.6688C40.0333 27.9994 40.0575 28.3293 40.0831 28.6586C39.3965 28.3497 38.6574 28.1409 37.9452 27.9729C36.6651 27.6708 35.3795 27.545 34.067 27.5055C32.704 27.4647 31.3382 27.4069 29.9759 27.5083C28.6095 27.6096 27.2505 27.8702 25.9373 28.2633C25.2049 28.4824 24.5143 28.7735 23.8082 29.0613C23.7415 29.0885 23.6727 29.1157 23.602 29.1429C23.6566 27.8776 23.5643 26.5688 23.5407 25.3206C23.5117 23.7512 23.48 22.1826 23.4484 20.6139C23.6802 20.9901 24.2535 21.0928 24.6079 20.7575C24.4496 20.9078 24.61 20.7697 24.6618 20.7513C24.744 20.7221 24.7346 20.7139 24.8464 20.6799C25.0263 20.6268 25.2022 20.5772 25.3781 20.5112C25.9191 20.3085 26.4783 20.1888 27.0402 20.0582C28.2948 19.767 29.5716 19.5459 30.8626 19.5582C32.1468 19.5704 33.4108 19.882 34.6619 20.1493C35.2724 20.2799 35.8808 20.4099 36.4858 20.5615C36.7769 20.6337 37.0646 20.7194 37.3543 20.7962C37.6589 20.8772 37.8644 20.867 38.1642 20.8493C38.1642 20.8479 38.1642 20.8466 38.1635 20.8445C38.5139 20.8336 38.7248 20.3418 38.4048 20.1262C38.4041 20.1241 38.4034 20.1228 38.4027 20.1207C38.3738 20.0167 38.3219 19.9262 38.2464 19.85C38.1373 19.7378 37.983 19.6861 37.8455 19.6201C37.5214 19.4643 37.1967 19.3242 36.8544 19.2126C36.1618 18.9874 35.4664 18.7841 34.7556 18.6269C33.3131 18.3092 31.88 17.9664 30.3936 17.9922C28.9174 18.0188 27.4755 18.3208 26.041 18.6466C25.5047 18.7684 24.992 18.9562 24.4678 19.1174C24.0399 19.25 23.6107 19.4432 23.4329 19.8344C23.4295 19.6704 23.4261 19.5058 23.4228 19.3412C23.3736 16.9317 23.3237 14.5223 23.2745 12.1122C23.2314 10.0333 23.2281 7.94971 23.129 5.87291C23.0953 5.16885 23.0987 4.45187 23.0064 3.75325C22.9754 3.51448 22.9424 3.27776 22.908 3.03967C22.908 3.03763 22.9073 3.03627 22.9073 3.03423C22.91 3.04511 22.9093 3.02606 22.9026 2.93831C22.9026 2.93627 22.9019 2.93423 22.9019 2.93219C23.2011 2.71383 23.5959 2.67573 23.9443 2.5907ZM44.4647 12.6271C44.4451 11.2033 44.4229 9.77958 44.3926 8.3565C44.3851 8.01229 44.3777 7.66809 44.3535 7.32456C44.2713 6.16337 44.0119 4.50561 42.8665 3.91311C42.5821 3.76549 42.285 3.71175 41.9919 3.72808C42.0478 3.62196 42.0997 3.51448 42.1334 3.39816C42.3659 2.5805 41.4414 2.08392 40.8263 1.81114C40.1842 1.52611 39.5178 1.26013 38.8494 1.04517C37.4979 0.610493 36.1261 0.520706 34.7334 0.314591C33.2996 0.103033 31.8779 0.0220785 30.4293 0.0207181C29.0609 0.0186773 27.6648 0.135679 26.3348 0.476484C25.6853 0.643146 25.0621 0.875793 24.4247 1.07783C23.9611 1.22544 23.4935 1.32952 23.0717 1.58394C22.8036 1.74515 22.5725 1.9125 22.3885 2.13222C21.9001 1.53292 21.0814 1.31047 20.351 1.07783C19.713 0.875793 19.0904 0.642465 18.4409 0.476484C17.7523 0.30098 17.0408 0.200301 16.336 0.120032C13.5527 -0.196965 10.7188 0.170369 7.96241 0.566955C6.57242 0.766948 5.23094 1.24245 3.94876 1.81114C3.3336 2.08392 2.40986 2.5805 2.64231 3.39816C2.676 3.51516 2.7299 3.62332 2.78852 3.73012C2.47791 3.71176 2.16461 3.77026 1.86613 3.93216C1.12835 4.3335 0.765186 5.27973 0.599438 6.05998C0.482202 6.60826 0.424928 7.16539 0.399998 7.72523C0.344749 8.93336 0.348121 10.1469 0.329255 11.3564C0.267268 15.3712 0.230208 19.3868 0.249074 23.4016C0.257833 25.2002 0.274003 26.9987 0.333295 28.796C0.367658 29.8361 0.332623 30.9796 0.582593 31.9979C0.703871 32.4918 1.04211 32.8108 1.53531 32.9176C1.57843 32.9271 1.62154 32.9333 1.66467 32.9401C1.73541 32.9516 1.86545 32.9679 1.90722 32.972C2.04872 32.9931 2.19021 33.0176 2.33238 33.0271C2.4011 33.0319 2.40649 33.0312 2.39234 33.0285C2.39504 33.0285 2.39706 33.0292 2.39975 33.0292C2.51093 33.0421 2.6221 33.0598 2.73395 33.0734C2.90643 33.0945 3.07891 33.1122 3.2514 33.1271C5.1319 33.2958 7.02452 33.2843 8.90973 33.3135C11.1911 33.3496 13.4725 33.3543 15.7532 33.3802C17.5239 33.3999 19.3067 33.3979 21.0713 33.5625C21.1939 33.574 21.3166 33.589 21.4392 33.6019C21.4318 33.6006 21.4244 33.5992 21.4156 33.5972C21.425 33.5992 21.4338 33.6006 21.4432 33.6019C21.452 33.6033 21.4601 33.604 21.4688 33.6053C21.5072 33.6087 21.5672 33.623 21.5328 33.6183C21.5827 33.6271 21.6326 33.6366 21.6817 33.6455C21.7498 33.6584 21.8178 33.6713 21.8859 33.6842C22.0328 33.7652 22.2093 33.7951 22.3879 33.7747C22.5637 33.7944 22.7389 33.7645 22.8844 33.6849C22.9538 33.672 23.0239 33.6584 23.0933 33.6455C23.1701 33.6312 23.2469 33.6176 23.3237 33.604C23.164 33.6326 23.2402 33.6135 23.286 33.6074C23.3015 33.6053 23.3177 33.604 23.3332 33.6019C23.3419 33.6006 23.3507 33.5992 23.3594 33.5972C23.35 33.5992 23.3412 33.6006 23.3332 33.6019C23.4645 33.5863 23.5959 33.5727 23.728 33.5604C24.0757 33.5285 24.424 33.506 24.7717 33.487C25.6563 33.4394 26.541 33.4183 27.4263 33.4026C29.6781 33.3625 31.9298 33.3584 34.1822 33.3353C36.2494 33.3135 38.3212 33.3128 40.3863 33.2054C40.7751 33.1849 41.1638 33.1598 41.5513 33.1251C41.7069 33.1108 41.8625 33.0952 42.0175 33.0761C42.1368 33.0618 42.256 33.0435 42.376 33.0292C42.3814 33.0285 42.3854 33.0285 42.3901 33.0278C42.3719 33.0305 42.3719 33.0319 42.4427 33.0271C42.5815 33.0176 42.7189 32.9952 42.8564 32.9748H42.8584C42.9426 32.9639 43.0268 32.9537 43.111 32.9401C43.1582 32.9326 43.206 32.9258 43.2532 32.9149C43.5012 32.8591 43.7343 32.7523 43.9115 32.5639C44.2127 32.2428 44.243 31.7578 44.2908 31.3435C44.3508 30.8279 44.3784 30.3088 44.4027 29.7905C44.4808 28.1402 44.501 26.4872 44.5165 24.8356C44.5536 20.7656 44.5213 16.6957 44.4647 12.6271ZM42.5916 31.4666C42.6017 31.4619 42.6111 31.4564 42.6219 31.4517C42.6226 31.4489 42.6232 31.4462 42.6239 31.4435C42.6104 31.451 42.5943 31.4612 42.5767 31.4728C42.5815 31.4707 42.5862 31.4687 42.5916 31.4666ZM23.3237 33.604C23.3264 33.6033 23.3298 33.6026 23.3332 33.6019C23.3298 33.6026 23.3264 33.6033 23.3237 33.604Z" fill="#2C160A"/>
</svg>
