<svg width="59" height="50" viewBox="0 0 59 50" fill="none" xmlns="http://www.w3.org/2000/svg">
<path d="M49.7154 40.8206C49.7063 40.829 49.6853 40.8523 49.6689 40.8699C49.5369 41.016 49.6015 40.9546 49.434 41.0606C49.2747 41.162 49.0643 41.2196 48.9587 41.2169C48.8467 41.2141 48.7693 41.1815 48.7247 41.1239C48.6473 41.0225 48.5808 40.8876 48.5508 40.7481C48.9897 40.6691 49.4413 40.4644 49.7927 40.6932C49.7645 40.7332 49.7418 40.7778 49.7154 40.8206ZM49.2018 38.8768C49.0634 38.8908 48.915 38.915 48.7657 38.9494C48.091 38.9438 47.3371 39.4739 47.0922 40.0905C46.6542 41.1927 47.2743 42.5311 48.4079 42.8529C50.1023 43.3337 52.5497 41.1508 51.0101 39.5176C50.5439 39.0237 49.861 38.8099 49.2018 38.8768ZM47.3417 34.6255C47.2998 34.526 47.2971 34.4097 47.3198 34.2925C47.3835 34.2739 47.4473 34.2544 47.511 34.2395C47.6467 34.207 48.2066 34.008 48.3387 34.154C48.4962 34.3288 48.2958 34.5818 48.1383 34.6729C47.959 34.7762 47.4318 34.8432 47.3417 34.6255ZM48.6546 36.1889C49.8355 35.7044 50.4592 34.0498 49.4668 33.0389C48.9888 32.5515 48.2895 32.5208 47.6604 32.6333C47.1905 32.717 46.5122 33.0565 46.311 33.5625C46.0415 33.8861 45.873 34.3 45.8712 34.7269C45.8648 36.1983 47.5265 36.6502 48.6546 36.1889ZM14.267 41.3191C13.2828 42.2222 11.7532 42.6584 10.453 42.4864C8.77315 42.265 7.391 41.0876 6.98492 39.4032C6.61253 37.8584 6.78098 36.0002 7.62228 34.6404C8.42169 33.3495 9.93127 32.572 11.4099 32.5087C12.1656 32.4771 12.9386 32.6203 13.5195 33.1486C13.7772 33.383 14.0331 33.6936 14.105 34.0489C14.1259 34.1493 14.1059 34.2395 14.0977 34.3316C13.963 34.2628 13.7781 34.1474 13.7162 34.1019C13.3611 33.8396 13.0506 33.515 12.6992 33.2462C11.8943 32.6296 10.9574 32.4836 10.0442 32.9579C9.12457 33.435 8.40529 34.3316 8.04746 35.31C7.85353 35.8402 7.83441 36.4401 7.91453 37.0279C7.65504 38.5485 8.03927 40.165 9.42504 41.028C10.2254 41.5266 11.1732 41.5182 11.9845 41.0522C12.6865 40.6486 13.1599 39.9139 13.8737 39.54C14.3508 39.2898 14.8971 39.4098 14.9472 40.0152C14.9891 40.5323 14.6485 40.9685 14.267 41.3191ZM14.2506 34.3763C14.2497 34.3819 14.2434 34.3837 14.2343 34.3837C14.2443 34.3809 14.2497 34.3781 14.2506 34.3763ZM14.0504 34.5158C13.9948 34.4758 14.0303 34.446 14.0859 34.4246C14.0786 34.4656 14.0686 34.5288 14.0504 34.5158ZM15.5864 37.9245C14.5712 37.3274 13.4075 37.5989 12.5152 38.2881C11.9189 38.7494 11.0631 40.0319 10.2345 39.4153C9.24571 38.6787 9.42503 37.3766 9.3613 36.2801C9.42139 36.0253 9.51247 35.776 9.66361 35.5398C10.0387 34.9566 10.8445 34.1577 11.5146 34.6943C12.2039 35.2449 12.6846 35.936 13.5514 36.2327C14.5238 36.5656 15.5081 36.1517 15.8877 35.1621C16.7172 32.9988 14.5939 30.9536 12.6537 30.6086C10.6797 30.2589 8.53276 30.9546 7.05594 32.3246C5.56455 33.7066 4.99276 35.7034 4.9527 37.7031C4.90718 40.004 5.6993 42.1311 7.62772 43.4276C9.27117 44.5316 11.4035 44.7111 13.2473 44.0591C14.7432 43.5299 16.4404 42.4129 16.7627 40.7053C16.9658 39.6246 16.5415 38.4862 15.5864 37.9245ZM54.4262 40.4523C54.4262 40.9964 54.4208 41.5405 54.428 42.0846C54.4335 42.5143 54.449 42.9542 54.2714 43.3569C53.9737 44.0312 53.2144 44.2888 52.5479 44.3846C52.2729 44.4246 51.9925 44.4507 51.7121 44.4702C52.7828 43.8377 53.6186 42.8621 53.8226 41.5321C54.0211 40.2366 53.6696 38.8833 52.8547 37.8677C52.578 37.5226 52.1646 37.1915 51.6966 36.9451C52.2256 36.348 52.6198 35.6346 52.7418 34.8794C52.9858 33.368 52.3357 31.8419 50.99 31.1229C49.7836 30.4784 48.2767 30.2105 46.9383 30.072C46.9265 30.071 46.9156 30.0701 46.9046 30.0691C47.6103 30.0236 48.315 29.9752 49.0224 29.9278C50.1706 29.8506 51.3178 29.8422 52.4669 29.7855C53.1306 29.7529 53.9082 29.7473 54.5838 29.5334C54.3024 33.1541 54.4299 36.8242 54.4262 40.4523ZM49.0898 43.1746C47.9472 43.395 46.3765 43.4099 45.3832 42.6222C44.1331 41.6307 44.3325 39.5307 44.4108 38.1067C44.4745 36.9358 44.6065 35.7434 44.5146 34.5716C44.4436 33.6861 44.398 32.731 44.1686 31.8539C44.9125 31.9655 45.7173 31.8912 46.4403 31.9637C47.4828 32.0679 48.5545 32.3255 49.5378 32.6993C50.2944 32.9877 50.7023 33.4816 50.6495 34.34C50.5931 35.2524 49.6097 36.042 48.9287 36.5117C47.9626 37.1776 48.6027 38.4945 49.5815 38.3764C49.8209 38.475 50.0695 38.529 50.3563 38.6015C50.7351 38.6973 51.0929 38.8555 51.3506 39.1642C51.8013 39.7046 51.9825 40.5305 51.814 41.2169C51.5099 42.4557 50.228 42.956 49.0898 43.1746ZM42.9212 45.1705C42.6135 45.191 42.3012 45.2217 41.9934 45.2124C41.8833 45.2087 41.8141 45.2115 41.713 45.1817C41.6821 45.1724 41.6547 45.1613 41.6383 45.1538C41.703 44.4321 41.591 43.6555 41.5828 42.9561C41.5692 41.8893 41.5692 40.8225 41.5473 39.7557C41.5036 37.6008 41.3652 35.4533 41.3907 33.2956C41.3998 32.4901 41.3215 31.587 41.4572 30.7899C41.4936 30.5807 41.5227 30.4802 41.6657 30.4058C41.9953 30.2337 42.5498 30.2896 42.9058 30.2775C43.3665 30.2626 43.8262 30.2421 44.2851 30.2207C43.7944 30.3342 43.3127 30.5621 43.1725 31.095C43.1716 31.0969 43.1698 31.0978 43.1689 31.0997C42.5106 32.1581 42.5616 33.6685 42.5424 34.8841C42.5233 36.1331 42.3312 37.3664 42.2793 38.6127C42.1855 40.8532 42.4969 43.3625 44.5474 44.6218C44.7786 44.7641 45.0226 44.8832 45.273 44.9845C44.49 45.0524 43.7061 45.1175 42.9212 45.1705ZM52.2583 27.8156C51.1785 27.8482 50.1014 27.8454 49.0224 27.917C47.9317 27.9886 46.8436 28.0816 45.7528 28.1542C44.6757 28.2267 43.5968 28.2099 42.5206 28.2741C41.5527 28.3309 40.513 28.4406 39.923 29.3307C39.4732 30.0097 39.4486 30.8448 39.4413 31.6363C39.4195 33.9075 39.4076 36.162 39.5114 38.4332C39.5697 39.7185 39.5697 41.0076 39.5852 42.2939C39.597 43.2946 39.4878 44.4367 39.7236 45.4384C39.7627 45.6504 39.831 45.8569 39.922 46.0485C39.9239 46.0522 39.9248 46.056 39.9266 46.0597C39.9275 46.0625 39.9293 46.0653 39.9312 46.068C40.0395 46.2922 40.1788 46.4959 40.3445 46.6559C40.8325 47.1302 41.4781 47.2753 42.1309 47.2688C43.0296 47.2595 43.9337 47.1562 44.8287 47.0827C47.0476 46.8995 49.2665 46.6512 51.4899 46.5293C53.2034 46.4354 55.1319 46.1546 56.0178 44.4228C56.474 43.5309 56.4621 42.5636 56.4621 41.5907C56.4621 39.5613 56.4867 37.532 56.4748 35.5026C56.4621 33.29 56.5231 31.068 56.2691 28.8666C56.2245 28.4806 56.0442 28.1895 55.6709 28.0649C55.6099 28.0444 55.5307 28.0332 55.4515 28.0323C54.439 27.624 53.3209 27.7831 52.2583 27.8156ZM56.8673 29.1326C56.8117 30.5035 56.839 31.8819 56.8281 33.2546C56.8062 35.9899 56.8017 38.7261 56.799 41.4624C56.7981 42.1441 56.7899 42.8268 56.8008 43.5095C56.8117 44.167 56.7981 44.8218 56.473 45.4096C55.9896 46.2847 54.9142 46.6149 53.9992 46.7293C52.892 46.867 51.7539 46.8781 50.6413 46.9702C49.139 47.0948 47.6385 47.2278 46.1371 47.3571C44.6038 47.4892 43.0696 47.625 41.5336 47.7273C41.1239 47.7552 40.7105 47.7896 40.299 47.784C39.9876 47.7803 39.7245 47.7552 39.556 47.5617C39.5406 47.5441 39.5278 47.5245 39.5151 47.505C39.5242 47.1692 39.4887 46.8316 39.4786 46.4782C39.4577 45.7369 39.4459 44.9966 39.4377 44.2554C39.4222 42.8482 39.4204 41.4401 39.3849 40.0329C39.3157 37.3376 39.1554 34.6534 39.1955 31.9553C39.2046 31.3322 39.2337 30.709 39.2383 30.0859C39.2419 29.6608 39.2192 29.2256 39.3093 28.8089C39.374 28.5039 39.4459 28.3132 39.7336 28.1979C40.269 27.984 40.9746 28.0305 41.5391 28.0137C44.1941 27.9337 46.83 27.7384 49.4813 27.5645C50.9445 27.4678 52.4068 27.4594 53.8699 27.3924C54.8906 27.345 56.0196 27.3441 56.9902 26.9674C56.9511 27.6891 56.8964 28.4099 56.8673 29.1326ZM38.4261 24.5874C38.407 24.5957 38.3888 24.6041 38.3724 24.6079C38.2504 24.6404 38.1302 24.6748 38.0064 24.7018C37.8743 24.7306 37.7414 24.7557 37.6076 24.779C37.522 24.7938 37.4355 24.8069 37.349 24.8208C37.318 24.8255 37.2862 24.8301 37.2552 24.8348C36.8319 24.8878 36.4084 24.9324 35.9841 24.9696C34.9325 25.0608 33.8782 25.1156 32.8239 25.1547C30.4101 25.2449 27.9919 25.2533 25.5781 25.1771C24.5202 25.1445 23.4622 25.0942 22.4078 25.004C22.0136 24.9696 21.6211 24.9296 21.2296 24.8785C21.2023 24.8738 20.8973 24.8283 20.8272 24.8162C20.6706 24.7883 20.514 24.7585 20.3601 24.7213C20.2445 24.6934 20.1315 24.659 20.0168 24.6264C19.9922 24.5818 19.9686 24.5372 19.944 24.4916C19.9686 24.5242 19.8511 24.2507 19.8256 24.1651C19.7756 23.9903 19.7336 23.8127 19.6972 23.6341C19.6599 23.4574 19.629 23.2788 19.6007 23.1002C19.5962 23.0714 19.5734 22.9096 19.5652 22.8547C19.5589 22.7952 19.5397 22.6436 19.5352 22.5961C19.283 20.3184 19.303 18.0044 19.3312 15.7155C19.3594 13.4452 19.4623 11.1769 19.445 8.90566C19.4396 8.17649 19.4323 7.44453 19.3686 6.71629C19.3376 6.35729 19.2575 6.03266 19.2675 5.70528C19.2802 5.2635 19.4268 5.24772 19.8675 5.20029C20.1397 5.17146 20.4065 5.15934 20.6715 5.13609C20.7479 5.14911 20.8208 5.16118 20.7179 5.1463C20.8008 5.15839 20.8836 5.17049 20.9674 5.18258C20.981 5.18537 21.2214 5.21885 21.1431 5.20676C21.2269 5.21885 21.2287 5.21703 21.3334 5.23191C21.7131 5.28399 22.0882 5.34255 22.4716 5.36673C24.2807 5.47089 26.0944 5.55832 27.9072 5.59924C30.9191 5.669 33.9447 5.80386 36.9575 5.69132C37.6076 5.66714 38.2768 5.57042 38.9269 5.61599C39.0699 5.62622 39.1992 5.6476 39.3394 5.69132C39.3803 5.70341 39.4686 5.74717 39.516 5.7667C39.5406 5.80763 39.5998 5.88291 39.608 5.88756C39.6116 5.92104 39.6699 6.2168 39.6671 6.20006C39.7436 6.83901 39.6298 7.75512 39.628 8.47684C39.627 9.01442 39.658 9.53715 39.7327 10.0691C39.7481 10.177 39.7691 10.2737 39.7928 10.3677C39.7937 10.9443 39.7937 11.5219 39.7937 12.0985C39.7928 14.6032 39.76 17.1097 39.8201 19.6134C39.8501 20.8607 39.9994 22.2064 39.495 23.3857C39.4012 23.6043 39.2711 23.8275 39.1245 24.0126C38.9196 24.2712 38.6628 24.3865 38.4261 24.5874ZM37.3308 38.4862C37.4127 40.111 37.42 41.7395 37.4382 43.3662C37.4474 44.2181 37.4583 45.071 37.4792 45.922C37.4838 46.1294 37.4874 46.3377 37.4929 46.5461C36.7226 45.9174 35.955 45.2803 35.1984 44.6339C34.5246 44.0582 33.87 43.4723 33.2809 42.8054C33.2081 42.7226 33.1416 42.6306 33.0661 42.5506C33.0251 42.4771 32.985 42.4259 32.945 42.3329C32.7228 41.8205 32.8502 41.2085 32.8757 40.6681C32.944 39.2489 32.914 37.8203 32.9167 36.4001C32.9195 34.6022 32.9549 32.797 32.8821 31.0011C32.8466 30.1287 32.8894 29.26 32.8712 28.3876C32.863 27.9942 32.8703 27.6026 32.8075 27.2195C34.2105 27.1776 35.6145 27.0995 37.0057 26.933C37.135 27.0679 37.2825 27.1915 37.4346 27.3217C37.5129 27.3887 37.5903 27.4566 37.6676 27.5236C37.2707 28.2983 37.2616 29.2209 37.2534 30.0859C37.2279 32.8919 37.1906 35.6812 37.3308 38.4862ZM26.048 41.7498C26.0379 41.9544 26.0124 42.1441 25.9305 42.3329C25.8877 42.4315 25.8449 42.4826 25.8012 42.5645C25.7967 42.5691 25.793 42.5738 25.7875 42.5794C25.2713 43.1588 24.7432 43.7029 24.1605 44.2154C23.3028 44.9678 22.4169 45.6895 21.5383 46.4177C21.5028 46.4475 21.4654 46.4782 21.429 46.508C21.4691 45.6737 21.4199 44.8171 21.429 44.0331C21.4481 42.5515 21.4554 41.0699 21.4991 39.5883C21.5819 36.7498 21.7231 33.9261 21.6484 31.0848C21.6211 30.0422 21.7286 28.8684 21.3598 27.8761C21.2733 27.6436 21.1659 27.4399 21.0411 27.2613C21.2241 27.1701 21.3962 27.065 21.5638 26.9469C22.131 27.013 22.7001 27.0604 23.2682 27.0995C24.1951 27.1636 25.1229 27.2073 26.0516 27.2352C25.9915 27.6659 26.0088 28.1253 26.0024 28.4565C25.987 29.2442 26.0352 30.0301 26.0006 30.8188C25.925 32.5468 25.9569 34.2842 25.9578 36.0141C25.9596 37.5161 25.9369 39.0238 25.9933 40.5249C26.0088 40.9322 26.0689 41.3424 26.048 41.7498ZM19.9859 24.6181C19.9567 24.5902 19.9668 24.5967 19.9895 24.619C19.9886 24.619 19.9877 24.619 19.9859 24.6181ZM19.5215 39.0321C19.4559 40.5872 19.4578 42.1441 19.4432 43.7001C19.4359 44.4776 19.4268 45.2561 19.4077 46.0336C19.3959 46.5229 19.3303 47.0232 19.354 47.5115C19.1883 47.7384 18.9607 47.7756 18.6292 47.7831C18.3242 47.7896 18.0192 47.7691 17.7151 47.7515C16.4186 47.6743 15.1239 47.5599 13.8291 47.4501C11.2606 47.2325 8.69026 46.9433 6.11538 46.813C5.20398 46.7675 4.23524 46.7479 3.40396 46.3136C2.52898 45.8578 2.11107 45.0906 2.07101 44.0982C2.04551 43.4574 2.07736 42.8073 2.07645 42.1655C2.07554 39.5437 2.07645 36.9209 2.0555 34.2991C2.04276 32.7329 2.03456 31.1676 2.01999 29.6023C2.0118 28.7206 1.93442 27.8444 1.88434 26.9664C2.69832 27.278 3.617 27.3181 4.48834 27.3664C5.80401 27.439 7.11966 27.4343 8.43441 27.5059C11.0539 27.6501 13.6752 27.9896 16.2993 27.9989C16.9184 28.0016 17.5384 28.0072 18.1558 28.0537C18.4954 28.0797 19.1027 28.0593 19.3649 28.3076C19.5843 28.515 19.6044 28.968 19.6217 29.2489C19.6545 29.7864 19.6417 30.3286 19.6572 30.8671C19.7319 33.5932 19.6362 36.3089 19.5215 39.0321ZM5.1885 24.9334C5.89777 24.566 6.61162 24.1977 7.2954 23.7829C7.84534 23.449 8.33428 23.1346 8.98346 23.0677C10.5013 22.9105 12.0709 22.9253 13.5933 22.9988C14.3353 23.0342 15.0692 23.1132 15.8131 23.1272C16.1982 23.1346 16.5724 23.1709 16.9557 23.1978C17.1397 23.2109 17.4365 23.1821 17.6159 23.1932C17.6232 23.197 17.6304 23.2006 17.6377 23.2044C17.6769 23.4908 17.7215 23.7763 17.7752 24.06C17.91 24.7603 18.1157 25.5528 18.6228 26.0755C18.5864 26.0708 18.55 26.0671 18.5127 26.0634C17.1825 25.9378 15.8413 25.9899 14.5083 25.9127C13.1217 25.8327 11.7377 25.7183 10.3528 25.6188C8.80953 25.5091 7.27445 25.4709 5.72844 25.4356C5.25043 25.4244 4.77154 25.3974 4.29262 25.377C4.59308 25.2338 4.89167 25.0868 5.1885 24.9334ZM20.5003 3.02951C20.8627 2.52728 20.9747 2.41195 21.582 2.45194C21.7595 2.46311 21.9298 2.47147 22.1073 2.47054C23.4549 2.46217 24.8024 2.43705 26.1499 2.39799C28.0492 2.34311 29.9485 2.28732 31.8478 2.23524C33.1161 2.1999 34.3881 2.13385 35.6573 2.18128C36.0416 2.19616 36.4904 2.19432 36.8482 2.33941C36.9092 2.36359 36.9775 2.40731 37.0422 2.44451C37.1733 2.51891 37.1523 2.51891 37.1706 2.53287C37.4601 2.76631 37.7296 3.03043 37.9872 3.30387C37.5001 3.32712 37.0121 3.37178 36.5259 3.37922C35.9223 3.38852 35.3177 3.38573 34.714 3.38294C30.7944 3.36806 26.8528 3.33084 22.9386 3.59312C22.0545 3.65264 21.328 3.73169 20.5941 3.91305C20.4894 3.9391 20.3829 3.96977 20.2791 4.00326C20.1416 3.97907 20.0041 3.95955 19.8666 3.94745C20.0797 3.64426 20.2827 3.33085 20.5003 3.02951ZM41.6365 23.1978C41.743 23.2006 41.845 23.2025 41.9188 23.1978C42.2702 23.1755 42.6117 23.1365 42.965 23.129C43.707 23.1151 44.4381 23.0416 45.1774 23.0035C46.7326 22.9244 48.3423 22.9021 49.892 23.0677C50.5439 23.1374 51.0274 23.4499 51.5791 23.7829C52.2347 24.1772 52.9148 24.5325 53.5931 24.885C53.9255 25.058 54.2596 25.2235 54.5965 25.3844C54.3206 25.3956 54.0438 25.4086 53.767 25.4179C52.3721 25.4644 50.9818 25.4579 49.5879 25.5463C48.2021 25.6346 46.8181 25.7509 45.4324 25.8448C44.0639 25.9387 42.7009 25.9471 41.3315 25.9992C40.8599 26.0169 40.3573 26.0336 39.872 26.1099C40.8143 25.4244 41.3679 24.3418 41.6365 23.1978ZM58.8494 34.9417C58.8385 32.1106 58.8267 29.2991 58.6436 26.4763C58.6282 26.2382 58.5326 25.9545 58.3286 25.8085H58.3268H58.3286C58.3505 25.816 58.3559 25.8151 58.3232 25.7974C58.3122 25.7611 58.2977 25.7267 58.2776 25.6951C57.8716 25.0226 56.8955 24.659 56.239 24.2861C55.5079 23.8703 54.7731 23.4611 54.0465 23.037C53.3291 22.6175 52.6326 22.1525 51.9069 21.7516C51.194 21.3582 50.4856 21.2029 49.6844 21.1387C48.0282 21.0057 46.3165 20.9936 44.6612 21.1304C43.8754 21.1955 43.0796 21.175 42.2975 21.255C42.1519 21.2698 42.0025 21.2745 41.8523 21.2773C41.8669 20.4551 41.8113 19.6311 41.7977 18.808C41.7758 17.4799 41.7731 16.1517 41.7713 14.8236C41.7685 12.5273 41.7977 10.2281 41.7521 7.93183C41.815 7.41193 41.8869 6.89115 41.9015 6.37217C41.9133 5.92575 41.856 5.47183 41.7066 5.05423C41.6393 4.73057 41.4489 4.44876 41.2523 4.16788C40.909 3.6796 40.5394 3.209 40.1552 2.75513C39.5014 1.98225 38.7503 1.0708 37.8443 0.599261C36.8755 0.0942379 35.6391 0.13424 34.5711 0.155631C33.9355 0.168652 33.3 0.186325 32.6645 0.203996C29.1691 0.298862 25.6756 0.399287 22.1829 0.541586C21.1877 0.581579 20.198 0.743408 19.527 1.56372C18.8951 2.3366 18.2368 3.44061 18.1922 4.49809C17.5622 5.22633 17.7424 6.24471 17.716 7.13943C17.6559 9.19114 17.5175 11.2401 17.4583 13.2918C17.3846 15.8494 17.3199 18.4155 17.4483 20.9723C17.4538 21.0801 17.4592 21.188 17.4656 21.2968C17.2143 21.2903 16.9567 21.2968 16.7008 21.2717C15.9087 21.1945 15.1111 21.2094 14.3171 21.1387C12.6309 20.9862 10.8773 21.002 9.19102 21.1387C8.38888 21.2038 7.68236 21.3573 6.96853 21.7516C6.27291 22.1357 5.60554 22.5812 4.91903 22.9839C4.19336 23.409 3.45764 23.8173 2.72743 24.2339C2.04729 24.6218 1.01755 24.9994 0.596901 25.6951C0.577781 25.7276 0.562313 25.762 0.551387 25.7992C0.527715 25.8122 0.526769 25.8169 0.538606 25.8151C0.541337 25.8123 0.544988 25.8104 0.54772 25.8085C0.54772 25.8095 0.547741 25.8113 0.546831 25.8123C0.544099 25.8132 0.541337 25.8141 0.538606 25.8151C0.339208 25.962 0.24636 26.241 0.231792 26.4763C-0.107822 31.694 0.0323737 36.9377 0.0405681 42.1655C0.0414786 42.9347 -0.0140562 43.7429 0.0687988 44.5074C0.206283 45.7732 0.714367 46.8939 1.72502 47.6715C2.7475 48.4574 3.96757 48.7317 5.22223 48.834C7.99013 49.0582 10.7608 49.2545 13.5287 49.487C15.02 49.6125 16.5132 49.752 18.0083 49.8255C18.6829 49.858 19.3667 49.8516 19.985 49.5307C20.1753 49.4321 20.3446 49.3065 20.4976 49.1624C22.1365 48.4593 23.6215 47.2809 24.9781 46.1499C25.6692 45.5751 26.3603 44.991 27.0249 44.3846C27.8425 43.6378 28.2541 42.7273 28.2477 41.5805C28.2404 40.0654 28.1676 38.5485 28.1649 37.0316C28.1621 35.1305 28.1949 33.2295 28.1867 31.3284C28.1831 30.483 28.1621 29.6413 28.0711 28.7996C28.0173 28.303 27.991 27.7691 27.8899 27.2715C28.8313 27.2808 29.7728 27.2771 30.7133 27.2632C30.7998 27.2622 30.8854 27.2603 30.9719 27.2594C30.8754 27.7551 30.8581 28.303 30.8044 28.7996C30.7215 29.5585 30.6969 30.3165 30.6906 31.0792C30.6751 32.8946 30.7115 34.712 30.7106 36.5275C30.7097 37.9737 30.7525 39.4339 30.6623 40.8774C30.5849 42.1125 30.7051 43.2741 31.6238 44.1726C32.1874 44.7232 32.8065 45.2226 33.4038 45.7341C34.9025 47.0176 36.5405 48.3774 38.3733 49.1605C38.4543 49.2386 38.5399 49.3121 38.6319 49.3772C39.2028 49.779 39.8948 49.8571 40.5704 49.8376C41.7513 49.8041 42.933 49.686 44.1094 49.5902C46.9529 49.3577 49.7973 49.0405 52.6462 48.8898C54.7668 48.7764 57.2925 48.4601 58.3341 46.2503C58.8576 45.1389 58.8339 43.9689 58.8339 42.7747C58.8348 40.164 58.8604 37.5524 58.8494 34.9417ZM17.3509 38.8731C17.3108 40.0868 17.3099 41.3006 17.2972 42.5152C17.2917 43.103 17.2835 43.6917 17.2681 44.2805C17.2599 44.5976 17.2407 44.8794 17.2525 45.1566C17.2161 45.1882 17.1679 45.19 17.0477 45.2068C16.79 45.2421 16.5059 45.204 16.2474 45.1891C15.2613 45.1315 14.2762 45.0422 13.291 44.9576C11.2952 44.7855 9.29759 44.5576 7.29724 44.4544C6.60617 44.4191 5.85591 44.4079 5.24223 44.0377C4.61855 43.662 4.44008 43.0593 4.44099 42.3487C4.44191 41.9041 4.44922 41.4596 4.44922 41.015C4.44831 38.9838 4.45193 36.9525 4.43099 34.9213C4.41369 33.1179 4.41824 31.3229 4.28895 29.527C4.83525 29.6981 5.4444 29.7306 5.99251 29.7632C6.9977 29.8218 8.00379 29.8209 9.00897 29.8757C11.0685 29.9883 13.128 30.2542 15.1912 30.2654C15.6419 30.2672 16.0944 30.2728 16.5442 30.3082C16.7609 30.324 17.1788 30.3109 17.3117 30.4588C17.4492 30.6123 17.4365 30.9667 17.4438 31.1536C17.4602 31.5758 17.4583 31.9991 17.4683 32.4213C17.5221 34.5762 17.4228 36.72 17.3509 38.8731ZM19.2347 29.9166C18.8923 28.914 18.0693 28.4536 17.0759 28.3364C16.0434 28.2137 15.0018 28.263 13.9657 28.2062C12.8749 28.1467 11.7859 28.0556 10.6961 27.9756C9.47329 27.8863 8.25779 27.8519 7.03227 27.8258C5.8459 27.8007 4.55388 27.5757 3.42213 28.0333C3.42031 28.0333 3.41945 28.0342 3.41763 28.0351C3.34661 28.0454 3.27559 28.0546 3.20457 28.0649C2.82671 28.1914 2.65004 28.4825 2.60634 28.8666C2.38782 30.763 2.41789 32.6659 2.40605 34.5725C2.3924 36.7544 2.40971 38.9354 2.41244 41.1164C2.41335 41.7396 2.37509 42.3841 2.44884 43.0016C2.71653 45.231 4.48835 46.2903 6.53423 46.4791C8.72306 46.681 10.9219 46.8177 13.1125 47.0037C14.2479 47.1004 15.3861 47.2139 16.526 47.2613C17.106 47.2855 17.6878 47.238 18.1949 46.919C18.4699 46.746 18.7039 46.4856 18.876 46.1824C18.9042 46.1443 18.9288 46.1043 18.9488 46.0597C18.9689 46.0141 18.9861 45.9676 19.0043 45.9202C19.0827 45.736 19.1382 45.5417 19.1692 45.3454C19.3422 44.5028 19.273 43.5811 19.2848 42.7356C19.3003 41.5954 19.3058 40.4551 19.3349 39.3149C19.3923 37.0139 19.5152 34.7241 19.4541 32.4213C19.4332 31.601 19.5033 30.7025 19.2347 29.9166ZM37.2935 21.3285C37.2225 21.5628 37.1232 21.7916 36.9739 21.9869C36.8473 22.1534 36.6069 22.2455 36.4859 22.3915C36.3994 22.4101 36.312 22.4455 36.2273 22.465C36.0397 22.5078 35.8494 22.5384 35.6591 22.5673C35.6637 22.5654 35.5571 22.5793 35.457 22.5924C35.9386 22.2492 36.25 21.68 36.2409 20.9908C36.2255 19.9064 35.6337 18.9838 35.2139 18.0258C34.6221 16.6735 34.0639 15.2077 33.484 13.7587C33.0214 12.6017 32.619 11.3591 31.9479 10.3063C31.3206 9.32231 30.2435 8.34575 29.0034 8.79218C28.5163 8.96796 28.1002 9.37994 27.8453 9.86915C27.5475 10.0756 27.2981 10.2431 27.0787 10.5649C26.7991 10.976 26.5733 11.4121 26.3475 11.853C25.8895 12.7468 25.5253 13.6824 25.1575 14.619C24.6321 15.9583 23.9028 17.2297 23.4895 18.6117C23.2145 19.5279 22.965 20.6328 23.2992 21.5647C23.5341 22.2176 24.0266 22.6008 24.5948 22.7403C24.4746 22.7319 24.3535 22.7235 24.2334 22.7142C23.9183 22.6882 23.6042 22.6556 23.2901 22.6203C23.2682 22.6175 23.2027 22.6082 23.1626 22.6026C23.1234 22.5971 23.0852 22.5914 23.0461 22.5849C22.914 22.5617 22.7811 22.5394 22.65 22.5096C22.5635 22.491 22.4797 22.4659 22.3941 22.4455C22.3859 22.4306 22.3778 22.4166 22.3696 22.4036C22.3541 22.3525 22.3359 22.3022 22.3204 22.252C22.2885 22.145 22.2612 22.0381 22.2366 21.9293C22.2029 21.7823 22.1756 21.6345 22.1501 21.4857C22.1374 21.4047 22.1246 21.3238 22.1128 21.2429C22.1128 21.2382 22.1119 21.2364 22.1119 21.2326C22.1055 21.1796 22.0991 21.1266 22.0928 21.0746C21.9107 19.3307 21.9088 17.571 21.9271 15.8188C21.948 13.8759 22.0372 11.9348 21.9962 9.99285C21.9835 9.39296 21.9416 8.80149 21.8651 8.20811C21.8305 7.93374 21.7249 7.74304 21.9881 7.67701C22.2075 7.62213 22.4287 7.6026 22.65 7.58028C23.1107 7.69467 23.5951 7.7821 24.0658 7.82488C25.4762 7.95137 26.9002 8.02112 28.3151 8.06018C30.6896 8.12807 33.0706 8.23504 35.4452 8.14947C35.9523 8.12994 36.4877 8.03326 36.993 8.09185C37.0995 8.10394 37.2352 8.17648 37.2825 8.18206C37.3017 8.26111 37.3044 8.35132 37.308 8.42201C37.3445 9.08514 37.2707 9.75294 37.2944 10.417C37.308 10.8067 37.3344 11.1601 37.4264 11.48V12.7802C37.4255 14.7231 37.4037 16.666 37.4428 18.608C37.461 19.5176 37.5584 20.444 37.2935 21.3285ZM31.9552 18.0658C31.957 17.6268 31.7094 17.185 31.2159 17.0325C31.0584 16.9841 30.8863 16.9637 30.7097 16.9572C31.225 16.6847 31.6211 16.1992 31.6493 15.5751C31.673 15.0449 31.4399 14.6051 31.1176 14.2079C30.7315 13.7336 30.3592 13.1709 29.7582 12.9747C29.3139 12.8287 28.8186 13.1272 28.6702 13.5615C28.3315 13.8945 28.1084 14.3985 27.9755 14.8199C27.818 15.3165 27.7751 15.9266 28.0474 16.3917C28.2359 16.7135 28.5218 16.9311 28.8477 17.0604C28.5555 17.1152 28.2805 17.2194 28.0438 17.4343C28.0356 17.4417 28.0283 17.4501 28.0201 17.4585C27.8608 17.4529 27.6914 17.4873 27.5184 17.5626C27.1141 17.7394 26.9912 18.1513 26.8091 18.5206C26.6416 18.86 26.4613 19.1949 26.2601 19.5148C26.0079 19.9176 25.5936 20.4728 25.2513 20.6337C25.2476 20.5816 25.244 20.5295 25.244 20.5109C25.2467 20.4319 25.2522 20.3538 25.2594 20.2747C25.2576 20.3277 25.3004 20.0273 25.3077 19.9929C25.3314 19.8757 25.3578 19.7594 25.3869 19.6441C25.7156 18.3206 26.3757 17.1664 26.8692 15.8653C27.2179 14.9464 27.5757 14.0182 27.8744 13.0807C28.0237 12.6119 28.1794 12.1413 28.3087 11.6651C28.3797 11.401 28.4608 11.1238 28.4853 10.8504C28.4881 10.8187 28.4899 10.7871 28.4908 10.7583C28.7548 10.522 29.038 10.3147 29.3394 10.3184C29.893 10.3249 30.2526 11.1926 30.4593 11.6251C30.869 12.478 31.0976 13.1077 31.4681 14.0526C31.9407 15.2608 32.4032 16.4707 32.8839 17.6742C33.0988 18.2109 33.3146 18.7485 33.5477 19.2777C33.6843 19.5883 33.8472 19.8859 33.982 20.1984C34.0639 20.3891 34.1404 20.5825 34.1859 20.7871C34.1869 20.7881 34.1987 20.8727 34.2096 20.9322C33.1179 20.7295 32.4951 19.048 31.9552 18.0658ZM29.5971 15.5779C29.6235 15.6969 29.6044 15.6476 29.5971 15.5779V15.5779ZM29.5961 15.3333C29.5952 15.297 29.5952 15.2608 29.5952 15.2226C29.6253 15.2608 29.6553 15.2998 29.6863 15.337C29.658 15.337 29.628 15.336 29.5961 15.3333ZM32.3322 22.8138C30.4748 22.8863 28.6137 22.8956 26.7563 22.8426C26.2883 22.8296 25.8212 22.8119 25.3541 22.7868C25.7384 22.7449 26.1226 22.6091 26.4595 22.3831C27.1305 21.9339 27.6285 21.2717 28.0292 20.5714C28.2677 20.1547 28.6729 19.5102 28.8313 18.914C29.1081 18.9791 29.3995 19.0015 29.6681 19.0322C29.9048 19.0582 30.1634 19.1028 30.422 19.1251C31.1558 20.4877 31.9188 22.2009 33.4048 22.7626C33.0469 22.7831 32.69 22.7998 32.3322 22.8138ZM25.0081 20.6774C25.0245 20.6783 25.0437 20.6792 25.0683 20.6811C25.0719 20.683 25.0746 20.6839 25.0783 20.6858C25.0428 20.6913 25.0136 20.6914 25.0081 20.6774ZM22.304 22.4241C22.2075 22.3999 22.2548 22.4064 22.304 22.4241V22.4241ZM39.404 14.9324C39.4013 13.2286 39.4249 11.5219 39.3922 9.8171C39.4441 9.39485 39.496 8.97071 39.5251 8.54939C39.6234 7.1543 38.834 6.05776 37.4665 5.83176C36.6971 5.70341 35.9168 5.82065 35.1429 5.8346C34.6622 5.8439 34.1796 5.83924 33.6989 5.83738C30.5467 5.82436 27.3727 5.81226 24.2306 6.08477C23.646 6.13685 23.0324 6.23452 22.477 6.44007C22.4706 6.44286 22.4633 6.4456 22.4569 6.44932C21.8442 6.32841 21.2142 6.32563 20.7525 6.8074C20.1953 7.39148 20.3009 8.20065 20.2736 8.94284C20.2153 10.5677 20.0915 12.1878 20.0432 13.8136C19.9849 15.8048 19.933 17.8026 20.0314 19.7938C20.0951 21.0624 20.0724 22.9468 21.0175 23.9298C21.3953 24.3233 21.9762 24.4413 22.487 24.5297C23.2391 24.659 24.0021 24.7306 24.7632 24.7836C26.7172 24.9203 28.6811 24.9417 30.6395 24.9138C32.3449 24.8897 34.0649 24.8469 35.7593 24.6255C36.3293 24.5511 36.9347 24.4897 37.4537 24.2144C38.6829 23.5634 39.2556 22.2204 39.4167 20.883C39.5305 19.9445 39.4413 18.9995 39.4258 18.0583C39.4076 17.0167 39.4058 15.9741 39.404 14.9324Z" fill="#221E1F"/>
</svg>
