<svg width="48" height="41" viewBox="0 0 48 41" fill="none" xmlns="http://www.w3.org/2000/svg">
<path d="M3.5 2.5L1.5 6.5V26.5L6 31.5H15V35.5L11.5 40L19 38L23.5 31.5H39L45 29.5L47.5 9.5L45 4.5L32.5 0.5L23.5 2.5L9.5 0.5L3.5 2.5Z" fill="white"/>
<path d="M29.9472 14.4817C29.8893 15.2074 29.5872 16.0142 29.2222 16.7385C29.2915 16.3199 29.005 15.8038 28.4907 15.794C27.9743 15.7834 27.4157 15.866 27.0007 15.4925C26.695 15.2179 26.5122 14.7782 26.6186 14.3737C26.7479 13.8809 27.2279 13.5378 27.6529 13.3021C28.1243 13.0395 28.6693 12.8044 29.22 12.9272C29.9165 13.0818 29.9986 13.84 29.9472 14.4817ZM28.9793 11.3706C27.4165 11.3283 25.3757 12.5474 25.0907 14.1534C24.935 15.0302 25.255 15.9577 25.91 16.5712C26.4079 17.0371 27.0336 17.2559 27.6872 17.3039C27.6622 17.4628 27.6222 17.6202 27.5557 17.7769C27.3722 18.2103 27.1443 18.6184 26.8679 19.001C26.6143 19.3525 26.3714 19.7111 26.115 20.0606C25.9672 20.2624 25.6064 20.6536 25.8364 20.9126C26.0172 21.1166 26.3193 21.0404 26.5786 20.9112C27.2215 20.7834 27.8386 20.3924 28.3436 20.0288C29.06 19.5128 29.6586 18.8534 30.155 18.1306C30.9479 16.9778 31.5957 15.3697 31.4915 13.9494C31.3872 12.5305 30.4893 11.4123 28.9793 11.3706ZM21.6022 14.4817C21.5436 15.2074 21.2414 16.0142 20.8772 16.7385C20.9457 16.3199 20.66 15.8038 20.1457 15.794C19.6293 15.7834 19.07 15.866 18.6557 15.4925C18.35 15.2179 18.1664 14.7782 18.2729 14.3737C18.4029 13.8809 18.8829 13.5378 19.3079 13.3021C19.7793 13.0395 20.3236 12.8044 20.875 12.9272C21.5707 13.0818 21.6529 13.84 21.6022 14.4817ZM20.6343 11.3706C19.0714 11.3283 17.03 12.5474 16.7457 14.1534C16.59 15.0302 16.91 15.9577 17.565 16.5712C18.0622 17.0371 18.6886 17.2559 19.3414 17.3039C19.3172 17.4628 19.2772 17.6202 19.2107 17.7769C19.0264 18.2103 18.7993 18.6184 18.5229 19.001C18.2693 19.3525 18.0264 19.7111 17.77 20.0606C17.6214 20.2624 17.2607 20.6536 17.4907 20.9126C17.6722 21.1166 17.9743 21.0404 18.2329 20.9112C18.8764 20.7834 19.4929 20.3924 19.9986 20.0288C20.715 19.5128 21.3136 18.8534 21.81 18.1306C22.6022 16.9778 23.2507 15.3697 23.1465 13.9494C23.0415 12.5305 22.1443 11.4123 20.6343 11.3706ZM45.7508 15.5942C45.5508 18.2125 45.3657 20.8328 45.1836 23.4525C45.1122 24.4782 45.0286 25.5032 44.75 26.4986C44.4929 27.417 44.0236 28.2937 43.405 28.9157C42.3558 29.9717 40.7229 30.4645 39.245 30.6318C37.5186 30.8273 35.7872 30.7271 34.0586 30.6226C31.8157 30.4864 29.58 30.1567 27.335 30.0797C26.735 30.0592 26.1379 30.0678 25.54 30.1242C24.855 30.1892 24.2457 30.3741 23.6107 30.6325C23.5586 30.6544 23.5107 30.6819 23.4686 30.7144C23.1407 30.7779 22.8522 31.0596 22.6543 31.3419C22.2964 31.8516 21.8136 32.4898 21.4093 33.0566C20.5979 34.1946 19.7886 35.3071 18.7186 36.2241C17.71 37.0889 16.6029 37.7242 15.355 38.1901C14.7743 38.4068 14.1957 38.6341 13.6129 38.8459C13.6243 38.8318 13.6357 38.8177 13.6464 38.8035C14.1636 38.1153 14.5686 37.3246 14.9293 36.546C15.3007 35.7427 15.605 34.8856 15.855 34.0378C16.0372 33.4201 16.2672 32.727 16.2686 32.0641C16.2936 31.9921 16.3064 31.9151 16.3043 31.8354C16.3043 31.8191 16.3036 31.8029 16.3036 31.786C16.29 31.253 15.7986 31.0017 15.3829 31.1005C13.3907 30.9 11.38 31.2593 9.39215 30.9325C7.59572 30.6374 5.73929 30.3374 4.27929 29.1649C2.78 27.9613 2.425 26.2254 2.46357 24.4112C2.505 22.4812 2.93643 20.578 2.94572 18.6473C2.95715 16.2302 2.35286 13.8647 2.08143 11.4744C1.83786 9.33125 1.82 6.98124 2.98786 5.07666C4.72429 2.2452 8.44715 1.81175 11.5793 1.91341C14.0379 1.99247 16.4957 2.14705 18.9529 2.26352C21.6364 2.3913 24.3107 2.19858 26.99 2.04822C31.0229 1.82162 35.2757 1.60701 39.2207 2.62424C40.9929 3.08097 42.7986 3.82928 44.12 5.1197C45.4279 6.39672 45.9207 8.18622 46.0222 9.94962C46.13 11.8358 45.8943 13.7164 45.7508 15.5942ZM47.0629 6.41293C46.2257 4.42858 44.61 2.98993 42.6843 2.04258C38.855 0.157763 34.3786 0.0843631 30.1907 0.170486C27.5479 0.224136 24.9122 0.453562 22.2707 0.541802C19.5129 0.633572 16.7493 0.406245 13.9957 0.274237C10.2407 0.0935208 6.08644 -0.127446 3.00144 2.39623C1.30429 3.78478 0.492859 5.85173 0.248573 7.96809C-0.0499987 10.5546 0.558574 13.1326 0.921432 15.681C1.08643 16.8352 1.17143 17.9993 1.10357 19.1633C1.04572 20.1756 0.913574 21.1809 0.80286 22.1882C0.57786 24.2382 0.451429 26.3835 1.33143 28.31C2.21572 30.2463 4.13358 31.4704 6.13287 32.0683C8.14358 32.6705 10.2686 32.6705 12.3507 32.6211C12.8221 32.6098 13.295 32.5921 13.7664 32.566C14.0614 32.5498 14.3493 32.4975 14.6364 32.4382C14.3786 33.6757 13.9979 34.9069 13.4343 36.0363C13.0979 36.7112 12.7479 37.4178 12.2743 38.0108C11.8043 38.6003 11.1507 38.9892 10.6929 39.5921C10.2793 40.137 10.8429 40.9044 11.4536 40.9023C12.2007 40.8987 12.9764 40.9262 13.6986 40.7067C14.3722 40.5013 15.0386 40.2182 15.7 39.9754C17.0686 39.472 18.2779 38.8311 19.4186 37.9303C20.535 37.0493 21.4164 36.0292 22.1929 34.8482C22.6157 34.2051 23.03 33.5543 23.4236 32.8921C23.5786 32.6316 23.7307 32.3684 23.8572 32.0931C23.9093 31.978 23.9664 31.8643 24.0164 31.7485C24.5786 31.7379 25.14 31.7584 25.7029 31.7478C26.4107 31.7344 27.1207 31.7613 27.8257 31.8177C29.1886 31.9264 30.5393 32.1439 31.8972 32.2992C33.6993 32.506 35.5343 32.6359 37.3486 32.6098C39.24 32.5823 41.175 32.3493 42.8943 31.5247C44.7965 30.6127 46.0658 28.8564 46.5908 26.8565C46.8943 25.6995 46.9679 24.5022 47.0586 23.3156C47.165 21.9228 47.27 20.5328 47.3443 19.1372C47.4672 16.8394 47.7272 14.5501 47.8308 12.2516C47.9193 10.2906 47.8372 8.24763 47.0629 6.41293Z" fill="#221E1F"/>
</svg>
