<svg width="54" height="63" viewBox="0 0 54 63" fill="none" xmlns="http://www.w3.org/2000/svg">
<path d="M30.5 1L2.5 2.5L1 56L6 61.5H32L35 59L37 61.5H42L53 56V49.5L47 34.5L43 33.5L42 36.5L39 34.5L37 36.5H35V5L30.5 1Z" fill="#FFFDF5"/>
<path d="M15.083 5.79035C15.0801 5.79888 15.0716 5.80836 15.0519 5.81594C15.0189 5.83015 15.0444 5.81404 15.083 5.79035ZM15.1799 5.72875C15.2656 5.67 15.3456 5.60272 15.4398 5.55723C15.8794 5.34685 16.4226 5.36107 16.8952 5.3279C17.0411 5.31747 17.1852 5.29757 17.3283 5.27483C17.5175 5.29663 17.7067 5.31558 17.8988 5.32695C18.4109 5.35728 18.9814 5.31747 19.4634 5.51459C19.3777 5.63588 19.2224 5.73823 19.0981 5.80267C18.7621 5.97609 18.3309 6.04527 17.96 6.09076C17.1739 6.18647 15.9754 6.27365 15.2562 5.86048C15.2336 5.84721 15.1809 5.79794 15.1347 5.75814C15.1507 5.74771 15.1668 5.73823 15.1799 5.72875ZM18.6048 7.9548C19.3796 7.84013 20.1299 7.59469 20.7164 7.04979C21.4216 6.39496 21.7266 5.33548 21.2078 4.46838C20.675 3.57853 19.4587 3.41269 18.5182 3.39279C18.0004 3.38236 17.4779 3.43544 16.9667 3.50746C16.6504 3.552 16.2908 3.56526 15.9538 3.6316C15.0688 3.68467 14.1783 3.99929 13.6115 4.72235C13.0382 5.45394 13.1587 6.43002 13.8036 7.07632C14.9587 8.23341 17.1127 8.1756 18.6048 7.9548ZM23.6104 5.54396C23.632 5.45109 23.6509 5.38571 23.6829 5.31463C23.8137 5.24451 23.9455 5.19239 24.1018 5.21987C24.2666 5.2483 24.5076 5.2862 24.661 5.35064C24.678 5.35823 24.6911 5.36202 24.7005 5.36486C24.7109 5.4293 24.6526 5.60366 24.6309 5.66147C24.6544 5.59798 24.533 5.76761 24.6026 5.71549C24.4407 5.85195 24.3494 5.84152 24.1291 5.83489C24.0133 5.8311 23.7695 5.82162 23.6264 5.70032C23.6292 5.688 23.5953 5.60935 23.6104 5.54396ZM24.3117 7.87803C25.9206 7.81264 27.2396 6.15615 26.5655 4.55935C26.0675 3.37858 24.3447 3.12744 23.3025 3.77848C22.7913 3.914 22.3677 4.23241 22.0834 4.71951C21.1457 6.32294 22.6802 7.94531 24.3117 7.87803ZM22.1173 56.1203C21.7972 56.3619 21.1184 56.3581 20.6327 56.3771C19.1782 56.432 17.7255 56.5429 16.2701 56.5666C15.9811 56.5714 15.6921 56.5837 15.404 56.577C15.3193 56.5761 15.2345 56.5732 15.1508 56.5666C15.1451 56.5647 15.1394 56.5638 15.1328 56.5609C15.0349 56.5306 14.9342 56.5107 14.8439 56.4709C14.601 56.3648 14.3195 56.1781 14.1519 55.9611C13.99 55.7507 13.9966 55.6929 14.1048 55.6047C14.1585 55.5602 14.6264 55.4635 14.857 55.4332C15.2581 55.3792 15.6657 55.3792 16.0695 55.3508C16.1609 55.3441 16.2522 55.3356 16.3435 55.328C16.9488 55.3659 17.5683 55.3271 18.1557 55.3337C19.2308 55.346 20.4443 54.9945 21.4997 55.2352C21.8923 55.3252 22.5626 55.7838 22.1173 56.1203ZM19.6733 53.2129C18.8552 53.2877 18.0381 53.3664 17.22 53.4375C17.1183 53.446 17.0166 53.4545 16.915 53.4621C16.5751 53.4782 16.2352 53.4962 15.8954 53.4905C14.9003 53.4716 13.8083 53.4119 12.945 54.0023C11.7983 54.786 11.8313 56.2918 12.6522 57.2963C13.2999 58.0895 14.2781 58.5662 15.2835 58.659C17.0336 58.823 18.8345 58.587 20.5865 58.5264C21.5167 58.4941 22.5212 58.442 23.3167 57.8933C24.5038 57.0755 24.6525 55.4778 23.7733 54.368C22.7565 53.0849 21.1617 53.0764 19.6733 53.2129ZM51.6205 54.6201C50.9361 56.7078 49.154 57.8639 47.1723 58.5453C45.9522 58.9642 44.6936 59.2608 43.4669 59.6617C42.3748 60.018 41.2818 60.6254 40.1116 60.6529C37.8466 60.705 36.0353 58.2089 34.7813 56.614C34.4311 56.1677 34.0865 55.7166 33.7335 55.2721C33.7071 55.2399 33.6817 55.2077 33.6554 55.1745V55.1736C33.5716 55.0608 33.4878 54.949 33.4059 54.8353C32.9757 54.2401 32.5633 53.6327 32.1529 53.0243C31.0279 51.3545 29.9311 49.6648 28.8146 47.9884C28.3561 47.3004 27.8957 46.6125 27.4194 45.9358C27.0174 45.3653 26.6474 44.9247 26.2774 44.448C26.4996 44.2348 26.7463 44.0727 27.0899 44.0945C27.7583 44.1372 28.3401 44.7162 28.7647 45.1872C29.1083 45.5691 29.4256 45.9775 29.7353 46.3907C29.997 46.9726 30.2747 47.5478 30.5939 48.0879C31.0806 48.9115 32.1858 48.3306 32.0455 47.472C31.909 46.6305 31.6191 45.7757 31.3461 44.9702C30.9205 43.7183 30.4197 42.4939 29.9377 41.2629C28.9708 38.7905 27.9955 36.3209 27.0625 33.8352C26.8187 33.1842 26.5316 32.5246 26.3781 31.8442C26.172 30.9316 25.8575 27.937 27.618 28.3985C28.0049 28.5009 28.2205 28.7586 28.5086 29.005C28.5359 29.0591 28.583 29.114 28.6122 29.1624C28.8475 29.5537 29.0339 29.9773 29.2165 30.3952C29.2363 30.4407 29.3154 30.6255 29.3248 30.6464C29.37 30.7525 29.4133 30.8596 29.4566 30.9657C29.5809 31.2728 29.7023 31.5817 29.8219 31.8906C30.0808 32.5616 30.3293 33.2354 30.5731 33.912C31.0627 35.269 31.5334 36.6356 32.0352 37.9879C32.1981 38.4247 32.3722 38.8578 32.5398 39.2928C32.8524 40.104 33.0877 40.9957 33.9303 41.3871C34.1195 41.4743 34.3539 41.4525 34.513 41.3369C34.7191 41.3189 34.914 41.1833 34.9639 40.9663C35.1202 40.2954 34.6834 39.7685 34.7427 39.1061C34.7794 38.7033 34.8717 38.1328 35.1805 37.9376C35.5665 37.6922 35.9957 37.8959 36.2527 38.2342C36.7037 38.8303 36.811 39.742 37.6395 39.9305C38.0725 40.0281 38.5649 39.8007 38.675 39.3383C38.7701 38.9421 38.6694 38.6152 38.5122 38.293C38.4717 37.9992 38.4096 37.7083 38.3898 37.4107C38.3512 36.809 38.4519 36.0205 39.0751 35.7429C39.5891 35.5135 40.2538 35.6604 40.6869 35.9978C41.3026 36.4773 41.4155 37.3264 41.8006 37.9604C42.067 38.3982 42.5612 38.4806 42.9557 38.3281C43.2334 38.3063 43.4866 38.1319 43.4904 37.8125C43.5544 37.6467 43.5667 37.4524 43.5017 37.2383C43.4725 37.1388 43.4396 37.0393 43.4057 36.9398C43.401 36.917 43.3963 36.8952 43.3906 36.8734C43.3153 36.6014 43.1553 36.3655 43.1298 36.0755C43.0903 35.6064 43.3501 35.1553 43.7079 34.871C44.284 34.4114 44.991 34.437 45.5465 34.8511C46.1914 35.3316 46.6141 36.0963 46.9709 36.8023C47.4397 37.7301 47.7927 38.7119 48.1571 39.6851C49.1164 42.2485 50.3176 44.7219 51.2431 47.2957C52.0508 49.5454 52.3784 52.3079 51.6205 54.6201ZM24.5659 33.1946C24.6346 33.3908 24.7062 33.5851 24.7759 33.7803C24.0152 34.2721 23.3392 34.8966 22.6445 35.4766C21.9346 36.0688 21.0478 36.7578 20.2693 36.9701C19.9473 37.0573 20.0725 37.0317 19.7807 37.0355C19.7439 37.0355 19.7176 37.0364 19.696 37.0374C19.6875 37.0355 19.678 37.0326 19.6649 37.0307C19.5717 37.0137 19.4794 36.989 19.389 36.9587C19.4163 36.9606 19.1207 36.827 19.1377 36.8364C19.0567 36.79 18.956 36.7256 18.8826 36.6687C18.5719 36.4299 18.2941 36.1276 18.0061 35.8623C16.8858 34.8284 15.7448 33.8362 14.4842 32.9767C12.2173 31.4301 10.4577 29.3121 9.74131 26.616C9.38639 25.2808 9.66039 24.1322 10.3552 22.9647C10.9162 22.0227 11.7984 20.9765 12.9243 20.7605C14.2894 20.4989 15.9632 21.2475 17.0298 22.0644C17.509 22.4312 17.9364 22.8424 18.3299 23.2992C18.7291 23.7617 18.9042 24.2744 19.1781 24.8107C19.3222 25.0912 19.7054 25.1026 19.9144 24.9064C19.9275 24.8941 19.9379 24.8818 19.9501 24.8704C19.9699 24.8543 19.9878 24.8363 20.0028 24.8164C20.1911 24.6127 20.3069 24.3871 20.3662 24.1483C21.0083 23.0111 21.784 22.0132 23.0088 21.4134C24.1244 20.8675 25.2409 20.9386 26.3725 21.3451C27.4241 21.7233 28.342 22.5079 28.8221 23.5522C28.8136 23.5437 28.9144 23.7977 28.9125 23.7929C28.9718 23.9673 29.0198 24.1436 29.0574 24.3227C29.129 24.6582 29.1723 24.9946 29.1959 25.3357C29.225 25.7603 29.2401 26.2047 29.1761 26.6274C29.1695 26.6738 29.1601 26.7193 29.1506 26.7638C29.1111 26.7392 29.0716 26.7136 29.0301 26.6899C26.9741 25.5139 24.629 26.7885 24.1884 29.0581C23.9229 30.4237 24.1056 31.8897 24.5659 33.1946ZM31.5503 60.6197C30.7906 60.7382 30.0167 60.7183 29.2514 60.6946C28.0661 60.6567 26.8809 60.6501 25.6956 60.6406C23.921 60.6264 22.1474 60.6216 20.3728 60.6226C19.4804 60.6235 18.5879 60.6178 17.6963 60.615C16.8142 60.6112 15.9368 60.5306 15.0566 60.5401C13.7424 60.5543 12.4263 60.5676 11.113 60.6245C9.57 60.6917 8.0251 60.8007 6.53953 60.4492C4.68493 60.0094 3.20217 58.9215 2.69098 56.9514C2.1732 54.9585 2.33889 52.7191 2.3869 50.6779C2.49799 45.9425 2.51118 41.2042 2.55072 36.4678C2.61097 29.1794 2.63641 21.8919 2.72867 14.6045C2.7635 11.8184 2.77666 9.03228 2.81808 6.24712C2.82561 5.76666 2.83975 5.28809 2.85669 4.80858C2.86328 4.61147 2.86988 4.41531 2.87836 4.2182C2.89154 3.89789 2.86141 3.86851 2.95932 3.62591C2.91319 3.74153 3.00357 3.56337 3.03275 3.51409C3.05252 3.49229 3.07322 3.46955 3.08452 3.45818C3.12312 3.41838 3.16363 3.37952 3.20599 3.34256C3.21164 3.34635 3.36505 3.24211 3.37446 3.23737C3.68043 3.08101 3.945 2.98814 4.37806 2.89527C5.06247 2.74838 5.75347 2.68394 6.45012 2.6375C6.81069 2.72848 7.17502 2.81188 7.53841 2.86211C8.50337 2.99762 9.50879 2.92181 10.4813 2.91707C12.9742 2.90285 15.4624 2.82704 17.9534 2.75123C20.4444 2.67541 22.9363 2.6015 25.4292 2.55411C26.9374 2.52474 28.4625 2.45745 29.9688 2.55411C29.9763 2.55411 29.981 2.55506 29.9866 2.55506C30.1749 2.58444 30.3623 2.62519 30.5468 2.67162C30.8518 2.74649 31.1907 2.85168 31.4468 2.96824C32.0229 3.23169 32.5294 3.60507 32.8834 4.07226C33.2572 4.56694 33.4878 5.14974 33.6177 5.75339C33.6328 5.82541 33.645 5.89744 33.6582 5.97041C33.6629 5.99694 33.6667 6.02442 33.6704 6.05191C33.8154 7.51414 33.8888 8.97826 33.9256 10.4471C34.0451 15.246 34.1025 20.0478 34.1468 24.8477C34.1807 28.5274 34.1986 32.2081 34.2221 35.8879C34.2231 36.0092 34.224 36.1305 34.2249 36.2518C34.0489 36.3664 33.8917 36.5057 33.7514 36.6611C33.421 35.6092 33.0623 34.5621 32.6923 33.5254C32.1962 32.138 31.6793 30.7563 31.0947 29.4049C31.0354 29.2685 30.9751 29.133 30.9139 28.9994C30.96 28.9501 31.0043 28.898 31.0467 28.8411C31.5965 28.1029 31.7367 26.9666 31.7621 26.0721C31.7866 25.2239 31.6878 24.3293 31.492 23.5039C31.1568 22.0891 30.2013 20.9187 29.049 20.0829C26.6936 18.3733 23.4889 18.3562 21.2465 20.243C20.7353 20.6733 20.1845 21.2741 19.7788 21.946C19.5735 21.6342 19.3439 21.3546 19.1273 21.1329C17.9995 19.9786 16.4885 19.1636 14.9342 18.7685C13.1775 18.3221 11.5414 18.6604 10.1565 19.8365C8.96562 20.8467 8.03262 22.344 7.58921 23.8432C7.07613 25.5726 7.57231 27.4158 8.24166 29.0287C8.58717 29.8617 8.91947 30.6644 9.45608 31.3922C9.97386 32.0934 10.5444 32.7416 11.1826 33.3339C12.4206 34.4815 13.8497 35.3761 15.1046 36.5019C16.2532 37.532 17.3763 39.0331 18.9532 39.3866C20.466 39.7249 21.9017 39.0805 23.1039 38.1963C23.9738 37.5567 24.8352 36.7635 25.6458 36.1096C26.1918 37.5292 26.7557 38.9431 27.3092 40.3589C27.5578 40.9938 27.7988 41.6335 28.0426 42.2712C27.5813 42.0997 27.0899 42.0268 26.5683 42.0836C25.5667 42.1935 24.9839 42.8351 24.2844 43.4852C24.0321 43.7202 23.9399 43.9912 23.9597 44.2509C23.8495 44.5551 23.858 44.9 24.0472 45.1701C24.2656 45.4828 24.5 45.7842 24.7269 46.0903C24.789 46.1746 24.8549 46.2571 24.9189 46.3395C25.0856 46.5793 25.2617 46.8124 25.4302 47.0512C25.9159 47.7402 26.3838 48.4424 26.8507 49.1436C27.9654 50.821 29.0603 52.5116 30.1843 54.1833C31.2086 55.7071 32.3035 57.1636 33.4482 58.5984C33.661 58.8647 33.8832 59.1367 34.1157 59.4077C33.3974 60.0455 32.4899 60.4747 31.5503 60.6197ZM53.959 51.1205C53.8997 49.5729 53.6051 48.0216 53.0534 46.5745C52.5017 45.1322 51.8596 43.724 51.2722 42.2968C50.6979 40.899 50.1557 39.4937 49.6078 38.0845C48.8245 36.0717 47.7626 33.2467 45.4062 32.6914C44.0976 32.3834 42.6751 32.9482 41.8919 34.039C41.8156 34.1451 41.7469 34.2569 41.6838 34.3745C40.8497 33.7926 39.768 33.5708 38.7786 33.8286C37.8456 34.0721 37.1104 34.7478 36.7978 35.6405C36.7931 32.5464 36.7696 29.4523 36.7263 26.3582C36.6566 21.4049 36.5973 16.4477 36.3431 11.5C36.2575 9.82357 36.1915 8.13864 36.0249 6.46793C35.8018 4.21536 34.8491 2.10114 32.7309 1.03882C30.9695 0.156549 29.1525 0.210565 27.2508 0.237099C24.9312 0.269319 22.6115 0.343238 20.2928 0.418103C17.6512 0.503392 15.0029 0.553616 12.3641 0.709032C11.241 0.775368 10.117 0.840758 8.9929 0.902355C8.8225 0.911832 8.65023 0.919413 8.47984 0.929837C8.47042 0.928889 8.46098 0.926989 8.45157 0.926041C7.91966 0.878658 7.38869 0.81991 6.85585 0.782952C5.85041 0.712825 4.82709 0.713773 3.83483 0.914675C2.96119 1.09189 2.05555 1.46052 1.47375 2.16747C0.954082 2.79861 0.833594 3.5302 0.794054 4.32433C0.670728 6.78065 0.570918 9.24171 0.527612 11.6999C0.397696 19.1371 0.341201 26.5753 0.282833 34.0134C0.240469 39.4254 0.308262 44.8432 0.199057 50.2533C0.170814 51.6824 0.126553 53.1143 0.184921 54.5434C0.246114 56.0284 0.406161 57.5171 1.03786 58.876C1.53775 59.9507 2.33328 60.8462 3.30201 61.5143C6.16299 63.4892 9.80722 62.8837 13.0655 62.805C14.7798 62.7633 16.4866 62.6581 18.1991 62.6288C20.0904 62.5965 21.9827 62.5937 23.874 62.5946C25.3708 62.5956 26.8686 62.5984 28.3655 62.6202C30.0139 62.6439 31.7264 62.769 33.291 62.1388C34.1327 61.7996 34.786 61.3001 35.2577 60.633C36.6067 61.9417 38.2213 62.9898 40.1116 62.9405C41.585 62.9017 42.8775 62.2393 44.252 61.7967C45.6049 61.3608 46.9784 61.0035 48.2926 60.4539C50.729 59.4333 52.7446 57.7626 53.5495 55.1556C53.9449 53.8734 54.0099 52.4548 53.959 51.1205Z" fill="#221E1F"/>
</svg>
