<svg width="37" height="44" viewBox="0 0 37 44" fill="none" xmlns="http://www.w3.org/2000/svg">
<g clip-path="url(#clip0)">
<ellipse cx="11.3683" cy="5.67205" rx="3.3094" ry="3.3094" transform="rotate(5.04222 11.3683 5.67205)" fill="#FAFAFF"/>
<path d="M26.4102 33.5965C27.7135 33.0369 29.1971 33.0636 30.4171 33.8088C32.1997 34.8978 32.7464 37.0624 32.1521 38.9646C31.5724 40.8201 29.4751 42.0256 27.5498 41.712C25.5175 41.3816 23.6322 39.6608 23.5821 37.5499C23.557 36.4988 24.0862 35.5546 24.7897 34.8033C24.8527 34.7041 24.9247 34.6093 25.0144 34.5117C25.3865 34.1037 25.9034 33.8139 26.4102 33.5965Z" fill="#221E1F"/>
<ellipse cx="28.0253" cy="37.3271" rx="2.89717" ry="2.69005" transform="rotate(5.04222 28.0253 37.3271)" fill="#FAFAFF"/>
<path d="M16.4344 9.4413L8.76259 11.6714L4.31462 15.0165L2.30274 18.9918L2.87239 21.949L4.18133 21.234L5.74477 17.6344L9.29587 15.0407L14.1439 35.402L16.18 40.565L19.1373 39.9954L18.4343 29.136L21.6218 30.6631L23.5246 27.924L18.4706 14.6043L20.531 14.7861L24.2881 19.2705L26.6151 21.1369L26.8697 18.2524L22.3611 12.8712L16.4344 9.4413Z" fill="#FAFAFF"/>
<path d="M22.4216 28.8357C22.3515 29.0719 22.2704 29.2275 22.1206 29.3635C21.8977 29.5646 21.6194 29.6868 21.313 29.7467C20.7374 29.8605 20.2454 29.6198 19.8232 29.2033C19.2886 28.6758 18.9269 28.0051 18.6392 27.3223C18.422 26.8086 18.2253 26.2894 17.9815 25.7869C17.8549 25.526 17.7301 25.2658 17.5819 25.016C17.4902 24.8611 17.3897 24.7277 17.2812 24.6003C17.238 24.4751 17.1929 24.3502 17.1452 24.2264C16.8893 23.565 15.9513 23.9558 16.0175 24.5838C16.1538 25.8803 16.5069 27.178 16.8041 28.4461C17.2199 30.2217 17.6254 32.0001 17.9878 33.7864C18.2973 35.3103 18.5136 36.8308 18.6793 38.3735C18.66 38.2102 18.6862 38.5498 18.6857 38.6262C18.6849 38.7335 18.6816 38.8417 18.6703 38.9486C18.6693 38.9596 18.6671 38.9705 18.6655 38.9821C18.6696 38.9781 18.673 38.9754 18.6779 38.9758C18.6816 38.9767 18.6736 38.9958 18.6606 39.0236C18.6581 39.0382 18.6561 39.0528 18.6548 39.0675C18.6484 39.1687 18.641 39.1113 18.6469 39.052C18.5984 39.1488 18.5123 39.3053 18.5123 39.3053C18.2499 39.6922 17.7914 40.055 17.4236 40.075C16.9587 40.0999 16.6202 39.7889 16.3451 39.4365C16.2128 39.2676 16.1183 39.1021 15.9998 38.848C15.8964 38.628 15.7895 38.3479 15.7414 38.1932C15.5793 37.6702 15.4735 37.1311 15.3693 36.5947C15.31 36.291 15.2451 35.9881 15.1789 35.6857C14.9269 34.5344 14.6597 33.3861 14.395 32.2374C13.6313 28.9216 12.8568 25.6079 12.0785 22.2951C13.3148 22.2328 14.4958 21.8017 15.7074 21.5115C16.4559 21.3328 17.2113 21.1805 17.9585 20.9955C18.6054 20.8361 19.2835 20.7202 19.9295 20.5361C20.4723 22.0873 21.0203 23.6359 21.5876 25.1782C21.8502 25.8914 22.1261 26.5589 22.3032 27.2516C22.3764 27.5386 22.4336 27.8298 22.4638 28.1241C22.4723 28.2112 22.4779 28.3178 22.469 28.4742C22.4616 28.608 22.424 28.8291 22.4216 28.8357ZM11.8588 21.3643C11.4997 19.8441 11.1336 18.3257 10.7668 16.8073C10.6024 16.1268 10.4344 15.4306 10.2047 14.7684C10.1838 14.708 10.1611 14.6474 10.1403 14.587C10.1234 14.538 10.0479 14.3125 10.1187 14.5277C10.0739 14.3918 10.0266 14.3211 9.9577 14.1898C9.96358 14.2008 10.0486 14.3403 9.99627 14.2333C9.96623 14.1708 9.93558 14.1083 9.9042 14.047C9.85895 13.9591 9.82312 13.8918 9.76797 13.8031C9.83675 13.914 9.79273 13.8404 9.7577 13.7781C9.73511 13.7373 9.71397 13.6941 9.68864 13.6561C9.57845 13.4916 9.7494 13.7379 9.61929 13.5094C9.61493 13.5022 9.60011 13.4794 9.58078 13.4511C9.57722 13.4632 9.57115 13.4614 9.56413 13.4349C9.56276 13.4292 9.55953 13.4234 9.55692 13.4176C9.51465 13.3596 9.46574 13.2992 9.45495 13.3155C9.46361 13.302 9.47139 13.2916 9.47906 13.2825C9.45376 13.2371 9.42721 13.1915 9.40191 13.1461C9.23365 12.8483 8.69265 12.8739 8.685 13.2716C8.68317 13.3417 8.6801 13.4117 8.68014 13.482C8.68005 13.5184 8.67934 13.5547 8.67739 13.5909C8.67387 13.6733 8.6926 13.5528 8.69252 13.5466C8.68819 13.6523 8.67393 13.7362 8.67713 13.8413C8.67282 13.6781 8.66416 13.9672 8.66177 14.0224C8.65822 14.1263 8.65396 14.2098 8.65874 14.3182C8.6508 14.1467 8.65795 14.3132 8.65905 14.3854C8.6598 14.4052 8.66111 14.4257 8.66186 14.4455C8.54285 14.5151 8.42753 14.5925 8.30981 14.6617C7.95661 14.8698 7.60177 15.0962 7.26107 15.3251C6.53126 15.8157 5.87617 16.5478 5.37254 17.2594C4.86097 17.9832 4.46408 18.7923 4.12705 19.6086C3.96921 19.9912 3.86404 20.4271 3.635 20.7756C3.54045 20.9214 3.42314 21.0283 3.31604 21.1397C3.2653 21.1352 3.23222 21.1144 3.27778 21.1493C3.20476 21.0935 3.17899 21.0887 3.13111 20.9883C3.08124 20.8822 3.11389 20.9079 3.08231 20.7922C3.08014 20.7816 3.07775 20.7733 3.07541 20.7645L3.07735 20.7425C3.10212 20.2143 3.21825 19.817 3.35627 19.3198C3.53097 18.6896 3.73128 18.066 3.94966 17.4495C4.03808 17.1965 4.13145 16.9439 4.23018 16.6943C4.2659 16.6074 4.30034 16.521 4.33781 16.4355C4.35275 16.4005 4.36955 16.3656 4.38454 16.3299L4.38583 16.3294C4.99865 15.4758 5.79878 14.7817 6.64162 14.0631C7.11299 13.6607 7.59581 13.2698 8.09812 12.9053C8.20271 12.8295 8.30844 12.7549 8.41523 12.6823C8.45966 12.6523 8.50402 12.623 8.54901 12.5936C8.559 12.5865 8.56758 12.5811 8.57482 12.5768C8.58211 12.5719 8.59126 12.5671 8.60315 12.5596C8.82013 12.4326 9.04678 12.3231 9.27917 12.2264C10.2926 11.8071 11.4131 11.589 12.4709 11.3031C13.026 11.1529 13.5811 10.9953 14.1315 10.8287C14.2517 10.8233 14.372 10.8166 14.4914 10.8062C15.1341 10.7513 15.7314 10.561 16.3869 10.6374C16.9961 10.7084 17.5853 10.9916 18.1391 11.2378C18.7289 11.5001 19.3186 11.7704 19.885 12.0794C22.1776 13.3318 24.0358 15.2821 25.3991 17.478C25.7496 18.0423 26.073 18.6246 26.3412 19.2315C26.414 19.3952 26.4817 19.5541 26.5722 19.6941C26.1595 20.2231 25.8016 19.8555 25.4374 19.3541C24.9137 18.6333 24.4711 17.8043 23.9309 17.0722C23.2788 16.1871 22.4568 15.3481 21.5292 14.744C20.8659 14.3118 19.8957 13.8026 19.0278 13.8579C18.9083 13.5866 18.785 13.3161 18.6579 13.0471C18.3119 12.3186 17.2128 12.8388 17.5205 13.577C18.2812 15.4015 18.8115 17.2994 19.4513 19.1644C18.0943 19.4838 16.7313 19.7803 15.386 20.1512C14.6394 20.3579 13.9145 20.6306 13.1735 20.8526C12.811 20.9606 12.4305 21.0467 12.0927 21.2222C12.0129 21.2639 11.9351 21.3125 11.8588 21.3643ZM21.365 20.0831C20.7781 18.4238 20.2125 16.749 19.5556 15.1125C19.573 15.1202 19.5911 15.1273 19.6091 15.1351C20.0579 15.3276 20.4595 15.6029 20.8401 15.9047C21.6153 16.5176 22.2452 17.2866 22.7853 18.1051C23.2749 18.8463 23.7165 19.6295 24.2319 20.3527C24.7675 21.1029 25.6288 21.7012 26.6007 21.491C27.4576 21.3058 28.2822 20.2784 28.0331 19.3913C28.062 18.8802 27.7154 18.3212 27.4953 17.896C27.1767 17.2815 26.8096 16.6929 26.4265 16.1158C24.9307 13.8608 22.9683 11.9611 20.5355 10.7204C19.8833 10.3878 19.2114 10.0954 18.5299 9.82565C17.8521 9.55742 17.117 9.28167 16.3795 9.25792C15.5961 9.23258 14.9016 9.49935 14.163 9.70796C14.0908 9.7281 14.0186 9.74763 13.9457 9.76772C13.3296 9.86011 12.7103 9.98861 12.1039 10.1263C11.0115 10.374 9.8744 10.5826 8.82798 10.9866C7.62793 11.4499 6.60291 12.3393 5.6434 13.1648C5.10562 13.6273 4.57954 14.1056 4.08918 14.6173C3.72861 14.9937 3.36142 15.3745 3.13447 15.8478C2.58907 16.9904 2.21918 18.2779 1.93191 19.5056C1.7611 20.2329 1.58792 21.0156 2.00249 21.7021C2.53655 22.5891 3.94576 22.78 4.54404 21.8437C4.5758 21.7947 4.59891 21.7449 4.61576 21.6952C4.83596 21.4045 5.00129 21.0571 5.10998 20.7794C5.42995 19.9585 5.73065 19.123 6.18377 18.362C6.62012 17.6284 7.19298 16.952 7.81933 16.369C8.1304 16.0801 8.49021 15.8609 8.79332 15.5633C8.83842 15.8084 8.8898 16.0528 8.9385 16.2994C9.2645 17.9333 9.6802 19.5541 10.0538 21.178C10.8935 24.8273 11.7497 28.4731 12.5837 32.1238C12.868 33.368 13.1492 34.6118 13.4272 35.8573C13.7363 37.2375 13.8962 38.7253 14.6321 39.9612C15.3809 41.2199 16.7173 42.1296 18.2264 41.6196C19.2425 41.2763 20.1883 40.2955 20.3316 39.2154C20.405 38.6595 20.3182 38.0667 20.246 37.514C20.1412 36.7161 19.9904 35.9234 19.8299 35.1347C19.4981 33.5034 19.1323 31.8821 18.745 30.265C19.2779 30.7899 19.9408 31.1783 20.7002 31.2706C21.5522 31.3741 22.5472 31.058 23.1628 30.463C24.3768 29.2906 24.0115 27.5361 23.536 26.1135C22.8596 24.0899 22.0759 22.0956 21.365 20.0831ZM18.6606 39.0236C18.6625 39.0096 18.6637 38.9955 18.6655 38.9821C18.6551 38.9935 18.6495 39.0226 18.6469 39.052C18.6515 39.0413 18.6561 39.0325 18.6606 39.0236ZM9.47906 13.2825C9.4893 13.3006 9.4996 13.3182 9.50917 13.3369C9.52192 13.3621 9.5444 13.39 9.55692 13.4176C9.56529 13.4288 9.5736 13.4406 9.58078 13.4511C9.59534 13.4062 9.57927 13.1643 9.47906 13.2825ZM8.60042 4.45615C8.65145 4.29478 8.71604 4.13522 8.79698 3.97402C9.12667 3.31865 9.74569 2.69866 10.4738 2.50269C11.2895 2.28238 12.2491 2.5724 12.9858 2.92289C13.662 3.24463 14.2133 3.69593 14.4767 4.37835C14.9532 5.61419 14.2107 7.14637 13.1194 7.80423C12.4826 8.18831 11.759 8.3255 11.0201 8.15609C10.2255 7.97437 9.36473 7.45445 8.92366 6.76437C8.48259 6.07429 8.47829 5.23959 8.60042 4.45615ZM9.77115 9.42777C10.855 9.9427 12.0756 9.98072 13.198 9.57781C15.2033 8.85754 16.5594 6.61857 16.2177 4.52641C15.839 2.20405 13.1752 0.6704 10.9162 0.824417C9.58946 0.914544 8.44371 1.83644 7.82132 2.96114C7.61436 3.33506 7.42985 3.74425 7.3239 4.16778C7.03377 5.0178 6.95045 5.94095 7.23229 6.80321C7.62685 8.01332 8.63889 8.88944 9.77115 9.42777Z" fill="#221E1F"/>
</g>
<defs>
<clipPath id="clip0">
<rect width="33.094" height="40.5402" fill="white" transform="translate(3.56311) rotate(5.04222)"/>
</clipPath>
</defs>
</svg>
