<svg width="51" height="52" viewBox="0 0 51 52" fill="none" xmlns="http://www.w3.org/2000/svg">
<path d="M32.5529 26.3042C32.3976 27.0322 32.0545 27.6923 31.6875 28.3306C31.3027 28.9993 30.8715 29.6407 30.4418 30.2798C30.0949 30.795 29.7101 31.3554 29.19 31.7076C28.1407 32.4184 26.7011 32.2368 25.5003 32.3148C24.8705 32.3561 24.2044 32.4208 23.5808 32.2898C22.8892 32.1456 22.3776 31.7747 21.897 31.2673C21.3723 30.7124 20.8963 30.106 20.4149 29.5145C19.9497 28.9424 19.4359 28.3867 19.0433 27.7609C18.6145 27.0781 18.5897 26.4429 18.9375 25.7111C19.2945 24.959 19.7705 24.2342 20.231 23.5437C20.6993 22.8414 21.1985 22.161 21.6868 21.4736C22.1343 20.8447 22.5214 20.176 22.951 19.5377C22.9989 19.547 23.0468 19.5548 23.0947 19.561C23.5197 19.6164 23.9556 19.6101 24.3829 19.6078C25.0853 19.6047 25.7869 19.5899 26.4886 19.5696C27.1013 19.5525 27.7133 19.5431 28.3099 19.7083C28.9335 19.8806 29.4087 20.2921 29.7989 20.8049C30.2116 21.3474 30.5184 21.9748 30.8962 22.5421C31.3158 23.1742 31.7393 23.8071 32.131 24.4571C32.4764 25.0299 32.6974 25.6277 32.5529 26.3042ZM33.6232 23.0199C33.1387 22.2678 32.6488 21.5266 32.1419 20.7886C31.5986 19.999 31.0639 19.2376 30.2772 18.6718C29.5462 18.1457 28.6653 17.9095 27.7806 17.8378C26.9252 17.7685 26.0937 17.8978 25.2476 18.0007C24.7321 18.0631 24.2167 18.1301 23.699 18.1683C23.4602 18.1862 23.2222 18.2158 22.985 18.2447C22.9356 18.1932 22.8807 18.1488 22.8212 18.113C22.3954 17.862 21.9279 18.0428 21.6613 18.42C21.1583 19.1324 20.7263 19.8954 20.2171 20.6077C19.7102 21.3162 19.1932 22.0176 18.7095 22.7432C17.7977 24.1126 16.6131 25.775 17.0574 27.5138C17.273 28.3594 17.8224 29.0546 18.3587 29.7171C18.9452 30.4419 19.5271 31.1714 20.1306 31.8822C20.6607 32.5065 21.1784 33.1721 21.8986 33.5851C22.6512 34.0169 23.5197 34.1705 24.3767 34.1853C25.1425 34.1985 25.9067 34.112 26.6717 34.0933C27.4498 34.0746 28.2434 34.0793 29.0046 33.8922C30.7463 33.462 31.6967 31.9586 32.6495 30.558C33.6348 29.11 34.79 27.3252 34.6061 25.4843C34.5141 24.5685 34.1138 23.7814 33.6232 23.0199ZM48.451 30.901C48.0685 30.8028 47.6613 30.7693 47.312 30.7506C46.503 30.7085 45.6893 30.7209 44.8803 30.7443C44.1524 30.7654 43.419 30.7817 42.6935 30.8378C42.0181 30.8901 41.2585 31.0202 40.7678 31.5385C40.2879 32.0451 40.1558 32.7699 40.0051 33.4269C39.8382 34.151 39.3661 34.7612 38.9473 35.3598C38.4975 36.002 38.0493 36.6489 38.0316 37.4665C38.0123 38.3129 38.4342 39.1538 38.7943 39.8934C39.4719 41.2838 40.1272 42.6548 41.0074 43.9104C39.0191 45.7886 36.6677 47.3692 34.1378 48.4097C33.4825 47.1767 32.5699 46.0731 31.8366 44.89C31.1574 43.7942 30.4272 42.6431 29.1985 42.1248C28.4528 41.8099 27.6909 41.8512 26.9035 41.9471C26.0921 42.0461 25.2808 41.986 24.4656 42.0336C23.7322 42.0765 22.9835 42.1856 22.3112 42.4966C21.6088 42.8216 21.1073 43.431 20.7271 44.0927C20.2836 44.8635 19.8848 45.6741 19.4877 46.4706C19.2466 46.9546 19.0209 47.4199 18.8571 47.9086C17.4191 47.317 16.0266 46.6124 14.699 45.8354C13.4967 45.1324 12.3175 44.3569 11.1924 43.5066C11.8817 42.2643 12.7557 41.1217 13.353 39.8295C13.7162 39.0447 13.9348 38.1601 13.8089 37.2942C13.6837 36.4338 13.0269 35.8235 12.5346 35.1548C11.6962 34.0169 11.1677 32.6717 10.1276 31.6842C9.05582 30.6672 7.73754 30.4941 6.31958 30.5752C5.54531 30.6196 4.77492 30.6929 4.00373 30.77C3.53701 30.8168 3.05481 30.8371 2.58267 30.9002C1.94131 27.5364 2.25812 23.9941 3.21476 20.688C3.66139 20.7387 4.12504 20.7083 4.5655 20.6693C5.33668 20.6015 6.09009 20.5602 6.8605 20.6818C7.59846 20.7971 8.33564 20.925 9.04191 20.6C9.61759 20.3358 10.0882 19.8712 10.4676 19.3701C11.2056 18.3951 11.5231 17.2073 12.1011 16.1435C12.4264 15.5433 12.9287 15.0562 13.21 14.4312C13.5438 13.69 13.5786 12.9667 13.2146 12.2286C12.8538 11.4953 12.2232 10.9045 11.6754 10.3145C11.2009 9.80401 10.8818 9.23195 10.5333 8.65443C11.0464 8.1603 11.5734 7.68176 12.1096 7.21648C12.8059 6.82679 13.5067 6.44879 14.1968 6.04429C15.3667 5.35922 16.5266 4.66557 17.7529 4.08572C18.1323 3.90646 18.5179 3.73656 18.9066 3.57523C19.0163 3.78488 19.1299 3.99298 19.2435 4.20107C19.6175 4.88771 20.0711 5.51979 20.4219 6.22123C20.7495 6.8798 21.0138 7.60694 21.4372 8.21096C21.9001 8.86953 22.5701 9.27715 23.3567 9.42757C24.0854 9.5663 24.8287 9.51486 25.5543 9.65905C26.3495 9.81726 27.2041 10.0799 28.0201 10.0137C29.4535 9.89677 30.4256 8.82902 31.0863 7.628C31.8853 6.17446 32.4888 4.62427 33.3172 3.18632C35.7072 4.04364 37.9844 5.35923 39.9186 7.01618C40.3212 7.36067 40.7122 7.71919 41.0923 8.08861C40.3188 8.85474 39.7733 9.92015 39.1543 10.7689C38.2966 11.9442 37.4281 13.2746 37.9698 14.7889C38.2317 15.5192 38.6513 16.1957 39.0431 16.8589C39.4472 17.5432 39.7277 18.2797 40.0569 19.0022C40.349 19.6421 40.6449 20.2999 41.2763 20.6677C41.8767 21.0185 42.654 21.0489 43.3286 21.052C44.9954 21.0582 46.6699 21.1268 48.3374 21.0793C49.0476 24.3059 49.1256 27.6619 48.451 30.901ZM48.1427 32.1838C47.0826 36.0581 45.0039 39.6627 42.2901 42.6103C41.6959 41.7507 41.1959 40.8154 40.7137 39.8958C40.3899 39.2777 40.0337 38.655 39.8243 37.9863C39.6172 37.3254 39.8877 36.9505 40.2601 36.4073C40.6357 35.8594 41.0213 35.3177 41.3025 34.7121C41.5645 34.1471 41.6101 33.5501 41.7917 32.9617C41.9331 32.5034 42.3187 32.4558 42.7584 32.4106C43.3789 32.3475 44.0032 32.3062 44.6253 32.2602C45.4181 32.2025 46.2109 32.1636 47.0053 32.1534C47.3677 32.1488 47.7378 32.1636 48.0995 32.1355C48.118 32.134 48.1373 32.1332 48.1559 32.1316C48.1512 32.1488 48.1474 32.1667 48.1427 32.1838ZM29.4574 49.6411C26.2073 50.0144 22.9533 49.4361 19.8786 48.3068C20.4752 47.4752 21.023 46.5953 21.5137 45.7091C21.8128 45.169 22.0933 44.5401 22.5647 44.1262C23.0159 43.7295 23.6465 43.6594 24.2221 43.6391C24.9323 43.6134 25.6424 43.7295 26.3495 43.6991C27.0024 43.6711 27.7102 43.4349 28.3555 43.622C29.3221 43.9018 29.8677 44.9625 30.3522 45.7645C31.0129 46.8595 31.8274 47.8898 32.4517 49.0114C31.4696 49.3106 30.4681 49.5258 29.4574 49.6411ZM9.74432 42.343C7.44159 40.3727 5.44949 38.0479 4.07403 35.3286C3.54549 34.2835 3.14213 33.197 2.84926 32.0856C3.00381 32.0911 3.1599 32.0942 3.31599 32.0958C4.0099 32.1043 4.70304 32.102 5.39695 32.1168C6.41927 32.1386 7.68345 31.9757 8.57518 32.6016C9.55345 33.2874 10.0279 34.5664 10.619 35.5609C10.9768 36.1641 11.4559 36.6684 11.8384 37.2506C12.0076 37.5085 12.0463 37.6644 12.0161 37.9777C11.9837 38.3238 11.8624 38.701 11.7186 39.0151C11.1885 40.1763 10.3339 41.2043 9.74432 42.343ZM7.0359 12.6916C7.72131 11.708 8.48556 10.7829 9.3031 9.90534C9.58669 10.387 9.89113 10.8515 10.2659 11.2817C10.7458 11.8327 11.4567 12.3791 11.7333 13.0782C11.9798 13.7025 11.1754 14.3938 10.8663 14.8598C10.4977 15.4163 10.2474 16.0429 9.98464 16.6547C9.73891 17.2276 9.48777 17.8332 9.10759 18.332C8.92213 18.5759 8.688 18.823 8.4214 18.9749C8.14477 19.1332 7.8581 19.116 7.54746 19.0996C6.64492 19.0537 5.78642 18.9757 4.8831 19.1137C4.48978 19.1737 4.06786 19.2321 3.65213 19.3179C4.47199 16.9712 5.61949 14.7235 7.0359 12.6916ZM25.4369 2.04142C27.5256 1.95179 29.564 2.13728 31.5631 2.64855C30.9333 3.7389 30.4001 4.88381 29.8268 6.00533C29.418 6.80342 28.891 7.88442 28.0572 8.07536C27.5325 8.19539 26.7922 7.95143 26.2282 7.83452C25.4948 7.68332 24.777 7.67632 24.0398 7.59058C23.553 7.53291 23.1573 7.39965 22.9 6.97099C22.5476 6.381 22.2919 5.73723 21.931 5.1527C21.5099 4.4723 21.0099 3.8371 20.4961 3.22607C20.4466 3.16683 20.3941 3.10294 20.3392 3.03669C21.9866 2.47866 23.6967 2.11546 25.4369 2.04142ZM41.8883 8.89682C44.4545 11.6207 46.4273 14.9035 47.6173 18.4707C47.6938 18.699 47.7656 18.929 47.836 19.1597C46.3624 19.1846 44.8849 19.1293 43.4129 19.1363C43.0566 19.1378 42.6448 19.1604 42.3102 19.0474C42.1201 18.9827 42.1363 18.9368 42.0026 18.6819C41.5969 17.908 41.2477 17.0764 40.7894 16.3337C40.5623 15.965 40.3088 15.6135 40.077 15.248C39.8467 14.8863 39.5198 14.5107 39.3645 14.1093C39.1095 13.4515 39.6118 12.6799 39.9371 12.1445C40.3652 11.4407 40.801 10.7432 41.2237 10.0347C41.447 9.6614 41.6788 9.28417 41.8883 8.89682ZM50.42 21.3232C49.4479 16.3936 47.0617 11.7525 43.7181 8.03638C40.0268 3.93374 35.0141 1.05004 29.5408 0.306519C23.8103 -0.472858 17.929 1.17554 13.2842 4.62896C13.04 4.81056 12.8012 4.99838 12.5648 5.18933C8.62695 7.77608 5.36218 11.4446 3.2194 15.6486C0.589037 20.8096 -0.673594 26.9854 0.825498 32.6865C2.20405 37.931 5.87142 42.1365 10.0789 45.3382C14.6558 48.8204 20.2905 51.5023 26.0705 51.9223C30.9279 52.2746 35.793 50.6255 39.7184 47.7839C43.7297 44.8807 46.9272 40.8334 48.8753 36.2592C50.8929 31.5221 51.4175 26.3814 50.42 21.3232Z" fill="#221E1F"/>
</svg>
