<svg width="50" height="51" viewBox="0 0 50 51" fill="none" xmlns="http://www.w3.org/2000/svg">
<path d="M9 23.5L0.5 11L4 0.5L20 6.5L23.5 9.5H18L25 13V16L19 13L24.5 19.5L22.5 20.5L15.5 16.5L21 21.5V23.5H19L10.5 16.5H9L10.5 23.5H9Z" fill="#F5FFF8"/>
<path d="M42.5 49.5L49.5 41.5L47.5 40.5L44 37L39.5 28L35.5 22L33 20.5L32 24L34.5 31L25.5 29.5L16 25H13L14 28L22.5 33L16 31L11 29.5L9 31L10 33L20.5 38L11 36L9 37L10 39L22.5 42.5H16L13 43.5L14 46H20.5L32 49.5H42.5Z" fill="#F5FFF8"/>
<path d="M9.92426 22.7089C9.98883 22.6678 9.98731 22.6694 9.92273 22.712C9.92273 22.7112 9.92349 22.7105 9.92426 22.7089ZM22.8379 9.22911C22.8417 9.23454 22.8309 9.2392 22.8117 9.24463C22.824 9.23067 22.8333 9.22291 22.8379 9.22911ZM9.9873 24.5291C10.3755 24.2903 10.8152 24.2119 11.0905 23.8071C11.3088 23.4852 11.4526 23.0595 11.5194 22.6756C11.6763 21.7736 11.4249 20.8569 11.1212 20.0139C10.806 19.1375 10.2648 18.379 9.78588 17.5903C9.74437 17.5221 9.48762 17.1986 9.51606 17.1281C9.53528 17.0815 9.73438 17.035 9.79588 17.0179C10.0042 16.9605 10.2149 16.9396 10.4255 16.9249C10.5862 17.0179 10.7445 17.1133 10.8921 17.2025C11.2319 17.408 11.5679 17.6329 11.8792 17.8788C12.5911 18.4387 13.143 19.1445 13.7742 19.789C14.4376 20.4668 15.1956 21.0407 15.9283 21.6394C16.6332 22.2157 17.2544 22.909 18.0085 23.4232C19.1148 24.177 21.2811 24.6734 21.7485 22.9082C22.0791 21.6565 21.1627 20.4893 20.2118 19.5734C20.4601 19.7331 20.7084 19.8937 20.9582 20.0519C21.6424 20.4854 22.4404 20.9166 23.2738 20.8755C24.0241 20.8383 24.689 20.4265 24.8689 19.6618C25.0134 19.0444 24.8182 18.3542 24.5237 17.8106C24.134 17.0908 23.5005 16.5193 22.9263 15.9531C22.8594 15.8872 22.7925 15.8197 22.7256 15.753C23.2 15.9888 23.6989 16.1951 24.2316 16.1935C24.955 16.1904 25.5777 15.7173 25.6777 14.9806C25.7645 14.3369 25.4924 13.6761 25.1449 13.1495C24.4077 12.0296 23.2914 11.3719 22.1514 10.7461C22.967 10.836 23.9679 10.6685 24.1817 9.73633C24.3985 8.79093 23.5236 7.913 22.8363 7.41665C22.0653 6.85903 21.1535 6.53796 20.2771 6.19362C19.1909 5.76551 18.1338 5.28778 17.0691 4.81004C16.0028 4.33153 14.922 3.88946 13.8411 3.44585C12.721 2.9875 11.6171 2.4485 10.4739 2.05529C9.23698 1.62952 7.98315 1.47596 6.71393 1.20064C6.24575 1.09904 5.77759 0.954017 5.35323 0.726781C4.88198 0.473953 4.4853 0.124955 3.93794 0.104015C3.73115 0.0962599 3.54281 0.290144 3.54819 0.49644C3.57126 1.37746 4.49914 1.87847 5.21793 2.18171C6.09124 2.55009 7.03142 2.70753 7.94239 2.95105C10.0057 3.50402 11.9307 4.36875 13.9072 5.17067C15.8529 5.96095 17.7502 6.86447 19.7098 7.6214C20.4832 7.91999 21.2727 8.18988 21.9661 8.65831C22.2221 8.83126 22.4104 9.03523 22.588 9.27487C22.5411 9.27953 22.5042 9.28184 22.4981 9.28184C21.4633 9.24772 20.4909 8.62651 19.4661 8.47683C19.0394 8.41479 18.6158 8.38765 18.1884 8.35895C17.8648 8.23176 17.5288 8.16505 17.1821 8.21547C17.136 8.22245 17.0945 8.23951 17.0568 8.26278C16.8692 8.26743 16.6932 8.30621 16.5079 8.26666C16.3288 8.22788 16.1466 8.4652 16.3126 8.60557C16.4802 8.7475 16.574 8.94527 16.7485 9.06935C16.8908 9.17017 17.1006 9.2392 17.2836 9.29969C17.6257 9.5913 18.0516 9.80534 18.416 10.0427C18.9956 10.4204 19.543 10.8469 20.1203 11.2277C21.0974 11.873 22.159 12.3709 23.1154 13.0502C23.5336 13.3473 23.941 13.7288 24.1924 14.1833C24.3531 14.4741 24.5507 14.9069 24.1048 14.858C23.5859 14.8022 23.0716 14.4586 22.6165 14.226C21.9692 13.8956 21.3319 13.5489 20.6915 13.2046C20.1349 12.9052 19.5599 12.6439 18.9933 12.3654C18.9256 12.3166 18.8588 12.2677 18.7911 12.2188C18.3791 11.9249 17.9639 11.6349 17.5496 11.344C17.1506 11.0633 16.737 10.6817 16.2473 10.5941C15.806 10.515 15.3817 10.9555 15.6392 11.3913C16.0036 12.0087 16.8185 12.3926 17.3797 12.816C17.9816 13.2689 18.5582 13.7645 19.1148 14.2725C20.2218 15.2846 21.2642 16.3665 22.3259 17.4267C22.7149 17.816 23.1554 18.2379 23.3514 18.766C23.4921 19.1476 23.5736 19.4423 23.0785 19.395C22.4166 19.333 21.7916 18.835 21.2511 18.4868C20.5769 18.0533 19.9027 17.6198 19.2301 17.1831C17.9693 16.3642 16.6747 15.4668 15.2925 14.848C15.1188 14.6626 14.925 14.5028 14.6698 14.4043C14.3754 14.2903 14.0064 14.5858 14.0294 14.8968C14.0886 15.6716 14.8435 16.3277 15.3463 16.8706C15.919 17.4879 16.5264 18.0704 17.1045 18.6823C18.1269 19.7634 19.6998 20.6204 20.2787 22.059C20.4747 22.5453 20.3071 22.7423 19.8166 22.6523C19.1824 22.536 18.6312 22.1102 18.1684 21.6829C16.9369 20.5451 15.5892 19.5501 14.4238 18.3387C13.8111 17.702 13.1761 17.0342 12.3835 16.6278C12.0114 16.437 11.6378 16.2998 11.2312 16.2098C11.1412 16.1904 11.0505 16.171 10.9598 16.1532C10.3555 15.708 9.38535 15.6421 8.74114 16.0082C8.27988 16.2703 8.0385 16.8085 8.08309 17.3289C8.12614 17.8237 8.45901 18.2658 8.70655 18.6792C9.20087 19.5043 9.6652 20.2783 9.89967 21.2222C9.9973 21.6154 10.0819 22.0513 9.97578 22.4507C9.97039 22.4731 9.91351 22.6624 9.90274 22.7252C9.84432 22.7671 9.78204 22.8027 9.71593 22.8322C9.64597 22.8656 9.57449 22.8943 9.50222 22.923C9.28236 22.5429 8.98637 22.1854 8.80417 21.8341C8.46746 21.1865 8.30141 20.4629 8.01313 19.7929C7.42733 18.4341 6.27035 17.46 5.31555 16.3719C5.27712 16.3285 5.14105 16.1563 5.12799 16.1423C5.03266 16.0152 4.93962 15.8872 4.84737 15.7585C4.5883 15.3955 4.33769 15.0263 4.08938 14.6564C3.54203 13.839 3.00928 13.0122 2.48268 12.1816C2.08754 11.5573 1.55401 10.2885 0.722217 10.2148C0.512346 10.1962 0.225608 10.3529 0.140276 10.5514C-0.174146 11.2797 0.506211 12.118 0.876753 12.7074C1.40258 13.545 1.93686 14.378 2.48268 15.2032C2.96162 15.9267 3.44362 16.6534 3.98252 17.3344C4.75897 18.3162 5.82216 19.1011 6.40488 20.2303C6.78311 20.9624 6.96609 21.7899 7.39198 22.5003C7.618 22.878 7.93318 23.1975 8.23145 23.5163C8.40135 23.6962 8.58662 23.8831 8.79418 24.0305C8.94639 24.495 9.45531 24.8564 9.9873 24.5291ZM49.5207 39.7555C48.6666 39.2405 47.7795 38.7837 46.8854 38.344C46.571 38.1896 45.6592 37.7057 44.9258 37.5831C44.7659 37.1822 44.5991 36.7836 44.4208 36.3857C43.7143 34.8082 43.2515 33.1633 42.6526 31.5455C42.3559 30.7436 41.8923 30.0293 41.4057 29.3336C40.9229 28.6442 40.4509 27.9679 39.8774 27.3482C39.3485 26.7767 38.7742 26.2508 38.2653 25.6599C37.7479 25.0581 37.289 24.4112 36.86 23.7435C36.358 22.9617 35.876 22.1637 35.4124 21.3587C35.1272 20.8639 34.842 20.1163 34.3316 19.7828C34.134 19.4446 33.7627 19.2298 33.2845 19.3903C31.87 19.8658 30.906 21.4781 30.856 22.9377C30.7999 24.5702 31.6102 26.2074 32.3881 27.5871C32.7771 28.2766 33.1792 28.9567 33.592 29.6322C33.8519 30.058 34.0179 30.4528 34.0848 30.9041C33.6935 30.8374 33.2953 30.8018 32.8932 30.7552C32.189 30.6722 31.4795 30.6304 30.7768 30.535C29.3746 30.3457 28.0331 29.892 26.7116 29.398C25.4247 28.9172 24.1694 28.3518 22.9747 27.6678C21.82 27.0062 20.7476 26.2198 19.5722 25.5893C18.436 24.9797 17.1975 24.3306 15.9575 23.9692C15.0096 23.6931 13.8549 23.7195 13.1661 24.533C12.3705 25.4745 12.4373 26.7821 13.173 27.7244C13.9802 28.759 15.2571 29.4391 16.3911 30.0409C17.7018 30.7366 19.054 31.34 20.3525 32.0597C19.4046 31.7689 18.4459 31.5176 17.5065 31.2004C16.2934 30.7909 15.141 30.2325 13.9402 29.7943C12.8432 29.3941 11.5679 29.1436 10.4147 29.4438C9.54449 29.6702 8.69425 30.2907 8.51437 31.2268C8.29527 32.3653 9.02788 33.3238 9.88428 33.9668C10.7384 34.6074 11.7754 34.9641 12.7833 35.2743C13.9949 35.6466 15.1987 36.022 16.3934 36.4477C17.1491 36.7169 17.9055 36.9821 18.662 37.2481C18.3099 37.1636 17.957 37.0798 17.6034 37.0015C16.4241 36.7393 15.2633 36.4369 14.1086 36.0794C13.0554 35.7529 11.9768 35.4558 10.8729 35.6505C10.1042 35.787 9.27851 36.174 8.91259 36.9084C8.45441 37.8251 8.8726 38.8938 9.6229 39.5026C10.3478 40.0913 11.2373 40.3208 12.1237 40.5364C13.3176 40.8265 14.5184 41.0421 15.7038 41.374C16.0359 41.4663 16.3688 41.5539 16.7032 41.6377C16.1082 41.5904 15.5116 41.6059 14.9227 41.7378C13.8388 41.9821 12.4189 42.8189 12.5304 44.1179C12.6265 45.2494 13.8526 45.859 14.7867 46.1879C16.2158 46.6912 17.8994 46.5066 19.3884 46.5624C21.0182 46.6237 22.5734 47.2217 24.124 47.6777C25.6892 48.1376 27.2728 48.5269 28.8319 49.0077C30.3832 49.4855 31.9015 50.0749 33.4805 50.4557C35.2748 50.8885 37.0545 51.0428 38.8849 50.7675C39.7844 50.6325 40.6531 50.3634 41.5241 50.1075C42.2452 49.8965 43.0862 49.7344 43.346 48.9395C43.3891 48.8084 43.2961 48.6712 43.1738 48.6332C42.8971 48.5471 42.7049 48.5029 42.4128 48.5517C42.0522 48.6122 41.707 48.7433 41.3549 48.8418C40.6385 49.0403 39.9281 49.1427 39.1924 49.2295C37.7772 49.3955 36.3065 49.4389 34.9028 49.1628C33.456 48.879 32.0599 48.423 30.6638 47.9553C29.2232 47.4722 27.7664 47.0572 26.3011 46.6563C24.8597 46.2623 23.439 45.79 21.9938 45.4108C21.2565 45.2169 20.4993 45.054 19.7367 45.009C18.9795 44.964 18.2215 44.9927 17.4642 44.9896C16.3864 44.9842 15.2218 44.964 14.307 44.3095C14.1878 44.2242 14.0648 44.1078 14.0094 44.0148C14.0041 44.0047 13.9994 44 13.9964 43.9961V43.9938C13.9994 43.9527 13.9856 43.9775 14.041 43.8806C14.2777 43.4633 14.8812 43.2656 15.3133 43.1648C16.6632 42.8514 18.0938 43.2478 19.4307 43.454C20.9244 43.6836 22.6057 43.7961 23.918 42.8871C24.307 42.618 24.1286 42.103 23.7719 42.0247C21.8977 41.0025 19.7367 40.6838 17.6879 40.1975C16.6509 39.9517 15.6369 39.6112 14.596 39.3793C13.6143 39.1606 12.618 38.9962 11.6517 38.7116C11.2196 38.5844 10.4655 38.3253 10.364 37.8127C10.3271 37.6305 10.4032 37.5917 10.5462 37.5009C10.7468 37.373 11.1151 37.2776 11.2865 37.252C12.209 37.1139 13.2092 37.5436 14.074 37.8166C15.0896 38.1369 16.1235 38.3858 17.1621 38.6162C18.3468 38.8799 19.5199 39.204 20.7161 39.4072C21.3357 39.5127 21.9538 39.6244 22.5688 39.7531C23.1915 39.8826 23.7765 40.0114 24.2839 39.5305C24.39 39.4305 24.4592 39.2273 24.4008 39.0854C24.3754 39.0241 24.3477 38.9691 24.3185 38.9163C24.3277 38.7147 24.2778 38.513 24.1617 38.3215C23.9318 37.9407 23.5113 37.7724 23.15 37.5498C22.156 36.9379 21.102 36.5431 20.0073 36.1523C17.7402 35.3418 15.4839 34.5205 13.1853 33.8023C12.2959 33.5239 11.3357 33.2153 10.6131 32.5948C10.0934 32.1489 9.71287 31.4486 10.5001 31.0887C11.3488 30.7009 12.4389 31.0057 13.2707 31.2872C14.3961 31.668 15.4709 32.2016 16.5894 32.6072C17.894 33.0803 19.2478 33.3983 20.5631 33.8403C21.2066 34.0567 21.8439 34.2941 22.4781 34.5352C23.1185 34.778 23.7381 35.044 24.4254 35.0936C25.0942 35.1417 25.3555 34.2103 24.8881 33.8217C24.8681 33.6403 24.8128 33.4627 24.7259 33.3114C24.4945 32.9105 24.0141 32.6569 23.6558 32.3885C22.4996 31.523 21.2827 30.7925 20.0081 30.1177C18.7934 29.474 17.5319 28.9335 16.3472 28.2324C15.8106 27.9152 15.261 27.5856 14.7951 27.1668C14.5084 26.9085 14.1586 26.5719 14.1486 26.1717C14.1255 25.2612 14.9735 25.3473 15.5785 25.5466C16.7186 25.9228 17.8117 26.5634 18.8641 27.135C20.0111 27.7585 21.0628 28.5294 22.1975 29.1716C23.3545 29.8261 24.5714 30.3721 25.8084 30.8522C27.2567 31.4152 28.7358 31.9193 30.2771 32.1341C31.0866 32.2466 31.9038 32.328 32.721 32.3397C33.1777 32.3459 33.6259 32.3591 34.0725 32.3428C34.051 32.7057 34.0356 33.0687 34.0733 33.4378C34.134 34.0435 34.39 34.84 34.9543 35.151C35.065 35.2115 35.2449 35.165 35.2687 35.0223C35.3633 34.4585 35.3978 33.9102 35.5285 33.3487C35.6746 32.7228 35.8145 32.1062 35.8852 31.4656C36.0467 30.0084 35.2987 28.9653 34.6222 27.7616C33.9457 26.558 33.1938 25.3644 32.8625 24.0064C32.7295 23.4612 32.6372 22.8361 32.8725 22.3041C33.0124 21.9884 33.3383 21.5309 33.6743 21.3517C33.8204 21.7061 33.9664 22.0613 34.1378 22.4033C34.4915 23.1083 34.8789 23.8071 35.2848 24.4826C36.1312 25.8894 37.1429 27.0993 38.2499 28.2991C38.7696 28.8629 39.2378 29.4453 39.6652 30.082C40.0965 30.7234 40.597 31.3539 40.8783 32.0822C41.5064 33.7031 42.1791 35.2891 42.9732 36.8371C43.3868 37.6436 43.6943 38.4642 44.0172 39.308C44.3024 40.0525 44.6391 41.1072 45.5839 41.1189C45.7453 41.1212 45.8983 41.0018 45.9406 40.8451C46.0182 40.555 45.9859 40.2797 45.9045 40.0106C45.9629 40.0455 46.0205 40.0804 46.0797 40.1145C46.8854 40.5837 47.7172 41.0087 48.519 41.4849C49.6222 42.1395 50.617 40.417 49.5207 39.7555Z" fill="#221E1F"/>
</svg>
